<svg width="16" height="16" viewBox="0 0 16 16" fill="none" xmlns="http://www.w3.org/2000/svg">
<path d="M2.07 14.93V4.69H6.07V1.07H11.93V5.66C12.2992 5.78227 12.6572 5.93617 13 6.12V0H5L1 3.73V16H7C6.57015 15.6968 6.18331 15.3369 5.85 14.93H2.07ZM5 1.41V3.63H2.66L5 1.41Z" fill="#0E0E0E"/>
<path d="M15 10.62C14.9077 9.96997 14.6825 9.34592 14.3384 8.78676C13.9943 8.2276 13.5387 7.74532 13 7.37C12.671 7.13471 12.3109 6.94625 11.93 6.81C11.5842 6.66674 11.2211 6.56924 10.85 6.52C10.6436 6.50476 10.4364 6.50476 10.23 6.52C9.24417 6.51741 8.28207 6.82225 7.47762 7.3921C6.67317 7.96195 6.06642 8.76845 5.74183 9.69931C5.41724 10.6302 5.39096 11.6391 5.66666 12.5856C5.94236 13.5321 6.50631 14.369 7.28 14.98C7.94931 15.5223 8.75583 15.8684 9.61 15.98C9.81641 15.9946 10.0236 15.9946 10.23 15.98C10.9098 15.9869 11.5831 15.848 12.2048 15.5728C12.8264 15.2977 13.3819 14.8925 13.8338 14.3847C14.2858 13.8768 14.6237 13.2781 14.8248 12.6287C15.026 11.9793 15.0857 11.2944 15 10.62ZM13 13.67C12.6941 14.0038 12.3319 14.2814 11.93 14.49C11.406 14.7675 10.8229 14.915 10.23 14.92H9.75C8.94605 14.8108 8.20028 14.4404 7.62749 13.8658C7.05469 13.2912 6.68665 12.5443 6.58 11.74C6.50945 11.2179 6.55244 10.6867 6.70604 10.1828C6.85964 9.67883 7.12023 9.21398 7.47 8.82C7.81578 8.42867 8.24049 8.11498 8.71618 7.89953C9.19188 7.68409 9.70779 7.57179 10.23 7.57C10.393 7.55515 10.557 7.55515 10.72 7.57C11.1495 7.63785 11.5629 7.78357 11.94 8C12.3362 8.20876 12.6945 8.48257 13 8.81C13.5947 9.47977 13.9231 10.3443 13.9231 11.24C13.9231 12.1357 13.5947 13.0002 13 13.67Z" fill="#0E0E0E"/>
<path d="M10.84 10.63V8.56H9.64V10.63H7.59V11.83H9.64V13.9H10.84V11.83H12.93V10.63H10.84Z" fill="#0E0E0E"/>
</svg>
