<svg width="16" height="16" viewBox="0 0 16 16" fill="none" xmlns="http://www.w3.org/2000/svg">
<g id="dds2_user-check" clip-path="url(#clip0_7172_1020)">
<g id="Vector">
<path d="M6 7.50982C6.66081 7.50193 7.30452 7.29877 7.85014 6.9259C8.39575 6.55304 8.8189 6.02712 9.06633 5.41434C9.31376 4.80155 9.37442 4.12927 9.24068 3.48209C9.10694 2.83491 8.78477 2.24175 8.31471 1.77724C7.84465 1.31272 7.2477 0.997616 6.59898 0.871564C5.95026 0.745513 5.27875 0.814149 4.66894 1.06884C4.05914 1.32352 3.53828 1.75288 3.17192 2.30289C2.80555 2.85289 2.61005 3.49897 2.61 4.15982C2.61262 4.60238 2.70238 5.04009 2.87416 5.44795C3.04595 5.85582 3.29638 6.22585 3.61118 6.53693C3.92597 6.84801 4.29895 7.09404 4.70883 7.26096C5.1187 7.42789 5.55744 7.51246 6 7.50982ZM6 1.86982C6.45249 1.8718 6.89425 2.00778 7.26952 2.26061C7.64479 2.51343 7.93675 2.87177 8.10854 3.29038C8.28033 3.709 8.32426 4.16912 8.23477 4.61268C8.14529 5.05623 7.9264 5.46334 7.60574 5.7826C7.28509 6.10186 6.87703 6.31897 6.43309 6.40652C5.98915 6.49408 5.52922 6.44815 5.11136 6.27453C4.6935 6.10092 4.33644 5.8074 4.08525 5.43103C3.83406 5.05466 3.7 4.61231 3.7 4.15982C3.7 3.85825 3.75956 3.55965 3.87527 3.28116C3.99098 3.00267 4.16055 2.74978 4.37426 2.537C4.58796 2.32422 4.84159 2.15575 5.12058 2.04126C5.39957 1.92677 5.69843 1.8685 6 1.86982Z" fill="#0E0E0E"/>
<path d="M3.1 8.24982C3.94776 8.82203 4.9472 9.12776 5.97 9.12776C6.9928 9.12776 7.99224 8.82203 8.84 8.24982C9.72047 9.00133 10.3459 10.0076 10.63 11.1298L11.48 10.2898C11.0571 9.01366 10.2282 7.91091 9.12 7.14982L8.79 6.92982L8.49 7.17982C7.78055 7.74783 6.89882 8.05732 5.99 8.05732C5.08118 8.05732 4.19945 7.74783 3.49 7.17982L3.19 6.92982L2.86 7.13982C2.09602 7.70077 1.45392 8.41102 0.972611 9.22752C0.491307 10.044 0.180829 10.9498 0.06 11.8898L0 12.4698H5.27L6.27 11.4098H1.23C1.4933 10.1812 2.14977 9.0719 3.1 8.24982Z" fill="#0E0E0E"/>
<path d="M15.25 8.09982L9.61 13.7098L7.61 11.7098L6.87 12.4698L9.67 15.1898L16 8.84982L15.25 8.09982Z" fill="#0E0E0E"/>
</g>
</g>
<defs>
<clipPath id="clip0_7172_1020">
<rect width="16" height="16" fill="white"/>
</clipPath>
</defs>
</svg>
