<svg width="16" height="16" viewBox="0 0 16 16" fill="none" xmlns="http://www.w3.org/2000/svg">
<g id="dds2_alarm-bell" clip-path="url(#clip0_7172_805)">
<path id="Vector" d="M8 16C7.41652 16 6.85694 15.7682 6.44436 15.3556C6.03178 14.9431 5.8 14.3835 5.8 13.8V13.32H10.2V13.8C10.1974 14.3827 9.96474 14.9407 9.55272 15.3527C9.14071 15.7647 8.58266 15.9974 8 16ZM6.84 14.29C6.93519 14.5189 7.09631 14.7143 7.30287 14.8515C7.50942 14.9886 7.75208 15.0612 8 15.06C8.24367 15.0593 8.48174 14.9869 8.68449 14.8517C8.88724 14.7166 9.04567 14.5247 9.14 14.3H6.84V14.29ZM14.84 12.46H1.13C0.986367 12.4591 0.846394 12.4146 0.728558 12.3325C0.610723 12.2504 0.520567 12.1344 0.469996 12C0.454093 11.9107 0.454093 11.8193 0.469996 11.73C0.468532 11.5394 0.536012 11.3547 0.659996 11.21L3.11 8.78V4.89C3.11 3.59309 3.62519 2.3493 4.54224 1.43225C5.4593 0.515195 6.70309 0 8 0C9.2969 0 10.5407 0.515195 11.4577 1.43225C12.3748 2.3493 12.89 3.59309 12.89 4.89V8.78L15.37 11.24C15.501 11.3812 15.5726 11.5674 15.57 11.76C15.5797 11.8364 15.5797 11.9136 15.57 11.99C15.5221 12.1298 15.4319 12.2511 15.3118 12.3372C15.1917 12.4232 15.0477 12.4696 14.9 12.47L14.84 12.46ZM1.63 11.46H14.34L11.91 9V4.94C11.91 3.903 11.498 2.90848 10.7648 2.17521C10.0315 1.44195 9.03699 1.03 8 1.03C6.963 1.03 5.96848 1.44195 5.23521 2.17521C4.50194 2.90848 4.09 3.903 4.09 4.94V9L1.63 11.46Z" fill="#0E0E0E"/>
</g>
<defs>
<clipPath id="clip0_7172_805">
<rect width="16" height="16" fill="white"/>
</clipPath>
</defs>
</svg>
