<svg width="16" height="16" viewBox="0 0 16 16" fill="none" xmlns="http://www.w3.org/2000/svg">
<g id="dds2_app-window-search" clip-path="url(#clip0_7172_944)">
<g id="Vector">
<path d="M6.88 12.33H1.07V4.99999H12.84V5.74999C13.2322 5.98909 13.589 6.28193 13.9 6.61999V0.899994H0V13.39H8C7.56883 13.1033 7.19001 12.7447 6.88 12.33ZM1.07 1.99999H12.84V3.99999H1.07V1.99999Z" fill="#0E0E0E"/>
<path d="M13.9 12.25L13.35 11.7C13.6085 11.3463 13.7954 10.9454 13.9 10.52C13.9688 10.2386 14.0024 9.94969 14 9.65999C13.9916 9.16895 13.8826 8.68485 13.6796 8.23764C13.4766 7.79042 13.1841 7.38961 12.82 7.05999C12.4785 6.7349 12.0744 6.4828 11.6322 6.3191C11.1901 6.15539 10.7192 6.0835 10.2484 6.10783C9.7775 6.13215 9.31655 6.25217 8.89362 6.46057C8.4707 6.66896 8.09468 6.96136 7.78852 7.31991C7.48235 7.67846 7.25247 8.09564 7.1129 8.54599C6.97333 8.99634 6.927 9.47041 6.97673 9.93926C7.02647 10.4081 7.17123 10.8619 7.40218 11.2729C7.63313 11.684 7.94543 12.0437 8.32 12.33C8.91087 12.8309 9.65466 13.1156 10.4289 13.1374C11.2032 13.1593 11.9619 12.9168 12.58 12.45L15.23 15.1L15.98 14.34L13.88 12.25H13.9ZM12.84 10.38C12.6678 10.9325 12.3033 11.405 11.8127 11.7119C11.322 12.0187 10.7376 12.1395 10.1654 12.0524C9.59331 11.9654 9.07133 11.6761 8.69415 11.2372C8.31698 10.7983 8.10959 10.2387 8.10959 9.65999C8.10959 9.08127 8.31698 8.52171 8.69415 8.08279C9.07133 7.64386 9.59331 7.35463 10.1654 7.26755C10.7376 7.18047 11.322 7.3013 11.8127 7.60813C12.3033 7.91496 12.6678 8.38748 12.84 8.93999C13 9.40666 13 9.91333 12.84 10.38Z" fill="#0E0E0E"/>
</g>
</g>
<defs>
<clipPath id="clip0_7172_944">
<rect width="16" height="16" fill="white"/>
</clipPath>
</defs>
</svg>
