<svg width="16" height="16" viewBox="0 0 16 16" fill="none" xmlns="http://www.w3.org/2000/svg">
<g clip-path="url(#clip0_7172_817)">
<path d="M16 10.29C15.9908 9.98828 15.9608 9.68756 15.91 9.39C15.6775 8.02249 14.95 6.78831 13.8662 5.92256C12.7824 5.05682 11.418 4.62003 10.0329 4.6954C8.64786 4.77077 7.3389 5.35303 6.35544 6.33127C5.37198 7.3095 4.78275 8.61534 4.7 10C4.7 10.1 4.7 10.2 4.7 10.3C4.7 10.4 4.7 10.39 4.7 10.43C4.72412 11.3456 4.97127 12.2415 5.42 13.04C5.62846 13.4234 5.88375 13.7795 6.18 14.1C6.89997 14.893 7.83088 15.4646 8.86382 15.748C9.89676 16.0313 10.989 16.0146 12.0129 15.6999C13.0367 15.3852 13.9497 14.7855 14.6452 13.9709C15.3406 13.1563 15.7898 12.1605 15.94 11.1C15.94 10.85 16.01 10.61 16.02 10.36V10.27L16 10.29ZM14.93 10.38C14.9178 11.3534 14.5916 12.2969 14 13.07C13.7011 13.484 13.3322 13.8428 12.91 14.13C12.1483 14.6542 11.2447 14.9333 10.32 14.93C9.39817 14.9351 8.49721 14.6558 7.74 14.13C7.08422 13.6857 6.55427 13.0796 6.2015 12.3704C5.84872 11.6612 5.68506 10.8729 5.72637 10.0818C5.76768 9.29078 6.01256 8.52381 6.43729 7.85519C6.86203 7.18657 7.45222 6.63896 8.15071 6.2654C8.84921 5.89183 9.63233 5.70496 10.4242 5.72289C11.2162 5.74083 11.99 5.96295 12.6709 6.36775C13.3518 6.77256 13.9166 7.34632 14.3106 8.03348C14.7046 8.72064 14.9145 9.4979 14.92 10.29V10.38H14.93Z" fill="#0E0E0E"/>
<path d="M1.07 13.06V1.06H5.44L6.92 3.2H14.92V5.42C15.3333 5.7987 15.6963 6.22888 16 6.7V2.13H7.48L6 0H0V14.13H4.78C4.54646 13.7949 4.34871 13.4363 4.19 13.06H1.07Z" fill="#0E0E0E"/>
<path d="M11.21 10.15C10.9709 10.0323 10.7236 9.932 10.47 9.85C10.2504 9.78436 10.039 9.69377 9.84 9.58C9.74812 9.52874 9.66939 9.45685 9.61 9.37C9.58583 9.26133 9.58583 9.14867 9.61 9.04C9.60605 8.95315 9.62202 8.86655 9.65668 8.78682C9.69135 8.70709 9.74379 8.63634 9.81 8.58C9.9831 8.45018 10.1936 8.38 10.41 8.38C10.6264 8.38 10.8369 8.45018 11.01 8.58C11.1663 8.75911 11.2454 8.99278 11.23 9.23V9.6H12.15V9.26C12.155 8.79625 11.9875 8.34719 11.68 8C11.4558 7.75767 11.1626 7.5901 10.84 7.52V6.85H9.91V7.51C9.61001 7.56239 9.33191 7.70144 9.11 7.91C8.95196 8.05373 8.82715 8.23018 8.74426 8.42706C8.66136 8.62394 8.62237 8.83652 8.63 9.05C8.6275 9.3023 8.68221 9.55188 8.79 9.78C8.90958 9.99848 9.08135 10.184 9.29 10.32C9.55866 10.4956 9.85184 10.6304 10.16 10.72C10.4123 10.805 10.6566 10.912 10.89 11.04C10.9907 11.0953 11.0765 11.1742 11.14 11.27C11.1899 11.3655 11.214 11.4723 11.21 11.58C11.2062 11.6608 11.1856 11.7399 11.1494 11.8122C11.1132 11.8845 11.0623 11.9485 11 12C10.8291 12.1411 10.6113 12.2125 10.39 12.2C10.1238 12.2296 9.85615 12.1582 9.64 12C9.55685 11.9165 9.49244 11.8162 9.45106 11.7059C9.40968 11.5955 9.39227 11.4776 9.4 11.36V11H8.48V11.37C8.47287 11.6078 8.51544 11.8445 8.60497 12.0649C8.69451 12.2853 8.82905 12.4846 9 12.65C9.27504 12.9088 9.62525 13.0734 10 13.12V13.78H10.93V13.11C11.2317 13.0503 11.5096 12.9044 11.73 12.69C11.8823 12.5471 12.0022 12.3731 12.0816 12.1799C12.1609 11.9867 12.1979 11.7787 12.19 11.57C12.1635 11.3697 12.099 11.1762 12 11C11.9276 10.8225 11.8186 10.6624 11.68 10.53C11.5492 10.3743 11.3897 10.2452 11.21 10.15Z" fill="#0E0E0E"/>
</g>
<defs>
<clipPath id="clip0_7172_817">
<rect width="16" height="16" fill="white"/>
</clipPath>
</defs>
</svg>
