<svg width="16" height="16" viewBox="0 0 16 16" fill="none" xmlns="http://www.w3.org/2000/svg">
<path d="M2.07 14.93V4.69H6.07V1.07H11.94V6.07C12.3528 6.40552 12.7105 6.80369 13 7.25V0H4.94L1 3.73V16H12.73L11.67 14.93H2.07ZM5 1.4V3.63H2.66L5 1.4Z" fill="#0E0E0E"/>
<path d="M13 13.23L12 12.23C12.5182 11.5658 12.7996 10.7474 12.7996 9.905C12.7996 9.06255 12.5182 8.24424 12 7.58C11.5361 6.97276 10.9023 6.51689 10.1791 6.27014C9.45584 6.0234 8.67562 5.99688 7.93729 6.19395C7.19896 6.39102 6.53573 6.80281 6.03164 7.37716C5.52756 7.9515 5.20529 8.66254 5.10567 9.4202C5.00605 10.1779 5.13357 10.948 5.47206 11.6332C5.81055 12.3183 6.34479 12.8875 7.00708 13.2688C7.66938 13.65 8.42993 13.826 9.19238 13.7746C9.95483 13.7232 10.6849 13.4467 11.29 12.98L14.29 15.98L15.04 15.22L13.04 13.22L13 13.23ZM8.92 12.69C8.36975 12.692 7.83128 12.5306 7.3728 12.2264C6.91432 11.9221 6.55644 11.4886 6.3445 10.9808C6.13255 10.473 6.07607 9.91373 6.1822 9.37381C6.28834 8.83388 6.55232 8.3376 6.9407 7.94781C7.32909 7.55802 7.82442 7.29225 8.36396 7.18417C8.9035 7.07609 9.46298 7.13056 9.97154 7.34067C10.4801 7.55079 10.9149 7.9071 11.2208 8.36448C11.5267 8.82186 11.69 9.35974 11.69 9.91C11.6913 10.2746 11.6206 10.6359 11.482 10.9731C11.3434 11.3103 11.1396 11.6169 10.8822 11.8752C10.6249 12.1334 10.3191 12.3384 9.98235 12.4782C9.64562 12.618 9.28461 12.69 8.92 12.69Z" fill="#0E0E0E"/>
</svg>
