<svg width="16" height="16" viewBox="0 0 16 16" fill="none" xmlns="http://www.w3.org/2000/svg">
<g id="dds2_server-rack-arrow-right" clip-path="url(#clip0_7172_472)">
<g id="Vector">
<path d="M7.94 1.81H10.33V2.88H7.94V1.81Z" fill="#0E0E0E"/>
<path d="M12.19 3.72V0H0V4.69H11.22L12.22 3.69L12.19 3.72ZM11.12 3.62H1.12V1.07H11.12V3.62Z" fill="#0E0E0E"/>
<path d="M11.9 9.27H1.07V6.73H11.85L10.85 5.67H0V10.35H10.8L11.9 9.27Z" fill="#0E0E0E"/>
<path d="M0 11.31V16H12.19V12.28L11.19 11.28L0 11.31ZM11.12 14.93H1.12V12.38H11.12V14.93Z" fill="#0E0E0E"/>
<path d="M7.94 13.12H10.33V14.19H7.94V13.12Z" fill="#0E0E0E"/>
<path d="M12.71 4.7L12 5.39L14.13 7.53H9.56V8.53H14.13L12 10.61L12.68 11.3L16 8L12.71 4.7Z" fill="#0E0E0E"/>
</g>
</g>
<defs>
<clipPath id="clip0_7172_472">
<rect width="16" height="16" fill="white"/>
</clipPath>
</defs>
</svg>
