<svg width="16" height="16" viewBox="0 0 16 16" fill="none" xmlns="http://www.w3.org/2000/svg">
<g id="dds2_shield">
<path id="Vector" d="M2 0V8.31C2.11058 10.0466 2.74234 11.7094 3.81275 13.0813C4.88316 14.4532 6.34245 15.4704 8 16C9.65755 15.4704 11.1168 14.4532 12.1873 13.0813C13.2577 11.7094 13.8894 10.0466 14 8.31V0H2ZM13 8.28C12.9027 9.74595 12.3769 11.151 11.488 12.3208C10.5992 13.4906 9.38629 14.3735 8 14.86C6.95608 14.4647 6.0075 13.8533 5.21647 13.0657C4.42544 12.2781 3.80982 11.3322 3.41 10.29L9.09 5L8.36 4.22L3.12 9.1C3.05475 8.83096 3.01458 8.55645 3 8.28V1.07H13V3.54L6.32 9.74L7.05 10.52L13 5V8.28Z" fill="#0E0E0E"/>
</g>
</svg>
