<svg width="16" height="16" viewBox="0 0 16 16" fill="none" xmlns="http://www.w3.org/2000/svg">
<g id="dds2_recycle" clip-path="url(#clip0_7172_324)">
<g id="Vector">
<path d="M6.42 6.37018C6.42 6.37018 7.5 4.52018 8.3 3.13018L9 4.34018L7.54 5.18018H11.84L14 1.43018L12.48 2.30018L11.77 1.07018C11.6198 0.807783 11.405 0.588222 11.1459 0.432424C10.8868 0.276626 10.5922 0.189784 10.29 0.180176H6.29C6.01199 0.188608 5.74082 0.268478 5.50263 0.412096C5.26443 0.555714 5.06723 0.758242 4.93 1.00018C4.71 1.35018 4.05 2.49018 3.03 4.30018L2.77 4.74018L6.22 6.74018L6.42 6.40018V6.37018ZM10 4.40018L8.76 2.33018L9.14 1.67018C9.25188 1.46603 9.41692 1.29596 9.61763 1.178C9.81833 1.06004 10.0472 0.998598 10.28 1.00018C10.4501 1.00363 10.6166 1.05045 10.7636 1.13619C10.9106 1.22194 11.0332 1.34378 11.12 1.49018L12.12 3.19018L11.38 4.40018H10ZM6.3 1.00018H8.64C8.56535 1.09461 8.49846 1.19494 8.44 1.30018C8.16 1.80018 6.59 4.51018 5.93 5.65018L3.86 4.43018C4.32 3.62018 5.32 1.86018 5.61 1.43018C5.6777 1.3047 5.77695 1.19905 5.89796 1.12364C6.01896 1.04823 6.15753 1.00568 6.3 1.00018Z" fill="#0E0E0E"/>
<path d="M5 8.83018L6.5 9.70018L4.34 5.94018H0L1.49 6.80018L0.78 8.00018C0.625528 8.26773 0.544205 8.57123 0.544205 8.88018C0.544205 9.18912 0.625528 9.49262 0.78 9.76018L2.78 13.2202C2.91983 13.4545 3.11727 13.6492 3.35356 13.7857C3.58985 13.9223 3.85714 13.9961 4.13 14.0002H8.45V10.0002H4.31C4.58 9.54018 4.84 9.08018 5.01 8.78018L5 8.83018ZM3.46 11.5202C3.55 11.3802 3.69 11.1302 3.85 10.8502H7.66V13.2402C6.89 13.2402 4.72 13.2402 4.15 13.2402C4.01064 13.2415 3.87324 13.2074 3.75076 13.1409C3.62828 13.0744 3.52477 12.9778 3.45 12.8602C3.33239 12.6565 3.27047 12.4254 3.27047 12.1902C3.27047 11.955 3.33239 11.7239 3.45 11.5202H3.46ZM3.88 6.74018L4.59 8.00018L4.45 8.24018C4.17 8.73018 3.1 10.6102 2.78 11.1402C2.7207 11.2403 2.66727 11.3438 2.62 11.4502L1.46 9.45018C1.36591 9.30038 1.31599 9.12707 1.31599 8.95018C1.31599 8.77328 1.36591 8.59997 1.46 8.45018L2.46 6.75018L3.88 6.74018Z" fill="#0E0E0E"/>
<path d="M15.78 8.22018C15.65 7.96018 15.21 7.22018 13.89 4.94018L13.62 4.47018L10.17 6.47018L12.24 10.0602H10.83V8.32018L8.67 12.0902L10.83 15.8202V14.1202H12.27C12.5786 14.1202 12.8818 14.04 13.1501 13.8875C13.4183 13.735 13.6423 13.5154 13.8 13.2502L15.8 9.79018C15.9348 9.54975 16.0039 9.27809 16.0004 9.0025C15.9968 8.7269 15.9208 8.45709 15.78 8.22018ZM10.3 13.3202L9.59 12.0902L10.3 10.8502H13.93C14.0431 10.8601 14.1569 10.8601 14.27 10.8502L13.11 12.8502C13.0199 12.9943 12.8946 13.1131 12.7459 13.1953C12.5972 13.2775 12.4299 13.3205 12.26 13.3202H10.3ZM11.3 6.76018L13.37 5.56018C14.32 7.18018 14.94 8.25018 15.13 8.56018C15.1965 8.68301 15.2314 8.82049 15.2314 8.96018C15.2314 9.09986 15.1965 9.23734 15.13 9.36018C15.0111 9.56413 14.8401 9.73275 14.6344 9.84874C14.4288 9.96473 14.196 10.0239 13.96 10.0202H13.18L11.28 6.72018L11.3 6.76018Z" fill="#0E0E0E"/>
</g>
</g>
<defs>
<clipPath id="clip0_7172_324">
<rect width="16" height="16" fill="white"/>
</clipPath>
</defs>
</svg>
