<svg width="16" height="16" viewBox="0 0 16 16" fill="none" xmlns="http://www.w3.org/2000/svg">
<g clip-path="url(#clip0_7172_418)">
<path d="M9.08 1.93116e-05C7.59156 0.00818498 6.14333 0.483933 4.94 1.36002C5.56985 1.19574 6.21919 1.11835 6.87 1.13002C7.20451 1.11545 7.53963 1.13555 7.87 1.19002C8.27835 1.0879 8.69968 1.04745 9.12 1.07002C10.661 1.07795 12.1362 1.69568 13.2231 2.78816C14.3099 3.88064 14.92 5.35899 14.92 6.90002C14.9132 7.31546 14.8764 7.72986 14.81 8.14002C14.8624 8.47062 14.8825 8.80553 14.87 9.14002C14.8477 9.76554 14.7708 10.3879 14.64 11C15.5276 9.81784 16.0051 8.37829 16 6.90002C16.0053 5.99072 15.8298 5.08943 15.4837 4.24857C15.1376 3.4077 14.6278 2.64404 13.9838 2.00199C13.3399 1.35994 12.5748 0.852308 11.7329 0.508622C10.8911 0.164936 9.98928 -0.00794954 9.08 1.93116e-05Z" fill="#0E0E0E"/>
<path d="M8.17 10.18H5.84C5.81938 10.8336 6.02025 11.475 6.41 12C6.60374 12.2095 6.8413 12.3737 7.10576 12.4809C7.37023 12.5881 7.65508 12.6356 7.94 12.62C8.38765 12.6317 8.8331 12.5535 9.25 12.39L9.36 13.39C8.8957 13.5062 8.4186 13.5633 7.94 13.56C7.51591 13.5826 7.09165 13.5189 6.69288 13.3728C6.29412 13.2267 5.92913 13.0012 5.62 12.71C5.01767 12.026 4.69305 11.1413 4.71 10.23H3.63V9.44002H4.71V8.65002H3.63V7.92002H4.71C4.70394 7.02263 5.02779 6.15428 5.62 5.48002C5.93124 5.1925 6.29681 4.97009 6.69521 4.82583C7.09362 4.68158 7.51684 4.61841 7.94 4.64002C8.41819 4.64362 8.89448 4.70064 9.36 4.81002L9.25 5.71002C8.82434 5.58026 8.38441 5.50302 7.94 5.48002C7.65479 5.46979 7.3707 5.52071 7.1068 5.62938C6.8429 5.73804 6.60531 5.90193 6.41 6.11002C6.01132 6.60344 5.8084 7.22645 5.84 7.86002H8.11V8.59002H5.79V9.39002H8.11V10.18H8.17Z" fill="#0E0E0E"/>
<path d="M6.9 3.27002C8.05307 3.27002 9.18024 3.61194 10.139 4.25255C11.0977 4.89316 11.845 5.80368 12.2862 6.86898C12.7275 7.93427 12.8429 9.10649 12.618 10.2374C12.393 11.3683 11.8378 12.4071 11.0224 13.2225C10.2071 14.0378 9.16829 14.593 8.03738 14.818C6.90647 15.0429 5.73425 14.9275 4.66896 14.4862C3.60367 14.045 2.69314 13.2977 2.05254 12.339C1.41193 11.3803 1.07 10.2531 1.07 9.10002C1.07 7.55381 1.68423 6.07092 2.77757 4.97759C3.87091 3.88425 5.35379 3.27002 6.9 3.27002ZM6.9 2.20002C5.53531 2.20002 4.20127 2.6047 3.06657 3.36288C1.93187 4.12106 1.04748 5.19869 0.525234 6.4595C0.00298965 7.72031 -0.133653 9.10767 0.132585 10.4461C0.398823 11.7846 1.05598 13.0141 2.02097 13.9791C2.98595 14.944 4.21541 15.6012 5.55388 15.8674C6.89235 16.1337 8.27971 15.997 9.54052 15.4748C10.8013 14.9525 11.879 14.0682 12.6371 12.9335C13.3953 11.7988 13.8 10.4647 13.8 9.10002C13.8 8.1939 13.6215 7.29665 13.2748 6.4595C12.928 5.62236 12.4198 4.86171 11.779 4.22098C11.1383 3.58026 10.3777 3.07201 9.54052 2.72525C8.70337 2.37849 7.80612 2.20002 6.9 2.20002Z" fill="#0E0E0E"/>
</g>
<defs>
<clipPath id="clip0_7172_418">
<rect width="16" height="16" fill="white"/>
</clipPath>
</defs>
</svg>
