<svg width="16" height="16" viewBox="0 0 16 16" fill="none" xmlns="http://www.w3.org/2000/svg">
<g id="dds2_gaming-desktop" clip-path="url(#clip0_7172_1121)">
<path id="Vector" d="M7 4.58V0H0V16H7V14.06L6.92 14.15C6.66921 14.4132 6.35629 14.6092 6.01 14.72H6V15H1V1H6V5.13C6 5.13 6.92 4.6 7 4.58ZM5 4H2V3H5V4ZM12.29 6.41L13.34 7C13.4875 7.08564 13.6085 7.21018 13.69 7.36C14.3865 8.68673 14.8306 10.1312 15 11.62V11.67C15.0107 11.7496 15.0107 11.8304 15 11.91C15.0034 12.239 14.8819 12.557 14.66 12.8L13.22 11.2C13.043 11.0011 12.8257 10.8421 12.5827 10.7335C12.3396 10.6249 12.0762 10.5692 11.81 10.57H8.3C8.03525 10.5693 7.7734 10.6252 7.53197 10.7338C7.29054 10.8425 7.07508 11.0014 6.9 11.2L5.44 12.8C5.2132 12.5514 5.08826 12.2265 5.09 11.89C5.08505 11.8101 5.08505 11.7299 5.09 11.65C5.23429 10.1594 5.66196 8.71012 6.35 7.38C6.42798 7.2225 6.54943 7.09064 6.7 7L7.78 6.4C8.08891 6.56239 8.43111 6.65136 8.78 6.66H11.28C11.6107 6.66772 11.9368 6.581 12.22 6.41H12.29ZM12.29 5.41C12.1167 5.40905 11.9467 5.45762 11.8 5.55C11.6606 5.63144 11.5014 5.67296 11.34 5.67H8.84C8.62859 5.67103 8.41981 5.62311 8.23 5.53C8.09019 5.44949 7.93132 5.40805 7.77 5.41C7.59516 5.41143 7.42339 5.45609 7.27 5.54L6.19 6.16C5.86994 6.33436 5.61151 6.60327 5.45 6.93C4.72459 8.34958 4.27337 9.89321 4.12 11.48C4.10928 11.6064 4.10928 11.7336 4.12 11.86C4.11904 12.4384 4.33696 12.9957 4.73 13.42C4.82236 13.5224 4.93488 13.6045 5.06051 13.6613C5.18613 13.7181 5.32215 13.7483 5.46 13.75C5.59954 13.7497 5.73747 13.7201 5.86492 13.6633C5.99237 13.6065 6.10651 13.5236 6.2 13.42L7.67 11.83C7.75212 11.7324 7.8547 11.654 7.97049 11.6004C8.08627 11.5468 8.21242 11.5194 8.34 11.52H11.81C11.9362 11.5219 12.0607 11.5495 12.1759 11.6011C12.291 11.6527 12.3945 11.7271 12.48 11.82L13.92 13.42C14.0135 13.5236 14.1276 13.6065 14.2551 13.6633C14.3825 13.7201 14.5205 13.7497 14.66 13.75C14.7995 13.7497 14.9375 13.7201 15.0649 13.6633C15.1924 13.6065 15.3065 13.5236 15.4 13.42C15.7841 13.0028 15.9981 12.457 16 11.89C16.0099 11.7669 16.0099 11.6431 16 11.52C15.8447 9.91068 15.3831 8.34591 14.64 6.91C14.4676 6.57595 14.1995 6.3009 13.87 6.12L12.82 5.53C12.6705 5.4453 12.5018 5.40053 12.33 5.4L12.29 5.41Z" fill="#0E0E0E"/>
</g>
<defs>
<clipPath id="clip0_7172_1121">
<rect width="16" height="16" fill="white"/>
</clipPath>
</defs>
</svg>
