<svg width="16" height="16" viewBox="0 0 16 16" fill="none" xmlns="http://www.w3.org/2000/svg">
<g id="dds2_microphone-on">
<g id="Vector">
<path d="M11 6.66999V8.41999C11.0391 8.83684 10.9905 9.25726 10.8573 9.65419C10.7241 10.0511 10.5094 10.4158 10.2268 10.7247C9.94422 11.0337 9.60011 11.2801 9.2166 11.448C8.83309 11.616 8.41866 11.7018 7.99999 11.7C7.58131 11.7018 7.16689 11.616 6.78338 11.448C6.39987 11.2801 6.05576 11.0337 5.77319 10.7247C5.49062 10.4158 5.27584 10.0511 5.14268 9.65419C5.00951 9.25726 4.96091 8.83684 4.99999 8.41999V6.66999H3.99999V8.41999C3.92652 9.45119 4.25516 10.4708 4.91699 11.265C5.57882 12.0592 6.52244 12.5663 7.54999 12.68V14.68H5.11999V15.68H10.88V14.68H8.50999V12.68C9.53753 12.5663 10.4812 12.0592 11.143 11.265C11.8048 10.4708 12.1335 9.45119 12.06 8.41999V6.66999H11Z" fill="#0E0E0E"/>
<path d="M7.99999 10.87C8.31444 10.8819 8.62766 10.8246 8.91755 10.7022C9.20744 10.5798 9.46693 10.3953 9.6777 10.1616C9.88847 9.92794 10.0454 9.65087 10.1374 9.34994C10.2293 9.049 10.2541 8.73155 10.21 8.41999V2.61999C10.2388 2.31707 10.2024 2.01149 10.1032 1.72382C10.0041 1.43614 9.84439 1.17306 9.63498 0.952289C9.42558 0.731513 9.1713 0.558168 8.88927 0.443924C8.60724 0.32968 8.30401 0.277191 7.99999 0.289989C7.69553 0.275516 7.39153 0.326864 7.10872 0.440533C6.82591 0.554201 6.57093 0.727517 6.36117 0.948664C6.15141 1.16981 5.99181 1.43359 5.89324 1.72201C5.79467 2.01043 5.75945 2.31672 5.78999 2.61999V8.41999C5.74586 8.73155 5.77065 9.049 5.86263 9.34994C5.9546 9.65087 6.11151 9.92794 6.32228 10.1616C6.53305 10.3953 6.79253 10.5798 7.08242 10.7022C7.37232 10.8246 7.68554 10.8819 7.99999 10.87ZM6.81999 2.61999C6.81999 1.75999 7.22999 1.31999 7.99999 1.31999C8.99999 1.31999 9.17999 2.02999 9.17999 2.61999V8.41999C9.17999 9.83999 8.31999 9.83999 7.99999 9.83999C7.67999 9.83999 6.81999 9.83999 6.81999 8.41999V2.61999Z" fill="#0E0E0E"/>
</g>
</g>
</svg>
