<svg width="16" height="16" viewBox="0 0 16 16" fill="none" xmlns="http://www.w3.org/2000/svg">
<path d="M8 14.93H2.07V4.69H6.07V1.07H11.93V5.17H13V0H5L1 3.73V16H9.16C8.73125 15.6918 8.3417 15.3325 8 14.93ZM5 1.4V3.63H2.66L5 1.4Z" fill="#0E0E0E"/>
<path d="M7.65 6.27V11.32C7.68642 12.0185 7.86901 12.7017 8.18595 13.3252C8.5029 13.9488 8.94715 14.4989 9.49 14.94C10.0337 15.397 10.653 15.7557 11.32 16C11.9296 15.7804 12.4976 15.4592 13 15.05C13.592 14.6183 14.0792 14.0588 14.4254 13.4131C14.7716 12.7674 14.968 12.052 15 11.32V6.27H7.65ZM13.92 11.1V11.29C13.8819 12.1386 13.5577 12.9493 13 13.59C12.6909 13.948 12.3303 14.2581 11.93 14.51C11.7321 14.6357 11.5248 14.746 11.31 14.84C10.7226 14.5978 10.1962 14.2282 9.76908 13.7578C9.34192 13.2874 9.02458 12.728 8.84 12.12L12 9.24L11.28 8.46L8.71 10.8V7.33H13.93V9L10.55 12.13L11.27 12.91L13.93 10.45V11.07L13.92 11.1Z" fill="#0E0E0E"/>
</svg>
