<svg width="16" height="16" viewBox="0 0 16 16" fill="none" xmlns="http://www.w3.org/2000/svg">
<g clip-path="url(#clip0_7172_835)">
<path d="M1.06999 7.33001C1.06987 6.38388 1.2849 5.45011 1.69882 4.59932C2.11273 3.74853 2.7147 3.00301 3.45918 2.41914C4.20366 1.83526 5.07117 1.42833 5.99609 1.22911C6.92101 1.02989 7.87912 1.04361 8.79796 1.26922C9.7168 1.49483 10.5723 1.92643 11.2998 2.53137C12.0272 3.13632 12.6076 3.89876 12.997 4.76105C13.3864 5.62334 13.5746 6.56288 13.5474 7.50862C13.5202 8.45436 13.2783 9.38153 12.84 10.22L14.51 8.56001C14.5773 8.15332 14.614 7.74218 14.62 7.33001C14.6176 5.89198 14.1912 4.48659 13.394 3.28973C12.5969 2.09287 11.4644 1.15772 10.1384 0.601326C8.81233 0.0449284 7.35164 -0.108001 5.93913 0.16168C4.52661 0.43136 3.22501 1.11167 2.19723 2.11746C1.16946 3.12325 0.461166 4.40984 0.161011 5.8162C-0.139143 7.22256 -0.0178286 8.68621 0.509772 10.024C1.03737 11.3617 1.94782 12.5141 3.12716 13.337C4.3065 14.1598 5.70235 14.6166 7.13999 14.65L5.87999 13.41C4.51094 13.0859 3.2913 12.3093 2.4184 11.2059C1.5455 10.1025 1.07041 8.73691 1.06999 7.33001Z" fill="#0E0E0E"/>
<path d="M5.05999 7.33001C5.06197 7.77459 5.19561 8.20861 5.44404 8.5773C5.69247 8.946 6.04456 9.23283 6.45586 9.40159C6.86717 9.57036 7.31925 9.61349 7.75504 9.52555C8.19084 9.43761 8.59082 9.22253 8.90448 8.90747C9.21815 8.5924 9.43145 8.19148 9.51746 7.7553C9.60347 7.31911 9.55834 6.86723 9.38775 6.45668C9.21716 6.04613 8.92877 5.69531 8.55898 5.44852C8.18919 5.20173 7.75457 5.07001 7.30999 5.07001C7.01367 5.07001 6.72027 5.12853 6.44664 5.24223C6.173 5.35593 5.92452 5.52256 5.71546 5.73255C5.50639 5.94254 5.34087 6.19176 5.22838 6.4659C5.1159 6.74004 5.05868 7.03369 5.05999 7.33001ZM8.48999 7.33001C8.48998 7.56579 8.41993 7.79626 8.28873 7.99216C8.15752 8.18807 7.97107 8.34058 7.75305 8.43035C7.53502 8.52012 7.29524 8.54309 7.06413 8.49636C6.83303 8.44963 6.62101 8.33529 6.45499 8.16787C6.28897 8.00044 6.17643 7.78747 6.13165 7.55598C6.08687 7.32448 6.11187 7.08491 6.20347 6.86764C6.29508 6.65038 6.44916 6.46523 6.64616 6.33568C6.84317 6.20613 7.07422 6.13803 7.30999 6.14001C7.4658 6.14 7.62006 6.17085 7.76388 6.23078C7.9077 6.2907 8.03823 6.37852 8.14793 6.48915C8.25764 6.59978 8.34435 6.73105 8.40306 6.87537C8.46177 7.01969 8.49131 7.17421 8.48999 7.33001Z" fill="#0E0E0E"/>
<path d="M15.25 9.32001L10.05 14.5L9.76999 14.22L7.53999 12.05L6.78999 12.82L10.06 16L16 10.08L15.25 9.32001Z" fill="#0E0E0E"/>
</g>
<defs>
<clipPath id="clip0_7172_835">
<rect width="16" height="16" fill="white"/>
</clipPath>
</defs>
</svg>
