<svg width="16" height="16" viewBox="0 0 16 16" fill="none" xmlns="http://www.w3.org/2000/svg">
<g id="dds2_view-table">
<path id="Vector" d="M0 1V15H16V1H0ZM14.93 5.35H12.38V2.07H14.93V5.35ZM4.69 6.42H7.47V9.58H4.69V6.42ZM3.62 9.58H1.07V6.42H3.62V9.58ZM7.47 5.35H4.69V2.07H7.47V5.35ZM8.53 2.07H11.31V5.35H8.53V2.07ZM7.47 10.65V13.93H4.69V10.65H7.47ZM8.53 10.65H11.31V13.93H8.53V10.65ZM8.53 9.58V6.42H11.31V9.58H8.53ZM12.38 6.42H14.93V9.58H12.38V6.42ZM3.62 2.07V5.35H1.07V2.07H3.62ZM1.07 10.65H3.62V13.93H1.07V10.65ZM12.38 13.93V10.65H14.93V13.93H12.38Z" fill="#0E0E0E"/>
</g>
</svg>
