<svg width="16" height="16" viewBox="0 0 16 16" fill="none" xmlns="http://www.w3.org/2000/svg">
<g id="dds2_lcd">
<g id="Vector">
<path d="M16 10.75V1.75H0V10.75H6.25V13.23H3.75V14.29H12.25V13.23H9.75V10.75H16ZM8.68 10.75V13.22H7.32V10.75H8.68ZM1.07 2.75H14.93V9.65H1.07V2.75Z" fill="#0E0E0E"/>
<path d="M3.44 3.92H2.69V8.53H5.55V7.89H3.44V3.92Z" fill="#0E0E0E"/>
<path d="M8.54 7C8.52317 7.27062 8.40959 7.52616 8.22 7.72C8.02067 7.86572 7.77636 7.93654 7.53 7.92C7.37621 7.92627 7.2233 7.89385 7.08528 7.82571C6.94726 7.75758 6.82854 7.6559 6.74 7.53C6.53597 7.19708 6.43829 6.80986 6.46 6.42V6C6.43375 5.60066 6.53913 5.20373 6.76 4.87C6.85621 4.7449 6.98066 4.64435 7.12318 4.57656C7.2657 4.50878 7.42224 4.47569 7.58 4.48C7.82032 4.46412 8.05728 4.54311 8.24 4.7C8.41485 4.90148 8.52005 5.15398 8.54 5.42V5.49H9.3V5.42C9.27425 4.98861 9.08889 4.58224 8.78 4.28C8.45298 3.99068 8.02617 3.84004 7.59 3.86C7.23769 3.85238 6.8906 3.9461 6.59 4.13C6.30395 4.31024 6.07776 4.57124 5.94 4.88C5.77819 5.23067 5.69948 5.61394 5.71 6V6.43C5.67889 6.99527 5.85289 7.55277 6.2 8C6.36128 8.19153 6.5638 8.34409 6.79239 8.44626C7.02098 8.54844 7.26973 8.59758 7.52 8.59C7.96253 8.61504 8.39821 8.4722 8.74 8.19C9.06157 7.89372 9.25823 7.4861 9.29 7.05V7H8.54Z" fill="#0E0E0E"/>
<path d="M12.33 4.19C12.0086 4.00325 11.6416 3.90975 11.27 3.92H9.93V8.53H11.24C11.621 8.53961 11.9975 8.44634 12.33 8.26C12.6441 8.08566 12.8984 7.82084 13.06 7.5C13.2303 7.14444 13.3159 6.75422 13.31 6.36V6.08C13.3075 5.7048 13.2186 5.33522 13.05 5C12.9012 4.66099 12.6492 4.37755 12.33 4.19ZM12.57 6.09V6.35C12.5977 6.76176 12.4692 7.16883 12.21 7.49C12.0841 7.62757 11.9288 7.73499 11.7557 7.80424C11.5826 7.87349 11.396 7.90281 11.21 7.89H10.67V4.56H11.27C11.4563 4.54415 11.6438 4.57206 11.8174 4.64151C11.991 4.71096 12.146 4.82002 12.27 4.96C12.5037 5.28782 12.6103 5.68942 12.57 6.09Z" fill="#0E0E0E"/>
</g>
</g>
</svg>
