<svg width="16" height="16" viewBox="0 0 16 16" fill="none" xmlns="http://www.w3.org/2000/svg">
<g clip-path="url(#clip0_7172_976)">
<path d="M11.13 15H8.05996L6.99996 16H12.19V12C12.08 12 11.97 12 11.85 12C11.6084 11.997 11.3676 11.9736 11.13 11.93V15Z" fill="#0E0E0E"/>
<path d="M1.26996 14.92V4.69H5.26996V1.06H11.13V2.06C11.3678 2.01979 11.6087 1.99972 11.85 2C11.97 2 12.08 2 12.19 2V0H4.18996L0.209961 3.72V16H2.47996C2.22332 15.6898 2.03581 15.3284 1.92996 14.94L1.26996 14.92ZM4.20996 1.4V3.62H1.85996L4.20996 1.4Z" fill="#0E0E0E"/>
<path d="M15.18 4.79L13.39 6.58C13.243 6.72 13.0479 6.7981 12.845 6.7981C12.642 6.7981 12.4469 6.72 12.3 6.58C12.2246 6.50423 12.166 6.41341 12.1281 6.31347C12.0902 6.21353 12.0738 6.10671 12.08 6C12.0818 5.79853 12.1605 5.60536 12.3 5.46L14.1 3.67L13.37 3.36C12.6739 3.06582 11.908 2.97799 11.1635 3.10697C10.4189 3.23596 9.72719 3.57632 9.1707 4.0875C8.61421 4.59867 8.21645 5.25908 8.02483 5.99001C7.83321 6.72094 7.85582 7.49156 8.08996 8.21L3.41996 12.88C3.2507 13.0493 3.1167 13.2505 3.02573 13.4719C2.93475 13.6933 2.88861 13.9306 2.88996 14.17C2.88728 14.4111 2.93279 14.6502 3.0238 14.8735C3.11482 15.0967 3.24952 15.2995 3.41999 15.47C3.59045 15.6404 3.79326 15.7751 4.01649 15.8662C4.23973 15.9572 4.4789 16.0027 4.71996 16C5.1996 15.9979 5.65924 15.8076 5.99996 15.47L10.67 10.8C11.3637 11.0225 12.1057 11.0468 12.8125 10.8701C13.5192 10.6934 14.1626 10.3228 14.67 9.8C15.2167 9.24289 15.5886 8.53798 15.7396 7.77213C15.8906 7.00629 15.8143 6.21298 15.52 5.49L15.18 4.79ZM13.88 9.08C13.4769 9.48297 12.9627 9.75633 12.4032 9.86502C11.8437 9.97371 11.2646 9.91276 10.74 9.69L10.41 9.56L5.25996 14.71C5.11305 14.85 4.9179 14.9281 4.71496 14.9281C4.51203 14.9281 4.31687 14.85 4.16996 14.71C4.04587 14.5586 3.98497 14.3652 3.99996 14.17C4.00175 13.9685 4.08045 13.7754 4.21996 13.63L9.32996 8.47L9.18996 8.14C9.00259 7.70255 8.92693 7.22538 8.9698 6.75142C9.01267 6.27747 9.17273 5.82162 9.43556 5.42489C9.69839 5.02817 10.0557 4.70303 10.4755 4.47874C10.8952 4.25444 11.3641 4.13804 11.84 4.14H12.13L11.55 4.72C11.3783 4.88645 11.2413 5.08526 11.1469 5.30496C11.0525 5.52466 11.0025 5.76089 11 6C11 6.48593 11.1903 6.95254 11.53 7.3C11.8805 7.62977 12.3437 7.81338 12.825 7.81338C13.3062 7.81338 13.7694 7.62977 14.12 7.3L14.69 6.72C14.7414 7.58266 14.4503 8.43076 13.88 9.08Z" fill="#0E0E0E"/>
</g>
<defs>
<clipPath id="clip0_7172_976">
<rect width="16" height="16" fill="white"/>
</clipPath>
</defs>
</svg>
