<svg width="16" height="16" viewBox="0 0 16 16" fill="none" xmlns="http://www.w3.org/2000/svg">
<g id="dds2_weight-bell" clip-path="url(#clip0_7172_1119)">
<path id="Vector" d="M12.58 2.47018H10.76C10.637 1.82756 10.2944 1.24769 9.79093 0.829913C9.2874 0.412133 8.65427 0.182438 8 0.180176C7.34401 0.180117 6.70852 0.408756 6.20293 0.826734C5.69734 1.24471 5.35329 1.82587 5.23 2.47018H3.23L0 15.8202H16L12.58 2.47018ZM8 1.24018C8.37141 1.2425 8.73246 1.36294 9.03088 1.58407C9.32931 1.80519 9.54964 2.11553 9.66 2.47018H6.33C6.44087 2.1139 6.66271 1.80239 6.96315 1.58112C7.26358 1.35984 7.62687 1.24038 8 1.24018ZM4.06 3.53018H11.76L14.63 14.7602H1.35L4.06 3.53018Z" fill="#0E0E0E"/>
</g>
<defs>
<clipPath id="clip0_7172_1119">
<rect width="16" height="16" fill="white"/>
</clipPath>
</defs>
</svg>
