<svg width="16" height="16" viewBox="0 0 16 16" fill="none" xmlns="http://www.w3.org/2000/svg">
<g id="dds2_zoom-out" clip-path="url(#clip0_7172_940)">
<g id="Vector">
<path d="M16 15.25L10.73 10C11.7148 8.80873 12.2018 7.28333 12.0896 5.74175C11.9775 4.20017 11.2747 2.76136 10.1278 1.72518C8.9809 0.688992 7.47837 0.135379 5.93335 0.179718C4.38834 0.224056 2.92003 0.862926 1.83445 1.96318C0.74887 3.06343 0.129766 4.54018 0.106169 6.08565C0.0825719 7.63112 0.656302 9.12608 1.70779 10.259C2.75927 11.3918 4.20739 12.0752 5.75033 12.1667C7.29327 12.2582 8.812 11.7507 9.98999 10.75L15.25 16L16 15.25ZM6.06999 11.11C5.08109 11.11 4.11439 10.8168 3.29214 10.2674C2.4699 9.71799 1.82903 8.93709 1.4506 8.02346C1.07216 7.10983 0.973141 6.1045 1.16607 5.13459C1.35899 4.16469 1.8352 3.27377 2.53446 2.57451C3.23372 1.87525 4.12464 1.39905 5.09454 1.20612C6.06445 1.01319 7.06978 1.11221 7.98341 1.49065C8.89704 1.86909 9.67793 2.50995 10.2273 3.33219C10.7767 4.15444 11.07 5.12114 11.07 6.11005C11.07 7.43613 10.5432 8.7079 9.60553 9.64558C8.66784 10.5833 7.39608 11.11 6.06999 11.11Z" fill="#0E0E0E"/>
<path d="M2.89999 5.55005H9.24999V6.61005H2.89999V5.55005Z" fill="#0E0E0E"/>
</g>
</g>
<defs>
<clipPath id="clip0_7172_940">
<rect width="16" height="16" fill="white"/>
</clipPath>
</defs>
</svg>
