<svg width="16" height="16" viewBox="0 0 16 16" fill="none" xmlns="http://www.w3.org/2000/svg">
<path d="M11.2501 13.9571L14.1035 11.1035L13.3964 10.3964L11.25 12.5429L10.3535 11.6464L9.64642 12.3535L11.2501 13.9571Z" fill="#0E0E0E"/>
<path fill-rule="evenodd" clip-rule="evenodd" d="M16 12C16 14.2091 14.2091 16 12 16C9.79086 16 8 14.2091 8 12C8 9.79086 9.79086 8 12 8C14.2091 8 16 9.79086 16 12ZM15 12C15 13.6569 13.6569 15 12 15C10.3431 15 9 13.6569 9 12C9 10.3431 10.3431 9 12 9C13.6569 9 15 10.3431 15 12Z" fill="#0E0E0E"/>
<path fill-rule="evenodd" clip-rule="evenodd" d="M5 0V1H11V0H12V1H15V7.99963C14.6923 7.76849 14.357 7.57202 14 7.41604V5H2V14H7.41604C7.57202 14.357 7.76849 14.6923 7.99963 15H1V1H4V0H5ZM11 2V3H12V2H14V4H2V2H4V3H5V2H11Z" fill="#0E0E0E"/>
</svg>
