<svg width="16" height="16" viewBox="0 0 16 16" fill="none" xmlns="http://www.w3.org/2000/svg">
<path d="M6.80002 7.22C6.94761 7.48835 7.15665 7.71795 7.41002 7.89C7.76391 8.10906 8.14343 8.28371 8.54002 8.41C8.8875 8.51788 9.22268 8.66201 9.54002 8.84C9.69515 8.92137 9.82619 9.04206 9.92002 9.19C9.99581 9.33453 10.0304 9.49713 10.02 9.66C10.0224 9.79174 9.99485 9.92229 9.93941 10.0418C9.88398 10.1614 9.80212 10.2667 9.70002 10.35C9.45417 10.5559 9.14044 10.6629 8.82002 10.65C8.43291 10.6784 8.04973 10.5566 7.75002 10.31C7.62606 10.1883 7.52975 10.0414 7.46763 9.87921C7.40551 9.71701 7.37904 9.54334 7.39002 9.37V9H6.39002V9.37C6.3749 9.66896 6.42123 9.96784 6.52614 10.2482C6.63106 10.5286 6.79234 10.7844 7.00002 11C7.36461 11.3359 7.82721 11.5462 8.32002 11.6V12.45H9.32002V11.58C9.7302 11.5134 10.1123 11.3293 10.42 11.05C10.6085 10.8697 10.7575 10.6521 10.8573 10.411C10.9572 10.17 11.0058 9.91083 11 9.65C11.001 9.39431 10.957 9.14044 10.87 8.9C10.7807 8.67684 10.6443 8.47559 10.47 8.31C10.2864 8.12875 10.0734 7.97997 9.84002 7.87C9.51579 7.71776 9.1817 7.58747 8.84002 7.48C8.54675 7.38931 8.26489 7.26516 8.00002 7.11C7.86302 7.03166 7.74651 6.922 7.66002 6.79C7.58 6.63977 7.54526 6.46957 7.56002 6.3C7.55412 6.16731 7.57905 6.03505 7.63283 5.9136C7.68661 5.79215 7.7678 5.68481 7.87002 5.6C8.11687 5.38981 8.43672 5.28559 8.76002 5.31C8.92167 5.29994 9.08362 5.32413 9.23527 5.381C9.38692 5.43787 9.52484 5.52613 9.64002 5.64C9.86223 5.9013 9.97664 6.23739 9.96002 6.58V7H10.96V6.58C10.9842 6.006 10.7954 5.44332 10.43 5C10.1269 4.67043 9.72195 4.4521 9.28002 4.38V3.51H8.28002V4.36C7.87192 4.427 7.49081 4.60716 7.18002 4.88C6.98793 5.06184 6.83684 5.28256 6.73682 5.52743C6.63681 5.77229 6.59017 6.03568 6.60002 6.3C6.59252 6.61821 6.66109 6.93362 6.80002 7.22Z" fill="#0E0E0E"/>
<path d="M2.67002 0V2.37H1.33002V3.44H2.67002V4.49H1.33002V5.56H2.67002V10.44H1.33002V11.51H2.67002V12.57H1.33002V13.63H2.67002V16H14.67V0H2.67002ZM13.62 14.93H3.74002V13.63H4.74002V12.57H3.74002V11.51H4.74002V10.44H3.74002V5.56H4.74002V4.49H3.74002V3.44H4.74002V2.37H3.74002V1.07H13.61V14.94L13.62 14.93Z" fill="#0E0E0E"/>
</svg>
