<svg width="16" height="16" viewBox="0 0 16 16" fill="none" xmlns="http://www.w3.org/2000/svg">
<g id="dds2_user-groups">
<g id="Vector">
<path d="M15.94 11.1598C15.8748 10.5673 15.6873 9.99474 15.3896 9.47837C15.0918 8.962 14.6901 8.513 14.21 8.15977L13.88 7.99977L13.58 8.24977C13.1969 8.55649 12.7208 8.72362 12.23 8.72362C11.7392 8.72362 11.2631 8.55649 10.88 8.24977L10.78 8.16977L10.66 8.35977C11.1978 8.72157 11.6542 9.19158 12 9.73977C12.6769 9.80153 13.356 9.64751 13.94 9.29977C14.3345 9.6795 14.6239 10.1549 14.78 10.6798H12.43C12.5661 11.0253 12.6666 11.3838 12.73 11.7498H16L15.94 11.1598Z" fill="#0E0E0E"/>
<path d="M12.23 4.35977C12.4344 4.35539 12.6363 4.4061 12.8144 4.50656C12.9925 4.60702 13.1404 4.75355 13.2424 4.93078C13.3444 5.10801 13.3969 5.30942 13.3943 5.5139C13.3917 5.71838 13.3342 5.9184 13.2277 6.093C13.1212 6.2676 12.9698 6.41034 12.7892 6.50628C12.6086 6.60221 12.4055 6.6478 12.2012 6.63827C11.997 6.62873 11.799 6.56443 11.6281 6.45209C11.4573 6.33975 11.3197 6.18352 11.23 5.99977C11.2399 6.1496 11.2399 6.29993 11.23 6.44977C11.2264 6.76549 11.1759 7.07893 11.08 7.37977C11.4502 7.59803 11.8761 7.70311 12.3053 7.68204C12.7345 7.66097 13.1481 7.51467 13.4951 7.2612C13.8421 7.00773 14.1073 6.65819 14.2579 6.25574C14.4085 5.85328 14.438 5.41553 14.3426 4.99653C14.2473 4.57753 14.0313 4.19563 13.7214 3.89797C13.4114 3.60031 13.0211 3.39993 12.5986 3.32158C12.1761 3.24322 11.7399 3.29031 11.3439 3.45703C10.9478 3.62376 10.6093 3.90282 10.37 4.25977C10.6813 4.60338 10.9164 5.00891 11.06 5.44977C11.0704 5.15706 11.194 4.87981 11.4048 4.67647C11.6156 4.47313 11.8971 4.35958 12.19 4.35977H12.23Z" fill="#0E0E0E"/>
<path d="M4 9.73977C4.33566 9.18471 4.78563 8.70746 5.32 8.33977C5.27299 8.28114 5.23273 8.21741 5.2 8.14977L5.09 8.22976C4.7069 8.53649 4.23076 8.70362 3.74 8.70362C3.24924 8.70362 2.7731 8.53649 2.39 8.22976L2.12 7.99977L1.79 8.21977C1.31073 8.57386 0.909703 9.02307 0.612023 9.53928C0.314342 10.0555 0.126414 10.6276 0.06 11.2198L0 11.7498H3.27C3.33466 11.3841 3.43514 11.0257 3.57 10.6798H1.25C1.40612 10.1549 1.69552 9.6795 2.09 9.29977C2.66547 9.64135 3.33308 9.79514 4 9.73977Z" fill="#0E0E0E"/>
<path d="M4.89 7.37977C4.79411 7.07893 4.74355 6.76549 4.74 6.44977C4.72968 6.29661 4.72968 6.14293 4.74 5.98977C4.64911 6.17872 4.50743 6.33865 4.33083 6.45168C4.15422 6.56471 3.94965 6.62637 3.74 6.62977C3.51676 6.62385 3.30018 6.5525 3.11713 6.42458C2.93409 6.29665 2.79265 6.11778 2.71037 5.91017C2.6281 5.70256 2.60861 5.47536 2.65433 5.25677C2.70005 5.03819 2.80896 4.83784 2.96755 4.68061C3.12613 4.52338 3.32741 4.41619 3.54638 4.37235C3.76535 4.32851 3.99237 4.34995 4.19927 4.434C4.40616 4.51805 4.58381 4.66102 4.71017 4.84516C4.83652 5.02929 4.906 5.24648 4.91 5.46977C5.05185 5.02218 5.28703 4.60977 5.6 4.25977C5.39956 3.95657 5.12804 3.70696 4.8091 3.53267C4.49015 3.35838 4.13343 3.26469 3.77 3.25977C3.18652 3.25977 2.62695 3.49155 2.21437 3.90413C1.80178 4.31671 1.57 4.87629 1.57 5.45977C1.57 6.04324 1.80178 6.60282 2.21437 7.0154C2.62695 7.42798 3.18652 7.65977 3.77 7.65977C4.16274 7.67855 4.55231 7.58116 4.89 7.37977Z" fill="#0E0E0E"/>
<path d="M10 9.15977L9.68 8.93976L9.37 9.18976C8.98767 9.49822 8.51124 9.66645 8.02 9.66645C7.52876 9.66645 7.05233 9.49822 6.67 9.18976L6.36 8.93976L6 9.15977C5.51898 9.51213 5.11671 9.96091 4.81883 10.4774C4.52096 10.994 4.33404 11.5669 4.27 12.1598L4.2 12.7498H11.76L11.69 12.1598C11.6308 11.5701 11.4501 10.9991 11.1592 10.4828C10.8683 9.96644 10.4736 9.51597 10 9.15977ZM5.48 11.6398C5.63441 11.1194 5.92026 10.6476 6.31 10.2698C6.82033 10.5766 7.40455 10.7387 8 10.7387C8.59545 10.7387 9.17967 10.5766 9.69 10.2698C10.0797 10.6476 10.3656 11.1194 10.52 11.6398H5.48Z" fill="#0E0E0E"/>
<path d="M8 8.62977C8.35018 8.6307 8.69549 8.54764 9.00694 8.38757C9.3184 8.22749 9.58693 7.99506 9.79 7.70977C10.0525 7.33792 10.1955 6.89492 10.2 6.43977C10.2 5.85629 9.96821 5.29671 9.55563 4.88413C9.14305 4.47155 8.58348 4.23977 8 4.23977C7.41652 4.23977 6.85695 4.47155 6.44437 4.88413C6.03179 5.29671 5.8 5.85629 5.8 6.43977C5.80446 6.89492 5.94747 7.33792 6.21 7.70977C6.41307 7.99506 6.6816 8.22749 6.99306 8.38757C7.30451 8.54764 7.64982 8.6307 8 8.62977ZM8 5.29977C8.22787 5.29977 8.45061 5.36748 8.63993 5.49429C8.82926 5.6211 8.97665 5.8013 9.06339 6.01202C9.15012 6.22274 9.17231 6.45448 9.12712 6.67782C9.08193 6.90117 8.9714 7.10606 8.80957 7.26648C8.64774 7.42691 8.44189 7.53564 8.21816 7.57887C7.99443 7.62211 7.76289 7.59791 7.55294 7.50933C7.34299 7.42075 7.16408 7.2718 7.03893 7.08137C6.91378 6.89095 6.84802 6.66763 6.85 6.43977C6.85264 6.1365 6.97496 5.84656 7.19034 5.63305C7.40572 5.41954 7.69673 5.29975 8 5.29977Z" fill="#0E0E0E"/>
</g>
</g>
</svg>
