<svg width="16" height="16" viewBox="0 0 16 16" fill="none" xmlns="http://www.w3.org/2000/svg">
<g id="dds2_management-software" clip-path="url(#clip0_7172_452)">
<g id="Vector">
<path d="M6.26 14.73L3.06 14.88V1.52L11.65 1.12V5C12.009 5.04244 12.3637 5.11605 12.71 5.22V0L2 0.51L0 0.7V14.94L2 15.77L2.53 15.97L7.28 15.75C6.90896 15.4566 6.57337 15.121 6.28 14.75L6.26 14.73ZM2 14.56L1.11 14.21V1.67L2 1.58V14.56Z" fill="#0E0E0E"/>
<path d="M11 9.66C10.7311 9.66398 10.4693 9.74762 10.2479 9.90035C10.0265 10.0531 9.85538 10.268 9.75612 10.518C9.65687 10.768 9.63398 11.0418 9.69033 11.3048C9.74668 11.5678 9.87976 11.8082 10.0727 11.9956C10.2657 12.1829 10.5099 12.3089 10.7744 12.3575C11.039 12.4061 11.312 12.3751 11.5589 12.2686C11.8059 12.162 12.0157 11.9846 12.1619 11.7588C12.308 11.533 12.3839 11.2689 12.38 11C12.3774 10.8214 12.3396 10.6451 12.2689 10.481C12.1981 10.317 12.0957 10.1686 11.9676 10.0441C11.8394 9.91971 11.688 9.82174 11.522 9.75583C11.356 9.68992 11.1786 9.65735 11 9.66ZM11 11.32C10.9311 11.3073 10.8688 11.2708 10.8239 11.2169C10.7791 11.163 10.7545 11.0951 10.7545 11.025C10.7545 10.9549 10.7791 10.887 10.8239 10.8331C10.8688 10.7792 10.9311 10.7427 11 10.73C11.0433 10.722 11.0878 10.7236 11.1304 10.7347C11.173 10.7459 11.2126 10.7662 11.2464 10.7944C11.2803 10.8225 11.3075 10.8578 11.3262 10.8977C11.3449 10.9375 11.3545 10.981 11.3545 11.025C11.3545 11.069 11.3449 11.1125 11.3262 11.1523C11.3075 11.1922 11.2803 11.2275 11.2464 11.2556C11.2126 11.2838 11.173 11.3041 11.1304 11.3153C11.0878 11.3264 11.0433 11.328 11 11.32Z" fill="#0E0E0E"/>
<path d="M11 6.05C10.0111 6.05 9.04439 6.34325 8.22215 6.89265C7.3999 7.44206 6.75904 8.22295 6.3806 9.13658C6.00216 10.0502 5.90315 11.0555 6.09607 12.0255C6.289 12.9954 6.7652 13.8863 7.46447 14.5855C8.16373 15.2848 9.05464 15.761 10.0245 15.9539C10.9945 16.1469 11.9998 16.0478 12.9134 15.6694C13.827 15.291 14.6079 14.6501 15.1573 13.8279C15.7068 13.0056 16 12.0389 16 11.05C16 10.3934 15.8707 9.74321 15.6194 9.13658C15.3681 8.52995 14.9998 7.97876 14.5355 7.51447C14.0712 7.05017 13.52 6.68188 12.9134 6.4306C12.3068 6.17933 11.6566 6.05 11 6.05ZM11 14.94C10.2264 14.936 9.4713 14.7033 8.82973 14.271C8.18816 13.8388 7.68883 13.2264 7.39462 12.5109C7.10041 11.7954 7.02446 11.0089 7.17635 10.2504C7.32825 9.49184 7.70118 8.79521 8.24819 8.24819C8.79521 7.70118 9.49184 7.32825 10.2504 7.17635C11.0089 7.02446 11.7954 7.10041 12.5109 7.39462C13.2264 7.68883 13.8388 8.18816 14.271 8.82973C14.7033 9.4713 14.936 10.2264 14.94 11C14.9426 11.5181 14.8425 12.0317 14.6455 12.5109C14.4484 12.9901 14.1583 13.4255 13.7919 13.7919C13.4255 14.1583 12.9901 14.4484 12.5109 14.6455C12.0317 14.8425 11.5181 14.9426 11 14.94Z" fill="#0E0E0E"/>
</g>
</g>
<defs>
<clipPath id="clip0_7172_452">
<rect width="16" height="16" fill="white"/>
</clipPath>
</defs>
</svg>
