<svg width="16" height="16" viewBox="0 0 16 16" fill="none" xmlns="http://www.w3.org/2000/svg">
<g id="dds2_paint-palette" clip-path="url(#clip0_7172_596)">
<g id="Vector">
<path d="M12.4 6.86C12.1792 6.63566 12.0128 6.36371 11.9135 6.06502C11.8141 5.76634 11.7846 5.44887 11.8271 5.13699C11.8696 4.8251 11.983 4.5271 12.1585 4.26587C12.3341 4.00463 12.5673 3.78711 12.84 3.63C13.1443 3.44287 13.3959 3.18118 13.5709 2.86971C13.7459 2.55823 13.8385 2.20726 13.84 1.85C13.85 0.68 12.38 0 11.16 0C6 0 2 3.72 2 8.64C2.00132 10.3984 2.53852 12.1147 3.54 13.56C4.07422 14.3265 4.78866 14.9499 5.62044 15.3754C6.45222 15.8009 7.37584 16.0154 8.31 16C9.03957 16.0213 9.76614 15.8979 10.4478 15.6371C11.1295 15.3762 11.7527 14.9829 12.2817 14.48C12.8107 13.9771 13.2348 13.3744 13.5297 12.7068C13.8246 12.0391 13.9845 11.3197 14 10.59C13.973 9.18569 13.399 7.84737 12.4 6.86ZM8.31 14.93C7.5571 14.9332 6.81479 14.7527 6.14739 14.4042C5.48 14.0557 4.90767 13.5497 4.48 12.93L4.43 12.86C3.57983 11.616 3.12022 10.1467 3.11 8.64C3.11 4.33 6.57 1.07 11.16 1.07C11.99 1.07 12.77 1.51 12.77 1.85C12.7703 2.01994 12.7274 2.18717 12.6451 2.33589C12.5629 2.48462 12.4441 2.60993 12.3 2.7C11.8316 2.9808 11.4437 3.37785 11.1739 3.85265C10.9041 4.32745 10.7615 4.8639 10.76 5.41C10.7603 6.21045 11.0682 6.98019 11.62 7.56C12.0154 7.95277 12.3287 8.4203 12.5415 8.93536C12.7544 9.45041 12.8627 10.0027 12.86 10.56C12.8577 11.1485 12.7371 11.7306 12.5054 12.2716C12.2736 12.8126 11.9354 13.3014 11.511 13.7091C11.0865 14.1168 10.5844 14.435 10.0345 14.6447C9.4846 14.8544 8.89815 14.9515 8.31 14.93Z" fill="#0E0E0E"/>
<path d="M7.46 4.2C7.46198 4.34677 7.42028 4.49081 7.34018 4.61381C7.26008 4.73681 7.14521 4.83321 7.01018 4.89076C6.87515 4.9483 6.72606 4.96439 6.58186 4.93698C6.43766 4.90957 6.30487 4.83989 6.20038 4.73681C6.09589 4.63373 6.02441 4.5019 5.99504 4.35808C5.96566 4.21427 5.97972 4.06497 6.03542 3.92917C6.09113 3.79337 6.18596 3.6772 6.30786 3.59544C6.42976 3.51368 6.57322 3.47001 6.72 3.47C6.91454 3.46998 7.10126 3.54657 7.23976 3.68319C7.37825 3.81982 7.45737 4.00548 7.46 4.2Z" fill="#0E0E0E"/>
<path d="M10.71 2.62C10.7119 2.76802 10.6693 2.91321 10.5878 3.03679C10.5063 3.16037 10.3896 3.25667 10.2528 3.31323C10.116 3.3698 9.96542 3.38404 9.82044 3.35411C9.67546 3.32418 9.5428 3.25146 9.43959 3.14534C9.33637 3.03922 9.26736 2.90458 9.24147 2.75883C9.21558 2.61308 9.23399 2.46291 9.29434 2.32773C9.35468 2.19256 9.45418 2.07859 9.57998 2.00055C9.70578 1.92252 9.85209 1.88401 10 1.89C10.1893 1.89767 10.3684 1.97764 10.5005 2.11345C10.6326 2.24926 10.7076 2.43056 10.71 2.62Z" fill="#0E0E0E"/>
<path d="M5.68 7.44C5.68 7.29364 5.6366 7.15057 5.55529 7.02888C5.47398 6.90719 5.3584 6.81234 5.22319 6.75633C5.08797 6.70032 4.93918 6.68567 4.79563 6.71422C4.65209 6.74277 4.52023 6.81325 4.41674 6.91674C4.31325 7.02023 4.24277 7.15209 4.21422 7.29563C4.18567 7.43918 4.20032 7.58797 4.25633 7.72319C4.31234 7.8584 4.40719 7.97398 4.52888 8.05529C4.65057 8.1366 4.79364 8.18 4.94 8.18C5.13626 8.18 5.32448 8.10204 5.46326 7.96326C5.60204 7.82448 5.68 7.63626 5.68 7.44Z" fill="#0E0E0E"/>
<path d="M9.13 13.3C9.13198 13.4468 9.09027 13.5908 9.01018 13.7138C8.93008 13.8368 8.81521 13.9332 8.68018 13.9908C8.54515 14.0483 8.39606 14.0644 8.25186 14.037C8.10766 14.0096 7.97487 13.9399 7.87038 13.8368C7.76589 13.7337 7.69441 13.6019 7.66504 13.4581C7.63566 13.3143 7.64972 13.165 7.70542 13.0292C7.76113 12.8934 7.85596 12.7772 7.97786 12.6954C8.09976 12.6137 8.24322 12.57 8.39 12.57C8.58454 12.57 8.77126 12.6466 8.90975 12.7832C9.04825 12.9198 9.12737 13.1055 9.13 13.3Z" fill="#0E0E0E"/>
<path d="M11.76 10.92C11.758 11.0639 11.7135 11.2041 11.6321 11.3228C11.5507 11.4415 11.4361 11.5335 11.3025 11.5873C11.1689 11.641 11.0225 11.654 10.8816 11.6247C10.7406 11.5954 10.6115 11.5251 10.5104 11.4227C10.4093 11.3202 10.3407 11.1901 10.3134 11.0488C10.286 10.9075 10.301 10.7612 10.3566 10.6284C10.4121 10.4956 10.5057 10.3821 10.6255 10.3024C10.7453 10.2226 10.886 10.18 11.03 10.18C11.1267 10.18 11.2225 10.1992 11.3117 10.2365C11.4009 10.2738 11.4818 10.3285 11.5498 10.3973C11.6177 10.4662 11.6712 10.5478 11.7073 10.6376C11.7434 10.7273 11.7613 10.8233 11.76 10.92Z" fill="#0E0E0E"/>
<path d="M5.35 10.3C5.20281 10.298 5.05837 10.34 4.93516 10.4205C4.81195 10.5011 4.71556 10.6165 4.65831 10.7522C4.60107 10.8878 4.58557 11.0374 4.61381 11.1819C4.64204 11.3263 4.71272 11.4591 4.81681 11.5632C4.9209 11.6673 5.05366 11.738 5.19814 11.7662C5.34261 11.7944 5.49222 11.7789 5.62783 11.7217C5.76345 11.6644 5.87892 11.5681 5.95946 11.4448C6.04001 11.3216 6.08198 11.1772 6.08 11.03C6.07741 10.8372 5.99967 10.653 5.86333 10.5167C5.72698 10.3803 5.5428 10.3026 5.35 10.3Z" fill="#0E0E0E"/>
</g>
</g>
<defs>
<clipPath id="clip0_7172_596">
<rect width="16" height="16" fill="white"/>
</clipPath>
</defs>
</svg>
