<svg width="16" height="16" viewBox="0 0 16 16" fill="none" xmlns="http://www.w3.org/2000/svg">
<g id="dds2_wrench-tools" clip-path="url(#clip0_7172_1217)">
<g id="Vector">
<path d="M6.43 11.08L3.07 14.44C2.97704 14.5337 2.86644 14.6081 2.74458 14.6589C2.62272 14.7096 2.49201 14.7358 2.36 14.7358C2.22799 14.7358 2.09728 14.7096 1.97542 14.6589C1.85356 14.6081 1.74296 14.5337 1.65 14.44C1.55627 14.347 1.48188 14.2364 1.43111 14.1145C1.38034 13.9927 1.3542 13.862 1.3542 13.73C1.3542 13.5979 1.38034 13.4672 1.43111 13.3454C1.48188 13.2235 1.55627 13.1129 1.65 13.02L5.81 8.85996L5.65 8.27996L5.27 7.90996L0.91 12.27C0.716172 12.4599 0.563022 12.6873 0.459872 12.9383C0.356722 13.1893 0.30573 13.4586 0.31 13.73C0.307088 13.9996 0.358739 14.2671 0.46185 14.5163C0.56496 14.7654 0.717399 14.9912 0.91 15.18C1.09876 15.3726 1.32451 15.525 1.5737 15.6281C1.82288 15.7312 2.09034 15.7829 2.36 15.78C2.63133 15.7842 2.9007 15.7332 3.1517 15.6301C3.40269 15.5269 3.63008 15.3738 3.82 15.18L7 12L6.55 11.56L6.42 11.09L6.43 11.08Z" fill="#0E0E0E"/>
<path d="M7.94 6.07996C7.79777 5.69571 7.72333 5.28968 7.72 4.87996C7.72151 4.36663 7.83218 3.8595 8.04466 3.39221C8.25714 2.92492 8.56657 2.50816 8.95242 2.16959C9.33827 1.83103 9.79172 1.5784 10.2827 1.42846C10.7736 1.27853 11.2908 1.23473 11.8 1.29996L10.92 2.17996C10.7274 2.36872 10.575 2.59447 10.4718 2.84366C10.3687 3.09284 10.3171 3.3603 10.32 3.62996C10.3157 3.90129 10.3667 4.17066 10.4699 4.42166C10.573 4.67266 10.7262 4.90004 10.92 5.08996C11.3123 5.46351 11.8333 5.67187 12.375 5.67187C12.9167 5.67187 13.4377 5.46351 13.83 5.08996L14.83 4.08996C14.8928 4.3555 14.9263 4.62712 14.93 4.89996C14.9269 5.68407 14.6685 6.44583 14.194 7.07008C13.7195 7.69432 13.0547 8.14711 12.3 8.35996L13.13 9.19996C13.7115 8.95802 14.2376 8.59996 14.676 8.1477C15.1144 7.69544 15.4559 7.15848 15.6796 6.56968C15.9034 5.98089 16.0046 5.35263 15.9772 4.72336C15.9497 4.09409 15.7941 3.47704 15.52 2.90996L15.2 2.22996L13.09 4.33996C12.997 4.43369 12.8864 4.50808 12.7646 4.55885C12.6427 4.60962 12.512 4.63576 12.38 4.63576C12.248 4.63576 12.1173 4.60962 11.9954 4.55885C11.8736 4.50808 11.763 4.43369 11.67 4.33996C11.5763 4.247 11.5019 4.1364 11.4511 4.01454C11.4003 3.89268 11.3742 3.76197 11.3742 3.62996C11.3742 3.49795 11.4003 3.36724 11.4511 3.24538C11.5019 3.12352 11.5763 3.01292 11.67 2.91996L13.76 0.829961L13 0.539961C12.4689 0.32634 11.9024 0.214398 11.33 0.209961C10.1018 0.212521 8.92402 0.69883 8.05181 1.56356C7.17959 2.42829 6.68315 3.60181 6.67 4.82996L7.91 6.06996L7.94 6.07996Z" fill="#0E0E0E"/>
<path d="M12 9.48996L10.5 7.99996L7.35 6.99996L5 4.62996L4.84 2.26996L1.73 0.529961L0 2.25996L1.79 5.36996H4.24L6.59 7.72996L7.51 11L11.68 15.17C12.0749 15.5659 12.6108 15.7889 13.17 15.79C13.7318 15.7872 14.2702 15.5647 14.67 15.17C14.8671 14.9731 15.0235 14.7392 15.1302 14.4819C15.2369 14.2245 15.2919 13.9486 15.2919 13.67C15.2919 13.3913 15.2369 13.1154 15.1302 12.8581C15.0235 12.6007 14.8671 12.3669 14.67 12.17L12 9.48996ZM2.4 4.31996L1.32 2.42996L1.91 1.83996L3.82 2.90996L3.9 4.32996L2.4 4.31996ZM13.92 14.42C13.8222 14.5197 13.7055 14.599 13.5768 14.6531C13.448 14.7072 13.3097 14.7351 13.17 14.7351C13.0303 14.7351 12.892 14.7072 12.7632 14.6531C12.6345 14.599 12.5178 14.5197 12.42 14.42L8.42 10.42L7.84 8.25996L9.93 8.93996L13.93 12.94C14.1217 13.1392 14.2279 13.4055 14.2261 13.682C14.2242 13.9585 14.1144 14.2233 13.92 14.42Z" fill="#0E0E0E"/>
</g>
</g>
<defs>
<clipPath id="clip0_7172_1217">
<rect width="16" height="16" fill="white"/>
</clipPath>
</defs>
</svg>
