<svg width="16" height="16" viewBox="0 0 16 16" fill="none" xmlns="http://www.w3.org/2000/svg">
<g id="dds2_user-disable" clip-path="url(#clip0_7172_211)">
<g id="Vector">
<path d="M6.7 8.48011L7.9 7.67011C7.31182 7.64853 6.74299 7.45441 6.26432 7.11192C5.78565 6.76944 5.41831 6.29371 5.20802 5.74399C4.99773 5.19426 4.95379 4.59482 5.08167 4.02031C5.20955 3.4458 5.5036 2.92159 5.92721 2.51297C6.35082 2.10434 6.88527 1.82935 7.46401 1.72223C8.04276 1.61511 8.64022 1.6806 9.18202 1.91054C9.72382 2.14048 10.186 2.52471 10.511 3.0154C10.8361 3.50608 11.0096 4.08154 11.01 4.67011C11.0063 5.01206 10.942 5.35064 10.82 5.67011L12 4.89011C12.0049 4.8202 12.0049 4.75002 12 4.68011C11.9969 3.94602 11.7917 3.22695 11.4072 2.60166C11.0226 1.97638 10.4733 1.46898 9.81956 1.13506C9.1658 0.80113 8.43277 0.653551 7.70073 0.708481C6.96869 0.763412 6.26588 1.01873 5.66929 1.44648C5.07269 1.87423 4.60531 2.45791 4.31834 3.13359C4.03136 3.80927 3.93587 4.5509 4.04231 5.27724C4.14874 6.00358 4.45301 6.68662 4.92179 7.25155C5.39056 7.81649 6.00576 8.24152 6.7 8.48011Z" fill="#0E0E0E"/>
<path d="M4.42 9.60011C4.52401 9.67619 4.63443 9.7431 4.75 9.80011L5.75 9.16011C5.41414 9.00184 5.09854 8.80375 4.81 8.57011L4.52 8.33011L4.2 8.53011C2.93381 9.40312 1.96399 10.6415 1.42 12.0801L3.28 10.8301C3.59796 10.3667 3.98203 9.9523 4.42 9.60011Z" fill="#0E0E0E"/>
<path d="M11.48 9.47011C12.8137 10.6127 13.7344 12.1624 14.1 13.8801H5L3.47 14.8801H15.28L15.22 14.3101C14.96 12.202 13.9352 10.2627 12.34 8.86011L11.48 9.47011Z" fill="#0E0E0E"/>
<path d="M15.42 4.08011L0 14.5001L0.58 15.3501L16 4.93011L15.42 4.08011Z" fill="#0E0E0E"/>
</g>
</g>
<defs>
<clipPath id="clip0_7172_211">
<rect width="16" height="16" fill="white"/>
</clipPath>
</defs>
</svg>
