<svg width="16" height="16" viewBox="0 0 16 16" fill="none" xmlns="http://www.w3.org/2000/svg">
<g id="dds2_processor" clip-path="url(#clip0_7172_1412)">
<g id="Vector">
<path d="M9.82 6.09H6.07V9.85H9.82V6.09ZM8.75 8.79H7.14V7.16H8.75V8.79Z" fill="#0E0E0E"/>
<path d="M16 5.64V4.57H13.71V2.2H11.39V0H10.33V2.2H8.44V0H7.37V2.2H5.48V0H4.41V2.2H2.18V4.57H0V5.64H2.18V7.53H0V8.6H2.18V10.5H0V11.56H2.18V13.75H4.41V16H5.48V13.75H7.37V16H8.44V13.75H10.33V16H11.39V13.75H13.71V11.56H16V10.5H13.71V8.6H16V7.53H13.71V5.64H16ZM12.64 12.64H3.25V3.27H12.64V12.64Z" fill="#0E0E0E"/>
</g>
</g>
<defs>
<clipPath id="clip0_7172_1412">
<rect width="16" height="16" fill="white"/>
</clipPath>
</defs>
</svg>
