<svg width="16" height="16" viewBox="0 0 16 16" fill="none" xmlns="http://www.w3.org/2000/svg">
<g id="dds2_rss" clip-path="url(#clip0_7172_336)">
<g id="Vector">
<path d="M1.91999 13.25C2.08569 13.252 2.2471 13.3029 2.38391 13.3964C2.52073 13.4899 2.62684 13.6218 2.68888 13.7754C2.75093 13.9291 2.76614 14.0976 2.73261 14.2599C2.69908 14.4222 2.6183 14.5709 2.50043 14.6874C2.38257 14.8039 2.23289 14.8829 2.07022 14.9145C1.90756 14.9461 1.73918 14.9289 1.58627 14.8651C1.43336 14.8012 1.30276 14.6935 1.21089 14.5556C1.11902 14.4177 1.07 14.2557 1.06999 14.09C1.07262 13.8663 1.16334 13.6527 1.32246 13.4954C1.48158 13.3382 1.69628 13.25 1.91999 13.25ZM1.91999 12.18C1.54266 12.182 1.17437 12.2957 0.861589 12.5067C0.54881 12.7178 0.305557 13.0168 0.162526 13.366C0.0194947 13.7152 -0.0169059 14.0989 0.0579173 14.4687C0.132741 14.8386 0.315435 15.178 0.582947 15.4441C0.850459 15.7102 1.1908 15.8911 1.56103 15.964C1.93126 16.0369 2.31478 15.9985 2.66321 15.8536C3.01163 15.7088 3.30934 15.464 3.51878 15.1501C3.72821 14.8362 3.83998 14.4673 3.83999 14.09C3.83735 13.5825 3.6339 13.0967 3.27411 12.7388C2.91433 12.3809 2.42748 12.18 1.91999 12.18Z" fill="#0E0E0E"/>
<path d="M16 14.93H14.93C14.9168 11.246 13.4426 7.71778 10.8311 5.11939C8.21961 2.52099 4.68397 1.06468 0.99999 1.07V8.90623e-10C4.96614 -4.31863e-05 8.77088 1.5707 11.5819 4.36862C14.393 7.16654 15.9815 10.9639 16 14.93Z" fill="#0E0E0E"/>
<path d="M11.84 14.93H10.77C10.762 12.3459 9.72856 9.87059 7.89662 8.04802C6.06467 6.22546 3.58412 5.20469 0.99999 5.21V4.14C3.8671 4.13733 6.61827 5.27169 8.65031 7.29435C10.6823 9.31701 11.8294 12.0629 11.84 14.93Z" fill="#0E0E0E"/>
<path d="M7.80999 14.93H6.73999C6.73469 13.412 6.12729 11.9582 5.05112 10.8877C3.97494 9.81712 2.51795 9.21734 0.99999 9.22V8.15C2.80173 8.14734 4.53088 8.85985 5.80772 10.1311C7.08456 11.4023 7.80469 13.1283 7.80999 14.93Z" fill="#0E0E0E"/>
</g>
</g>
<defs>
<clipPath id="clip0_7172_336">
<rect width="16" height="16" fill="white"/>
</clipPath>
</defs>
</svg>
