<svg width="16" height="16" viewBox="0 0 16 16" fill="none" xmlns="http://www.w3.org/2000/svg">
<path d="M3.46001 0V16H12.54V0H3.46001ZM11.46 1.07V2.07H4.53001V1.07H11.46ZM11.46 3.13V11.13H4.53001V3.13H11.46ZM4.53001 14.93V12.19H11.47V14.93H4.53001Z" fill="#0E0E0E"/>
<path d="M8.70001 13.54C8.70001 13.6784 8.65895 13.8138 8.58204 13.9289C8.50512 14.044 8.39579 14.1337 8.26789 14.1867C8.13998 14.2397 7.99923 14.2536 7.86344 14.2266C7.72766 14.1995 7.60293 14.1329 7.50503 14.035C7.40714 13.9371 7.34047 13.8124 7.31346 13.6766C7.28645 13.5408 7.30031 13.4 7.35329 13.2721C7.40627 13.1442 7.49599 13.0349 7.61111 12.958C7.72622 12.8811 7.86156 12.84 8.00001 12.84C8.18566 12.84 8.36371 12.9137 8.49498 13.045C8.62626 13.1763 8.70001 13.3543 8.70001 13.54Z" fill="#0E0E0E"/>
</svg>
