<svg width="16" height="16" viewBox="0 0 16 16" fill="none" xmlns="http://www.w3.org/2000/svg">
<g clip-path="url(#clip0_7172_276)">
<path d="M13.66 15.81H14.66V6.28L13.66 5.28V15.81Z" fill="#0E0E0E"/>
<path d="M10.66 15.81H11.66V7.3L10.66 8.48V15.81Z" fill="#0E0E0E"/>
<path d="M7.66 11.84V15.84H8.66V10.67L7.66 11.84Z" fill="#0E0E0E"/>
<path d="M4.67 15.81H5.67V10.1L4.67 9.17V15.81Z" fill="#0E0E0E"/>
<path d="M1.68 15.81H2.68V11.08L1.68 12.19V15.81Z" fill="#0E0E0E"/>
<path d="M16 0.190002L11.23 1.44L12.78 3L7.49 9L4.49 6.3L0 10.92L0.76 11.64L4.53 7.64L7.58 10.36L13.53 3.67L14.86 5L16 0.190002ZM14.27 3L13.27 2L14.58 1.66L14.27 3Z" fill="#0E0E0E"/>
</g>
<defs>
<clipPath id="clip0_7172_276">
<rect width="16" height="16" fill="white"/>
</clipPath>
</defs>
</svg>
