<svg width="16" height="16" viewBox="0 0 16 16" fill="none" xmlns="http://www.w3.org/2000/svg">
<g id="dds2_speaker-double" clip-path="url(#clip0_7172_342)">
<g id="Vector">
<path d="M0 16H7.51V0H0V16ZM1.07 1.07H6.45V14.93H1.07V1.07Z" fill="#0E0E0E"/>
<path d="M8.49 0V16H16V0H8.49ZM14.93 14.93H9.55V1.07H14.93V14.93Z" fill="#0E0E0E"/>
<path d="M12.24 10.17C12.0754 10.17 11.9146 10.219 11.7779 10.3106C11.6412 10.4023 11.5348 10.5325 11.4723 10.6847C11.4098 10.837 11.3939 11.0044 11.4268 11.1656C11.4596 11.3269 11.5396 11.4748 11.6567 11.5904C11.7738 11.7061 11.9226 11.7844 12.0843 11.8153C12.2459 11.8461 12.4131 11.8283 12.5646 11.7639C12.7161 11.6996 12.845 11.5916 12.935 11.4538C13.025 11.316 13.072 11.1546 13.07 10.99C13.07 10.8815 13.0485 10.774 13.0066 10.6739C12.9648 10.5737 12.9035 10.4829 12.8263 10.4066C12.7491 10.3303 12.6575 10.2701 12.5569 10.2295C12.4562 10.1889 12.3485 10.1687 12.24 10.17Z" fill="#0E0E0E"/>
<path d="M12.24 7.38C12.6553 7.38 13.0614 7.25684 13.4067 7.02609C13.752 6.79534 14.0212 6.46736 14.1801 6.08364C14.3391 5.69991 14.3807 5.27767 14.2996 4.87031C14.2186 4.46295 14.0186 4.08877 13.7249 3.79508C13.4312 3.50139 13.057 3.30138 12.6497 3.22035C12.2423 3.13932 11.8201 3.18091 11.4364 3.33985C11.0526 3.4988 10.7247 3.76796 10.4939 4.1133C10.2632 4.45865 10.14 4.86466 10.14 5.28C10.1426 5.83614 10.3647 6.36876 10.758 6.76202C11.1512 7.15528 11.6839 7.37737 12.24 7.38ZM12.24 4.24C12.4378 4.24 12.6311 4.29865 12.7956 4.40853C12.96 4.51841 13.0882 4.67459 13.1639 4.85732C13.2396 5.04004 13.2594 5.24111 13.2208 5.43509C13.1822 5.62907 13.087 5.80725 12.9471 5.94711C12.8073 6.08696 12.6291 6.1822 12.4351 6.22079C12.2411 6.25937 12.04 6.23957 11.8573 6.16388C11.6746 6.08819 11.5184 5.96002 11.4085 5.79557C11.2986 5.63112 11.24 5.43778 11.24 5.24C11.24 4.97478 11.3454 4.72043 11.5329 4.53289C11.7204 4.34536 11.9748 4.24 12.24 4.24Z" fill="#0E0E0E"/>
<path d="M3.76 10.17C3.59501 10.168 3.43317 10.2153 3.29515 10.3057C3.15714 10.3961 3.04921 10.5257 2.98516 10.6777C2.9211 10.8298 2.90382 10.9975 2.93553 11.1594C2.96723 11.3214 3.04648 11.4702 3.16316 11.5868C3.27984 11.7035 3.42864 11.7828 3.59057 11.8145C3.7525 11.8462 3.92021 11.8289 4.07227 11.7648C4.22434 11.7008 4.35386 11.5929 4.44429 11.4548C4.53473 11.3168 4.58198 11.155 4.58 10.99C4.5774 10.7733 4.49018 10.5663 4.33696 10.413C4.18374 10.2598 3.97667 10.1726 3.76 10.17Z" fill="#0E0E0E"/>
<path d="M3.76 3.18C3.34466 3.18 2.93865 3.30316 2.5933 3.53391C2.24796 3.76466 1.9788 4.09264 1.81985 4.47636C1.66091 4.86009 1.61932 5.28233 1.70035 5.68969C1.78138 6.09705 1.98139 6.47123 2.27508 6.76492C2.56877 7.05861 2.94295 7.25862 3.35031 7.33965C3.75767 7.42068 4.17991 7.37909 4.56364 7.22015C4.94736 7.0612 5.27534 6.79204 5.50609 6.4467C5.73684 6.10135 5.86 5.69534 5.86 5.28C5.85737 4.72386 5.63528 4.19124 5.24202 3.79798C4.84876 3.40472 4.31614 3.18263 3.76 3.18ZM3.76 6.32C3.56222 6.32 3.36888 6.26135 3.20443 6.15147C3.03998 6.04159 2.91181 5.88541 2.83612 5.70268C2.76043 5.51996 2.74063 5.31889 2.77921 5.12491C2.8178 4.93093 2.91304 4.75275 3.05289 4.61289C3.19275 4.47304 3.37093 4.3778 3.56491 4.33921C3.75889 4.30063 3.95996 4.32043 4.14268 4.39612C4.32541 4.47181 4.48159 4.59998 4.59147 4.76443C4.70135 4.92888 4.76 5.12222 4.76 5.32C4.76 5.58522 4.65464 5.83957 4.46711 6.02711C4.27957 6.21464 4.02522 6.32 3.76 6.32Z" fill="#0E0E0E"/>
</g>
</g>
<defs>
<clipPath id="clip0_7172_342">
<rect width="16" height="16" fill="white"/>
</clipPath>
</defs>
</svg>
