<svg width="16" height="16" viewBox="0 0 16 16" fill="none" xmlns="http://www.w3.org/2000/svg">
<g id="dds2_user-unlock" clip-path="url(#clip0_7172_348)">
<g id="Vector">
<path d="M6 6.71994C6.66368 6.71599 7.31132 6.51558 7.86124 6.14398C8.41115 5.77239 8.83869 5.24626 9.08994 4.63196C9.34119 4.01766 9.40488 3.34272 9.27298 2.69226C9.14109 2.04181 8.81951 1.44499 8.34882 0.977083C7.87813 0.509177 7.27941 0.191149 6.62818 0.0631152C5.97696 -0.0649184 5.3024 0.00277844 4.68961 0.257666C4.07681 0.512554 3.55323 0.943214 3.1849 1.49532C2.81658 2.04743 2.62001 2.69625 2.62 3.35994C2.62131 3.8025 2.70978 4.24046 2.88035 4.64883C3.05092 5.05719 3.30025 5.42796 3.61412 5.73997C3.92798 6.05197 4.30022 6.2991 4.70959 6.46725C5.11896 6.63539 5.55744 6.72126 6 6.71994ZM6 1.06994C6.45445 1.0739 6.89754 1.2124 7.27334 1.46796C7.64915 1.72352 7.94082 2.08469 8.11154 2.50587C8.28225 2.92705 8.32437 3.38937 8.23256 3.83447C8.14076 4.27957 7.91915 4.68749 7.59571 5.00675C7.27227 5.32601 6.86149 5.54229 6.41524 5.62829C5.96898 5.7143 5.50725 5.66617 5.08833 5.48999C4.6694 5.3138 4.31206 5.01746 4.06141 4.63836C3.81076 4.25926 3.67804 3.8144 3.68 3.35994C3.68131 3.05705 3.74242 2.75741 3.85985 2.4782C3.97727 2.199 4.14869 1.94574 4.36425 1.73296C4.57982 1.52018 4.83529 1.35208 5.11599 1.2383C5.3967 1.12452 5.69712 1.06731 6 1.06994Z" fill="#0E0E0E"/>
<path d="M3.11 7.46994C3.95978 8.04173 4.96076 8.34714 5.985 8.34714C7.00924 8.34714 8.01022 8.04173 8.86 7.46994C9.06825 7.6259 9.25932 7.80357 9.43 7.99994C9.5812 7.66408 9.78361 7.35372 10.03 7.07994C9.76243 6.80316 9.46378 6.5582 9.14 6.34994L8.82 6.12994L8.51 6.37994C7.80055 6.94796 6.91882 7.25744 6.01 7.25744C5.10118 7.25744 4.21945 6.94796 3.51 6.37994L3.21 6.12994L2.88 6.34994C2.10867 6.90757 1.46029 7.6179 0.975155 8.43678C0.490025 9.25565 0.178518 10.1656 0.06 11.1099L0 11.6999H8.12V10.6399H1.23C1.49327 9.40617 2.15364 8.29267 3.11 7.46994Z" fill="#0E0E0E"/>
<path d="M11.39 10.7899V9.47994C11.39 9.12986 11.5291 8.79411 11.7766 8.54656C12.0242 8.29901 12.3599 8.15994 12.71 8.15994C13.0601 8.15994 13.3958 8.29901 13.6434 8.54656C13.8909 8.79411 14.03 9.12986 14.03 9.47994H15.09C15.0507 8.87409 14.7824 8.30589 14.3394 7.8907C13.8965 7.47551 13.3121 7.24446 12.705 7.24446C12.0979 7.24446 11.5135 7.47551 11.0706 7.8907C10.6276 8.30589 10.3593 8.87409 10.32 9.47994V10.7899H9.32V15.9999H16V10.7899H11.39ZM14.93 14.9299H10.39V11.8499H14.93V14.9299Z" fill="#0E0E0E"/>
</g>
</g>
<defs>
<clipPath id="clip0_7172_348">
<rect width="16" height="16" fill="white"/>
</clipPath>
</defs>
</svg>
