<svg width="16" height="16" viewBox="0 0 16 16" fill="none" xmlns="http://www.w3.org/2000/svg">
<g id="dds2_audio-speaker-on" clip-path="url(#clip0_7172_540)">
<g id="Vector">
<path d="M3.00001 5.50001H0.320007V10.5H3.00001L6.25001 14.1L8.41001 14.51V1.51001L6.25001 1.90001L3.00001 5.50001ZM7.34001 2.78001V13.23L6.80001 13.12L3.48001 9.47001H1.38001V6.56001H3.48001L6.80001 2.88001L7.34001 2.78001Z" fill="#0E0E0E"/>
<path d="M11.24 0.450012L10.73 1.34001C11.9043 2.01079 12.8803 2.98012 13.5592 4.14973C14.2381 5.31935 14.5956 6.64766 14.5956 8.00001C14.5956 9.35237 14.2381 10.6807 13.5592 11.8503C12.8803 13.0199 11.9043 13.9892 10.73 14.66L11.24 15.55C12.5725 14.7906 13.6803 13.6921 14.4508 12.3661C15.2214 11.04 15.6273 9.53369 15.6273 8.00001C15.6273 6.46634 15.2214 4.95998 14.4508 3.63393C13.6803 2.30789 12.5725 1.20939 11.24 0.450012Z" fill="#0E0E0E"/>
<path d="M12.5 8.00001C12.5087 7.09209 12.2899 6.19644 11.8637 5.39471C11.4375 4.59299 10.8175 3.91069 10.06 3.41001L9.52001 4.28001C10.1393 4.6819 10.6472 5.23346 10.9968 5.88369C11.3464 6.53391 11.5263 7.2618 11.52 8.00001C11.5298 8.72693 11.3585 9.44486 11.0216 10.089C10.6846 10.7332 10.1927 11.2834 9.59001 11.69L10.14 12.55C10.8782 12.0452 11.4801 11.3655 11.8919 10.5716C12.3036 9.77772 12.5126 8.89426 12.5 8.00001Z" fill="#0E0E0E"/>
</g>
</g>
<defs>
<clipPath id="clip0_7172_540">
<rect width="16" height="16" fill="white"/>
</clipPath>
</defs>
</svg>
