<svg width="16" height="16" viewBox="0 0 16 16" fill="none" xmlns="http://www.w3.org/2000/svg">
<g id="dds2_server-rack-search" clip-path="url(#clip0_7172_338)">
<g id="Vector">
<path d="M12.2 0H0V4.69H12.2V0ZM11.13 3.62H1.07V1.07H11.13V3.62Z" fill="#0E0E0E"/>
<path d="M8 1.81H10.39V2.88H8V1.81Z" fill="#0E0E0E"/>
<path d="M5 9.92C4.98474 9.70694 4.98474 9.49306 5 9.28H1V6.73H6.1C6.49202 6.30163 6.95141 5.9402 7.46 5.66H0V10.34H5C5 10.2 5 10.07 5 9.92Z" fill="#0E0E0E"/>
<path d="M11.13 14.67V14.93H1.07V12.38H5.66C5.46024 12.0451 5.30557 11.6854 5.2 11.31H0V16H12.19V14.48L12 14.33C11.7103 14.477 11.4051 14.591 11.09 14.67H11.13Z" fill="#0E0E0E"/>
<path d="M13 12.22C13.58 11.4399 13.8425 10.4688 13.7346 9.50269C13.6267 8.53658 13.1564 7.64736 12.4186 7.01442C11.6807 6.38148 10.7303 6.05193 9.75904 6.09225C8.78777 6.13258 7.86794 6.53977 7.18512 7.2317C6.5023 7.92362 6.10732 8.84877 6.07986 9.82049C6.05241 10.7922 6.39452 11.7382 7.03718 12.4676C7.67984 13.1969 8.57521 13.6554 9.54265 13.7505C10.5101 13.8456 11.4776 13.5703 12.25 12.98L15.25 15.98L16 15.22L13 12.22ZM9.93 12.71C9.37777 12.712 8.83737 12.55 8.37724 12.2447C7.91712 11.9393 7.55796 11.5043 7.34526 10.9946C7.13255 10.485 7.07587 9.92372 7.1824 9.38185C7.28892 8.83999 7.55385 8.34192 7.94363 7.95074C8.33342 7.55955 8.83053 7.29283 9.37201 7.18436C9.91349 7.0759 10.475 7.13056 10.9854 7.34143C11.4958 7.5523 11.9321 7.9099 12.2391 8.36893C12.5461 8.82795 12.71 9.36777 12.71 9.92C12.71 10.2872 12.6375 10.6509 12.4967 10.99C12.3558 11.3292 12.1494 11.6372 11.8893 11.8964C11.6292 12.1556 11.3204 12.3609 10.9808 12.5005C10.6411 12.6401 10.2772 12.7113 9.91 12.71H9.93Z" fill="#0E0E0E"/>
</g>
</g>
<defs>
<clipPath id="clip0_7172_338">
<rect width="16" height="16" fill="white"/>
</clipPath>
</defs>
</svg>
