<svg width="16" height="16" viewBox="0 0 16 16" fill="none" xmlns="http://www.w3.org/2000/svg">
<g id="dds2_undo-move" clip-path="url(#clip0_7172_478)">
<path id="Vector" d="M8 2.11C6.81359 2.11483 5.64788 2.42112 4.61234 3.00011C3.57679 3.57911 2.7054 4.4118 2.08 5.42V0H1V7.35H8.38V6.28H2.84C3.32957 5.35711 4.05579 4.58104 4.94419 4.03136C5.83259 3.48169 6.85121 3.1782 7.89559 3.15201C8.93996 3.12582 9.97251 3.37788 10.8873 3.88234C11.8022 4.38679 12.5664 5.12549 13.1016 6.02269C13.6368 6.91988 13.9237 7.94328 13.933 8.98794C13.9423 10.0326 13.6735 11.0609 13.1543 11.9675C12.6351 12.874 11.8841 13.6262 10.9783 14.1467C10.0726 14.6673 9.04467 14.9377 8 14.93V16C8.9342 16.0355 9.86596 15.8821 10.7395 15.549C11.613 15.216 12.4104 14.7101 13.0839 14.0617C13.7574 13.4133 14.2931 12.6357 14.659 11.7754C15.025 10.9151 15.2136 9.98988 15.2136 9.055C15.2136 8.12012 15.025 7.19486 14.659 6.33458C14.2931 5.4743 13.7574 4.69669 13.0839 4.04829C12.4104 3.39988 11.613 2.89402 10.7395 2.56098C9.86596 2.22793 8.9342 2.07454 8 2.11Z" fill="#0E0E0E"/>
</g>
<defs>
<clipPath id="clip0_7172_478">
<rect width="16" height="16" fill="white"/>
</clipPath>
</defs>
</svg>
