<svg width="16" height="16" viewBox="0 0 16 16" fill="none" xmlns="http://www.w3.org/2000/svg">
<g id="dds2_network-connected" clip-path="url(#clip0_7172_731)">
<path id="Vector" d="M12.11 8.21988C11.1878 8.22247 10.2971 8.55603 9.6 9.15988L7.09 6.90988C7.80897 6.15496 8.21 5.15239 8.21 4.10988C8.20535 3.89538 8.1853 3.6815 8.15 3.46988H10.15C10.2834 4.19087 10.6815 4.83598 11.266 5.27865C11.8505 5.72131 12.5794 5.92958 13.3095 5.86258C14.0397 5.79559 14.7185 5.45817 15.2127 4.91653C15.7069 4.37488 15.9809 3.66811 15.9809 2.93488C15.9809 2.20165 15.7069 1.49488 15.2127 0.953233C14.7185 0.41159 14.0397 0.0741713 13.3095 0.00717686C12.5794 -0.0598176 11.8505 0.148448 11.266 0.591112C10.6815 1.03378 10.2834 1.67889 10.15 2.39988H7.83C7.5567 1.79895 7.142 1.27311 6.62132 0.867267C6.10065 0.461427 5.48947 0.187654 4.84 0.0693333C4.19054 -0.0489872 3.52208 -0.00833839 2.89173 0.187807C2.26139 0.383953 1.68789 0.729766 1.22022 1.19571C0.752562 1.66165 0.404635 2.23387 0.206165 2.86348C0.00769427 3.4931 -0.0354209 4.1614 0.0805022 4.8113C0.196425 5.46121 0.467942 6.07339 0.871857 6.59556C1.27577 7.11773 1.80008 7.53436 2.4 7.80988V10.1499C1.67632 10.2833 1.02864 10.6825 0.584098 11.2689C0.139556 11.8553 -0.0697529 12.5867 -0.00274577 13.3196C0.0642613 14.0524 0.402745 14.7337 0.946271 15.2298C1.4898 15.7259 2.19911 16.001 2.935 16.001C3.67089 16.001 4.3802 15.7259 4.92373 15.2298C5.46725 14.7337 5.80574 14.0524 5.87274 13.3196C5.93975 12.5867 5.73044 11.8553 5.2859 11.2689C4.84136 10.6825 4.19368 10.2833 3.47 10.1499V8.14988C3.68401 8.19344 3.90162 8.21688 4.12 8.21988C4.87327 8.22116 5.6116 8.00972 6.25 7.60988L8.88 9.93988C8.39601 10.66 8.16664 11.5212 8.22835 12.3866C8.29006 13.252 8.63932 14.0719 9.2206 14.7161C9.80187 15.3602 10.5818 15.7915 11.4364 15.9414C12.2909 16.0913 13.1711 15.9512 13.9369 15.5434C14.7027 15.1356 15.3102 14.4835 15.6628 13.6908C16.0154 12.898 16.0928 12.0102 15.8828 11.1684C15.6728 10.3265 15.1874 9.57909 14.5038 9.04484C13.8202 8.51059 12.9776 8.22021 12.11 8.21988ZM13.11 1.06988C13.4798 1.06988 13.8414 1.17955 14.1489 1.38503C14.4564 1.59051 14.6961 1.88256 14.8377 2.22426C14.9792 2.56596 15.0162 2.94195 14.9441 3.3047C14.8719 3.66744 14.6938 4.00064 14.4323 4.26217C14.1708 4.52369 13.8376 4.70179 13.4748 4.77395C13.1121 4.8461 12.7361 4.80907 12.3944 4.66753C12.0527 4.526 11.7606 4.28632 11.5552 3.9788C11.3497 3.67128 11.24 3.30973 11.24 2.93988C11.2398 2.45247 11.43 1.98425 11.7699 1.63496C12.1099 1.28567 12.5728 1.08291 13.06 1.06988H13.11ZM4.81 12.9999C4.81198 13.3726 4.70315 13.7374 4.49733 14.0481C4.29152 14.3588 3.99801 14.6013 3.65408 14.7448C3.31014 14.8884 2.93132 14.9264 2.5657 14.8542C2.20009 14.782 1.86419 14.6027 1.60066 14.3392C1.33714 14.0757 1.15789 13.7398 1.08566 13.3742C1.01344 13.0086 1.05152 12.6297 1.19505 12.2858C1.33858 11.9419 1.58109 11.6484 1.89178 11.4425C2.20247 11.2367 2.56733 11.1279 2.94 11.1299C3.43595 11.1299 3.9116 11.3269 4.26229 11.6776C4.61298 12.0283 4.81 12.5039 4.81 12.9999ZM1.1 4.10988C1.1 3.51654 1.27595 2.93652 1.60559 2.44317C1.93523 1.94982 2.40377 1.5653 2.95195 1.33824C3.50013 1.11118 4.10333 1.05177 4.68527 1.16752C5.26721 1.28328 5.80176 1.569 6.22132 1.98856C6.64088 2.40812 6.9266 2.94267 7.04236 3.52461C7.15811 4.10655 7.0987 4.70975 6.87164 5.25793C6.64458 5.80611 6.26006 6.27464 5.76671 6.60429C5.27336 6.93393 4.69334 7.10988 4.1 7.10988C3.30435 7.10988 2.54129 6.79381 1.97868 6.2312C1.41607 5.66859 1.1 4.90553 1.1 4.10988ZM12.1 14.9299C11.5394 14.9319 10.9909 14.7673 10.524 14.4571C10.0571 14.1469 9.69279 13.705 9.47735 13.1875C9.26192 12.67 9.20503 12.1001 9.31391 11.5502C9.42279 11.0003 9.69252 10.4952 10.0889 10.0988C10.4853 9.7024 10.9905 9.43267 11.5404 9.32379C12.0903 9.21491 12.6601 9.2718 13.1776 9.48723C13.6951 9.70267 14.137 10.0669 14.4472 10.5339C14.7574 11.0008 14.922 11.5493 14.92 12.1099C14.9174 12.8553 14.6208 13.5695 14.0947 14.0975C13.5686 14.6255 12.8554 14.9246 12.11 14.9299H12.1Z" fill="#0E0E0E"/>
</g>
<defs>
<clipPath id="clip0_7172_731">
<rect width="16" height="16" fill="white"/>
</clipPath>
</defs>
</svg>
