<svg width="16" height="16" viewBox="0 0 16 16" fill="none" xmlns="http://www.w3.org/2000/svg">
<g id="dds2_user-contact">
<g id="Vector">
<path d="M10.69 10.32H6.69C6.82878 9.93469 7.06269 9.59071 7.37 9.32C7.0461 9.15287 6.75212 8.93323 6.5 8.67C5.95337 9.27456 5.60447 10.0317 5.5 10.84L5.44 11.42H12L11.94 10.84C11.8319 10.0327 11.4834 9.27665 10.94 8.67C10.6859 8.93099 10.3923 9.15034 10.07 9.32C10.3545 9.59827 10.5673 9.94142 10.69 10.32Z" fill="#0E0E0E"/>
<path d="M8.67 8.54C9.05568 8.54 9.43269 8.42563 9.75336 8.21137C10.074 7.9971 10.324 7.69255 10.4716 7.33623C10.6192 6.97992 10.6578 6.58784 10.5825 6.20957C10.5073 5.83131 10.3216 5.48385 10.0489 5.21114C9.77615 4.93843 9.42869 4.75271 9.05043 4.67747C8.67217 4.60223 8.28008 4.64084 7.92377 4.78843C7.56745 4.93603 7.2629 5.18596 7.04864 5.50664C6.83437 5.82731 6.72 6.20433 6.72 6.59C6.73268 7.10318 6.94219 7.59184 7.30518 7.95482C7.66816 8.31781 8.15682 8.52732 8.67 8.54ZM8.67 5.71C8.84405 5.71 9.01419 5.76161 9.1589 5.85831C9.30362 5.955 9.41641 6.09244 9.48302 6.25324C9.54962 6.41404 9.56705 6.59098 9.53309 6.76168C9.49914 6.93238 9.41533 7.08918 9.29226 7.21225C9.16919 7.33532 9.01238 7.41914 8.84168 7.45309C8.67098 7.48705 8.49404 7.46962 8.33324 7.40301C8.17244 7.33641 8.035 7.22362 7.93831 7.0789C7.84161 6.93419 7.79 6.76405 7.79 6.59C7.79 6.35661 7.88272 6.13278 8.04775 5.96775C8.21278 5.80271 8.43661 5.71 8.67 5.71Z" fill="#0E0E0E"/>
<path d="M2.67 0V5.34H1.33V6.41H2.67V7.47H1.33V8.53H2.67V9.59H1.33V10.66H2.67V16H14.67V0H2.67ZM13.62 14.93H3.74V10.66H4.74V9.59H3.74V8.53H4.74V7.47H3.74V6.41H4.74V5.34H3.74V1.07H13.61V14.94L13.62 14.93Z" fill="#0E0E0E"/>
</g>
</g>
</svg>
