<svg width="16" height="16" viewBox="0 0 16 16" fill="none" xmlns="http://www.w3.org/2000/svg">
<g id="dds2_partners">
<path id="Vector" d="M16 9.48002L15.79 8.48002L15.12 8.61002L14.31 3.73002L15.21 3.57002L15.01 2.57002L13.11 2.92002L13.27 3.92002L11.64 4.34002C11.6247 4.10621 11.5527 3.87966 11.43 3.68002L11.32 3.47002L11.09 3.42002C9.65874 3.02962 8.19092 2.78833 6.71 2.70002C6.31 2.79002 4.48 3.55002 3.87 3.81002L2.76 3.62002L2.89 2.87002L1 2.52002L0.8 3.52002L1.7 3.68002L0.88 8.59002L0.21 8.46002L0 9.48002L1.73 9.84002L1.92 8.72002H2.74L3.09 9.00002C3.01222 9.20533 2.99538 9.42873 3.04151 9.64337C3.08763 9.85802 3.19475 10.0548 3.35 10.21C3.51427 10.3695 3.72385 10.4743 3.95 10.51C3.98756 10.7356 4.09209 10.9446 4.25 11.11C4.41158 11.2677 4.6174 11.3723 4.84 11.41C4.87767 11.6326 4.98233 11.8384 5.14 12C5.247 12.1086 5.3747 12.1947 5.51555 12.2531C5.65639 12.3115 5.80753 12.3411 5.96 12.34C6.04975 12.3495 6.14025 12.3495 6.23 12.34C6.27146 12.4304 6.32531 12.5145 6.39 12.59C6.49513 12.6984 6.62108 12.7843 6.76027 12.8427C6.89947 12.9012 7.04904 12.9309 7.2 12.93C7.50043 12.9236 7.78689 12.8019 8 12.59L8.55 13.14C8.65734 13.2482 8.7851 13.334 8.92587 13.3923C9.06664 13.4507 9.21761 13.4805 9.37 13.48C9.52239 13.4805 9.67336 13.4507 9.81413 13.3923C9.9549 13.334 10.0827 13.2482 10.19 13.14C10.3443 12.9813 10.4457 12.7787 10.48 12.56C10.7011 12.5178 10.9057 12.4138 11.07 12.26C11.2295 12.0957 11.3343 11.8862 11.37 11.66C11.5963 11.6365 11.8079 11.5365 11.9697 11.3765C12.1315 11.2165 12.2339 11.0061 12.26 10.78C12.4811 10.7378 12.6857 10.6338 12.85 10.48C12.9948 10.3348 13.0974 10.1529 13.1467 9.95385C13.196 9.75479 13.1903 9.54605 13.13 9.35002L13.7 8.88002H14.12L14.28 9.88002L16 9.48002ZM6 9.56002L5.76 9.81002L5.11 10.42C5.09784 10.427 5.08404 10.4307 5.07 10.4307C5.05596 10.4307 5.04216 10.427 5.03 10.42H5C4.98032 10.398 4.96944 10.3695 4.96944 10.34C4.96944 10.3105 4.98032 10.282 5 10.26L5.82 9.44002H6V9.59002V9.56002ZM4.6 9.17002L4.29 9.49002C4.268 9.5097 4.23952 9.52058 4.21 9.52058C4.18048 9.52058 4.152 9.5097 4.13 9.49002C4.1191 9.47974 4.11042 9.46734 4.10449 9.45358C4.09856 9.43982 4.0955 9.425 4.0955 9.41002C4.0955 9.39504 4.09856 9.38022 4.10449 9.36646C4.11042 9.3527 4.1191 9.3403 4.13 9.33002L4.4 9.00002H4.56C4.57256 9.01034 4.58268 9.02331 4.58963 9.03801C4.59658 9.05271 4.60018 9.06876 4.60018 9.08502C4.60018 9.10128 4.59658 9.11733 4.58963 9.13203C4.58268 9.14673 4.57256 9.1597 4.56 9.17002H4.6ZM6.75 10.31C6.77036 10.291 6.79716 10.2805 6.825 10.2805C6.85284 10.2805 6.87964 10.291 6.9 10.31C6.91968 10.332 6.93056 10.3605 6.93056 10.39C6.93056 10.4195 6.91968 10.448 6.9 10.47L6.43 10.94L6 11.28C5.99069 11.2924 5.97861 11.3025 5.96472 11.3095C5.95084 11.3164 5.93552 11.32 5.92 11.32C5.90448 11.32 5.88916 11.3164 5.87528 11.3095C5.86139 11.3025 5.84931 11.2924 5.84 11.28C5.82374 11.2603 5.81485 11.2356 5.81485 11.21C5.81485 11.1845 5.82374 11.1597 5.84 11.14L6.75 10.31ZM7.65 11.51L7.33 11.82C7.32069 11.8324 7.30861 11.8425 7.29472 11.8495C7.28084 11.8564 7.26552 11.86 7.25 11.86C7.23448 11.86 7.21916 11.8564 7.20528 11.8495C7.19139 11.8425 7.17931 11.8324 7.17 11.82C7.15102 11.7997 7.14047 11.7729 7.14047 11.745C7.14047 11.7172 7.15102 11.6904 7.17 11.67L7.49 11.35H7.65V11.51ZM9.49 12.28C9.49 12.28 9.49 12.37 9.49 12.4H9.28L8.62 11.75C8.66315 11.6487 8.6869 11.5401 8.69 11.43C8.69049 11.2776 8.66068 11.1267 8.60231 10.9859C8.54394 10.8451 8.45818 10.7174 8.35 10.61C8.23283 10.4932 8.08852 10.4073 7.93 10.36C7.935 10.0961 7.84314 9.83942 7.67178 9.63859C7.50043 9.43775 7.26145 9.30664 7 9.27002C6.96834 9.04465 6.86693 8.83484 6.71 8.67002C6.53982 8.50813 6.32519 8.40071 6.09359 8.36151C5.862 8.32232 5.62398 8.35314 5.41 8.45002C5.3829 8.38771 5.34574 8.33028 5.3 8.28002C5.09435 8.08564 4.8257 7.97163 4.54301 7.95878C4.26033 7.94593 3.98243 8.03509 3.76 8.21002L3.1 7.75002L2.1 7.68002L2.6 4.68002L4 4.82002L4.13 4.76002C5.32 4.26002 6.69 3.76002 6.87 3.67002C7.05 3.58002 9 4.00002 10.6 4.33002C10.6049 4.35982 10.6049 4.39022 10.6 4.42002C10.5861 4.45905 10.5619 4.4936 10.53 4.52002C9.63897 4.26995 8.72378 4.11574 7.8 4.06002C6.53786 4.51268 5.30252 5.03686 4.1 5.63002L3.78 5.78002V6.14002C3.79918 6.39339 3.87918 6.6384 4.01323 6.85426C4.14727 7.07013 4.3314 7.25048 4.55 7.38002C5.26 7.80002 6.32 7.68002 7.69 7.03002C8.40503 7.10749 9.10732 7.2755 9.78 7.53002C10.11 7.76002 11.33 8.88002 12.08 9.59002C12.0956 9.60919 12.1043 9.63308 12.1047 9.65782C12.1051 9.68255 12.0972 9.7067 12.0821 9.72635C12.0671 9.74601 12.0459 9.76002 12.0219 9.76613C11.9979 9.77223 11.9726 9.77008 11.95 9.76002L11.42 9.25002L10.69 10L11.21 10.51C11.2198 10.5303 11.2248 10.5525 11.2248 10.575C11.2248 10.5975 11.2198 10.6197 11.21 10.64H11.06L10.59 10.17L9.85 10.91L10.31 11.38C10.3242 11.4024 10.3318 11.4285 10.3318 11.455C10.3318 11.4816 10.3242 11.5076 10.31 11.53H10.17L9.74 11.1L9 11.82L9.43 12.25L9.49 12.28ZM13.35 7.83002L12.53 8.52002C11.91 8.00002 10.78 6.94002 10.4 6.67002C9.53873 6.31244 8.62853 6.08657 7.7 6.00002H7.39C5.9 6.73002 5.3 6.57002 5.11 6.46002C5.06904 6.43983 5.03183 6.41277 5 6.38002C6.33 5.76002 7.71 5.15002 8 5.10002C8.86082 5.20091 9.71309 5.36468 10.55 5.59002H10.68L13.51 4.87002L13.99 7.80002L13.35 7.83002Z" fill="#0E0E0E"/>
</g>
</svg>
