<svg width="16" height="16" viewBox="0 0 16 16" fill="none" xmlns="http://www.w3.org/2000/svg">
<path d="M12.2699 1.89V3H13.1199V15H2.87995V3H3.72995V1.89H1.81995V16H14.1799V1.89H12.2699Z" fill="#0E0E0E"/>
<path d="M11.2599 1.29H9.73995C9.62574 0.917618 9.39508 0.591703 9.08187 0.360161C8.76867 0.128618 8.38944 0.00366211 7.99995 0.00366211C7.61045 0.00366211 7.23122 0.128618 6.91802 0.360161C6.60482 0.591703 6.37416 0.917618 6.25995 1.29H4.73995V4.59H11.2599V1.29ZM10.1899 3.52H5.80995V2.36H7.23995V1.82C7.23995 1.61843 7.32002 1.42512 7.46254 1.28259C7.60507 1.14007 7.79838 1.06 7.99995 1.06C8.20151 1.06 8.39482 1.14007 8.53735 1.28259C8.67987 1.42512 8.75995 1.61843 8.75995 1.82V2.36H10.1899V3.52Z" fill="#0E0E0E"/>
</svg>
