<svg width="16" height="16" viewBox="0 0 16 16" fill="none" xmlns="http://www.w3.org/2000/svg">
<g id="dds2_inbox-arrow-down">
<g id="Vector">
<path d="M16 9.93L13.38 6.73H11.31L10.24 7.8H12.87L13.75 8.86H10.89L10.05 10H6L5.11 8.86H2.25L3.13 7.8H5.76L4.69 6.73H2.62L0 9.93L0.67 13.93H15.33L16 9.93ZM14.89 10.08L14.42 12.88H1.58L1.11 10.05V9.92H4.58L5.41 11.04H10.59L11.42 9.92H14.91L14.89 10.08Z" fill="#0E0E0E"/>
<path d="M8 8.53L11.31 5.22L10.62 4.53L8.47 6.68V2H7.47V6.65L5.38 4.53L4.69 5.22L8 8.53Z" fill="#0E0E0E"/>
</g>
</g>
</svg>
