<svg width="16" height="16" viewBox="0 0 16 16" fill="none" xmlns="http://www.w3.org/2000/svg">
<g id="dds2_network-vert-disable">
<g id="Vector">
<path d="M5.54 13.48H3L1.48 14.48H6.57V11L5.57 11.69L5.54 13.48Z" fill="#0E0E0E"/>
<path d="M1.32 9.91999V10.36L2 9.91999H1.32Z" fill="#0E0E0E"/>
<path d="M12.57 7.48999H11.83L10.3 8.48999H11.54V9.88999H9.43V14.48H14.68V9.91999H12.57V7.48999ZM13.65 11V13.53H10.46V11H13.65Z" fill="#0E0E0E"/>
<path d="M3.43 7.48999V8.93999L5.58 7.48999H3.43Z" fill="#0E0E0E"/>
<path d="M7.5 6.18999L7.66 6.07999L9.19 5.07999H6.4V2.51999H9.6V4.76999L10.6 4.07999V1.48999H5.37V6.07999H7.5V6.18999Z" fill="#0E0E0E"/>
<path d="M16 3.17999L15.42 2.32999L0 12.74L0.58 13.6L9.58 7.48999L16 3.17999Z" fill="#0E0E0E"/>
</g>
</g>
</svg>
