<svg width="16" height="16" viewBox="0 0 16 16" fill="none" xmlns="http://www.w3.org/2000/svg">
<g id="dds2_hd-generic" clip-path="url(#clip0_7172_849)">
<g id="Vector">
<path d="M0 0V16H16V0H0ZM14.93 14.93H1.07V1.07H14.93V14.93Z" fill="#0E0E0E"/>
<path d="M3.81 8.3H6.6V11H7.53V5H6.6V7.51H3.81V5H2.88V11H3.81V8.3Z" fill="#0E0E0E"/>
<path d="M10.43 11C10.925 11.0023 11.4128 10.882 11.85 10.65C12.2551 10.4167 12.5822 10.0687 12.79 9.65C13.0181 9.19063 13.1313 8.68277 13.12 8.17V7.8C13.1244 7.29436 13.0114 6.79461 12.79 6.34C12.5822 5.92125 12.2551 5.57333 11.85 5.34C11.4246 5.10644 10.9452 4.98916 10.46 5H8.74V11H10.43ZM9.67 10.21V5.79H10.48C10.7174 5.78173 10.9537 5.82481 11.1729 5.91628C11.3921 6.00775 11.5889 6.14546 11.75 6.32C12.074 6.75039 12.2336 7.28235 12.2 7.82V8.16C12.2376 8.70909 12.0661 9.25209 11.72 9.68C11.5517 9.85897 11.3464 9.9991 11.1185 10.0906C10.8905 10.1822 10.6453 10.2229 10.4 10.21H9.67Z" fill="#0E0E0E"/>
</g>
</g>
<defs>
<clipPath id="clip0_7172_849">
<rect width="16" height="16" fill="white"/>
</clipPath>
</defs>
</svg>
