<svg width="16" height="16" viewBox="0 0 16 16" fill="none" xmlns="http://www.w3.org/2000/svg">
<g id="dds2_power-on" clip-path="url(#clip0_7172_725)">
<g id="Vector">
<path d="M7.42002 0H8.62002V6.39H7.42002V0Z" fill="#0E0E0E"/>
<path d="M10.45 2.43V3.56C11.5592 3.9798 12.517 4.72255 13.1998 5.69229C13.8825 6.66203 14.2588 7.81422 14.28 9C14.2303 10.618 13.5416 12.1505 12.3646 13.2619C11.1876 14.3733 9.61825 14.9731 8.00002 14.93C6.3818 14.9731 4.81241 14.3733 3.63542 13.2619C2.45843 12.1505 1.76971 10.618 1.72002 9C1.7498 7.80844 2.13381 6.65275 2.82306 5.68031C3.51232 4.70788 4.47559 3.96276 5.59002 3.54V2.41C4.17577 2.84531 2.93584 3.7176 2.04829 4.9016C1.16073 6.08561 0.671215 7.52042 0.650024 9C0.699812 10.9018 1.5013 12.7064 2.87894 14.0184C4.25658 15.3304 6.09806 16.043 8.00002 16C9.90199 16.043 11.7435 15.3304 13.1211 14.0184C14.4987 12.7064 15.3002 10.9018 15.35 9C15.3274 7.52887 14.8417 6.10229 13.9621 4.92288C13.0825 3.74348 11.8536 2.87122 10.45 2.43Z" fill="#0E0E0E"/>
</g>
</g>
<defs>
<clipPath id="clip0_7172_725">
<rect width="16" height="16" fill="white"/>
</clipPath>
</defs>
</svg>
