<svg width="16" height="16" viewBox="0 0 16 16" fill="none" xmlns="http://www.w3.org/2000/svg">
<g id="dds2_mouse-cord">
<g id="Vector">
<path d="M7.46998 4.65H8.52998V7.23H7.46998V4.65Z" fill="#0E0E0E"/>
<path d="M8.57998 2.47H8.52998V0H7.46998V2.47C7.04724 2.46471 6.62764 2.54325 6.23542 2.70107C5.8432 2.85889 5.48615 3.09287 5.18489 3.38948C4.88362 3.6861 4.64412 4.03947 4.48022 4.42918C4.31632 4.8189 4.23127 5.23723 4.22998 5.66V12.8C4.22998 13.647 4.56575 14.4594 5.1637 15.0592C5.76166 15.659 6.57302 15.9974 7.41998 16H8.57998C9.42694 15.9974 10.2383 15.659 10.8363 15.0592C11.4342 14.4594 11.77 13.647 11.77 12.8V5.66C11.7673 4.81477 11.4304 4.00491 10.8327 3.40724C10.2351 2.80957 9.42521 2.47264 8.57998 2.47ZM10.71 12.8C10.71 13.3649 10.4856 13.9067 10.0861 14.3061C9.68667 14.7056 9.14489 14.93 8.57998 14.93H7.41998C6.85507 14.93 6.3133 14.7056 5.91384 14.3061C5.51439 13.9067 5.28998 13.3649 5.28998 12.8V5.66C5.29262 5.09682 5.5182 4.55761 5.91737 4.16032C6.31653 3.76303 6.8568 3.53999 7.41998 3.54H8.57998C9.14316 3.53999 9.68343 3.76303 10.0826 4.16032C10.4818 4.55761 10.7073 5.09682 10.71 5.66V12.8Z" fill="#0E0E0E"/>
</g>
</g>
</svg>
