<svg width="16" height="16" viewBox="0 0 16 16" fill="none" xmlns="http://www.w3.org/2000/svg">
<g id="dds2_mouse">
<g id="Vector">
<path d="M7.47001 2.68H8.53001V5.54H7.47001V2.68Z" fill="#0E0E0E"/>
<path d="M8.73001 0H7.27001C6.28156 0.00263939 5.33436 0.396468 4.63542 1.09541C3.93648 1.79435 3.54265 2.74155 3.54001 3.73V12.27C3.54265 13.2584 3.93648 14.2057 4.63542 14.9046C5.33436 15.6035 6.28156 15.9974 7.27001 16H8.73001C9.71845 15.9974 10.6657 15.6035 11.3646 14.9046C12.0635 14.2057 12.4574 13.2584 12.46 12.27V3.73C12.4574 2.74155 12.0635 1.79435 11.3646 1.09541C10.6657 0.396468 9.71845 0.00263939 8.73001 0ZM11.4 12.27C11.3974 12.9764 11.1149 13.653 10.6145 14.1515C10.114 14.6501 9.43641 14.93 8.73001 14.93H7.27001C6.56361 14.93 5.886 14.6501 5.38556 14.1515C4.88512 13.653 4.60265 12.9764 4.60001 12.27V3.73C4.60265 3.02361 4.88512 2.34705 5.38556 1.84849C5.886 1.34992 6.56361 1.07 7.27001 1.07H8.73001C9.43641 1.07 10.114 1.34992 10.6145 1.84849C11.1149 2.34705 11.3974 3.02361 11.4 3.73V12.27Z" fill="#0E0E0E"/>
</g>
</g>
</svg>
