<svg width="16" height="16" viewBox="0 0 16 16" fill="none" xmlns="http://www.w3.org/2000/svg">
<g id="dds2_flame">
<path id="Vector" d="M5.86998 8.44C5.86998 8.44 6.40998 7.44 6.65998 6.98C7.1262 5.98388 7.46229 4.93191 7.65998 3.85C7.77864 5.18281 7.74509 6.52479 7.55998 7.85V8C7.42193 8.71053 7.45276 9.44357 7.64998 10.14C7.74659 10.4901 7.95341 10.7998 8.2398 11.0231C8.52618 11.2464 8.8769 11.3716 9.23998 11.38C9.67555 11.3447 10.0929 11.1896 10.4458 10.932C10.7988 10.6743 11.0736 10.3241 11.24 9.92C11.8 11.49 11.85 12.75 11.37 13.57C10.73 14.7 8.99998 14.93 7.61998 14.93C6.61998 14.93 5.23998 14.76 4.61998 13.93C4.43174 13.6048 4.3124 13.2443 4.26939 12.871C4.22638 12.4977 4.26062 12.1195 4.36998 11.76C4.75298 10.6041 5.25571 9.4914 5.86998 8.44ZM6.74998 0C7.07836 2.21793 6.72984 4.48334 5.74998 6.5C4.7966 8.05946 4.01854 9.71955 3.42998 11.45C3.42998 11.45 1.89998 16 7.61998 16C13.34 16 14 12.26 11.17 7.16C10.9589 7.96851 10.664 8.75277 10.29 9.5C10.2068 9.71047 10.0713 9.89623 9.89636 10.0397C9.72137 10.1832 9.51266 10.2797 9.28998 10.32C9.05998 10.32 8.83998 10.18 8.70998 9.8C8.56476 9.2102 8.55111 8.59567 8.66998 8C8.99998 5 9.12998 1.6 6.74998 0Z" fill="#0E0E0E"/>
</g>
</svg>
