<svg width="16" height="16" viewBox="0 0 16 16" fill="none" xmlns="http://www.w3.org/2000/svg">
<g clip-path="url(#clip0_7172_1097)">
<path d="M12 6.91998L13.07 5.85998V1.85998H11.15V2.99998H12V6.91998Z" fill="#0E0E0E"/>
<path d="M12 14.93H1.76995V2.99998H2.61995V1.88998H0.699951V16H13.07V9.82998L12 10.89V14.93Z" fill="#0E0E0E"/>
<path d="M10.14 1.28998H8.62995C8.51277 0.919035 8.28043 0.595083 7.96664 0.36514C7.65286 0.135198 7.27397 0.0112305 6.88495 0.0112305C6.49594 0.0112305 6.11704 0.135198 5.80326 0.36514C5.48948 0.595083 5.25713 0.919035 5.13995 1.28998H3.62995V4.58998H10.14V1.28998ZM9.07995 3.51998H4.69995V2.35998H6.12995V1.81998C6.15131 1.63472 6.24004 1.46377 6.37926 1.33968C6.51847 1.21559 6.69846 1.14702 6.88495 1.14702C7.07145 1.14702 7.25143 1.21559 7.39065 1.33968C7.52986 1.46377 7.61859 1.63472 7.63995 1.81998V2.35998H9.07995V3.51998Z" fill="#0E0E0E"/>
<path d="M14.55 5.62998L8.48995 11.63L6.26995 9.48998L5.51995 10.26L8.51995 13.15L15.32 6.38998L14.55 5.62998Z" fill="#0E0E0E"/>
</g>
<defs>
<clipPath id="clip0_7172_1097">
<rect width="16" height="16" fill="white"/>
</clipPath>
</defs>
</svg>
