<svg width="16" height="16" viewBox="0 0 16 16" fill="none" xmlns="http://www.w3.org/2000/svg">
<g id="dds2_volume">
<path id="Vector" d="M14.5 8V3.45C14.5 1.51 11.64 0 8 0C4.36 0 1.5 1.51 1.5 3.45V8C1.5 10.33 1.5 12.68 1.5 12.73C1.68 14.6 4.47 16 8 16C11.53 16 14.29 14.61 14.49 12.77C14.49 12.77 14.49 10.35 14.49 8.02V8H14.5ZM13.43 8C13.43 9.12 11.19 10.37 8 10.37C4.81 10.37 2.58 9.13 2.57 8V5.36C4.16529 6.4482 6.07094 6.98866 8 6.9C9.92906 6.98866 11.8347 6.4482 13.43 5.36V8ZM8 1.07C11.2 1.07 13.43 2.32 13.43 3.45C13.43 4.58 11.2 5.83 8 5.83C4.8 5.83 2.57 4.57 2.57 3.45C2.57 2.33 4.8 1.07 8 1.07ZM8 14.93C4.88 14.93 2.67 13.75 2.57 12.67V9.92C4.16651 11.0047 6.07206 11.5416 8 11.45C9.92777 11.5401 11.8329 11.0033 13.43 9.92C13.43 11.4 13.43 12.58 13.43 12.65C13.31 13.75 11.1 14.93 8 14.93Z" fill="#0E0E0E"/>
</g>
</svg>
