<svg width="16" height="16" viewBox="0 0 16 16" fill="none" xmlns="http://www.w3.org/2000/svg">
<g clip-path="url(#clip0_7172_554)">
<path d="M14.47 7.94003L13.63 8.77003C13.9922 8.82301 14.3231 9.00491 14.5619 9.28231C14.8007 9.55972 14.9314 9.91399 14.93 10.28C14.9195 10.6991 14.745 11.0974 14.4439 11.3891C14.1428 11.6809 13.7392 11.8428 13.32 11.84H2.89C2.6462 11.8517 2.40267 11.8119 2.17525 11.7233C1.94782 11.6346 1.74158 11.4992 1.56994 11.3256C1.39829 11.1521 1.26508 10.9444 1.17894 10.716C1.09281 10.4876 1.05569 10.2437 1.07 10C1.0715 9.59519 1.20093 9.20118 1.4398 8.87431C1.67866 8.54743 2.01474 8.30443 2.4 8.18003L3.07 8.00003L3.17 7.31003C3.17 7.31003 3.38 5.94003 5.22 5.94003C5.4 5.94003 5.61 5.94003 5.82 5.94003L6.55 6.02003L6.9 5.39003C7.16044 4.98878 7.52246 4.66362 7.94926 4.44759C8.37606 4.23155 8.85244 4.13234 9.33 4.16003C9.89686 4.14507 10.454 4.30896 10.9225 4.62846C11.391 4.94796 11.747 5.40684 11.94 5.94003L12.75 5.14003C12.4226 4.52137 11.929 4.00639 11.3248 3.65305C10.7206 3.2997 10.0297 3.12203 9.33 3.14003C8.66796 3.1208 8.01238 3.27493 7.42827 3.58716C6.84416 3.89939 6.3518 4.35886 6 4.92003C5.75702 4.9015 5.51298 4.9015 5.27 4.92003C4.56225 4.84631 3.85243 5.03908 3.27919 5.46069C2.70596 5.88229 2.31048 6.50245 2.17 7.20003C1.55792 7.37598 1.01772 7.74216 0.6276 8.24555C0.237475 8.74893 0.0176688 9.36341 2.6077e-08 10C-0.0125187 10.3829 0.0536726 10.7643 0.194478 11.1206C0.335284 11.4769 0.547708 11.8005 0.818606 12.0714C1.0895 12.3423 1.41311 12.5547 1.76941 12.6956C2.1257 12.8364 2.5071 12.9025 2.89 12.89H13.37C13.37 12.89 16 12.73 16 10.28C16.0199 9.77934 15.8832 9.28489 15.609 8.8655C15.3348 8.4461 14.9366 8.12261 14.47 7.94003Z" fill="#0E0E0E"/>
<path d="M10.05 9.32003L7.53 6.87003L6.79 7.64003L10.06 10.81L16 4.91003L15.25 4.16003L12.25 7.16003L10.05 9.32003Z" fill="#0E0E0E"/>
</g>
<defs>
<clipPath id="clip0_7172_554">
<rect width="16" height="16" fill="white"/>
</clipPath>
</defs>
</svg>
