<svg width="16" height="16" viewBox="0 0 16 16" fill="none" xmlns="http://www.w3.org/2000/svg">
<g id="dds2_password">
<g id="Vector">
<path d="M0 5V11H16V5H0ZM14.93 9.94H1.07V6.06H14.93V9.94Z" fill="#0E0E0E"/>
<path d="M13.77 8C13.77 8.15823 13.7231 8.3129 13.6352 8.44446C13.5473 8.57602 13.4223 8.67855 13.2761 8.7391C13.13 8.79965 12.9691 8.8155 12.8139 8.78463C12.6587 8.75376 12.5162 8.67757 12.4043 8.56569C12.2924 8.4538 12.2162 8.31126 12.1854 8.15607C12.1545 8.00089 12.1703 7.84003 12.2309 7.69385C12.2914 7.54767 12.394 7.42273 12.5255 7.33482C12.6571 7.24692 12.8118 7.2 12.97 7.2C13.1822 7.2 13.3857 7.28429 13.5357 7.43431C13.6857 7.58434 13.77 7.78783 13.77 8Z" fill="#0E0E0E"/>
<path d="M10.46 8C10.46 8.15823 10.4131 8.3129 10.3252 8.44446C10.2373 8.57602 10.1123 8.67855 9.96615 8.7391C9.81997 8.79965 9.65911 8.8155 9.50393 8.78463C9.34874 8.75376 9.2062 8.67757 9.09431 8.56569C8.98243 8.4538 8.90624 8.31126 8.87537 8.15607C8.8445 8.00089 8.86035 7.84003 8.9209 7.69385C8.98145 7.54767 9.08398 7.42273 9.21554 7.33482C9.3471 7.24692 9.50177 7.2 9.66 7.2C9.87217 7.2 10.0757 7.28429 10.2257 7.43431C10.3757 7.58434 10.46 7.78783 10.46 8Z" fill="#0E0E0E"/>
<path d="M7.14 8C7.14 8.15823 7.09308 8.3129 7.00518 8.44446C6.91727 8.57602 6.79233 8.67855 6.64615 8.7391C6.49997 8.79965 6.33911 8.8155 6.18393 8.78463C6.02874 8.75376 5.8862 8.67757 5.77431 8.56569C5.66243 8.4538 5.58624 8.31126 5.55537 8.15607C5.5245 8.00089 5.54035 7.84003 5.6009 7.69385C5.66145 7.54767 5.76398 7.42273 5.89554 7.33482C6.0271 7.24692 6.18178 7.2 6.34 7.2C6.55217 7.2 6.75566 7.28429 6.90569 7.43431C7.05571 7.58434 7.14 7.78783 7.14 8Z" fill="#0E0E0E"/>
<path d="M3.83 8C3.82989 8.15692 3.78363 8.31035 3.69698 8.44118C3.61033 8.57201 3.48712 8.67447 3.34268 8.7358C3.19823 8.79714 3.03894 8.81463 2.88463 8.78612C2.73032 8.75761 2.5878 8.68434 2.47482 8.57544C2.36184 8.46654 2.28337 8.32681 2.2492 8.17365C2.21503 8.0205 2.22665 7.86067 2.28263 7.71407C2.3386 7.56747 2.43646 7.44057 2.56401 7.34916C2.69157 7.25776 2.84319 7.20588 3 7.2C3.10755 7.19596 3.21482 7.21367 3.31537 7.25207C3.41592 7.29046 3.50769 7.34875 3.58518 7.42344C3.66267 7.49813 3.7243 7.58769 3.76637 7.68676C3.80843 7.78583 3.83008 7.89237 3.83 8Z" fill="#0E0E0E"/>
</g>
</g>
</svg>
