<svg width="16" height="16" viewBox="0 0 16 16" fill="none" xmlns="http://www.w3.org/2000/svg">
<g id="dds2_web-camera-hd" clip-path="url(#clip0_7172_1257)">
<g id="Vector">
<path d="M8.52999 2.13002H7.99999C7.53238 2.12804 7.07472 2.26503 6.6851 2.52358C6.29547 2.78214 5.99143 3.15062 5.81157 3.58226C5.63171 4.0139 5.58413 4.48924 5.67487 4.94797C5.76562 5.40669 5.99059 5.82812 6.32124 6.15877C6.65189 6.48942 7.07332 6.7144 7.53205 6.80514C7.99077 6.89588 8.46611 6.8483 8.89775 6.66844C9.32939 6.48858 9.69787 6.18455 9.95643 5.79492C10.215 5.40529 10.352 4.94763 10.35 4.48002V4.00002H8.52999V2.13002ZM9.16999 5.00002C9.04637 5.26623 8.83567 5.48232 8.57266 5.61262C8.30966 5.74292 8.01009 5.77964 7.7234 5.71671C7.43672 5.65378 7.18006 5.49496 6.99582 5.26649C6.81157 5.03801 6.71075 4.75353 6.70999 4.46002C6.71238 4.21294 6.78514 3.97165 6.91974 3.76443C7.05434 3.55721 7.24522 3.39265 7.46999 3.29002V5.00002H9.16999Z" fill="#0E0E0E"/>
<path d="M12.49 4.48002C12.4841 3.59328 12.2157 2.72816 11.7188 1.99374C11.2218 1.25932 10.5185 0.688495 9.69755 0.353253C8.87661 0.0180116 7.97478 -0.0666363 7.10579 0.109984C6.2368 0.286605 5.43957 0.716585 4.81463 1.3457C4.18969 1.97482 3.76503 2.7749 3.5942 3.64504C3.42337 4.51519 3.51402 5.41643 3.85472 6.23513C4.19542 7.05382 4.77092 7.7533 5.50863 8.24535C6.24634 8.73741 7.11323 9 7.99999 9.00002C8.59216 9.00003 9.17848 8.88291 9.7252 8.65539C10.2719 8.42788 10.7682 8.09446 11.1856 7.67434C11.6029 7.25422 11.933 6.7557 12.1569 6.20748C12.3807 5.65927 12.4939 5.07218 12.49 4.48002ZM7.99999 7.90002C7.32358 7.90002 6.66236 7.69944 6.09994 7.32365C5.53753 6.94785 5.09917 6.41372 4.84032 5.7888C4.58147 5.16388 4.51374 4.47623 4.64571 3.81281C4.77767 3.1494 5.10339 2.54001 5.58169 2.06172C6.05998 1.58342 6.66937 1.2577 7.33278 1.12574C7.9962 0.993774 8.68385 1.0615 9.30877 1.32035C9.93369 1.57921 10.4678 2.01756 10.8436 2.57997C11.2194 3.14239 11.42 3.80361 11.42 4.48002C11.42 5.38706 11.0597 6.25695 10.4183 6.89833C9.77692 7.5397 8.90703 7.90002 7.99999 7.90002Z" fill="#0E0E0E"/>
<path d="M6.48999 10.13V12.64H3.54999V10.13H2.70999V16H3.54999V13.4H6.48999V16H7.32999V10.13H6.48999Z" fill="#0E0E0E"/>
<path d="M13.15 11.86C13.0623 11.5217 12.9057 11.2051 12.69 10.93C12.4558 10.6661 12.1605 10.4635 11.83 10.34C11.4103 10.1886 10.966 10.1173 10.52 10.13H8.66999V16H10.52C10.966 16.0127 11.4103 15.9415 11.83 15.79C12.1632 15.6667 12.4593 15.4602 12.69 15.19C12.9077 14.92 13.0646 14.6062 13.15 14.27C13.3365 13.4775 13.3365 12.6525 13.15 11.86ZM12.35 14C12.3025 14.2482 12.1962 14.4814 12.04 14.68C11.8737 14.8719 11.6599 15.0167 11.42 15.1C11.0967 15.2017 10.7588 15.2491 10.42 15.24H9.50999V10.88H10.43C10.7688 10.871 11.1067 10.9183 11.43 11.02C11.6717 11.0997 11.8863 11.2452 12.05 11.44C12.2062 11.6386 12.3125 11.8718 12.36 12.12C12.4321 12.428 12.4657 12.7438 12.46 13.06C12.4662 13.3796 12.4326 13.6987 12.36 14.01L12.35 14Z" fill="#0E0E0E"/>
</g>
</g>
<defs>
<clipPath id="clip0_7172_1257">
<rect width="16" height="16" fill="white"/>
</clipPath>
</defs>
</svg>
