<svg width="16" height="16" viewBox="0 0 16 16" fill="none" xmlns="http://www.w3.org/2000/svg">
<g id="dds2_hand-touch" clip-path="url(#clip0_7172_1261)">
<path id="Vector" d="M13.5 16V15.49C13.9 14.07 14.71 12.71 15.02 11.23C15.02 10.53 15.02 8.54997 15.02 8.46997C15.0164 7.77182 14.7566 7.09929 14.29 6.57997C14.1258 6.43838 13.9315 6.336 13.7219 6.28056C13.5122 6.22512 13.2928 6.21808 13.08 6.25997H12.92C12.8608 6.2166 12.8071 6.16624 12.76 6.10997C12.5004 5.85809 12.1753 5.68422 11.8217 5.60819C11.468 5.53216 11.1002 5.55703 10.76 5.67997C10.551 5.49752 10.2954 5.37662 10.0218 5.33072C9.74814 5.28481 9.46713 5.31571 9.21 5.41997V1.83997C9.22 0.619969 8.64 -3.09193e-05 7.49 -3.09193e-05C7.24966 -0.00668741 7.01036 0.0340828 6.78578 0.11995C6.56121 0.205817 6.35575 0.335097 6.18116 0.500403C6.00656 0.665708 5.86626 0.863799 5.76826 1.08335C5.67025 1.30291 5.61648 1.53962 5.61 1.77997L5.7 6.77997V9.06997V9.24997L4.34 8.09997C3.98149 7.79727 3.54151 7.6073 3.07535 7.55392C2.60919 7.50054 2.13765 7.58615 1.72 7.79997C1.46762 7.92751 1.26206 8.13162 1.13273 8.38309C1.0034 8.63456 0.956944 8.92049 1 9.19997C1.19 10.34 2.79 11.48 3.13 11.71C4.086 12.4127 4.99464 13.1777 5.85 14L7.29 16H13.5ZM14 11.19C13.8991 11.8218 13.6965 12.433 13.4 13L13.34 13.15C13.34 13.15 13.29 13.27 13.23 13.39C12.88 14.13 12.67 14.62 12.55 14.95H7.84L6.68 13.29C5.76321 12.4043 4.78403 11.5855 3.75 10.84C3.1 10.4 2.15 9.54997 2.07 9.03997C2.07 9.03997 2.07 8.86997 2.26 8.73997C2.48674 8.63557 2.73827 8.59709 2.98585 8.62892C3.23343 8.66075 3.46705 8.76161 3.66 8.91997L5.09 10.14C5.22732 10.2531 5.39045 10.3305 5.56491 10.3654C5.73937 10.4003 5.91974 10.3916 6.09 10.34C6.25921 10.267 6.4084 10.1544 6.525 10.0117C6.6416 9.86897 6.7222 9.70033 6.76 9.51997V9.45997L6.66 1.79997C6.66372 1.69877 6.6879 1.59937 6.73108 1.50776C6.77425 1.41616 6.83553 1.33425 6.91122 1.26697C6.98691 1.19969 7.07544 1.14843 7.17148 1.11629C7.26751 1.08416 7.36906 1.0718 7.47 1.07997C7.98 1.07997 8.14 1.18997 8.15 1.85997C8.15 2.71997 8.15 6.01997 8.15 6.01997V6.31997L8.41 6.47997C8.57537 6.59174 8.7704 6.65148 8.97 6.65148C9.1696 6.65148 9.36463 6.59174 9.53 6.47997C9.60633 6.44283 9.69011 6.42353 9.775 6.42353C9.85989 6.42353 9.94367 6.44283 10.02 6.47997C10.1784 6.65021 10.3871 6.76533 10.6156 6.80851C10.8441 6.85169 11.0804 6.82067 11.29 6.71997C11.4062 6.68853 11.5283 6.6867 11.6454 6.71465C11.7624 6.7426 11.8706 6.79944 11.96 6.87997C12.1105 7.07474 12.3148 7.22115 12.5476 7.30113C12.7804 7.3811 13.0316 7.39113 13.27 7.32997C13.3221 7.31871 13.376 7.31915 13.4279 7.33126C13.4797 7.34336 13.5283 7.36683 13.57 7.39997C13.8257 7.70442 13.9764 8.08312 14 8.47997C14 8.47997 14 10.48 14 11.19Z" fill="#0E0E0E"/>
</g>
<defs>
<clipPath id="clip0_7172_1261">
<rect width="16" height="16" fill="white"/>
</clipPath>
</defs>
</svg>
