<svg width="16" height="16" viewBox="0 0 16 16" fill="none" xmlns="http://www.w3.org/2000/svg">
<g id="dds2_tag-deal" clip-path="url(#clip0_7172_460)">
<g id="Vector">
<path d="M4.05 2.33008L0.0500031 6.33008V9.62008L4.1 13.6701H16V2.33008H4.05ZM14.9 12.5701H4.5L1.1 9.17008V6.83008L4.5 3.43008H14.9V12.5701Z" fill="#0E0E0E"/>
<path d="M4 8.00008C4 8.1761 3.94781 8.34818 3.85001 8.49454C3.75222 8.64089 3.61322 8.75497 3.45059 8.82233C3.28797 8.88969 3.10902 8.90732 2.93637 8.87298C2.76373 8.83864 2.60515 8.75387 2.48068 8.6294C2.35621 8.50493 2.27145 8.34635 2.2371 8.17371C2.20276 8.00107 2.22039 7.82212 2.28775 7.65949C2.35511 7.49686 2.46919 7.35786 2.61555 7.26007C2.76191 7.16228 2.93398 7.11008 3.11 7.11008C3.34605 7.11008 3.57242 7.20385 3.73933 7.37075C3.90624 7.53766 4 7.76404 4 8.00008Z" fill="#0E0E0E"/>
<path d="M13.83 10.0001H12.73V10.4701H11.84V11.5701H13.84L13.83 10.0001Z" fill="#0E0E0E"/>
<path d="M12.73 6.05008H13.83V4.45008H11.83V5.55008H12.72L12.73 6.05008Z" fill="#0E0E0E"/>
<path d="M5.55 7.23008H6.65V8.79008H5.55V7.23008Z" fill="#0E0E0E"/>
<path d="M7.5 10.4501H6.65V10.0001H5.55V11.5701H7.55L7.5 10.4501Z" fill="#0E0E0E"/>
<path d="M8.68 4.45008H10.68V5.55008H8.68V4.45008Z" fill="#0E0E0E"/>
<path d="M6.65 5.55008H7.5V4.45008H5.55V6.05008H6.65V5.55008Z" fill="#0E0E0E"/>
<path d="M12.73 7.23008H13.83V8.79008H12.73V7.23008Z" fill="#0E0E0E"/>
<path d="M8.68 10.4501H10.68V11.5501H8.68V10.4501Z" fill="#0E0E0E"/>
</g>
</g>
<defs>
<clipPath id="clip0_7172_460">
<rect width="16" height="16" fill="white"/>
</clipPath>
</defs>
</svg>
