<svg width="16" height="16" viewBox="0 0 16 16" fill="none" xmlns="http://www.w3.org/2000/svg">
<g clip-path="url(#clip0_7172_689)">
<path d="M6.26 14.93H2V2.99998H2.84V1.88998H0.940002V16H7.44C6.99657 15.7028 6.59902 15.3423 6.26 14.93Z" fill="#0E0E0E"/>
<path d="M12.24 6.11998C12.6141 6.24214 12.9731 6.40653 13.31 6.60998V1.88998H11.39V2.99998H12.24V6.11998Z" fill="#0E0E0E"/>
<path d="M10.38 1.28998H8.87C8.75282 0.919035 8.52048 0.595083 8.20669 0.36514C7.89291 0.135198 7.51402 0.0112305 7.125 0.0112305C6.73599 0.0112305 6.35709 0.135198 6.04331 0.36514C5.72953 0.595083 5.49719 0.919035 5.38 1.28998H3.86V4.58998H10.38V1.28998ZM9.31 3.51998H4.93V2.35998H6.37V1.81998C6.37 1.62107 6.44902 1.4303 6.58967 1.28965C6.73032 1.149 6.92109 1.06998 7.12 1.06998C7.31985 1.06996 7.51165 1.14866 7.6539 1.28903C7.79614 1.42941 7.87737 1.62016 7.88 1.81998V2.35998H9.31V3.51998Z" fill="#0E0E0E"/>
<path d="M12.82 9.82998L12.06 9.07998L10.51 10.63L9 9.07998L8.25 9.82998L9.8 11.39L8.2 12.94L9 13.7L10.56 12.14L12.11 13.7L12.87 12.94L11.31 11.39L12.31 10.39L12.82 9.82998Z" fill="#0E0E0E"/>
<path d="M13.31 7.81998C12.985 7.55771 12.6248 7.34228 12.24 7.17998C11.5509 6.90169 10.8039 6.79683 10.0648 6.87462C9.32566 6.95242 8.61693 7.21048 8.00082 7.62615C7.38472 8.04183 6.88008 8.6024 6.53123 9.25865C6.18237 9.9149 5.99995 10.6468 6 11.39C6.00098 12.0726 6.15724 12.7461 6.45697 13.3594C6.75669 13.9727 7.19202 14.5098 7.73 14.93C8.52865 15.5817 9.52919 15.9353 10.56 15.93C11.5062 15.9317 12.4294 15.6376 13.2003 15.089C13.9713 14.5404 14.5515 13.7645 14.86 12.87C15.1685 11.9754 15.1897 11.0069 14.9208 10.0996C14.6518 9.19241 14.1062 8.3919 13.36 7.80998L13.31 7.81998ZM13.31 13.45C12.9567 13.9275 12.487 14.3066 11.9456 14.5512C11.4043 14.7958 10.8094 14.8978 10.2175 14.8474C9.6256 14.7971 9.05645 14.596 8.56425 14.2634C8.07205 13.9309 7.67317 13.4778 7.40561 12.9475C7.13804 12.4171 7.01068 11.8271 7.03567 11.2336C7.06066 10.6401 7.23716 10.0629 7.54836 9.55687C7.85957 9.05088 8.29511 8.63297 8.81353 8.34295C9.33194 8.05292 9.91597 7.90042 10.51 7.89998C11.1193 7.90209 11.7168 8.06787 12.24 8.37998C12.6659 8.6219 13.0356 8.9515 13.3246 9.34698C13.6137 9.74245 13.8154 10.1948 13.9166 10.6741C14.0177 11.1533 14.016 11.6486 13.9114 12.1272C13.8068 12.6057 13.6018 13.0566 13.31 13.45Z" fill="#0E0E0E"/>
</g>
<defs>
<clipPath id="clip0_7172_689">
<rect width="16" height="16" fill="white"/>
</clipPath>
</defs>
</svg>
