<svg width="16" height="16" viewBox="0 0 16 16" fill="none" xmlns="http://www.w3.org/2000/svg">
<g id="dds2_shield-check">
<g id="Vector">
<path d="M2 0V8.31C2.11058 10.0466 2.74234 11.7094 3.81275 13.0813C4.88316 14.4532 6.34245 15.4704 8 16C9.65755 15.4704 11.1168 14.4532 12.1873 13.0813C13.2577 11.7094 13.8894 10.0466 14 8.31V0H2ZM13 8.31C12.9039 9.77632 12.3787 11.182 11.4896 12.352C10.6006 13.522 9.38699 14.4046 8 14.89C6.60924 14.4015 5.39327 13.514 4.50401 12.3384C3.61475 11.1628 3.09162 9.7512 3 8.28V1.07H13V8.31Z" fill="#0E0E0E"/>
<path d="M11.69 5.24L10.94 4.48L6.94 8.48L5.06 6.6L4.31 7.35L6.94 10L11.69 5.24Z" fill="#0E0E0E"/>
</g>
</g>
</svg>
