<svg width="16" height="16" viewBox="0 0 16 16" fill="none" xmlns="http://www.w3.org/2000/svg">
<g id="dds2_keypad">
<g id="Vector">
<path d="M11.89 0H14.17V2.29H11.89V0Z" fill="#0E0E0E"/>
<path d="M6.85999 0H9.13999V2.29H6.85999V0Z" fill="#0E0E0E"/>
<path d="M1.82999 0H4.10999V2.29H1.82999V0Z" fill="#0E0E0E"/>
<path d="M11.89 4.57H14.17V6.86H11.89V4.57Z" fill="#0E0E0E"/>
<path d="M6.85999 4.57H9.13999V6.86H6.85999V4.57Z" fill="#0E0E0E"/>
<path d="M1.82999 4.57H4.10999V6.86H1.82999V4.57Z" fill="#0E0E0E"/>
<path d="M11.89 9.14H14.17V11.43H11.89V9.14Z" fill="#0E0E0E"/>
<path d="M6.85999 9.14H9.13999V11.43H6.85999V9.14Z" fill="#0E0E0E"/>
<path d="M1.82999 9.14H4.10999V11.43H1.82999V9.14Z" fill="#0E0E0E"/>
<path d="M6.85999 13.71H9.13999V16H6.85999V13.71Z" fill="#0E0E0E"/>
</g>
</g>
</svg>
