<svg width="16" height="16" viewBox="0 0 16 16" fill="none" xmlns="http://www.w3.org/2000/svg">
<path d="M14.89 9.92V1.62H1.05V6C1.37275 5.75947 1.73479 5.57676 2.12 5.46V2.68H13.83V9.92H7V11H14.74L14.64 11.67H7V12.74H15.55L16 9.92H14.89Z" fill="#0E0E0E"/>
<path d="M5.21 8.56C5.21001 8.27071 5.15271 7.98429 5.0414 7.71727C4.9301 7.45026 4.76699 7.20794 4.56151 7.00432C4.35603 6.80069 4.11224 6.6398 3.84422 6.53092C3.5762 6.42205 3.28927 6.36735 3 6.36999C2.68809 6.37196 2.38057 6.44371 2.1 6.57999C1.63682 6.77711 1.25795 7.13119 1.03 7.57999C0.890323 7.87045 0.815266 8.18774 0.81 8.50999V9.72999H0V14.38H6V9.72999H5.21V8.56ZM1.9 8.56C1.90567 8.33216 1.98261 8.11183 2.12 7.92999C2.21645 7.78356 2.34681 7.66256 2.50001 7.57725C2.65321 7.49195 2.82472 7.44487 3 7.43999C3.14875 7.43734 3.29655 7.46435 3.43475 7.51944C3.57295 7.57453 3.69879 7.65661 3.80492 7.76088C3.91105 7.86515 3.99534 7.98951 4.05287 8.12672C4.1104 8.26392 4.14002 8.41122 4.14 8.56V9.72999H1.9V8.56ZM4.9 13.32H1.06V10.79H4.9V13.32Z" fill="#0E0E0E"/>
</svg>
