<svg width="16" height="16" viewBox="0 0 16 16" fill="none" xmlns="http://www.w3.org/2000/svg">
<g id="dds2_shipping" clip-path="url(#clip0_7172_877)">
<g id="Vector">
<path d="M13.88 8.99994L10.68 11.1499L3.06 0.439941H0V1.50994H2.51L9.92 11.9999C9.55683 12.1158 9.23861 12.3416 9.00932 12.6461C8.78002 12.9507 8.65097 13.3189 8.64 13.6999C8.64373 14.0318 8.73615 14.3565 8.9077 14.6406C9.07924 14.9246 9.32366 15.1576 9.61559 15.3154C9.90753 15.4732 10.2364 15.55 10.568 15.5378C10.8996 15.5257 11.2219 15.425 11.5015 15.2463C11.7811 15.0676 12.0078 14.8174 12.1581 14.5215C12.3084 14.2257 12.3769 13.895 12.3563 13.5638C12.3358 13.2326 12.227 12.9129 12.0412 12.638C11.8555 12.363 11.5996 12.1427 11.3 11.9999L14.47 9.89994L13.88 8.99994ZM10.5 14.4899C10.3433 14.4919 10.1896 14.4473 10.0584 14.3617C9.92719 14.2761 9.82437 14.1534 9.76304 14.0093C9.70171 13.8651 9.68464 13.7059 9.71398 13.552C9.74332 13.3981 9.81776 13.2564 9.92784 13.145C10.0379 13.0335 10.1787 12.9572 10.3322 12.9259C10.4857 12.8946 10.645 12.9097 10.79 12.9692C10.9349 13.0287 11.0589 13.1299 11.1461 13.26C11.2334 13.3901 11.28 13.5433 11.28 13.6999C11.28 13.9077 11.1982 14.1072 11.0522 14.255C10.9062 14.4029 10.7078 14.4873 10.5 14.4899Z" fill="#0E0E0E"/>
<path d="M16 6.16994L12.43 1.16994L7.32 4.64994L10.87 9.64994L16 6.16994ZM12.17 2.59994L14.5 5.89994L11.13 8.17994L8.82 4.91994L12.17 2.59994Z" fill="#0E0E0E"/>
</g>
</g>
<defs>
<clipPath id="clip0_7172_877">
<rect width="16" height="16" fill="white"/>
</clipPath>
</defs>
</svg>
