<svg width="16" height="16" viewBox="0 0 16 16" fill="none" xmlns="http://www.w3.org/2000/svg">
<path d="M2.67002 0V2.37H1.33002V3.44H2.67002V4.49H1.33002V5.56H2.67002V10.44H1.33002V11.51H2.67002V12.57H1.33002V13.63H2.67002V16H14.67V0H2.67002ZM13.62 14.93H3.74002V13.63H4.74002V12.57H3.74002V11.51H4.74002V10.44H3.74002V5.56H4.74002V4.49H3.74002V3.44H4.74002V2.37H3.74002V1.07H13.61V14.94L13.62 14.93Z" fill="#0E0E0E"/>
<path d="M6.08002 7.2H11.27V3.71H6.08002V7.2ZM7.14002 4.77H10.2V6.13H7.14002V4.77Z" fill="#0E0E0E"/>
<path d="M6.08002 8.52H11.27V9.58H6.08002V8.52Z" fill="#0E0E0E"/>
</svg>
