<svg width="16" height="16" viewBox="0 0 16 16" fill="none" xmlns="http://www.w3.org/2000/svg">
<g id="dds2_user-group">
<g id="Vector">
<path d="M7.7 9.37992L7.37 9.16992L7.07 9.41992C6.4922 9.8816 5.77459 10.1331 5.035 10.1331C4.29541 10.1331 3.5778 9.8816 3 9.41992L2.7 9.16992L2.37 9.37992C1.72993 9.85307 1.19315 10.4519 0.792518 11.1396C0.391883 11.8274 0.135819 12.5897 0.04 13.3799L0 13.9999H10.09L10.03 13.3999C9.9368 12.6062 9.68197 11.8401 9.28123 11.1487C8.8805 10.4573 8.34235 9.85531 7.7 9.37992ZM1.25 12.8899C1.46763 11.9644 1.9673 11.1292 2.68 10.4999C3.38303 10.9598 4.2049 11.2048 5.045 11.2048C5.8851 11.2048 6.70697 10.9598 7.41 10.4999C8.1227 11.1292 8.62237 11.9644 8.84 12.8899H1.25Z" fill="#0E0E0E"/>
<path d="M15.94 11.9999C15.8442 11.2097 15.5881 10.4474 15.1875 9.75965C14.7868 9.07186 14.2501 8.47307 13.61 7.99992L13.28 7.78992L12.98 8.03992C12.4038 8.49661 11.6902 8.74512 10.955 8.74512C10.2198 8.74512 9.50617 8.49661 8.93 8.03992L8.64 7.79992C8.53988 8.02384 8.41937 8.23807 8.28 8.43992C8.76222 8.76469 9.19073 9.16283 9.55 9.61992C10.1715 9.83778 10.8349 9.90961 11.4887 9.82984C12.1425 9.75007 12.7691 9.52084 13.32 9.15992C14.0327 9.78925 14.5324 10.6244 14.75 11.5499H10.66C10.7999 11.901 10.9135 12.262 11 12.6299H16L15.94 12.0299V11.9999Z" fill="#0E0E0E"/>
<path d="M8.92 6.92992C9.36023 7.37257 9.93237 7.66019 10.5503 7.74945C11.1681 7.83872 11.7983 7.72479 12.3458 7.42484C12.8933 7.12488 13.3285 6.65514 13.5859 6.08637C13.8433 5.5176 13.9089 4.88059 13.7728 4.27131C13.6367 3.66203 13.3064 3.11345 12.8315 2.70822C12.3566 2.30299 11.7628 2.06305 11.1397 2.02453C10.5166 1.98601 9.89788 2.15101 9.37669 2.49467C8.85549 2.83832 8.46008 3.34203 8.25 3.92992C8.73762 4.60142 9.00016 5.41004 9 6.23992C8.99753 6.47156 8.9741 6.7025 8.93 6.92992H8.92ZM10.92 3.10992C11.2776 3.10396 11.629 3.2047 11.9291 3.39927C12.2293 3.59385 12.4646 3.87344 12.6052 4.20236C12.7457 4.53129 12.7851 4.89463 12.7183 5.24603C12.6514 5.59743 12.4814 5.92094 12.2299 6.17529C11.9784 6.42964 11.6568 6.60328 11.3062 6.67407C10.9556 6.74486 10.5918 6.70957 10.2613 6.57272C9.93083 6.43587 9.64861 6.20366 9.45068 5.90571C9.25274 5.60777 9.14806 5.25761 9.15 4.89992C9.15124 4.66012 9.20038 4.42298 9.29455 4.20243C9.38871 3.98188 9.52599 3.78238 9.69833 3.61563C9.87067 3.44888 10.0746 3.31824 10.2981 3.2314C10.5217 3.14456 10.7603 3.10325 11 3.10992H10.92Z" fill="#0E0E0E"/>
<path d="M5.05 9.10992C5.50678 9.10895 5.95668 8.99859 6.36205 8.78808C6.76742 8.57756 7.11648 8.27301 7.38 7.89992C7.73104 7.41763 7.9201 6.83644 7.92 6.23992C7.87674 5.50674 7.555 4.81778 7.02058 4.31397C6.48617 3.81015 5.77946 3.52955 5.045 3.52955C4.31054 3.52955 3.60383 3.81015 3.06942 4.31397C2.535 4.81778 2.21326 5.50674 2.17 6.23992C2.1699 6.83644 2.35896 7.41763 2.71 7.89992C2.9745 8.27439 3.32515 8.57979 3.73239 8.79038C4.13963 9.00096 4.59153 9.11055 5.05 9.10992ZM5.05 4.43992C5.40557 4.44189 5.7526 4.54914 6.04729 4.74812C6.34198 4.94711 6.57113 5.22891 6.70584 5.55799C6.84054 5.88707 6.87476 6.24867 6.80419 6.59717C6.73361 6.94568 6.56139 7.26547 6.30926 7.5162C6.05713 7.76694 5.73639 7.93738 5.3875 8.00603C5.03861 8.07468 4.6772 8.03845 4.34888 7.90192C4.02056 7.7654 3.74002 7.53469 3.54267 7.2389C3.34533 6.94311 3.24001 6.5955 3.24 6.23992C3.24264 5.76161 3.4345 5.3038 3.77366 4.96651C4.11281 4.62923 4.57169 4.43991 5.05 4.43992Z" fill="#0E0E0E"/>
</g>
</g>
</svg>
