<svg width="16" height="16" viewBox="0 0 16 16" fill="none" xmlns="http://www.w3.org/2000/svg">
<g id="dds2_printer" clip-path="url(#clip0_7172_187)">
<g id="Vector">
<path d="M12.12 3.39003V0.780029H3.88V3.39003H0V11.08H3.88V15.22H12.12V11.08H16V3.39003H12.12ZM5 1.84003H11.1V3.39003H5V1.84003ZM11.1 14.16H5V7.77003H11.1V14.16ZM14.93 10H12.12V7.77003H12.47V6.70003H3.53V7.77003H3.88V10H1.07V4.46003H14.93V10Z" fill="#0E0E0E"/>
<path d="M5.84 10.52H10.16V9.46003H5.84V10.52Z" fill="#0E0E0E"/>
<path d="M5.84 11.64H10.16V12.7H5.84V11.64Z" fill="#0E0E0E"/>
<path d="M14.33 5.50003C14.338 5.60818 14.3133 5.71624 14.2591 5.81014C14.2048 5.90404 14.1236 5.97943 14.0259 6.02651C13.9282 6.07358 13.8186 6.09014 13.7113 6.07405C13.6041 6.05795 13.5042 6.00994 13.4246 5.93626C13.345 5.86258 13.2895 5.76665 13.2652 5.66096C13.2409 5.55527 13.249 5.44472 13.2884 5.3437C13.3279 5.24267 13.3968 5.15586 13.4863 5.09457C13.5757 5.03327 13.6816 5.00033 13.79 5.00003C13.9265 4.99965 14.0582 5.05102 14.1584 5.1438C14.2586 5.23657 14.3199 5.36386 14.33 5.50003Z" fill="#0E0E0E"/>
</g>
</g>
<defs>
<clipPath id="clip0_7172_187">
<rect width="16" height="16" fill="white"/>
</clipPath>
</defs>
</svg>
