<svg width="16" height="16" viewBox="0 0 16 16" fill="none" xmlns="http://www.w3.org/2000/svg">
<g id="dds2_user-lock" clip-path="url(#clip0_7172_751)">
<g id="Vector">
<path d="M6 6.71994C6.66368 6.71599 7.31132 6.51558 7.86124 6.14398C8.41115 5.77239 8.83869 5.24626 9.08994 4.63196C9.34119 4.01766 9.40488 3.34272 9.27298 2.69226C9.14109 2.04181 8.81951 1.44499 8.34882 0.977083C7.87813 0.509177 7.27941 0.191149 6.62818 0.0631152C5.97696 -0.0649184 5.3024 0.00277844 4.68961 0.257666C4.07681 0.512554 3.55323 0.943214 3.1849 1.49532C2.81658 2.04743 2.62001 2.69625 2.62 3.35994C2.62131 3.8025 2.70978 4.24046 2.88035 4.64883C3.05092 5.05719 3.30025 5.42796 3.61412 5.73997C3.92798 6.05197 4.30022 6.2991 4.70959 6.46725C5.11896 6.63539 5.55744 6.72126 6 6.71994ZM6 1.06994C6.45489 1.07192 6.89898 1.20875 7.27611 1.46312C7.65323 1.71749 7.94646 2.07798 8.11871 2.49901C8.29096 2.92003 8.3345 3.38267 8.24381 3.82844C8.15313 4.2742 7.93229 4.68306 7.60924 5.00332C7.28618 5.32358 6.87542 5.54085 6.42888 5.62765C5.98234 5.71446 5.52009 5.6669 5.10059 5.491C4.68108 5.3151 4.32315 5.01874 4.07207 4.63942C3.82099 4.26009 3.68803 3.81483 3.69 3.35994C3.69131 3.0579 3.7521 2.75908 3.8689 2.48053C3.9857 2.20198 4.15622 1.94917 4.37072 1.73652C4.58522 1.52387 4.83951 1.35556 5.11906 1.24119C5.39862 1.12681 5.69796 1.06863 6 1.06994Z" fill="#0E0E0E"/>
<path d="M3.11 7.46994C3.96333 8.04217 4.96756 8.34771 5.995 8.34771C7.02244 8.34771 8.02667 8.04217 8.88 7.46994C9.08607 7.6285 9.2769 7.80593 9.45 7.99994C9.59383 7.66011 9.797 7.34858 10.05 7.07994C9.78243 6.80316 9.48378 6.5582 9.16 6.34994L8.83 6.13994L8.53 6.38994C7.80888 6.95766 6.91778 7.26635 6 7.26635C5.08222 7.26635 4.19112 6.95766 3.47 6.38994L3.16 6.12994L2.83 6.34994C2.06791 6.91235 1.429 7.62479 0.952622 8.44341C0.47624 9.26203 0.172465 10.1695 0.06 11.1099L0 11.6999H8.14V10.6399H1.24C1.50265 9.40828 2.15905 8.29557 3.11 7.46994Z" fill="#0E0E0E"/>
<path d="M15.07 10.7099V9.37994C15.07 8.73812 14.815 8.12258 14.3612 7.66874C13.9074 7.21491 13.2918 6.95994 12.65 6.95994C12.0082 6.95994 11.3926 7.21491 10.9388 7.66874C10.485 8.12258 10.23 8.73812 10.23 9.37994V10.7099H9.23V15.9999H16V10.7099H15.07ZM11.3 9.37994C11.3 9.0219 11.4422 8.67852 11.6954 8.42535C11.9486 8.17217 12.292 8.02994 12.65 8.02994C13.008 8.02994 13.3514 8.17217 13.6046 8.42535C13.8578 8.67852 14 9.0219 14 9.37994V10.7099H11.3V9.37994ZM14.93 14.9299H10.27V11.7699H14.93V14.9299Z" fill="#0E0E0E"/>
</g>
</g>
<defs>
<clipPath id="clip0_7172_751">
<rect width="16" height="16" fill="white"/>
</clipPath>
</defs>
</svg>
