<svg width="16" height="16" viewBox="0 0 16 16" fill="none" xmlns="http://www.w3.org/2000/svg">
<g clip-path="url(#clip0_7172_282)">
<path d="M7.38003 13.68C6.13203 13.68 4.91205 13.3099 3.87438 12.6166C2.8367 11.9232 2.02793 10.9378 1.55035 9.78475C1.07276 8.63175 0.947797 7.36302 1.19127 6.139C1.43474 4.91498 2.03571 3.79065 2.91818 2.90818C3.80065 2.02571 4.92499 1.42474 6.14901 1.18127C7.37303 0.937793 8.64176 1.06275 9.79476 1.54034C10.9478 2.01793 11.9332 2.8267 12.6266 3.86437C13.32 4.90205 13.69 6.12202 13.69 7.37002C13.6879 7.79656 13.6444 8.22189 13.56 8.64002L14.43 9.51002C14.6446 8.81705 14.7525 8.09546 14.75 7.37002C14.7521 5.80646 14.2582 4.28253 13.3393 3.01744C12.4205 1.75235 11.124 0.8113 9.63651 0.329646C8.14898 -0.152007 6.54701 -0.14944 5.06103 0.336979C3.57505 0.823398 2.28165 1.7686 1.36686 3.03663C0.452064 4.30466 -0.0369658 5.83016 -0.0298926 7.39371C-0.0228194 8.95726 0.479992 10.4783 1.40622 11.738C2.33244 12.9977 3.63435 13.9311 5.12467 14.4041C6.61499 14.877 8.21691 14.8651 9.70003 14.37L8.83003 13.51C8.35498 13.623 7.86833 13.6801 7.38003 13.68Z" fill="#0E0E0E"/>
<path d="M6.83003 2.05002V8.42002H11.4V7.35002H7.90003V2.05002H6.83003Z" fill="#0E0E0E"/>
<path d="M16 13.18V12.18H11.41L13.52 10.07L13.21 9.76002L12.83 9.39002L9.54003 12.71L12.83 16L13.52 15.31L11.38 13.18H16Z" fill="#0E0E0E"/>
</g>
<defs>
<clipPath id="clip0_7172_282">
<rect width="16" height="16" fill="white"/>
</clipPath>
</defs>
</svg>
