<svg width="16" height="16" viewBox="0 0 16 16" fill="none" xmlns="http://www.w3.org/2000/svg">
<g id="dds2_user-group-chat" clip-path="url(#clip0_7172_1298)">
<path id="Vector" d="M7.99999 3.06984C8.11152 3.07382 8.22169 3.0444 8.31637 2.98534C8.41105 2.92628 8.48593 2.84027 8.5314 2.73836C8.57687 2.63645 8.59085 2.52328 8.57156 2.41337C8.55226 2.30345 8.50057 2.20181 8.42311 2.12148C8.34564 2.04115 8.24595 1.98579 8.13681 1.96252C8.02767 1.93924 7.91406 1.9491 7.81057 1.99083C7.70707 2.03256 7.6184 2.10427 7.55594 2.19674C7.49347 2.28922 7.46006 2.39824 7.45999 2.50984C7.45867 2.58207 7.47158 2.65385 7.49801 2.72109C7.52443 2.78833 7.56384 2.8497 7.61399 2.9017C7.66413 2.95371 7.72403 2.99532 7.79026 3.02417C7.8565 3.05302 7.92776 3.06854 7.99999 3.06984Z" fill="#0E0E0E"/>
<path id="Vector_2" d="M10.71 2.51007C10.718 2.62062 10.6925 2.73103 10.6367 2.82681C10.5809 2.9226 10.4975 2.99929 10.3974 3.04683C10.2972 3.09438 10.1851 3.11056 10.0756 3.09326C9.9661 3.07595 9.86439 3.02597 9.78381 2.94986C9.70322 2.87375 9.64751 2.77506 9.62398 2.66674C9.60045 2.55842 9.61021 2.44552 9.65196 2.34284C9.69371 2.24015 9.76551 2.15248 9.85796 2.09132C9.9504 2.03015 10.0592 1.99834 10.17 2.00007C10.3075 2.0022 10.4391 2.05575 10.5391 2.15014C10.639 2.24454 10.7 2.37295 10.71 2.51007Z" fill="#0E0E0E"/>
<path id="Vector_3" d="M6.38001 2.51007C6.38806 2.62062 6.36252 2.73103 6.30673 2.82681C6.25094 2.9226 6.16751 2.99929 6.06738 3.04683C5.96725 3.09438 5.85509 3.11056 5.7456 3.09326C5.63611 3.07595 5.53441 3.02597 5.45382 2.94986C5.37323 2.87375 5.31752 2.77506 5.294 2.66674C5.27047 2.55842 5.28022 2.44552 5.32197 2.34284C5.36372 2.24015 5.43553 2.15248 5.52797 2.09132C5.62041 2.03015 5.72918 1.99834 5.84001 2.00007C5.97748 2.0022 6.10916 2.05575 6.20911 2.15014C6.30906 2.24454 6.37003 2.37295 6.38001 2.51007Z" fill="#0E0E0E"/>
<g id="Vector_4">
<path d="M8 6.13L9 4.94H12.9V0H3.12V4.94H7L8 6.13ZM4.18 1.07H11.82V3.87H8.5L8 4.46L7.5 3.87H4.18V1.07Z" fill="#0E0E0E"/>
<path d="M15.94 14.44C15.8713 13.8485 15.6824 13.2772 15.3849 12.7613C15.0874 12.2454 14.6876 11.7958 14.21 11.44L13.88 11.22L13.58 11.47C13.1985 11.7802 12.7217 11.9495 12.23 11.9495C11.7383 11.9495 11.2615 11.7802 10.88 11.47L10.78 11.39L10.66 11.58C11.1992 11.9565 11.6553 12.4399 12 13C12.6775 13.0712 13.3595 12.9165 13.94 12.56C14.3374 12.9453 14.627 13.428 14.78 13.96H12.43C12.5661 14.3056 12.6666 14.6641 12.73 15.03H16L15.94 14.44Z" fill="#0E0E0E"/>
<path d="M10.41 7.47C10.7215 7.82105 10.9565 8.23314 11.1 8.68C11.1034 8.39437 11.2111 8.11984 11.403 7.90817C11.5948 7.69651 11.8574 7.56232 12.1413 7.53093C12.4252 7.49953 12.7108 7.57308 12.9443 7.73772C13.1777 7.90237 13.3428 8.14672 13.4085 8.42471C13.4743 8.7027 13.436 8.99513 13.301 9.24685C13.166 9.49858 12.9435 9.69222 12.6756 9.79126C12.4076 9.8903 12.1127 9.8879 11.8465 9.78451C11.5802 9.68113 11.3609 9.48389 11.23 9.23C11.2403 9.38316 11.2403 9.53684 11.23 9.69C11.2257 10.0057 11.1752 10.319 11.08 10.62C11.4141 10.8243 11.7984 10.9317 12.19 10.93C12.7517 10.8922 13.2781 10.6425 13.6627 10.2312C14.0472 9.81998 14.2611 9.278 14.2611 8.715C14.2611 8.152 14.0472 7.61002 13.6627 7.19879C13.2781 6.78755 12.7517 6.53777 12.19 6.5C11.8272 6.50127 11.4706 6.59346 11.1526 6.76816C10.8347 6.94285 10.5656 7.19447 10.37 7.5L10.41 7.47Z" fill="#0E0E0E"/>
<path d="M4 13C4.33526 12.4419 4.78517 11.9613 5.32 11.59C5.27299 11.5314 5.23273 11.4676 5.2 11.4L5.09 11.48C4.70846 11.7902 4.23173 11.9595 3.74 11.9595C3.24827 11.9595 2.77154 11.7902 2.39 11.48L2.09 11.23L1.76 11.45C1.28244 11.8058 0.882641 12.2554 0.585144 12.7713C0.287648 13.2872 0.0987338 13.8585 0.03 14.45L0 15H3.27C3.33789 14.6579 3.43835 14.323 3.57 14H1.25C1.40296 13.468 1.69257 12.9853 2.09 12.6C2.66674 12.9361 3.33684 13.0765 4 13Z" fill="#0E0E0E"/>
<path d="M3.77 10.93C4.1641 10.927 4.55044 10.8201 4.89 10.62C4.79482 10.319 4.74428 10.0057 4.74 9.69C4.72968 9.5335 4.72968 9.3765 4.74 9.22C4.64911 9.40895 4.50743 9.56889 4.33083 9.68192C4.15422 9.79494 3.94965 9.8566 3.74 9.86C3.5143 9.85604 3.29477 9.78574 3.10874 9.65788C2.92272 9.53001 2.77845 9.35022 2.6939 9.14093C2.60935 8.93163 2.58826 8.70208 2.63327 8.48088C2.67828 8.25968 2.78739 8.05662 2.947 7.897C3.10662 7.73739 3.30968 7.62828 3.53088 7.58327C3.75208 7.53826 3.98163 7.55935 4.19093 7.6439C4.40022 7.72845 4.58001 7.87272 4.70788 8.05874C4.83574 8.24476 4.90604 8.4643 4.91 8.69C5.04956 8.24141 5.285 7.82854 5.6 7.48C5.38487 7.16633 5.09242 6.9135 4.75095 6.74596C4.40949 6.57842 4.03056 6.50185 3.65083 6.52364C3.2711 6.54544 2.90343 6.66488 2.58337 6.87039C2.26332 7.0759 2.00173 7.36054 1.8239 7.69676C1.64607 8.03298 1.55803 8.40941 1.56829 8.78962C1.57855 9.16984 1.68676 9.54097 1.88246 9.86712C2.07817 10.1933 2.35473 10.4634 2.6854 10.6513C3.01607 10.8393 3.38965 10.9387 3.77 10.94V10.93Z" fill="#0E0E0E"/>
<path d="M10 12.42L9.68 12.2L9.37 12.45C8.98846 12.7602 8.51173 12.9295 8.02 12.9295C7.52827 12.9295 7.05154 12.7602 6.67 12.45L6.37 12.2L6 12.42C5.52073 12.7741 5.1197 13.2233 4.82202 13.7395C4.52434 14.2557 4.33641 14.8278 4.27 15.42L4.22 16H11.78L11.71 15.41C11.6447 14.8211 11.4592 14.2519 11.1651 13.7376C10.871 13.2233 10.4744 12.7749 10 12.42ZM5.48 14.93C5.63304 14.4003 5.91872 13.9184 6.31 13.53C6.81882 13.8411 7.40362 14.0057 8 14.0057C8.59637 14.0057 9.18118 13.8411 9.69 13.53C10.0813 13.9184 10.367 14.4003 10.52 14.93H5.48Z" fill="#0E0E0E"/>
<path d="M8 7.47C7.5629 7.47 7.13562 7.59961 6.77219 7.84245C6.40876 8.08529 6.1255 8.43044 5.95823 8.83427C5.79096 9.23809 5.74719 9.68245 5.83246 10.1111C5.91774 10.5398 6.12822 10.9336 6.43729 11.2427C6.74637 11.5518 7.14015 11.7623 7.56885 11.8475C7.99755 11.9328 8.44191 11.889 8.84573 11.7218C9.24956 11.5545 9.59471 11.2712 9.83755 10.9078C10.0804 10.5444 10.21 10.1171 10.21 9.68C10.2074 9.09468 9.97369 8.53409 9.5598 8.1202C9.14591 7.70631 8.58532 7.47263 8 7.47ZM8 10.83C7.77453 10.83 7.55412 10.7631 7.36665 10.6379C7.17918 10.5126 7.03306 10.3346 6.94678 10.1263C6.86049 9.91795 6.83792 9.68874 6.8819 9.4676C6.92589 9.24646 7.03447 9.04333 7.1939 8.8839C7.35333 8.72447 7.55646 8.61589 7.7776 8.57191C7.99874 8.52792 8.22795 8.55049 8.43626 8.63678C8.64457 8.72306 8.82261 8.86918 8.94788 9.05665C9.07314 9.24412 9.14 9.46453 9.14 9.69C9.14 9.99235 9.01989 10.2823 8.8061 10.4961C8.59231 10.7099 8.30235 10.83 8 10.83Z" fill="#0E0E0E"/>
</g>
</g>
<defs>
<clipPath id="clip0_7172_1298">
<rect width="16" height="16" fill="white"/>
</clipPath>
</defs>
</svg>
