<svg width="16" height="16" viewBox="0 0 16 16" fill="none" xmlns="http://www.w3.org/2000/svg">
<g id="dds2_gift-card">
<g id="Vector">
<path d="M3.34 4.46C2.84 4.52 2.49 4.93 2.34 5.69C2.22961 6.03862 2.20469 6.40867 2.26735 6.76894C2.33 7.12921 2.47839 7.46912 2.7 7.76C2.97806 8.02992 3.30674 8.24221 3.66714 8.38465C4.02753 8.52709 4.41254 8.59688 4.8 8.59L3.38 10.72L4.27 11.31L5.85 8.94L7.43 11.31L8.32 10.72L6.9 8.59C7.28783 8.59968 7.67363 8.53119 8.03442 8.38859C8.39521 8.24599 8.72359 8.03221 9 7.76C9.2282 7.47256 9.38296 7.13388 9.45091 6.77322C9.51886 6.41255 9.49796 6.04077 9.39 5.69C9.21 4.93 8.87667 4.52 8.39 4.46C7.5 4.35 6.56 5.63 5.88 6.82C5.15 5.63 4.19 4.35 3.34 4.46ZM3.51 7.06C3.39634 6.89551 3.32346 6.70634 3.29738 6.50811C3.2713 6.30988 3.29276 6.10829 3.36 5.92C3.42 5.67 3.48 5.56 3.48 5.53C4.1269 6.08538 4.64551 6.77459 5 7.55C4.73144 7.57294 4.46101 7.54136 4.20496 7.45716C3.94891 7.37296 3.71252 7.23786 3.51 7.06ZM8.17 5.49C8.25704 5.61938 8.31504 5.76608 8.34 5.92C8.40486 6.10868 8.42507 6.30983 8.39904 6.50764C8.37301 6.70545 8.30146 6.89452 8.19 7.06C7.9827 7.24301 7.73971 7.38104 7.47636 7.46538C7.21302 7.54972 6.93504 7.57853 6.66 7.55C7.03034 6.7751 7.5425 6.0764 8.17 5.49Z" fill="#0E0E0E"/>
<path d="M0 2V14H16V2H0ZM14.93 7.47H10.36C10.242 7.83738 10.0516 8.1774 9.8 8.47C9.7759 8.49611 9.74908 8.51958 9.72 8.54H14.93V12.94H6.38V11.66L5.85 10.86L5.32 11.66V12.93H1.07V8.53H2C1.97092 8.50958 1.9441 8.48611 1.92 8.46C1.66845 8.1674 1.47803 7.82738 1.36 7.46H1.07V3.07H5.33V4.31C5.51559 4.49198 5.68928 4.68571 5.85 4.89C6.03 4.67 6.2 4.48 6.37 4.31V3.07H14.93V7.47Z" fill="#0E0E0E"/>
</g>
</g>
</svg>
