<svg width="16" height="16" viewBox="0 0 16 16" fill="none" xmlns="http://www.w3.org/2000/svg">
<g id="dds2_wifi-none">
<g id="Vector">
<path d="M0 12.2201L15.42 1.81006L16 2.66006L0.58 13.0601L0 12.2201Z" fill="#0E0E0E"/>
<path d="M10 4.14006L11.19 3.34006C10.1589 3.00838 9.08312 2.83639 8 2.83006C6.58403 2.82284 5.18099 3.09967 3.87388 3.64416C2.56676 4.18865 1.38211 4.98974 0.39 6.00006L0 6.39006L0.76 7.15006L1.14 6.76006C2.03612 5.85222 3.10451 5.13248 4.28252 4.64308C5.46052 4.15368 6.72439 3.90446 8 3.91006C8.67354 3.90509 9.34517 3.98233 10 4.14006Z" fill="#0E0E0E"/>
<path d="M14.46 5.00006L13.46 5.62006C13.9453 5.94213 14.4035 6.30334 14.83 6.70006L15.2 7.09006L15.96 6.39006L15.63 6.00006C15.2719 5.64259 14.8911 5.30856 14.49 5.00006H14.46Z" fill="#0E0E0E"/>
<path d="M13 8.53006L13.37 8.90006L14.13 8.14006L13.76 7.77006C13.2945 7.31224 12.7777 6.90958 12.22 6.57006L11.22 7.26006C11.8793 7.58243 12.4807 8.01155 13 8.53006Z" fill="#0E0E0E"/>
<path d="M8 5.41006C6.93741 5.40855 5.88501 5.61717 4.90335 6.0239C3.92169 6.43064 3.03014 7.02747 2.28 7.78006L1.91 8.15006L2.67 8.91006L3 8.53006C3.88383 7.65846 4.98554 7.04026 6.19 6.74006L8.15 5.42006L8 5.41006Z" fill="#0E0E0E"/>
<path d="M11.05 10.8401L11.81 10.0801L11.42 9.70006C10.8406 9.14052 10.1282 8.73785 9.35 8.53006L7.95 9.47006C8.5365 9.45048 9.11985 9.5635 9.6566 9.80071C10.1933 10.0379 10.6696 10.3932 11.05 10.8401Z" fill="#0E0E0E"/>
<path d="M8 10.8401C7.66688 10.8381 7.3407 10.9352 7.0629 11.119C6.7851 11.3029 6.56822 11.5651 6.43983 11.8725C6.31143 12.1799 6.27732 12.5185 6.34183 12.8453C6.40633 13.1722 6.56654 13.4724 6.80209 13.708C7.03764 13.9435 7.33791 14.1037 7.66472 14.1682C7.99154 14.2327 8.33016 14.1986 8.63754 14.0702C8.94493 13.9418 9.2072 13.725 9.39104 13.4472C9.57488 13.1694 9.67198 12.8432 9.67 12.5101C9.67133 12.2904 9.62904 12.0726 9.54558 11.8694C9.46213 11.6662 9.33917 11.4816 9.18383 11.3262C9.02849 11.1709 8.84386 11.0479 8.64065 10.9645C8.43744 10.881 8.21968 10.8387 8 10.8401ZM8 13.1101C7.92036 13.1101 7.84151 13.0942 7.76806 13.0634C7.6946 13.0327 7.62801 12.9876 7.57216 12.9308C7.51631 12.874 7.47233 12.8067 7.44277 12.7327C7.41321 12.6588 7.39867 12.5797 7.4 12.5001C7.4 12.3409 7.46321 12.1883 7.57574 12.0758C7.68826 11.9633 7.84087 11.9001 8 11.9001C8.15913 11.9001 8.31174 11.9633 8.42426 12.0758C8.53679 12.1883 8.6 12.3409 8.6 12.5001C8.60133 12.5797 8.58679 12.6588 8.55723 12.7327C8.52767 12.8067 8.48369 12.874 8.42784 12.9308C8.37199 12.9876 8.3054 13.0327 8.23194 13.0634C8.15849 13.0942 8.07964 13.1101 8 13.1101Z" fill="#0E0E0E"/>
</g>
</g>
</svg>
