<svg width="16" height="16" viewBox="0 0 16 16" fill="none" xmlns="http://www.w3.org/2000/svg">
<g id="dds2_movie-clapper" clip-path="url(#clip0_7172_1140)">
<g id="Vector">
<path d="M3.22 6.63L15.75 3L14.88 0L0 4.27L0.8 7.07V16H16V6.63H3.22ZM9.36 3.83L7.73 4.3L6.25 3.52L7.87 3.05L9.36 3.83ZM9.27 2.65L10.89 2.19L12.36 3L10.76 3.46L9.27 2.65ZM6.34 4.7L4.66 5.18L3.25 4.38L4.86 3.92L6.34 4.7ZM14.52 2.35L13.74 2.57L12.28 1.79L14.2 1.24L14.52 2.35ZM1.91 4.77L3.31 5.57L1.55 6.07L1.23 5L1.91 4.81V4.77ZM15 15H1.8V7.64H15V15Z" fill="#0E0E0E"/>
<path d="M13 10.52V9.45H3.88V10.52H13Z" fill="#0E0E0E"/>
<path d="M13 12.11H3.88V13.2H13V12.11Z" fill="#0E0E0E"/>
</g>
</g>
<defs>
<clipPath id="clip0_7172_1140">
<rect width="16" height="16" fill="white"/>
</clipPath>
</defs>
</svg>
