<svg width="16" height="16" viewBox="0 0 16 16" fill="none" xmlns="http://www.w3.org/2000/svg">
<g id="dds2_wifi">
<g id="Vector">
<path d="M15.62 5.48998C14.6197 4.48855 13.4319 3.69411 12.1244 3.15208C10.8169 2.61005 9.4154 2.33105 8 2.33105C6.5846 2.33105 5.18308 2.61005 3.87559 3.15208C2.56809 3.69411 1.38025 4.48855 0.38 5.48998L0 5.85998L0.76 6.61998L1.14 6.23998C2.96049 4.42267 5.42769 3.40199 8 3.40199C10.5723 3.40199 13.0395 4.42267 14.86 6.23998L15.24 6.61998L16 5.85998L15.62 5.48998Z" fill="#0E0E0E"/>
<path d="M8 4.89998C6.9386 4.89648 5.88712 5.10422 4.90681 5.51111C3.9265 5.918 3.03695 6.5159 2.29 7.26998L1.91 7.64998L2.66 8.40998L3 7.99998C3.65176 7.33478 4.4297 6.80632 5.28825 6.44555C6.14681 6.08478 7.06872 5.89896 8 5.89896C8.93128 5.89896 9.85319 6.08478 10.7117 6.44555C11.5703 6.80632 12.3482 7.33478 13 7.99998L13.38 8.37998L14.13 7.61998L13.76 7.23998C13.0023 6.48846 12.1031 5.89469 11.1144 5.49302C10.1257 5.09136 9.06713 4.88979 8 4.89998Z" fill="#0E0E0E"/>
<path d="M8 7.76998C7.35914 7.76961 6.7245 7.89574 6.13248 8.14113C5.54045 8.38652 5.00268 8.74634 4.55 9.19998L4.18 9.56998L4.93 10.33L5.31 9.99998C6.03404 9.30685 6.99768 8.91996 8 8.91996C9.00232 8.91996 9.96596 9.30685 10.69 9.99998L11.07 10.38L11.82 9.61998L11.45 9.24998C11.0015 8.7873 10.4656 8.41824 9.87334 8.16419C9.28112 7.91014 8.64438 7.77614 8 7.76998Z" fill="#0E0E0E"/>
<path d="M8 10.33C7.66971 10.33 7.34683 10.4279 7.0722 10.6114C6.79757 10.7949 6.58352 11.0557 6.45712 11.3609C6.33072 11.666 6.29765 12.0018 6.36209 12.3258C6.42653 12.6497 6.58558 12.9473 6.81913 13.1808C7.05269 13.4144 7.35025 13.5735 7.6742 13.6379C7.99815 13.7023 8.33393 13.6693 8.63908 13.5429C8.94423 13.4165 9.20505 13.2024 9.38855 12.9278C9.57206 12.6531 9.67 12.3303 9.67 12C9.67 11.5571 9.49405 11.1323 9.18087 10.8191C8.86768 10.5059 8.44291 10.33 8 10.33ZM8 12.6C7.88133 12.6 7.76533 12.5648 7.66666 12.4989C7.56799 12.4329 7.49109 12.3392 7.44567 12.2296C7.40026 12.12 7.38838 11.9993 7.41153 11.8829C7.43468 11.7665 7.49182 11.6596 7.57574 11.5757C7.65965 11.4918 7.76656 11.4347 7.88295 11.4115C7.99933 11.3884 8.11998 11.4002 8.22961 11.4456C8.33925 11.4911 8.43295 11.568 8.49888 11.6666C8.56481 11.7653 8.6 11.8813 8.6 12C8.6 12.1591 8.53679 12.3117 8.42426 12.4242C8.31174 12.5368 8.15913 12.6 8 12.6Z" fill="#0E0E0E"/>
</g>
</g>
</svg>
