<svg width="16" height="16" viewBox="0 0 16 16" fill="none" xmlns="http://www.w3.org/2000/svg">
<g id="dds2_fingerprint" clip-path="url(#clip0_7172_1255)">
<g id="Vector">
<path d="M3.48002 2.33C4.87112 1.56995 6.41664 1.1357 8.00002 1.06C9.58346 1.13912 11.1301 1.56589 12.53 2.31L13 2.57L13.51 1.64L13.05 1.38C11.4909 0.548634 9.76529 0.0770887 8.00002 0C6.24887 0.0821791 4.53923 0.560878 3.00002 1.4L2.54002 1.66L3.00002 2.59L3.47002 2.33H3.48002Z" fill="#0E0E0E"/>
<path d="M15.19 5.69C14.3662 4.54609 13.2879 3.6092 12.0402 2.95322C10.7925 2.29725 9.40937 1.94012 8.00002 1.91C6.58655 1.93574 5.19901 2.2941 3.94985 2.95603C2.70069 3.61797 1.62502 4.56486 0.81002 5.72L0.52002 6.16L1.41002 6.75L1.70002 6.3C2.42883 5.30581 3.37545 4.49156 4.46742 3.91958C5.55939 3.34759 6.76776 3.03304 8.00002 3C9.23154 3.03673 10.4386 3.35289 11.53 3.92458C12.6214 4.49626 13.5686 5.30853 14.3 6.3L14.6 6.74L15.48 6.15L15.19 5.71V5.69Z" fill="#0E0E0E"/>
<path d="M8.00002 3.7C6.4046 3.69963 4.8639 4.28156 3.66712 5.33658C2.47033 6.39159 1.69975 7.84714 1.50002 9.43C1.36764 10.8107 1.63859 12.2002 2.28002 13.43L2.55002 13.89L3.46002 13.36L3.20002 12.9C2.67936 11.8717 2.45762 10.718 2.56002 9.57C2.71939 8.24075 3.36157 7.01638 4.36451 6.12959C5.36746 5.24279 6.66126 4.75538 8.00002 4.76C9.10431 4.74642 10.1864 5.0705 11.1014 5.68886C12.0164 6.30721 12.7207 7.19034 13.12 8.22C13.41 9.22 13.63 10.44 12.77 10.92C12.5635 11.0447 12.3332 11.1252 12.0939 11.1561C11.8547 11.1871 11.6115 11.168 11.38 11.1C11.1372 11.0459 10.9233 10.9033 10.78 10.7C10.7159 10.5268 10.6624 10.3498 10.62 10.17C10.569 9.70738 10.4184 9.26131 10.1784 8.86252C9.93845 8.46374 9.61489 8.12171 9.23002 7.86C8.67957 7.52216 8.02007 7.40951 7.38869 7.54547C6.75731 7.68143 6.20263 8.05554 5.84002 8.59C5.16002 9.71 5.58002 12.04 6.71002 13.39C7.71434 14.4808 8.96618 15.3143 10.36 15.82L10.86 16L11.22 15L10.72 14.82C9.49711 14.3835 8.39883 13.6559 7.52002 12.7C6.64002 11.7 6.34002 9.81 6.75002 9.14C6.97121 8.83146 7.30458 8.62196 7.67854 8.55652C8.05249 8.49108 8.43719 8.57491 8.75002 8.79C9.29002 9.08 9.47002 9.79 9.61002 10.41C9.65853 10.6754 9.73912 10.934 9.85002 11.18C10.1246 11.6392 10.5648 11.9757 11.08 12.12C11.4509 12.2261 11.8393 12.2569 12.2223 12.2105C12.6053 12.1642 12.9752 12.0416 13.31 11.85C15.02 10.9 14.38 8.66 14.16 7.92C13.7002 6.66295 12.8596 5.58072 11.7553 4.82424C10.6511 4.06777 9.33829 3.67475 8.00002 3.7Z" fill="#0E0E0E"/>
<path d="M8.18002 6.6C8.85577 6.5999 9.51176 6.82795 10.0417 7.24721C10.5717 7.66646 10.9446 8.25237 11.1 8.91L11.22 9.43L12.22 9.18L12.1 8.67C11.8853 7.77294 11.3729 6.97512 10.6465 6.40668C9.92001 5.83825 9.0224 5.53274 8.10002 5.54C5.16002 5.54 3.40002 7.41 3.40002 10.54C3.40002 10.8 3.48002 13.19 6.12002 15.61L6.52002 15.96L7.23002 15.18L6.84002 14.82C5.52068 13.7568 4.66707 12.2217 4.46002 10.54C4.40781 10.0285 4.46639 9.51176 4.63178 9.02494C4.79716 8.53811 5.06547 8.09261 5.41844 7.71877C5.77142 7.34492 6.20078 7.05148 6.67731 6.85843C7.15384 6.66538 7.66637 6.57724 8.18002 6.6Z" fill="#0E0E0E"/>
<path d="M12.79 13.27C12.79 13.27 9.64002 13.43 8.67002 10.73L8.50002 10.23L7.50002 10.59L7.67002 11.09C8.0593 12.0719 8.7411 12.9104 9.62297 13.4917C10.5049 14.0731 11.5442 14.3692 12.6 14.34H13.38L13.32 13.28H12.79V13.27Z" fill="#0E0E0E"/>
</g>
</g>
<defs>
<clipPath id="clip0_7172_1255">
<rect width="16" height="16" fill="white"/>
</clipPath>
</defs>
</svg>
