<svg width="16" height="16" viewBox="0 0 16 16" fill="none" xmlns="http://www.w3.org/2000/svg">
<g id="dds2_keyboard-mouse" clip-path="url(#clip0_7172_990)">
<g id="Vector">
<path d="M8.41 3.38V2.18H8.86C9.12522 2.18 9.37957 2.07464 9.56711 1.88711C9.75464 1.69957 9.86 1.44522 9.86 1.18V0H8.77V1.11H8.32C8.05478 1.11 7.80043 1.21536 7.61289 1.40289C7.42536 1.59043 7.32 1.84478 7.32 2.11V3.38H0V13.67H10.51V12.6H1.07V4.45H14.93V7.67C15.3249 7.82094 15.6879 8.04483 16 8.33V3.38H8.41Z" fill="#0E0E0E"/>
<path d="M5.65 5.14H7.21V6.21H5.65V5.14Z" fill="#0E0E0E"/>
<path d="M5.65 7H7.21V8.08H5.65V7Z" fill="#0E0E0E"/>
<path d="M5.65 8.87H7.21V9.94H5.65V8.87Z" fill="#0E0E0E"/>
<path d="M8.79 5.14H10.35V6.21H8.79V5.14Z" fill="#0E0E0E"/>
<path d="M8.79 7H10.35V8.08H8.79V7Z" fill="#0E0E0E"/>
<path d="M8.79 8.87H10.35V9.94H8.79V8.87Z" fill="#0E0E0E"/>
<path d="M11.93 5.14H13.49V6.21H11.93V5.14Z" fill="#0E0E0E"/>
<path d="M11.93 8C12.3932 7.68395 12.931 7.49436 13.49 7.45V7H11.93V8Z" fill="#0E0E0E"/>
<path d="M4.92 10.75H10.51V11.82H4.92V10.75Z" fill="#0E0E0E"/>
<path d="M2.51 5.14H4.07V6.21H2.51V5.14Z" fill="#0E0E0E"/>
<path d="M2.51 7H4.07V8.08H2.51V7Z" fill="#0E0E0E"/>
<path d="M2.51 8.87H4.07V9.94H2.51V8.87Z" fill="#0E0E0E"/>
<path d="M13.79 8.52C13.203 8.52264 12.6409 8.7577 12.2267 9.17375C11.8125 9.58979 11.58 10.1529 11.58 10.74V13.74C11.58 14.3261 11.8128 14.8883 12.2273 15.3027C12.6417 15.7172 13.2039 15.95 13.79 15.95C14.3761 15.95 14.9383 15.7172 15.3527 15.3027C15.7672 14.8883 16 14.3261 16 13.74V10.74C15.9974 10.1537 15.764 9.59211 15.3504 9.17663C14.9368 8.76115 14.3762 8.52525 13.79 8.52ZM14.93 13.79C14.93 14.0923 14.8099 14.3823 14.5961 14.5961C14.3823 14.8099 14.0923 14.93 13.79 14.93C13.4877 14.93 13.1977 14.8099 12.9839 14.5961C12.7701 14.3823 12.65 14.0923 12.65 13.79V10.79C12.65 10.4877 12.7701 10.1977 12.9839 9.9839C13.1977 9.77011 13.4877 9.65 13.79 9.65C14.0923 9.65 14.3823 9.77011 14.5961 9.9839C14.8099 10.1977 14.93 10.4877 14.93 10.79V13.79Z" fill="#0E0E0E"/>
</g>
</g>
<defs>
<clipPath id="clip0_7172_990">
<rect width="16" height="16" fill="white"/>
</clipPath>
</defs>
</svg>
