<svg width="16" height="16" viewBox="0 0 16 16" fill="none" xmlns="http://www.w3.org/2000/svg">
<g clip-path="url(#clip0_7172_1233)">
<path d="M3.61999 10.74H6.73999V13.61L9.55999 10.73H12.38V4.17H3.61999V10.74ZM4.68999 5.24H11.32V9.66H9.10999L7.80999 11V9.67H4.68999V5.24Z" fill="#0E0E0E"/>
<path d="M6.25999 7C6.11412 7 5.97423 7.05795 5.87108 7.16109C5.76794 7.26424 5.70999 7.40413 5.70999 7.55C5.70999 7.69587 5.76794 7.83576 5.87108 7.93891C5.97423 8.04205 6.11412 8.1 6.25999 8.1C6.40586 8.1 6.54576 8.04205 6.6489 7.93891C6.75205 7.83576 6.80999 7.69587 6.80999 7.55C6.80999 7.47777 6.79577 7.40625 6.76813 7.33952C6.74049 7.2728 6.69997 7.21216 6.6489 7.16109C6.59783 7.11002 6.5372 7.06951 6.47047 7.04187C6.40374 7.01423 6.33222 7 6.25999 7Z" fill="#0E0E0E"/>
<path d="M8.54999 7.5C8.54999 7.39122 8.51774 7.28488 8.4573 7.19444C8.39687 7.10399 8.31097 7.03349 8.21047 6.99187C8.10997 6.95024 7.99938 6.93935 7.89269 6.96057C7.786 6.98179 7.688 7.03417 7.61108 7.11109C7.53417 7.18801 7.48178 7.28601 7.46056 7.3927C7.43934 7.49939 7.45023 7.60998 7.49186 7.71048C7.53349 7.81098 7.60398 7.89687 7.69443 7.95731C7.78488 8.01774 7.89121 8.05 7.99999 8.05C8.07222 8.05 8.14374 8.03577 8.21047 8.00813C8.2772 7.98049 8.33783 7.93998 8.3889 7.88891C8.43997 7.83784 8.48049 7.7772 8.50813 7.71048C8.53577 7.64375 8.54999 7.57223 8.54999 7.5Z" fill="#0E0E0E"/>
<path d="M9.74999 8.05C9.89586 8.05 10.0358 7.99205 10.1389 7.88891C10.242 7.78576 10.3 7.64587 10.3 7.5C10.3 7.35413 10.242 7.21424 10.1389 7.11109C10.0358 7.00795 9.89586 6.95 9.74999 6.95C9.60412 6.95 9.46423 7.00795 9.36108 7.11109C9.25794 7.21424 9.19999 7.35413 9.19999 7.5C9.19999 7.64587 9.25794 7.78576 9.36108 7.88891C9.46423 7.99205 9.60412 8.05 9.74999 8.05Z" fill="#0E0E0E"/>
<path d="M15.93 7C15.7068 5.23998 14.9049 3.60408 13.6504 2.34959C12.3959 1.0951 10.76 0.293193 8.99999 0.07C8.66864 0.0239979 8.33453 0.000610478 7.99999 0C5.9745 0.0138202 4.02965 0.795454 2.55793 2.18716C1.08621 3.57887 0.197196 5.47704 0.0702928 7.4986C-0.05661 9.52017 0.588048 11.5146 1.87417 13.0794C3.1603 14.6443 4.99213 15.663 6.99999 15.93C7.33135 15.976 7.66546 15.9994 7.99999 16C9.13439 15.999 10.2556 15.7567 11.2892 15.2893C12.3228 14.8218 13.2452 14.1399 13.9951 13.2888C14.7451 12.4376 15.3054 11.4368 15.639 10.3525C15.9726 9.26828 16.0718 8.1255 15.93 7ZM13.2 12.59C12.1515 13.7757 10.7286 14.5668 9.16811 14.8316C7.60759 15.0965 6.00343 14.8191 4.62242 14.0457C3.24141 13.2723 2.16677 12.0494 1.57723 10.5805C0.987681 9.11154 0.918759 7.48504 1.38192 5.97149C1.84509 4.45794 2.81242 3.14855 4.12306 2.26108C5.43369 1.37361 7.00863 0.961547 8.58596 1.09342C10.1633 1.22529 11.648 1.89315 12.793 2.98593C13.9381 4.07871 14.6746 5.53055 14.88 7.1C15.004 8.08185 14.9183 9.07883 14.6287 10.0252C14.3392 10.9715 13.8522 11.8457 13.2 12.59Z" fill="#0E0E0E"/>
</g>
<defs>
<clipPath id="clip0_7172_1233">
<rect width="16" height="16" fill="white"/>
</clipPath>
</defs>
</svg>
