<svg width="16" height="16" viewBox="0 0 16 16" fill="none" xmlns="http://www.w3.org/2000/svg">
<g id="dds2_projector">
<g id="Vector">
<path d="M10.63 9.06988C10.8712 9.19085 11.1366 9.25573 11.4064 9.25968C11.6762 9.26362 11.9433 9.20652 12.1879 9.09266C12.4326 8.97879 12.6483 8.8111 12.8189 8.60212C12.9896 8.39314 13.1108 8.14828 13.1735 7.88586C13.2362 7.62343 13.2388 7.35022 13.181 7.08666C13.1233 6.8231 13.0067 6.57601 12.84 6.36387C12.6732 6.15172 12.4607 5.98 12.2183 5.86156C11.9759 5.74312 11.7098 5.68101 11.44 5.67988C11.0363 5.6782 10.6439 5.81301 10.3265 6.06244C10.0091 6.31186 9.78535 6.66125 9.69153 7.05388C9.59772 7.44651 9.63938 7.85932 9.80974 8.22529C9.9801 8.59126 10.2692 8.8889 10.63 9.06988ZM10.79 7.14988C10.85 7.029 10.9427 6.9274 11.0576 6.85667C11.1726 6.78595 11.3051 6.74894 11.44 6.74988C11.555 6.74777 11.6687 6.77532 11.77 6.82988C11.8547 6.87322 11.93 6.93281 11.9917 7.00527C12.0534 7.07772 12.1002 7.16161 12.1294 7.25214C12.1587 7.34268 12.1698 7.43809 12.1622 7.53293C12.1546 7.62777 12.1283 7.72018 12.085 7.80488C12.0417 7.88958 11.9821 7.96492 11.9096 8.02659C11.8372 8.08827 11.7533 8.13506 11.6627 8.16431C11.5722 8.19356 11.4768 8.20469 11.382 8.19707C11.2871 8.18945 11.1947 8.16322 11.11 8.11988C10.9402 8.03168 10.8112 7.88116 10.75 7.69988C10.6968 7.5177 10.711 7.32246 10.79 7.14988Z" fill="#0E0E0E"/>
<path d="M2.23 5.90988H3.3V8.99988H2.23V5.90988Z" fill="#0E0E0E"/>
<path d="M4.36 5.90988H5.42V8.99988H4.36V5.90988Z" fill="#0E0E0E"/>
<path d="M6.47 5.90988H7.54V8.99988H6.47V5.90988Z" fill="#0E0E0E"/>
<path d="M0 3.62988V11.2999H2.75V12.3699H4.94V11.2999H11.05V12.3599H13.25V11.3099H16V3.63988L0 3.62988ZM14.92 10.2499H1.07V4.68988H14.93V10.2399L14.92 10.2499Z" fill="#0E0E0E"/>
</g>
</g>
</svg>
