<svg width="16" height="16" viewBox="0 0 16 16" fill="none" xmlns="http://www.w3.org/2000/svg">
<g clip-path="url(#clip0_7172_1229)">
<path d="M16 3.09001H2.88L2 0.320007H0V1.39001H1.17L4.48 12.8H13.33V11.73H5.33L4.8 9.92001H14.61L16 3.09001ZM4.48 8.85001L3.09 4.16001H14.61L13.61 8.85001H4.48Z" fill="#0E0E0E"/>
<path d="M12.59 12.05C12.3506 12.0487 12.1134 12.0949 11.8919 12.1858C11.6705 12.2768 11.4694 12.4108 11.3001 12.5801C11.1308 12.7494 10.9968 12.9505 10.9058 13.172C10.8148 13.3934 10.7687 13.6306 10.77 13.87C10.76 14.1112 10.8004 14.3519 10.8884 14.5766C10.9765 14.8014 11.1104 15.0054 11.2815 15.1757C11.4527 15.3459 11.6575 15.4787 11.8827 15.5655C12.108 15.6523 12.3488 15.6913 12.59 15.68C12.8303 15.6899 13.0701 15.6498 13.2942 15.5624C13.5182 15.4749 13.7217 15.3419 13.8918 15.1718C14.0619 15.0018 14.1949 14.7983 14.2824 14.5742C14.3698 14.3501 14.4099 14.1103 14.4 13.87C14.4027 13.6311 14.3577 13.3941 14.2678 13.1727C14.1779 12.9513 14.0449 12.7501 13.8764 12.5807C13.7079 12.4113 13.5074 12.2771 13.2866 12.186C13.0657 12.0949 12.8289 12.0487 12.59 12.05ZM12.59 14.61C12.4408 14.612 12.2945 14.5694 12.1696 14.4878C12.0447 14.4061 11.9471 14.2891 11.8891 14.1517C11.8311 14.0142 11.8154 13.8626 11.844 13.7162C11.8726 13.5698 11.9442 13.4352 12.0497 13.3297C12.1552 13.2243 12.2898 13.1526 12.4362 13.124C12.5826 13.0954 12.7342 13.1111 12.8717 13.1691C13.0091 13.2271 13.1261 13.3248 13.2078 13.4496C13.2894 13.5745 13.332 13.7208 13.33 13.87C13.3313 13.9676 13.3131 14.0644 13.2764 14.1548C13.2397 14.2452 13.1852 14.3273 13.1163 14.3963C13.0473 14.4652 12.9652 14.5197 12.8748 14.5564C12.7844 14.5931 12.6876 14.6114 12.59 14.61Z" fill="#0E0E0E"/>
<path d="M5.12 12.05C4.88109 12.0487 4.6443 12.0949 4.42344 12.186C4.20258 12.2771 4.00207 12.4113 3.83359 12.5807C3.66512 12.7501 3.53206 12.9513 3.44216 13.1727C3.35227 13.3941 3.30734 13.6311 3.31 13.87C3.29859 14.1107 3.33759 14.3512 3.42451 14.5759C3.51143 14.8007 3.64436 15.0048 3.81476 15.1752C3.98517 15.3456 4.1893 15.4786 4.41406 15.5655C4.63883 15.6524 4.87928 15.6914 5.12 15.68C5.36072 15.6914 5.60117 15.6524 5.82594 15.5655C6.0507 15.4786 6.25483 15.3456 6.42524 15.1752C6.59564 15.0048 6.72857 14.8007 6.81549 14.5759C6.90241 14.3512 6.94141 14.1107 6.93 13.87C6.93266 13.6311 6.88773 13.3941 6.79784 13.1727C6.70794 12.9513 6.57488 12.7501 6.4064 12.5807C6.23793 12.4113 6.03742 12.2771 5.81656 12.186C5.5957 12.0949 5.35891 12.0487 5.12 12.05ZM5.12 14.61C4.97124 14.61 4.82585 14.5657 4.7023 14.4829C4.57876 14.4 4.48265 14.2823 4.42619 14.1447C4.36973 14.007 4.35547 13.8557 4.38523 13.71C4.41499 13.5642 4.48742 13.4306 4.59331 13.3261C4.6992 13.2216 4.83377 13.151 4.97991 13.1232C5.12605 13.0954 5.27715 13.1117 5.41401 13.17C5.55087 13.2283 5.6673 13.326 5.74849 13.4506C5.82969 13.5753 5.87198 13.7213 5.87 13.87C5.87139 13.9684 5.85286 14.0661 5.81553 14.1572C5.7782 14.2482 5.72284 14.3308 5.65278 14.3999C5.58273 14.469 5.49941 14.5233 5.40785 14.5594C5.3163 14.5955 5.21838 14.6127 5.12 14.61Z" fill="#0E0E0E"/>
</g>
<defs>
<clipPath id="clip0_7172_1229">
<rect width="16" height="16" fill="white"/>
</clipPath>
</defs>
</svg>
