<svg width="16" height="16" viewBox="0 0 16 16" fill="none" xmlns="http://www.w3.org/2000/svg">
<path d="M8 6.93002C7.78837 6.93002 7.5815 6.99277 7.40554 7.11035C7.22958 7.22792 7.09243 7.39503 7.01145 7.59055C6.93046 7.78607 6.90927 8.00121 6.95056 8.20877C6.99185 8.41633 7.09375 8.60698 7.2434 8.75662C7.39304 8.90627 7.58369 9.00817 7.79125 9.04946C7.99881 9.09075 8.21395 9.06956 8.40947 8.98857C8.60499 8.90759 8.7721 8.77044 8.88967 8.59448C9.00725 8.41852 9.07 8.21165 9.07 8.00002C9.07 7.85951 9.04232 7.72037 8.98855 7.59055C8.93478 7.46073 8.85596 7.34277 8.7566 7.24342C8.65725 7.14406 8.53929 7.06524 8.40947 7.01147C8.27965 6.9577 8.14051 6.93002 8 6.93002Z" fill="#0E0E0E"/>
<path d="M7.94 3.55002C6.34046 3.51911 4.76159 3.91514 3.36599 4.6973C1.97039 5.47947 0.808509 6.61951 0 8.00002C0.811049 9.37681 1.97403 10.5128 3.36945 11.2914C4.76487 12.07 6.34242 12.463 7.94 12.43C9.55277 12.4567 11.1446 12.062 12.5581 11.2851C13.9717 10.5082 15.1581 9.37584 16 8.00002C15.151 6.62929 13.9636 5.5 12.5521 4.72068C11.1406 3.94136 9.55233 3.53823 7.94 3.55002ZM8 10.67C7.47192 10.67 6.95571 10.5134 6.51663 10.22C6.07755 9.92666 5.73533 9.50966 5.53324 9.02178C5.33116 8.53391 5.27828 7.99706 5.3813 7.47913C5.48433 6.9612 5.73862 6.48545 6.11202 6.11204C6.48543 5.73864 6.96118 5.48435 7.47911 5.38132C7.99704 5.2783 8.53389 5.33118 9.02176 5.53326C9.50964 5.73535 9.92664 6.07757 10.22 6.51665C10.5134 6.95573 10.67 7.47194 10.67 8.00002C10.6674 8.70734 10.3852 9.38493 9.88507 9.88509C9.38491 10.3852 8.70732 10.6674 8 10.67ZM1.25 8.00002C2.39118 6.39873 4.08212 5.27381 6 4.84002C5.46256 5.17385 5.01915 5.63924 4.71168 6.19218C4.40422 6.74512 4.24286 7.36734 4.24286 8.00002C4.24286 8.6327 4.40422 9.25492 4.71168 9.80786C5.01915 10.3608 5.46256 10.8262 6 11.16C4.07985 10.7315 2.38716 9.60545 1.25 8.00002ZM10.05 11.11C10.5657 10.7703 10.9891 10.3079 11.282 9.76418C11.5749 9.2205 11.7283 8.61259 11.7283 7.99502C11.7283 7.37745 11.5749 6.76954 11.282 6.22586C10.9891 5.68217 10.5657 5.21973 10.05 4.88002C11.9225 5.35055 13.5755 6.45251 14.73 8.00002C13.5681 9.56267 11.8938 10.6671 10 11.12L10.05 11.11Z" fill="#0E0E0E"/>
</svg>
