<svg width="16" height="16" viewBox="0 0 16 16" fill="none" xmlns="http://www.w3.org/2000/svg">
<g id="dds2_heat" clip-path="url(#clip0_7172_446)">
<g id="Vector">
<path d="M7.72 7.52992C8.9 8.79992 9.72 9.72992 7.81 12.1499L8.64 12.8099C11.17 9.67992 9.64 8.07992 8.5 6.80992C8.33 6.62992 8.16 6.44992 8 6.25992C6.89 4.99992 6.41 4.15992 8.38 1.55992L7.53 0.919922C5.33 3.80992 5.67 5.16992 7.19 6.91992L7.72 7.52992Z" fill="#0E0E0E"/>
<path d="M12.57 7.52992C13.75 8.79992 14.57 9.72992 12.66 12.1499L13.49 12.8099C16.02 9.67992 14.49 8.07992 13.35 6.80992C13.18 6.62992 13.01 6.44992 12.85 6.25992C11.74 4.96992 11.26 4.16992 13.23 1.56992L12.38 0.919922C10.18 3.80992 10.52 5.16992 12.04 6.91992L12.57 7.52992Z" fill="#0E0E0E"/>
<path d="M2.87 7.52992C4.05 8.79992 4.87 9.72992 2.96 12.1499L3.79 12.8099C6.32 9.67992 4.79 8.07992 3.65 6.80992C3.48 6.62992 3.31 6.44992 3.15 6.25992C2 4.99992 1.55 4.15992 3.53 1.55992L2.68 0.919922C0.48 3.80992 0.82 5.16992 2.34 6.99992L2.87 7.52992Z" fill="#0E0E0E"/>
<path d="M0 13.9999H16V15.0699H0V13.9999Z" fill="#0E0E0E"/>
</g>
</g>
<defs>
<clipPath id="clip0_7172_446">
<rect width="16" height="16" fill="white"/>
</clipPath>
</defs>
</svg>
