<svg width="16" height="16" viewBox="0 0 16 16" fill="none" xmlns="http://www.w3.org/2000/svg">
<g id="dds2_keyboard">
<g id="Vector">
<path d="M8.41 4.69V3.49H8.86C9.12522 3.49 9.37957 3.38464 9.56711 3.19711C9.75464 3.00957 9.86 2.75522 9.86 2.49V1H8.77V2.42H8.32C8.05478 2.42 7.80043 2.52536 7.61289 2.71289C7.42536 2.90043 7.32 3.15478 7.32 3.42V4.69H0V15H16V4.69H8.41ZM14.93 13.91H1.07V5.76H14.93V13.91Z" fill="#0E0E0E"/>
<path d="M2.51 6.45H4.07V7.52H2.51V6.45Z" fill="#0E0E0E"/>
<path d="M2.51 8.33H4.07V9.39H2.51V8.33Z" fill="#0E0E0E"/>
<path d="M2.51 10.18H4.07V11.25H2.51V10.18Z" fill="#0E0E0E"/>
<path d="M5.65 6.45H7.21V7.52H5.65V6.45Z" fill="#0E0E0E"/>
<path d="M5.65 8.33H7.21V9.39H5.65V8.33Z" fill="#0E0E0E"/>
<path d="M5.65 10.18H7.21V11.25H5.65V10.18Z" fill="#0E0E0E"/>
<path d="M8.79 6.45H10.35V7.52H8.79V6.45Z" fill="#0E0E0E"/>
<path d="M8.79 8.33H10.35V9.39H8.79V8.33Z" fill="#0E0E0E"/>
<path d="M8.79 10.18H10.35V11.25H8.79V10.18Z" fill="#0E0E0E"/>
<path d="M11.93 6.45H13.49V7.52H11.93V6.45Z" fill="#0E0E0E"/>
<path d="M11.93 8.33H13.49V9.39H11.93V8.33Z" fill="#0E0E0E"/>
<path d="M11.93 10.18H13.49V11.25H11.93V10.18Z" fill="#0E0E0E"/>
<path d="M4.91 12.05H11.08V13.12H4.91V12.05Z" fill="#0E0E0E"/>
</g>
</g>
</svg>
