<svg width="16" height="16" viewBox="0 0 16 16" fill="none" xmlns="http://www.w3.org/2000/svg">
<g id="dds2_user-group-disable">
<g id="Vector">
<path d="M5.16 8.00014C5.70715 8.00011 6.24194 7.83745 6.69645 7.53283C7.15095 7.22821 7.50466 6.79537 7.71265 6.2893C7.92064 5.78323 7.97352 5.22675 7.86457 4.69056C7.75562 4.15437 7.48976 3.66266 7.10076 3.27789C6.71176 2.89312 6.21717 2.63265 5.67982 2.52957C5.14248 2.42648 4.58661 2.48544 4.08284 2.69894C3.57907 2.91245 3.15012 3.27087 2.85049 3.72868C2.55085 4.18649 2.39405 4.72303 2.4 5.27014C2.39909 5.8405 2.5775 6.39672 2.91 6.86014C3.1686 7.2141 3.50724 7.50188 3.89827 7.7C4.2893 7.89813 4.72164 8.00097 5.16 8.00014ZM5.16 3.52014C5.5013 3.52016 5.83498 3.62114 6.11903 3.81037C6.40307 3.99959 6.6248 4.26861 6.75631 4.58356C6.88782 4.89851 6.92322 5.24533 6.85808 5.58036C6.79293 5.91539 6.63014 6.22366 6.39019 6.46638C6.15024 6.70911 5.84386 6.87543 5.5096 6.94442C5.17534 7.01342 4.82814 6.982 4.5117 6.85412C4.19525 6.72624 3.92371 6.50762 3.73123 6.22577C3.53875 5.94391 3.43395 5.61142 3.43 5.27014C3.43264 4.81305 3.61608 4.37558 3.94023 4.0533C4.26438 3.73103 4.7029 3.55013 5.16 3.55014V3.52014Z" fill="#0E0E0E"/>
<path d="M13 7.89014C13.726 8.56056 14.2521 9.41896 14.52 10.3701H10.55C10.6724 10.6972 10.7759 11.0311 10.86 11.3701H15.67L15.61 10.8001C15.4261 9.4582 14.7829 8.22141 13.79 7.30014L13 7.89014Z" fill="#0E0E0E"/>
<path d="M9.21 6.20014L10.15 5.57014C9.84013 5.4405 9.5753 5.22247 9.38857 4.94326C9.20184 4.66405 9.10147 4.33603 9.1 4.00014C9.09337 3.54132 9.26928 3.09865 9.58903 2.76952C9.90878 2.4404 10.3462 2.25177 10.805 2.24514C11.2638 2.23851 11.7065 2.41442 12.0356 2.73417C12.3647 3.05392 12.5534 3.49132 12.56 3.95014L13.5 3.32014C13.3529 2.74837 13.0257 2.23912 12.5667 1.86771C12.1078 1.4963 11.5415 1.28245 10.9517 1.25777C10.3618 1.2331 9.77962 1.39892 9.29128 1.73072C8.80294 2.06251 8.43434 2.54265 8.24 3.10014C8.7137 3.72637 8.97947 4.48519 9 5.27014C8.99757 5.49186 8.97413 5.71284 8.93 5.93014L9.21 6.20014Z" fill="#0E0E0E"/>
<path d="M9.39 10.3001L8.52 10.8801C8.63321 11.1326 8.72682 11.3933 8.8 11.6601H7.38L5.86 12.6601H10L9.94 12.0901C9.85244 11.4586 9.66687 10.8445 9.39 10.2701V10.3001Z" fill="#0E0E0E"/>
<path d="M8.73 9.26014L16 4.35014L15.42 3.50014L0 13.9101L0.58 14.7601L7.92 9.76014L8.73 9.26014Z" fill="#0E0E0E"/>
<path d="M2.88 9.36014C3.19004 9.55974 3.52669 9.7146 3.88 9.82014L5 9.00014H5.06C4.38435 8.9883 3.73248 8.7487 3.21 8.32014L2.92 8.08014L2.6 8.29014C1.98783 8.74291 1.475 9.31637 1.09316 9.97512C0.711331 10.6339 0.468612 11.3639 0.38 12.1201V12.1701L1.63 11.3301C1.85264 10.5554 2.29351 9.86112 2.9 9.33014L2.88 9.36014Z" fill="#0E0E0E"/>
</g>
</g>
</svg>
