<svg width="16" height="16" viewBox="0 0 16 16" fill="none" xmlns="http://www.w3.org/2000/svg">
<path fill-rule="evenodd" clip-rule="evenodd" d="M12 15C13.6569 15 15 13.6569 15 12C15 10.3431 13.6569 9 12 9C10.3431 9 9 10.3431 9 12C9 13.6569 10.3431 15 12 15ZM12 16C14.2091 16 16 14.2091 16 12C16 9.79086 14.2091 8 12 8C9.79086 8 8 9.79086 8 12C8 14.2091 9.79086 16 12 16Z" fill="#0E0E0E"/>
<path fill-rule="evenodd" clip-rule="evenodd" d="M12 11.2929L13.0607 10.2322L13.7678 10.9393L12.7071 12L13.7678 13.0607L13.0607 13.7678L12 12.7071L10.9393 13.7678L10.2322 13.0607L11.2929 12L10.2322 10.9393L10.9393 10.2322L12 11.2929Z" fill="#0E0E0E"/>
<path fill-rule="evenodd" clip-rule="evenodd" d="M5 0V1H11V0H12V1H15V7.99963C14.6923 7.76849 14.357 7.57202 14 7.41604V5H2V14H7.41604C7.57202 14.357 7.76849 14.6923 7.99963 15H1V1H4V0H5ZM11 2V3H12V2H14V4H2V2H4V3H5V2H11Z" fill="#0E0E0E"/>
</svg>
