<svg width="16" height="16" viewBox="0 0 16 16" fill="none" xmlns="http://www.w3.org/2000/svg">
<path d="M11.58 1.93004V6.08004L12.65 8.08004V3.00004H14.93V4.28004H14.08V5.35004H14.93V6.13004H14.08V7.20004H14.93V8.00004H14.08V9.05004H14.93V9.83004H14.08V10.9H14.93V13H14.45V14.06H16V1.92004L11.58 1.93004Z" fill="#0E0E0E"/>
<path d="M8.44 4.00004V3.16004C8.44132 2.99983 8.41107 2.84092 8.35097 2.6924C8.29088 2.54388 8.20211 2.40865 8.08975 2.29443C7.97739 2.18022 7.84364 2.08925 7.69612 2.02673C7.5486 1.9642 7.39021 1.93135 7.23 1.93004H6.23C6.06847 1.93004 5.90853 1.96186 5.7593 2.02367C5.61007 2.08549 5.47447 2.17609 5.36026 2.2903C5.24604 2.40452 5.15544 2.54011 5.09363 2.68934C5.03182 2.83857 5 2.99852 5 3.16004V4.00004H4.13L0 11.91V14.08H13.49V11.9L9.37 4.00004H8.44ZM6.11 3.16004C6.11209 3.11996 6.12829 3.0819 6.15575 3.05262C6.1832 3.02334 6.22013 3.00471 6.26 3.00004H7.26C7.30067 3.00507 7.33785 3.0255 7.3639 3.05712C7.38995 3.08875 7.40287 3.12917 7.4 3.17004V4.00004H6.11V3.16004ZM12.42 13H1.07V12.16L4.77 5.07004H8.77L12.47 12.15L12.42 13Z" fill="#0E0E0E"/>
</svg>
