<svg width="16" height="16" viewBox="0 0 16 16" fill="none" xmlns="http://www.w3.org/2000/svg">
<g id="dds2_web-camera" clip-path="url(#clip0_7172_1396)">
<g id="Vector">
<path d="M10 12.0001C11.3873 11.5265 12.5615 10.5758 13.3135 9.31745C14.0655 8.05906 14.3465 6.57463 14.1064 5.12846C13.8664 3.6823 13.1208 2.36827 12.0026 1.42035C10.8843 0.472428 9.46595 -0.0478516 8 -0.0478516C6.53404 -0.0478516 5.11566 0.472428 3.99741 1.42035C2.87916 2.36827 2.13363 3.6823 1.89356 5.12846C1.65349 6.57463 1.93447 8.05906 2.68647 9.31745C3.43847 10.5758 4.61267 11.5265 6 12.0001V14.8901H2.88V16.0001H13.12V14.9301H10V12.0001ZM8.94 14.9301H7.06V12.3001C7.37149 12.3437 7.68548 12.3671 8 12.3701C8.31451 12.3671 8.6285 12.3437 8.94 12.3001V14.9301ZM8 11.3101C6.98736 11.3101 5.99746 11.0099 5.15548 10.4473C4.3135 9.88468 3.65725 9.08504 3.26973 8.14948C2.88221 7.21392 2.78082 6.18446 2.97837 5.19128C3.17593 4.1981 3.66356 3.2858 4.37961 2.56976C5.09565 1.85371 6.00795 1.36608 7.00113 1.16852C7.99432 0.970966 9.02378 1.07236 9.95933 1.45988C10.8949 1.8474 11.6945 2.50364 12.2571 3.34562C12.8197 4.1876 13.12 5.1775 13.12 6.19014C13.1174 7.54724 12.5771 8.848 11.6175 9.80761C10.6578 10.7672 9.35709 11.3075 8 11.3101Z" fill="#0E0E0E"/>
<path d="M12 5.65014H8.53V2.19014H8C7.20887 2.19014 6.43551 2.42474 5.77771 2.86426C5.11992 3.30379 4.60723 3.9285 4.30448 4.65941C4.00173 5.39031 3.92251 6.19458 4.07685 6.9705C4.2312 7.74643 4.61216 8.45916 5.17157 9.01857C5.73098 9.57798 6.44371 9.95894 7.21963 10.1133C7.99556 10.2676 8.79983 10.1884 9.53073 9.88566C10.2616 9.58291 10.8863 9.07022 11.3259 8.41242C11.7654 7.75463 12 6.98127 12 6.19014V5.65014ZM8 9.12014C7.26038 9.13279 6.54335 8.8652 5.99284 8.37111C5.44233 7.87701 5.09908 7.19297 5.03199 6.45629C4.96491 5.71961 5.17895 4.98483 5.63116 4.39942C6.08336 3.81401 6.74026 3.42131 7.47 3.30014V6.72014H10.88C10.7561 7.39371 10.4002 8.00259 9.87407 8.44103C9.34795 8.87947 8.68486 9.11975 8 9.12014Z" fill="#0E0E0E"/>
</g>
</g>
<defs>
<clipPath id="clip0_7172_1396">
<rect width="16" height="16" fill="white"/>
</clipPath>
</defs>
</svg>
