<svg width="16" height="16" viewBox="0 0 16 16" fill="none" xmlns="http://www.w3.org/2000/svg">
<g clip-path="url(#clip0_7172_306)">
<path d="M1.26401 7.20004V11.77C1.32362 12.7151 1.66734 13.6202 2.25013 14.3666C2.83291 15.113 3.62758 15.666 4.53001 15.953L4.67501 16L4.82601 15.953C5.73346 15.6651 6.53181 15.1078 7.11499 14.3553C7.69818 13.6028 8.03859 12.6906 8.09101 11.74V7.20004H1.26401ZM5.32901 10.08L5.35501 10.055L4.65501 9.35504L2.25501 11.746V8.19104H7.10001V9.55104L4.16101 12.5L4.13601 12.525L4.83601 13.225L7.10001 10.953V11.709C7.05607 12.4555 6.78456 13.1705 6.32201 13.758C5.89502 14.3036 5.32429 14.7192 4.67401 14.958C4.02575 14.718 3.45693 14.3025 3.03101 13.758C2.81924 13.4903 2.64621 13.194 2.51701 12.878L5.32901 10.08ZM14.054 1.58804C12.6275 0.457175 10.8342 -0.108195 9.01701 3.80175e-05C5.81701 3.80175e-05 3.30601 1.33604 3.30601 3.04204V6.20004H4.29301V4.76004C5.68565 5.69421 7.34071 6.15817 9.01601 6.08404C9.13267 6.09004 9.24967 6.09304 9.36701 6.09304C10.9244 6.09072 12.4461 5.62685 13.74 4.76004V11.085C13.635 12.038 11.712 13.057 9.01601 13.057H8.95801C8.8547 13.3903 8.72771 13.7158 8.57801 14.031C8.72801 14.037 8.87801 14.044 9.01701 14.044C12.089 14.044 14.54 12.82 14.717 11.194V3.04204C14.7091 2.76771 14.6463 2.49773 14.5325 2.24802C14.4186 1.99831 14.2559 1.77391 14.054 1.58804ZM9.01701 5.10004C6.23301 5.10004 4.29301 4.01604 4.29301 3.04304C4.29301 2.07004 6.23301 0.985038 9.01701 0.985038C11.801 0.985038 13.74 2.07004 13.74 3.04204C13.74 4.01404 11.8 5.10004 9.01701 5.10004Z" fill="#0E0E0E"/>
</g>
<defs>
<clipPath id="clip0_7172_306">
<rect width="16" height="16" fill="white"/>
</clipPath>
</defs>
</svg>
