<svg width="16" height="16" viewBox="0 0 16 16" fill="none" xmlns="http://www.w3.org/2000/svg">
<g clip-path="url(#clip0_7172_217)">
<path d="M2 13.28L4.74 10.53L5.5 11.29L2.72 14L2 13.28Z" fill="#0E0E0E"/>
<path d="M10.53 4.71L13.28 2L14.03 2.75L11.29 5.47L10.53 4.71Z" fill="#0E0E0E"/>
<path d="M0 7.47H3.88V8.53H0V7.47Z" fill="#0E0E0E"/>
<path d="M12.12 7.47H16V8.53H12.12V7.47Z" fill="#0E0E0E"/>
<path d="M2 2.72L2.72 2L5.47 4.71L4.71 5.47L2 2.72Z" fill="#0E0E0E"/>
<path d="M10.53 11.29L11.29 10.53L14 13.28L13.25 14.03L10.53 11.29Z" fill="#0E0E0E"/>
<path d="M7.47 0H8.53V3.88H7.47V0Z" fill="#0E0E0E"/>
<path d="M7.47 12.12H8.53V16H7.47V12.12Z" fill="#0E0E0E"/>
<path d="M8 4.65C7.33743 4.65 6.68974 4.84647 6.13884 5.21458C5.58793 5.58268 5.15856 6.10588 4.905 6.71801C4.65145 7.33014 4.58511 8.00372 4.71437 8.65355C4.84363 9.30339 5.16269 9.9003 5.63119 10.3688C6.0997 10.8373 6.69661 11.1564 7.34645 11.2856C7.99628 11.4149 8.66986 11.3485 9.28199 11.095C9.89412 10.8414 10.4173 10.4121 10.7854 9.86116C11.1535 9.31026 11.35 8.66257 11.35 8C11.35 7.11152 10.9971 6.25944 10.3688 5.63119C9.74056 5.00295 8.88848 4.65 8 4.65ZM8 10.28C7.54906 10.28 7.10824 10.1463 6.7333 9.89575C6.35836 9.64522 6.06612 9.28913 5.89355 8.87252C5.72099 8.4559 5.67584 7.99747 5.76381 7.55519C5.85178 7.11292 6.06893 6.70666 6.3878 6.3878C6.70666 6.06893 7.11292 5.85178 7.55519 5.76381C7.99747 5.67584 8.4559 5.72099 8.87252 5.89355C9.28913 6.06612 9.64522 6.35836 9.89575 6.7333C10.1463 7.10824 10.28 7.54906 10.28 8C10.28 8.60469 10.0398 9.18462 9.6122 9.6122C9.18462 10.0398 8.60469 10.28 8 10.28Z" fill="#0E0E0E"/>
</g>
<defs>
<clipPath id="clip0_7172_217">
<rect width="16" height="16" fill="white"/>
</clipPath>
</defs>
</svg>
