<svg width="16" height="16" viewBox="0 0 16 16" fill="none" xmlns="http://www.w3.org/2000/svg">
<g id="dds2_assistance">
<g id="Vector">
<path d="M15 15.41C14.8286 14.1511 14.396 12.942 13.73 11.86L12.82 12.43C13.2851 13.2044 13.6228 14.0485 13.82 14.93H2.19C2.51748 13.2323 3.47484 11.7212 4.87 10.7L4.28 9.8C3.37817 10.4606 2.62167 11.2994 2.05745 12.2644C1.49322 13.2294 1.1333 14.3001 1 15.41V16H15V15.41Z" fill="#0E0E0E"/>
<path d="M4 13.18H6.7V14.25H4V13.18Z" fill="#0E0E0E"/>
<path d="M3.44 7.8H4.51V7.4C4.78995 8.09935 5.27299 8.6988 5.89683 9.12105C6.52067 9.54329 7.2567 9.76896 8.01 9.76896C8.7633 9.76896 9.49933 9.54329 10.1232 9.12105C10.747 8.6988 11.2301 8.09935 11.51 7.4V7.8H12.19V9.74L9.93 10.92H9V10.36H8V12H10.2L13.2 10.39V4.47C13.24 1.8 10.53 0 8 0C5.47 0 2.76 1.8 2.76 4.47V7.28H3.44V7.8ZM8 8.67C7.46755 8.66801 6.94767 8.50804 6.5062 8.21037C6.06473 7.91269 5.72153 7.4907 5.52006 6.99783C5.3186 6.50496 5.26793 5.96339 5.37449 5.44171C5.48104 4.92003 5.74001 4.4417 6.11861 4.06731C6.49721 3.69291 6.9784 3.4393 7.50124 3.33858C8.02409 3.23786 8.56506 3.29458 9.05564 3.50153C9.54623 3.70849 9.96436 4.05639 10.2571 4.50116C10.5498 4.94592 10.704 5.46756 10.7 6C10.6921 6.71087 10.4042 7.38995 9.89866 7.88982C9.39317 8.3897 8.71092 8.67004 8 8.67ZM8 1.07C10 1.07 12.17 2.47 12.17 4.47V5.65H11.74C11.6709 4.70534 11.2468 3.82183 10.5531 3.17697C9.85929 2.53211 8.94719 2.17368 8 2.17368C7.05281 2.17368 6.14071 2.53211 5.44694 3.17697C4.75317 3.82183 4.32913 4.70534 4.26 5.65H3.83V4.47C3.83 2.47 6 1.07 8 1.07Z" fill="#0E0E0E"/>
</g>
</g>
</svg>
