<svg width="16" height="16" viewBox="0 0 16 16" fill="none" xmlns="http://www.w3.org/2000/svg">
<g id="dds2_user-groups-disable">
<g id="Vector">
<path d="M14 7.29012L13.69 7.08012L13.4 7.32012C13.1468 7.51999 12.8502 7.65759 12.5341 7.72186C12.2179 7.78613 11.8911 7.77525 11.58 7.69012L11.19 8.00012C11.4357 8.25276 11.6536 8.53101 11.84 8.83012C12.4925 8.89835 13.1494 8.75082 13.71 8.41012C14.0924 8.77442 14.3718 9.23321 14.52 9.74012H12.29C12.4139 10.0641 12.5076 10.3989 12.57 10.7401H15.73L15.67 10.1701C15.6073 9.6003 15.4264 9.04984 15.1388 8.55393C14.8513 8.05802 14.4634 7.62757 14 7.29012Z" fill="#0E0E0E"/>
<path d="M12.77 2.67012C12.5531 2.58572 12.3227 2.54167 12.09 2.54012C11.7423 2.54205 11.4004 2.62866 11.0937 2.79244C10.7871 2.95623 10.5249 3.19226 10.33 3.48012C10.4833 3.65172 10.6174 3.83949 10.73 4.04012L12.73 2.67012H12.77Z" fill="#0E0E0E"/>
<path d="M2.37 9.69012H1.48C1.62369 9.18123 1.90379 8.72131 2.29 8.36012C2.72194 8.6223 3.21488 8.76709 3.72 8.78012L4.59 8.19012C4.8385 7.90107 5.12048 7.64259 5.43 7.42012L5.32 7.24012L5.22 7.32012C4.84951 7.61628 4.38931 7.77761 3.915 7.77761C3.44069 7.77761 2.98049 7.61628 2.61 7.32012L2.31 7.08012L2 7.29012C1.53892 7.62536 1.15243 8.05264 0.864972 8.54493C0.577516 9.03722 0.395351 9.5838 0.33 10.1501L0.27 10.7201H0.85L2.37 9.69012Z" fill="#0E0E0E"/>
<path d="M3.91 6.80012C4.29495 6.79914 4.67215 6.69186 5 6.49012C4.91224 6.20139 4.86512 5.90184 4.86 5.60012C4.85012 5.45028 4.85012 5.29995 4.86 5.15012C4.7299 5.37959 4.52031 5.55351 4.27079 5.63907C4.02126 5.72463 3.74905 5.7159 3.50551 5.61455C3.26197 5.51319 3.06395 5.3262 2.94881 5.08887C2.83367 4.85154 2.80937 4.58027 2.88049 4.32626C2.95162 4.07224 3.11325 3.85303 3.33489 3.71C3.55654 3.56697 3.82286 3.51 4.08363 3.54985C4.34439 3.58969 4.58155 3.72359 4.75036 3.92629C4.91918 4.12898 5.00798 4.38645 5 4.65012C5.13909 4.21757 5.36734 3.819 5.67 3.48012C5.46444 3.17497 5.18335 2.92827 4.85411 2.76405C4.52486 2.59984 4.15869 2.52371 3.79128 2.54308C3.42386 2.56245 3.06773 2.67667 2.75758 2.87459C2.44743 3.07252 2.19384 3.34741 2.02151 3.67248C1.84918 3.99756 1.764 4.36172 1.77426 4.72951C1.78451 5.09729 1.88986 5.45614 2.08004 5.7711C2.27022 6.08607 2.53873 6.3464 2.85943 6.52673C3.18013 6.70706 3.54208 6.80125 3.91 6.80012Z" fill="#0E0E0E"/>
<path d="M6.4 7.00012L7.25 6.42012C7.13184 6.30902 7.03996 6.17295 6.98106 6.02184C6.92216 5.87072 6.89773 5.70837 6.90954 5.54661C6.92135 5.38486 6.96911 5.22778 7.04934 5.08682C7.12957 4.94587 7.24024 4.82459 7.37328 4.73184C7.50633 4.63908 7.6584 4.57719 7.81841 4.55067C7.97841 4.52415 8.14232 4.53367 8.29817 4.57854C8.45403 4.6234 8.59791 4.70249 8.71933 4.81002C8.84074 4.91755 8.93663 5.05082 9 5.20012L9.85 4.63012C9.67676 4.28642 9.41281 3.99666 9.08672 3.79219C8.76064 3.58773 8.38484 3.47635 8 3.47012C7.4359 3.47275 6.89565 3.698 6.49677 4.09689C6.09788 4.49577 5.87263 5.03602 5.87 5.60012C5.87144 6.05119 6.01878 6.48969 6.29 6.85012C6.32307 6.90266 6.35983 6.95279 6.4 7.00012Z" fill="#0E0E0E"/>
<path d="M10.32 8.54012L8.68 9.65012C9.0321 9.59059 9.37075 9.46868 9.68 9.29012C10.0624 9.65442 10.3418 10.1132 10.49 10.6201H7.25L5.72 11.6201H11.65L11.59 11.0501C11.459 10.0864 11.0124 9.19315 10.32 8.51012V8.54012Z" fill="#0E0E0E"/>
<path d="M15.42 2.37012L0 12.7801L0.58 13.6301L16 3.22012L15.42 2.37012Z" fill="#0E0E0E"/>
</g>
</g>
</svg>
