<svg width="16" height="16" viewBox="0 0 16 16" fill="none" xmlns="http://www.w3.org/2000/svg">
<g clip-path="url(#clip0_7172_1091)">
<path d="M9.79 9.37002L9.42 9.09002L9.8 9.37002C10.26 8.74324 10.4587 7.96234 10.3543 7.1919C10.2498 6.42147 9.85032 5.72168 9.24 5.24002L8.85 4.94002C8.54352 4.70654 8.19399 4.53579 7.82144 4.43756C7.44888 4.33933 7.06061 4.31554 6.67885 4.36756C6.29709 4.41957 5.92933 4.54637 5.59664 4.7407C5.26394 4.93502 4.97284 5.19305 4.74 5.50002L0.589999 11C0.12998 11.6268 -0.0687368 12.4077 0.0357287 13.1781C0.140194 13.9486 0.539683 14.6484 1.15 15.13L1.54 15.43C2.04653 15.8219 2.66958 16.0331 3.31 16.03C3.76305 16.03 4.20997 15.9253 4.61588 15.7241C5.02179 15.5229 5.3757 15.2306 5.65 14.87L7.39 12.58L6.53 11.93L4.8 14.19C4.49893 14.5801 4.05674 14.8364 3.56861 14.9037C3.08048 14.971 2.58543 14.844 2.19 14.55L1.8 14.25C1.41012 13.9439 1.15531 13.4976 1.08992 13.0062C1.02453 12.5149 1.15375 12.0174 1.45 11.62L5.59 6.16002C5.76545 5.93119 5.99094 5.74553 6.2492 5.61727C6.50746 5.489 6.79165 5.42153 7.08 5.42002C7.48535 5.4177 7.87975 5.55152 8.2 5.80002L8.58 6.10002C8.97295 6.40132 9.23116 6.84547 9.29856 7.33602C9.36597 7.82658 9.23712 8.32391 8.94 8.72003L9.79 9.37002Z" fill="#0E0E0E"/>
<path d="M8.92 11.66C8.28008 11.6601 7.65798 11.4492 7.15 11.06L6.76 10.76C6.24655 10.3563 5.87888 9.79607 5.71283 9.16437C5.54678 8.53267 5.59143 7.86404 5.84 7.26003C5.93031 7.0344 6.05147 6.82238 6.2 6.63002L7.06 7.28003C6.96441 7.40155 6.88694 7.53628 6.83 7.68002C6.66978 8.06245 6.63976 8.48695 6.74457 8.88811C6.84937 9.28928 7.0832 9.64484 7.41 9.90002L7.8 10.2C8.1945 10.4966 8.69025 10.6252 9.17916 10.5577C9.66808 10.4903 10.1105 10.2323 10.41 9.84002L14.55 4.38002C14.8477 3.98231 14.9768 3.48338 14.9094 2.99119C14.8421 2.49899 14.5836 2.05312 14.19 1.75002L13.81 1.45002C13.4155 1.15346 12.9197 1.02489 12.4308 1.09232C11.9419 1.15976 11.4995 1.41774 11.2 1.81002L9.47 4.10002L8.62 3.44002L10.35 1.16002C10.5828 0.853054 10.8739 0.595021 11.2066 0.400697C11.5393 0.206373 11.9071 0.0795733 12.2888 0.0275572C12.6706 -0.024459 13.0589 -0.000670217 13.4314 0.0975616C13.804 0.195793 14.1535 0.366539 14.46 0.600025L14.85 0.900025C15.4519 1.38082 15.8458 2.07474 15.95 2.83802C16.0543 3.60129 15.8609 4.37542 15.41 5.00002L11.26 10.5C10.9862 10.8612 10.6324 11.1539 10.2264 11.3552C9.82037 11.5565 9.37318 11.6608 8.92 11.66Z" fill="#0E0E0E"/>
</g>
<defs>
<clipPath id="clip0_7172_1091">
<rect width="16" height="16" fill="white"/>
</clipPath>
</defs>
</svg>
