<svg width="16" height="16" viewBox="0 0 16 16" fill="none" xmlns="http://www.w3.org/2000/svg">
<g id="dds2_gear" clip-path="url(#clip0_7172_984)">
<g id="Vector">
<path d="M16 9.13V6.68L13.93 6L13.65 5.28L14.65 3.28L12.89 1.46L10.89 2.46L10.17 2.22L9.36 0H6.86L6.17 2.2L5.45 2.48L3.24 1.38L1.48 3.13L2.62 5.25L2.25 6L0 6.76V9.22L2.29 9.94L2.61 10.65L1.61 12.81L3.37 14.55L5.49 13.45L6.23 13.78L6.94 16H9.47L10.16 13.76L10.89 13.44L12.95 14.38L14.69 12.65L13.69 10.65L13.91 9.94L16 9.13ZM13.4 12.43L12.72 13.1L10.91 12.28L9.29 13L8.68 15H7.68L7 13L5.37 12.26L3.48 13.26L2.81 12.6L3.74 10.69L3.07 9.06L1.07 8.44V7.51L3 6.84L3.81 5.23L2.81 3.32L3.46 2.68L5.46 3.68L7 3L7.61 1.06H8.61L9.31 3.06L10.94 3.61L12.68 2.75L13.35 3.42L12.5 5.21L13.13 6.82L14.95 7.44V8.38L13 9.08L12.51 10.71L13.37 12.43H13.4Z" fill="#0E0E0E"/>
<path d="M8 5.09C7.42489 5.09198 6.86325 5.26432 6.38602 5.58528C5.90879 5.90623 5.53737 6.3614 5.31865 6.8933C5.09993 7.42521 5.04373 8.00999 5.15714 8.57382C5.27055 9.13764 5.54849 9.65522 5.95585 10.0612C6.36322 10.4672 6.88175 10.7433 7.44596 10.8548C8.01017 10.9663 8.59476 10.9081 9.12591 10.6875C9.65706 10.467 10.1109 10.094 10.4303 9.61567C10.7496 9.13734 10.92 8.57512 10.92 8C10.92 7.61701 10.8444 7.23779 10.6975 6.88408C10.5507 6.53037 10.3354 6.20913 10.0641 5.93878C9.79287 5.66843 9.47089 5.45429 9.11668 5.30863C8.76247 5.16298 8.38299 5.08868 8 5.09ZM8 9.83C7.63654 9.82604 7.28238 9.71452 6.98223 9.50951C6.68208 9.3045 6.44937 9.01518 6.31347 8.67805C6.17757 8.34093 6.14456 7.97111 6.21862 7.61524C6.29267 7.25938 6.47047 6.93342 6.72957 6.6785C6.98868 6.42357 7.31748 6.2511 7.6745 6.18284C8.03152 6.11458 8.40076 6.1536 8.73563 6.29496C9.0705 6.43633 9.356 6.67371 9.5561 6.97716C9.75621 7.2806 9.86195 7.63652 9.86 8C9.85472 8.48891 9.65611 8.95586 9.30758 9.29877C8.95904 9.64168 8.48893 9.83267 8 9.83Z" fill="#0E0E0E"/>
</g>
</g>
<defs>
<clipPath id="clip0_7172_984">
<rect width="16" height="16" fill="white"/>
</clipPath>
</defs>
</svg>
