<svg width="16" height="16" viewBox="0 0 16 16" fill="none" xmlns="http://www.w3.org/2000/svg">
<g id="dds2_fan" clip-path="url(#clip0_7172_707)">
<g id="Vector">
<path d="M0 0V16H16V0H0ZM14.93 14.93H1.07V1.07H14.93V14.93Z" fill="#0E0E0E"/>
<path d="M8 14C9.15657 14.0059 10.2889 13.6688 11.254 13.0314C12.2191 12.394 12.9735 11.4848 13.4221 10.4187C13.8706 9.35261 13.993 8.17751 13.7739 7.04186C13.5548 5.90622 13.004 4.86101 12.1911 4.0383C11.3782 3.2156 10.3396 2.65233 9.20667 2.41966C8.07373 2.187 6.89724 2.29539 5.82588 2.73113C4.75451 3.16688 3.83636 3.91042 3.18743 4.8678C2.5385 5.82518 2.18792 6.95344 2.18 8.11C2.17473 8.87907 2.32116 9.64164 2.61092 10.3541C2.90067 11.0665 3.32806 11.7148 3.86863 12.2618C4.4092 12.8089 5.05234 13.244 5.76125 13.5423C6.47016 13.8405 7.23092 13.9961 8 14ZM3.33 8.91C4.08651 8.59549 4.88497 8.39335 5.7 8.31C5.72733 8.73641 5.87658 9.14598 6.13 9.49C5.7209 10.2796 5.43109 11.1254 5.27 12C4.2394 11.2678 3.54163 10.1564 3.33 8.91ZM8 6.82C8.2547 6.82198 8.50312 6.89931 8.71394 7.04225C8.92476 7.18519 9.08855 7.38734 9.18465 7.62323C9.28076 7.85911 9.30488 8.11817 9.25398 8.36774C9.20308 8.61731 9.07944 8.84623 8.89864 9.02564C8.71784 9.20506 8.48797 9.32693 8.23801 9.3759C7.98805 9.42487 7.72919 9.39874 7.49406 9.30082C7.25892 9.20289 7.05804 9.03755 6.91673 8.82563C6.77542 8.61372 6.70001 8.36471 6.7 8.11C6.69999 7.93975 6.73369 7.77118 6.79914 7.61402C6.8646 7.45685 6.96051 7.3142 7.08136 7.19428C7.20221 7.07436 7.3456 6.97955 7.50327 6.91531C7.66093 6.85107 7.82976 6.81868 8 6.82ZM6.26 12.55C6.38478 11.7334 6.63436 10.9408 7 10.2C7.31005 10.3608 7.65114 10.4529 8 10.47C8.0866 10.4749 8.1734 10.4749 8.26 10.47C8.74958 11.2192 9.34586 11.893 10.03 12.47C9.43927 12.7574 8.79445 12.9167 8.13783 12.9374C7.48121 12.9581 6.82764 12.8397 6.22 12.59L6.26 12.55ZM11 11.82C10.3551 11.3285 9.78858 10.7418 9.32 10.08C9.68301 9.82627 9.97274 9.48136 10.16 9.08C11.0454 9.0322 11.9201 8.86399 12.76 8.58C12.6963 9.20982 12.5079 9.82067 12.2057 10.3769C11.9035 10.9332 11.4937 11.4237 11 11.82ZM12.74 7.46C11.9845 7.75606 11.1891 7.93805 10.38 8C10.3773 7.54906 10.2454 7.10833 10 6.73C10.399 5.93096 10.6819 5.07902 10.84 4.2C11.379 4.57731 11.8347 5.0614 12.1787 5.6222C12.5228 6.18301 12.7479 6.80855 12.84 7.46H12.74ZM9.74 3.67C9.64494 4.47327 9.43268 5.25828 9.11 6C8.76552 5.82852 8.38473 5.74276 8 5.75C7.90007 5.74458 7.79993 5.74458 7.7 5.75C7.22589 5.02774 6.65376 4.37484 6 3.81C6.62315 3.50331 7.30565 3.33609 8 3.32C8.61397 3.31683 9.22244 3.4358 9.79 3.67H9.74ZM5 4.42C5.65187 4.91404 6.22506 5.50408 6.7 6.17C6.32008 6.43366 6.02482 6.80187 5.85 7.23C4.97073 7.29122 4.10503 7.47986 3.28 7.79C3.32169 7.14066 3.49578 6.50672 3.79158 5.92717C4.08737 5.34762 4.49861 4.83471 5 4.42Z" fill="#0E0E0E"/>
</g>
</g>
<defs>
<clipPath id="clip0_7172_707">
<rect width="16" height="16" fill="white"/>
</clipPath>
</defs>
</svg>
