<svg width="16" height="16" viewBox="0 0 16 16" fill="none" xmlns="http://www.w3.org/2000/svg">
<g id="dds2_video-card" clip-path="url(#clip0_7172_213)">
<g id="Vector">
<path d="M5.46 8.26988C5.46 9.22997 5.84139 10.1507 6.52027 10.8296C7.19916 11.5085 8.11992 11.8899 9.08 11.8899C9.65598 11.8862 10.2224 11.742 10.73 11.4699C11.2802 11.1772 11.7454 10.7471 12.0801 10.2214C12.4148 9.69569 12.6077 9.09227 12.64 8.46988C12.64 8.40988 12.64 8.34988 12.64 8.28988C12.6365 7.69198 12.4838 7.10441 12.1957 6.58051C11.9075 6.05661 11.4931 5.61298 10.99 5.28988C10.4113 4.90883 9.73292 4.70707 9.04 4.70988C8.56859 4.69903 8.09985 4.78355 7.66192 4.95836C7.22399 5.13317 6.82589 5.39467 6.49154 5.72716C6.15718 6.05965 5.89346 6.45627 5.7162 6.89322C5.53893 7.33016 5.45179 7.79842 5.46 8.26988ZM7.3 10.0899C6.9434 9.74975 6.69622 9.3111 6.59 8.82988C6.93573 8.70908 7.29517 8.63182 7.66 8.59988C7.69063 8.70526 7.72735 8.80877 7.77 8.90988C7.57202 9.28548 7.41448 9.68103 7.3 10.0899ZM10.85 6.42988C11.228 6.79692 11.483 7.27202 11.58 7.78988C11.2329 7.90038 10.8735 7.96756 10.51 7.98988C10.4817 7.86177 10.4381 7.73753 10.38 7.61988C10.5811 7.24226 10.7388 6.84304 10.85 6.42988ZM10.29 9.07988C10.7121 9.06695 11.1314 9.00657 11.54 8.89988C11.4143 9.38711 11.1463 9.8258 10.77 10.1599C10.5 9.91811 10.2584 9.64636 10.05 9.34988C10.1403 9.26954 10.2208 9.17893 10.29 9.07988ZM9.08 5.70988C9.35659 5.71322 9.63056 5.76396 9.89 5.85988C9.81229 6.20429 9.69832 6.53949 9.55 6.85988C9.41002 6.81758 9.26583 6.79075 9.12 6.77988C8.90597 6.41312 8.64362 6.07677 8.34 5.77988C8.58111 5.71587 8.83116 5.69221 9.08 5.70988ZM9.47 8.26988C9.455 8.36385 9.40699 8.4494 9.3346 8.51115C9.2622 8.57291 9.17016 8.60684 9.075 8.60684C8.97984 8.60684 8.8878 8.57291 8.8154 8.51115C8.74301 8.4494 8.695 8.36385 8.68 8.26988C8.67088 8.21275 8.67426 8.15431 8.68992 8.09861C8.70558 8.0429 8.73313 7.99126 8.77068 7.94724C8.80823 7.90322 8.85489 7.86787 8.90743 7.84363C8.95997 7.81939 9.01714 7.80684 9.075 7.80684C9.13286 7.80684 9.19003 7.81939 9.24257 7.84363C9.29511 7.86787 9.34177 7.90322 9.37932 7.94724C9.41687 7.99126 9.44442 8.0429 9.46008 8.09861C9.47573 8.15431 9.47912 8.21275 9.47 8.26988ZM8.61 9.63988C8.73956 9.68279 8.8739 9.70966 9.01 9.71988C9.23075 10.0848 9.49613 10.4207 9.8 10.7199C9.56569 10.7872 9.32372 10.8242 9.08 10.8299C8.79691 10.8265 8.51637 10.7758 8.25 10.6799C8.3318 10.334 8.45258 9.99853 8.61 9.67988V9.63988ZM7.37 6.37988C7.63972 6.62561 7.88121 6.90065 8.09 7.19988C7.98999 7.29125 7.90256 7.3955 7.83 7.50988C7.40995 7.5318 6.99384 7.60227 6.59 7.71988C6.69943 7.20107 6.97291 6.73125 7.37 6.37988Z" fill="#0E0E0E"/>
<path d="M3.22 2.69988V0.629883H0V1.68988H2.15V4.68988H1.15V7.46988H2.15V9.05988H1.15V11.8699H2.15V15.3699H3.22V13.8299H16V2.69988H3.22ZM14.93 12.7599H3.22V3.75988H14.93V12.7599Z" fill="#0E0E0E"/>
</g>
</g>
<defs>
<clipPath id="clip0_7172_213">
<rect width="16" height="16" fill="white"/>
</clipPath>
</defs>
</svg>
