<svg width="16" height="16" viewBox="0 0 16 16" fill="none" xmlns="http://www.w3.org/2000/svg">
<g id="dds2_view-grid">
<g id="Vector">
<path d="M0 2.41992H4.05V3.48992H0V2.41992Z" fill="#0E0E0E"/>
<path d="M6 2.41992H10V3.48992H6V2.41992Z" fill="#0E0E0E"/>
<path d="M12 2.41992H16V3.48992H12V2.41992Z" fill="#0E0E0E"/>
<path d="M0 9.14992H4.05V10.2099H0V9.14992Z" fill="#0E0E0E"/>
<path d="M6 9.14992H10V10.2099H6V9.14992Z" fill="#0E0E0E"/>
<path d="M12 9.14992H16V10.2099H12V9.14992Z" fill="#0E0E0E"/>
<path d="M0 5.77992H4.05V6.84992H0V5.77992Z" fill="#0E0E0E"/>
<path d="M6 5.77992H10V6.84992H6V5.77992Z" fill="#0E0E0E"/>
<path d="M12 5.77992H16V6.84992H12V5.77992Z" fill="#0E0E0E"/>
<path d="M0 12.5099H4.05V13.5799H0V12.5099Z" fill="#0E0E0E"/>
<path d="M6 12.5099H10V13.5799H6V12.5099Z" fill="#0E0E0E"/>
<path d="M12 12.5099H16V13.5799H12V12.5099Z" fill="#0E0E0E"/>
</g>
</g>
</svg>
