<svg width="16" height="16" viewBox="0 0 16 16" fill="none" xmlns="http://www.w3.org/2000/svg">
<g id="dds2_phone" clip-path="url(#clip0_7172_466)">
<path id="Vector" d="M16 11.36V11.09L11.68 8.89L10 10.43L5.57001 6L7.11001 4.39L4.91001 0.0699985L4.64001 -1.52551e-06C3.70149 -0.105509 2.75455 0.104599 1.94873 0.597148C1.1429 1.0897 0.524096 1.83663 0.19001 2.72C-1.05999 5.72 4.19001 10.72 4.73001 11.24C5.27001 11.76 9.26001 16 12.26 16C12.6024 16.0011 12.9419 15.9366 13.26 15.81C14.1481 15.4809 14.9005 14.8638 15.3971 14.0573C15.8937 13.2508 16.1059 12.3012 16 11.36ZM12.9 14.82C10.9 15.65 6.90001 11.99 5.52001 10.49C4.14001 8.99 0.36001 5.11 1.18001 3.13C1.40423 2.51761 1.81355 1.99023 2.35115 1.62108C2.88875 1.25193 3.52796 1.05932 4.18001 1.07L5.81001 4.19L4.07001 6L10.07 12L11.84 10.26L14.96 11.85C14.9622 12.5006 14.7623 13.1358 14.3879 13.6678C14.0135 14.1998 13.4831 14.6025 12.87 14.82H12.9Z" fill="#0E0E0E"/>
</g>
<defs>
<clipPath id="clip0_7172_466">
<rect width="16" height="16" fill="white"/>
</clipPath>
</defs>
</svg>
