<svg width="16" height="16" viewBox="0 0 16 16" fill="none" xmlns="http://www.w3.org/2000/svg">
<path d="M2.07 14.93V4.69H6.07V1.06H11.93V5.42L13 4.89V0H4.94L1 3.73V16H5.94L4.86 14.93H2.07ZM5 1.4V3.63H2.66L5 1.4Z" fill="#0E0E0E"/>
<path d="M15 9.64L13.61 9.17L13.49 8.85L14.14 7.47L12.83 6.17L11.46 6.84L11.15 6.73L10.63 5.26H8.75L8.28 6.73L8 6.85L6.5 6.12L5.17 7.43L5.92 8.85L5.76 9.16L4.25 9.69V11.56L5.79 12L5.92 12.3L5.22 13.75L6.55 15.1L8 14.37L8.32 14.51L8.46 14.93L8.8 16H10.71L11.18 14.51L11.5 14.37L12.87 15L13 14.87L14.19 13.69L13.5 12.32L13.6 12.02L15 11.5V9.64ZM13 11.09L12.73 11.19L12.36 12.4L12.89 13.46L12.65 13.71L11.51 13.2L10.31 13.71L9.93 14.93H9.56L9.15 13.73L7.94 13.18L6.75 13.8L6.51 13.57L7.1 12.37L6.57 11.16L5.32 10.77V10.45L6.52 10L7.12 8.81L6.48 7.61L6.71 7.39L7.93 8L9.15 7.52L9.53 6.31H9.88L10.32 7.57L11.54 8L12.62 7.47L12.86 7.71L12.33 8.82L12.8 10L13.93 10.39V10.74L13 11.09Z" fill="#0E0E0E"/>
<path d="M9.62 8.55C9.21102 8.55198 8.8118 8.67506 8.47271 8.90371C8.13362 9.13236 7.86985 9.45634 7.71471 9.83475C7.55957 10.2132 7.52 10.6291 7.601 11.0299C7.682 11.4308 7.87993 11.7987 8.16982 12.0872C8.45971 12.3757 8.82856 12.5719 9.22983 12.6509C9.63109 12.73 10.0468 12.6884 10.4244 12.5315C10.8021 12.3745 11.1248 12.1092 11.3518 11.769C11.5788 11.4288 11.7 11.029 11.7 10.62C11.6974 10.0701 11.477 9.54359 11.0873 9.15568C10.6975 8.76776 10.1699 8.54999 9.62 8.55ZM9.62 11.63C9.42222 11.63 9.22888 11.5714 9.06443 11.4615C8.89998 11.3516 8.77181 11.1954 8.69612 11.0127C8.62043 10.83 8.60063 10.6289 8.63921 10.4349C8.6778 10.2409 8.77304 10.0627 8.91289 9.92289C9.05275 9.78304 9.23093 9.6878 9.42491 9.64921C9.61889 9.61063 9.81996 9.63043 10.0027 9.70612C10.1854 9.78181 10.3416 9.90998 10.4515 10.0744C10.5614 10.2389 10.62 10.4322 10.62 10.63C10.62 10.8952 10.5146 11.1496 10.3271 11.3371C10.1396 11.5246 9.88522 11.63 9.62 11.63Z" fill="#0E0E0E"/>
</svg>
