<svg width="16" height="16" viewBox="0 0 16 16" fill="none" xmlns="http://www.w3.org/2000/svg">
<g clip-path="url(#clip0_7172_153)">
<path d="M13.35 5.88997C13.35 3.30997 11.77 1.33997 9.35 1.33997C8.68077 1.32135 8.01851 1.47986 7.43024 1.79946C6.84197 2.11905 6.34857 2.58839 6 3.15997C5.75781 3.1294 5.51408 3.1127 5.27 3.10997C4.55319 3.02567 3.83093 3.21453 3.24715 3.63893C2.66336 4.06334 2.26091 4.69211 2.12 5.39997C1.50594 5.58838 0.968572 5.9689 0.586942 6.48554C0.205312 7.00218 -0.000426195 7.62767 -4.60178e-06 8.26997C-0.012455 8.65069 0.0531894 9.02993 0.192884 9.38432C0.332578 9.73871 0.543363 10.0607 0.812249 10.3306C1.08114 10.6004 1.40243 10.8123 1.75633 10.9532C2.11022 11.0941 2.48923 11.1611 2.87 11.15V10.09C2.62961 10.0985 2.39005 10.0571 2.16646 9.96845C1.94288 9.87975 1.74011 9.74565 1.57096 9.57462C1.40181 9.4036 1.26997 9.19936 1.18374 8.9748C1.09751 8.75025 1.05878 8.51025 1.07 8.26997C1.06726 7.86171 1.19473 7.46321 1.43389 7.13233C1.67306 6.80145 2.01148 6.55542 2.4 6.42997L3.05 6.22997L3.17 5.55997C3.17 5.32997 3.49999 4.17997 5.22 4.17997C5.41975 4.16603 5.62024 4.16603 5.82 4.17997L6.56 4.27997L6.9 3.60997C7.16715 3.2167 7.53103 2.89881 7.95661 2.6869C8.3822 2.47498 8.85516 2.37617 9.33 2.39997C11.33 2.39997 12.28 4.15997 12.28 5.88997V6.88997L13.28 6.96997C13.55 6.96997 14.94 7.17997 14.94 8.53997C14.9321 8.96083 14.7587 9.36164 14.4573 9.65552C14.156 9.9494 13.7509 10.1127 13.33 10.11H13V11.18H13.34C13.34 11.18 16 11 16 8.51997C16 6.03997 13.35 5.88997 13.35 5.88997Z" fill="#0E0E0E"/>
<path d="M9.56999 6.08997L8.88 6.89997L9.75 7.64997H4.23V10.54H5.3V8.71997H9.72L8.91 9.40997L9.5 10.09L9.60999 10.22L9.76 10.09L12 8.16997L9.56999 6.08997Z" fill="#0E0E0E"/>
<path d="M10.63 12.05H6.2L7 11.34L6.84 11.15L6.3 10.53L3.94 12.58L6.36 14.66L7.05 13.85L6.19 13.11H11.7V10.11H10.63V12.05Z" fill="#0E0E0E"/>
</g>
<defs>
<clipPath id="clip0_7172_153">
<rect width="16" height="16" fill="white"/>
</clipPath>
</defs>
</svg>
