<svg width="16" height="16" viewBox="0 0 16 16" fill="none" xmlns="http://www.w3.org/2000/svg">
<g id="dds2_help-sqr" clip-path="url(#clip0_7172_177)">
<g id="Vector">
<path d="M0 0V16H16V0H0ZM14.93 14.93H1.07V1.07H14.93V14.93Z" fill="#0E0E0E"/>
<path d="M6.34 6.18H6.47C6.43268 5.70628 6.54835 5.23308 6.8 4.83C6.94975 4.66487 7.13676 4.53789 7.34548 4.45962C7.55421 4.38135 7.7786 4.35406 8 4.38C8.24784 4.3745 8.49478 4.41171 8.73 4.49C8.90792 4.5533 9.0712 4.65195 9.21 4.78C9.3254 4.89433 9.41121 5.03506 9.46 5.19C9.51155 5.3414 9.53856 5.50007 9.54 5.66C9.5461 5.86461 9.51213 6.06843 9.44 6.26C9.37926 6.42661 9.29141 6.58203 9.18 6.72C9.05736 6.86981 8.92365 7.0102 8.78 7.14L8.26 7.58C8.08506 7.7241 7.92126 7.88122 7.77 8.05C7.64731 8.19301 7.54315 8.35092 7.46 8.52C7.37711 8.69418 7.31985 8.87943 7.29 9.07C7.26825 9.3429 7.26825 9.6171 7.29 9.89H8.51C8.50768 9.68178 8.5278 9.47391 8.57 9.27C8.60146 9.13041 8.65915 8.99806 8.74 8.88C8.82866 8.74811 8.93273 8.62726 9.05 8.52C9.18 8.4 9.34 8.26 9.54 8.1C9.74 7.94 9.9 7.78 10.06 7.62C10.2152 7.47211 10.3498 7.30392 10.46 7.12C10.5746 6.92621 10.6621 6.71759 10.72 6.5C10.7938 6.22631 10.8275 5.94336 10.82 5.66C10.8208 5.31564 10.7492 4.97496 10.61 4.66C10.4767 4.34935 10.2668 4.07755 10 3.87C9.73416 3.66086 9.43262 3.50162 9.11 3.4C8.75046 3.28867 8.37638 3.23138 8 3.23C7.57712 3.22109 7.15637 3.29235 6.76 3.44C6.42734 3.55616 6.12612 3.74784 5.88 4C5.64789 4.25818 5.47094 4.56103 5.36 4.89C5.22489 5.30253 5.16726 5.7365 5.19 6.17L6.34 6.18Z" fill="#0E0E0E"/>
<path d="M7.24 11.49H8.52V12.77H7.24V11.49Z" fill="#0E0E0E"/>
</g>
</g>
<defs>
<clipPath id="clip0_7172_177">
<rect width="16" height="16" fill="white"/>
</clipPath>
</defs>
</svg>
