<svg width="16" height="16" viewBox="0 0 16 16" fill="none" xmlns="http://www.w3.org/2000/svg">
<g clip-path="url(#clip0_7172_550)">
<path d="M9.1 7.29117e-06C7.62074 0.00861626 6.18341 0.492402 5 1.38001C5.62041 1.21767 6.25872 1.13369 6.9 1.13001C7.2345 1.13179 7.56852 1.15517 7.9 1.20001C8.29413 1.11341 8.69648 1.06982 9.1 1.07001C10.6462 1.07001 12.1291 1.68424 13.2224 2.77757C14.3158 3.87091 14.93 5.3538 14.93 6.90001C14.9324 7.31356 14.8888 7.72609 14.8 8.13001C14.8448 8.46149 14.8682 8.79552 14.87 9.13001C14.8647 9.7613 14.7807 10.3895 14.62 11C15.3851 9.97674 15.8502 8.76061 15.9631 7.48791C16.076 6.21521 15.8323 4.93621 15.2592 3.79423C14.6861 2.65225 13.8064 1.69241 12.7185 1.02227C11.6307 0.352122 10.3777 -0.00185253 9.1 7.29117e-06Z" fill="#0E0E0E"/>
<path d="M6.9 3.27001C8.05307 3.27001 9.18024 3.61193 10.139 4.25254C11.0977 4.89315 11.845 5.80367 12.2862 6.86896C12.7275 7.93426 12.8429 9.10647 12.618 10.2374C12.393 11.3683 11.8378 12.4071 11.0224 13.2224C10.2071 14.0378 9.16829 14.593 8.03738 14.818C6.90647 15.0429 5.73425 14.9275 4.66896 14.4862C3.60367 14.045 2.69314 13.2977 2.05254 12.339C1.41193 11.3802 1.07 10.2531 1.07 9.10001C1.07 7.5538 1.68423 6.07091 2.77757 4.97757C3.87091 3.88424 5.35379 3.27001 6.9 3.27001ZM6.9 2.20001C5.53531 2.20001 4.20127 2.60469 3.06657 3.36287C1.93187 4.12105 1.04748 5.19868 0.525234 6.45949C0.00298965 7.7203 -0.133653 9.10766 0.132585 10.4461C0.398823 11.7846 1.05598 13.0141 2.02097 13.979C2.98595 14.944 4.21541 15.6012 5.55388 15.8674C6.89235 16.1337 8.27971 15.997 9.54052 15.4748C10.8013 14.9525 11.879 14.0681 12.6371 12.9334C13.3953 11.7987 13.8 10.4647 13.8 9.10001C13.8 8.19389 13.6215 7.29664 13.2748 6.45949C12.928 5.62234 12.4198 4.86169 11.779 4.22097C11.1383 3.58025 10.3777 3.072 9.54052 2.72524C8.70337 2.37848 7.80612 2.20001 6.9 2.20001Z" fill="#0E0E0E"/>
<path d="M9 10C8.91202 9.77858 8.77924 9.57772 8.61 9.41001C8.43018 9.24125 8.22417 9.10279 8 9.00001C7.67541 8.84862 7.34138 8.71835 7 8.61001C6.7024 8.51384 6.41447 8.38997 6.14 8.24001C6.00301 8.16166 5.8865 8.05201 5.8 7.92001C5.7315 7.76614 5.70065 7.59817 5.71 7.43001C5.70286 7.29666 5.72616 7.16343 5.77813 7.04041C5.83011 6.9174 5.9094 6.80783 6.01 6.72001C6.2599 6.51532 6.57749 6.41183 6.9 6.43001C7.06259 6.41926 7.22556 6.44411 7.37755 6.50283C7.52954 6.56156 7.66688 6.65273 7.78 6.77001C7.89279 6.89778 7.97915 7.04664 8.03407 7.20798C8.089 7.36933 8.11141 7.53995 8.1 7.71001V8.08001H9.1V7.72001C9.12838 7.13764 8.93548 6.56608 8.56 6.12001C8.26468 5.79621 7.87118 5.57838 7.44 5.50001V4.64001H6.44V5.50001C6.03495 5.5543 5.65538 5.72842 5.35 6.00001C5.15611 6.18095 5.00315 6.40127 4.90139 6.64618C4.79963 6.89109 4.75143 7.15494 4.76 7.42001C4.75251 7.73822 4.82108 8.05363 4.96 8.34001C5.10948 8.60748 5.32239 8.83412 5.58 9.00001C5.93136 9.21721 6.30734 9.39177 6.7 9.52001C7.04711 9.6289 7.38219 9.77299 7.7 9.95001C7.85289 10.0345 7.98321 10.1546 8.08 10.3C8.1558 10.4445 8.19039 10.6071 8.18 10.77C8.18314 10.9019 8.15592 11.0327 8.10043 11.1523C8.04494 11.272 7.96268 11.3772 7.86 11.46C7.61109 11.6674 7.29369 11.7744 6.97 11.76C6.58338 11.7844 6.20165 11.6631 5.9 11.42C5.77683 11.2999 5.68093 11.1546 5.61882 10.9942C5.55671 10.8337 5.52983 10.6618 5.54 10.49V10.11H4.54V10.49C4.52698 10.7881 4.57529 11.0857 4.68194 11.3643C4.78859 11.643 4.9513 11.8968 5.16 12.11C5.52045 12.4521 5.98525 12.6634 6.48 12.71V13.56H7.48V12.7C7.89258 12.6345 8.27588 12.4464 8.58 12.16C8.76822 11.9799 8.91629 11.7621 9.01451 11.5209C9.11274 11.2796 9.15891 11.0203 9.15 10.76C9.15001 10.4993 9.09906 10.2411 9 10Z" fill="#0E0E0E"/>
</g>
<defs>
<clipPath id="clip0_7172_550">
<rect width="16" height="16" fill="white"/>
</clipPath>
</defs>
</svg>
