<svg width="16" height="16" viewBox="0 0 16 16" fill="none" xmlns="http://www.w3.org/2000/svg">
<g id="dds2_server-rack-support" clip-path="url(#clip0_7172_203)">
<g id="Vector">
<path d="M8.32004 3.62H1.24004V1.07H11.33V2.14C11.5283 2.10519 11.7288 2.08514 11.93 2.08C12.09 2.08 12.24 2.08 12.39 2.08V0H0.170044V4.69H7.55004C7.7628 4.3037 8.02133 3.94444 8.32004 3.62Z" fill="#0E0E0E"/>
<path d="M5.67004 9.28H1.24004V6.73H7.00004C7.02666 6.37106 7.09034 6.01584 7.19004 5.67H0.190044V10.34H4.60004L5.67004 9.28Z" fill="#0E0E0E"/>
<path d="M11.12 12L10.78 12.34H11.33V14.89H8.23004L7.16004 16H12.39V12.07C12.2369 12.0804 12.0832 12.0804 11.93 12.07C11.6585 12.0632 11.3877 12.0364 11.12 11.99V12Z" fill="#0E0E0E"/>
<path d="M0.170044 11.31V16H2.44004C2.22534 15.6753 2.0759 15.3118 2.00004 14.93H1.24004V12.38H2.59004C2.6279 12.3255 2.67148 12.2752 2.72004 12.23L3.63004 11.31H0.170044Z" fill="#0E0E0E"/>
<path d="M15.52 5.55L15.22 4.82L13.43 6.61C13.2848 6.74934 13.0913 6.82715 12.89 6.82715C12.6888 6.82715 12.4953 6.74934 12.35 6.61C12.2787 6.53933 12.222 6.45523 12.1834 6.36254C12.1447 6.26985 12.1248 6.17042 12.1248 6.07C12.1248 5.96958 12.1447 5.87015 12.1834 5.77746C12.222 5.68477 12.2787 5.60067 12.35 5.53L14.14 3.74L13.41 3.44C12.7207 3.14981 11.9627 3.06289 11.2255 3.18951C10.4884 3.31614 9.80282 3.65101 9.2498 4.15461C8.69679 4.65821 8.2994 5.30951 8.10453 6.03164C7.90966 6.75376 7.92545 7.51656 8.15004 8.23L3.49004 12.89C3.14791 13.2321 2.95571 13.6962 2.95571 14.18C2.95571 14.6638 3.14791 15.1279 3.49004 15.47C3.83217 15.8121 4.2962 16.0043 4.78004 16.0043C5.26389 16.0043 5.72791 15.8121 6.07004 15.47L10.72 10.81C11.4341 11.0372 12.1983 11.055 12.9221 10.8613C13.646 10.6675 14.2991 10.2704 14.8042 9.7169C15.3093 9.1634 15.6452 8.47673 15.7721 7.73823C15.8989 6.99972 15.8115 6.24033 15.52 5.55ZM13.92 9.1C13.5178 9.50095 13.0054 9.77308 12.448 9.88172C11.8905 9.99036 11.3134 9.93058 10.79 9.71L10.46 9.58L5.32004 14.72C5.17257 14.8549 4.97993 14.9297 4.78004 14.9297C4.58016 14.9297 4.38752 14.8549 4.24004 14.72C4.0932 14.5778 4.00718 14.3843 4.00004 14.18C3.99936 14.0799 4.01844 13.9807 4.0562 13.8881C4.09395 13.7954 4.14963 13.7111 4.22004 13.64L9.38004 8.5L9.25004 8.17C9.06334 7.73411 8.98755 7.25875 9.02944 6.78641C9.07134 6.31407 9.22962 5.85947 9.49014 5.46325C9.75065 5.06703 10.1053 4.74153 10.5223 4.51585C10.9394 4.29018 11.4059 4.17135 11.88 4.17H12.17L11.6 4.74C11.2593 5.08286 11.068 5.54661 11.068 6.03C11.068 6.51339 11.2593 6.97714 11.6 7.32C11.9478 7.65136 12.4097 7.83619 12.89 7.83619C13.3704 7.83619 13.8323 7.65136 14.18 7.32L14.75 6.75C14.8534 7.18002 14.83 7.63078 14.6827 8.0478C14.5354 8.46482 14.2705 8.83028 13.92 9.1Z" fill="#0E0E0E"/>
</g>
</g>
<defs>
<clipPath id="clip0_7172_203">
<rect width="16" height="16" fill="white"/>
</clipPath>
</defs>
</svg>
