<svg width="16" height="16" viewBox="0 0 16 16" fill="none" xmlns="http://www.w3.org/2000/svg">
<g clip-path="url(#clip0_7172_1028)">
<path d="M13.8 9.42495L10.68 11.6399L3.1 0.944946H0V1.94495H2.58L9.99 12.3999C9.57254 12.5161 9.20956 12.7761 8.96519 13.1339C8.72082 13.4918 8.61077 13.9245 8.65449 14.3556C8.69821 14.7867 8.89289 15.1885 9.20412 15.49C9.51536 15.7915 9.92314 15.9733 10.3554 16.0033C10.7877 16.0333 11.2167 15.9095 11.5666 15.6539C11.9165 15.3983 12.1648 15.0272 12.2676 14.6063C12.3705 14.1853 12.3212 13.7416 12.1286 13.3534C11.936 12.9653 11.6124 12.6577 11.215 12.4849L14.375 10.2399L13.8 9.42495ZM11.32 14.1599C11.32 14.3241 11.2713 14.4846 11.1801 14.6211C11.0889 14.7576 10.9593 14.8639 10.8076 14.9268C10.656 14.9896 10.4891 15.006 10.3281 14.974C10.1671 14.942 10.0192 14.8629 9.9031 14.7468C9.78702 14.6308 9.70797 14.4829 9.67595 14.3219C9.64392 14.1609 9.66036 13.994 9.72318 13.8423C9.786 13.6907 9.89238 13.561 10.0289 13.4698C10.1654 13.3786 10.3258 13.3299 10.49 13.3299C10.5991 13.3297 10.7071 13.351 10.8079 13.3926C10.9088 13.4342 11.0004 13.4953 11.0775 13.5725C11.1546 13.6496 11.2157 13.7412 11.2574 13.842C11.299 13.9428 11.3203 14.0509 11.32 14.1599ZM3.285 4.45995L4 5.45995H1V4.45995H3.285ZM6.145 8.45995H0V7.45995H5.43L6.145 8.45995ZM7.57 10.4599L8.285 11.4599H2V10.4599H7.57ZM15.927 6.53795L12.35 1.49195L7.303 5.06995L10.881 10.1159L15.927 6.53795ZM12.1115 2.88795L14.532 6.30295L11.118 8.72345L8.7 5.30695L12.1115 2.88795Z" fill="#0E0E0E"/>
</g>
<defs>
<clipPath id="clip0_7172_1028">
<rect width="16" height="16" fill="white"/>
</clipPath>
</defs>
</svg>
