<svg width="16" height="16" viewBox="0 0 16 16" fill="none" xmlns="http://www.w3.org/2000/svg">
<g id="dds2_user-search" clip-path="url(#clip0_7172_482)">
<g id="Vector">
<path d="M6 6.74C6.66652 6.74 7.31808 6.54235 7.87227 6.17205C8.42647 5.80175 8.85841 5.27543 9.11347 4.65964C9.36854 4.04386 9.43528 3.36626 9.30525 2.71255C9.17521 2.05883 8.85425 1.45835 8.38295 0.987052C7.91165 0.515749 7.31117 0.194787 6.65745 0.0647551C6.00374 -0.0652771 5.32614 0.00146016 4.71036 0.256527C4.09457 0.511595 3.56825 0.943536 3.19795 1.49773C2.82765 2.05192 2.63 2.70348 2.63 3.37C2.63 4.26378 2.98505 5.12095 3.61705 5.75295C4.24905 6.38495 5.10622 6.74 6 6.74ZM6 1.07C6.4549 1.07 6.89958 1.20489 7.27781 1.45762C7.65604 1.71035 7.95084 2.06956 8.12492 2.48983C8.299 2.9101 8.34455 3.37255 8.25581 3.81871C8.16706 4.26487 7.94801 4.67469 7.62635 4.99635C7.30468 5.31801 6.89486 5.53706 6.44871 5.62581C6.00255 5.71455 5.5401 5.66901 5.11983 5.49492C4.69956 5.32084 4.34035 5.02605 4.08762 4.64781C3.83489 4.26958 3.7 3.8249 3.7 3.37C3.70263 2.76081 3.9458 2.17733 4.37656 1.74656C4.80733 1.3158 5.39081 1.07263 6 1.07Z" fill="#0E0E0E"/>
<path d="M6.84 10.67H1.24C1.5047 9.43397 2.16463 8.31771 3.12 7.49C3.92822 8.03214 4.87282 8.33563 5.84556 8.3657C6.8183 8.39576 7.77984 8.15119 8.62 7.66C9.03607 7.35796 9.50371 7.13431 10 7C9.74811 6.75758 9.47351 6.53992 9.18 6.35L8.85 6.14L8.55 6.39C7.82723 6.96268 6.93215 7.2743 6.01 7.2743C5.08785 7.2743 4.19277 6.96268 3.47 6.39L3.17 6.13L2.84 6.35C2.07403 6.91846 1.43232 7.63747 0.954264 8.46289C0.476208 9.28831 0.171893 10.2027 0.06 11.15L0 11.74H6.86C6.8247 11.5385 6.80464 11.3346 6.8 11.13C6.8 11 6.83 10.82 6.84 10.67Z" fill="#0E0E0E"/>
<path d="M13.66 12.9C14.0371 12.368 14.2397 11.7321 14.24 11.08C14.2466 10.3587 14.0099 9.65612 13.5683 9.08571C13.1267 8.51531 12.5058 8.11029 11.8058 7.93597C11.1058 7.76166 10.3675 7.82821 9.70993 8.1249C9.05239 8.42158 8.51394 8.93111 8.18144 9.57129C7.84895 10.2115 7.74178 10.945 7.87722 11.6536C8.01267 12.3621 8.38283 13.0044 8.92801 13.4768C9.47319 13.9492 10.1616 14.2242 10.8822 14.2574C11.6028 14.2907 12.3136 14.0802 12.9 13.66L15.24 16L16 15.24L13.66 12.9ZM11.06 13.19C10.6427 13.19 10.2347 13.0663 9.88775 12.8344C9.54076 12.6026 9.27032 12.273 9.11061 11.8875C8.95091 11.5019 8.90913 11.0777 8.99054 10.6684C9.07196 10.2591 9.27292 9.8831 9.568 9.58801C9.86309 9.29292 10.2391 9.09196 10.6484 9.01054C11.0577 8.92913 11.4819 8.97091 11.8675 9.13062C12.253 9.29032 12.5826 9.56076 12.8144 9.90775C13.0463 10.2547 13.17 10.6627 13.17 11.08C13.1674 11.6388 12.9442 12.174 12.5491 12.5691C12.154 12.9642 11.6188 13.1874 11.06 13.19Z" fill="#0E0E0E"/>
</g>
</g>
<defs>
<clipPath id="clip0_7172_482">
<rect width="16" height="16" fill="white"/>
</clipPath>
</defs>
</svg>
