<svg width="16" height="16" viewBox="0 0 16 16" fill="none" xmlns="http://www.w3.org/2000/svg">
<g clip-path="url(#clip0_7172_558)">
<path d="M14.47 2.28V0H1.53V2.28H0.279999V16H15.72V2.28H14.47ZM2.72 1.18H13.28V2.27H2.72V1.18ZM9.22 14.82H6.78V11.35H9.22V14.82ZM14.53 14.82H10.4V10.17H5.6V14.82H1.47V3.46H14.53V14.82Z" fill="#0E0E0E"/>
<path d="M4.11 4.92H5.29V6.1H4.11V4.92Z" fill="#0E0E0E"/>
<path d="M7.42 4.92H8.6V6.1H7.42V4.92Z" fill="#0E0E0E"/>
<path d="M10.72 4.92H11.9V6.1H10.72V4.92Z" fill="#0E0E0E"/>
<path d="M4.11 7.61H5.29V8.8H4.11V7.61Z" fill="#0E0E0E"/>
<path d="M7.42 7.61H8.6V8.8H7.42V7.61Z" fill="#0E0E0E"/>
<path d="M10.72 7.61H11.9V8.8H10.72V7.61Z" fill="#0E0E0E"/>
</g>
<defs>
<clipPath id="clip0_7172_558">
<rect width="16" height="16" fill="white"/>
</clipPath>
</defs>
</svg>
