<svg width="16" height="16" viewBox="0 0 16 16" fill="none" xmlns="http://www.w3.org/2000/svg">
<path d="M10.67 0H5.33V12.89H10.67V0ZM6.4 11.82V1.07H9.61V11.82H6.4Z" fill="#0E0E0E"/>
<path d="M8.54 3.41C8.54698 3.485 8.53819 3.56063 8.51419 3.63203C8.49019 3.70343 8.45152 3.76903 8.40067 3.82459C8.34981 3.88016 8.28789 3.92447 8.21889 3.95468C8.14989 3.98488 8.07533 4.00032 8 4C7.85148 4 7.70905 3.941 7.60402 3.83598C7.499 3.73096 7.44 3.58852 7.44 3.44C7.44 3.29148 7.499 3.14904 7.60402 3.04402C7.70905 2.939 7.85148 2.88 8 2.88C8.14151 2.87998 8.27736 2.93549 8.37835 3.03461C8.47934 3.13373 8.53738 3.26852 8.54 3.41Z" fill="#0E0E0E"/>
<path d="M7.47 5.69H8.54V10H7.47V5.69Z" fill="#0E0E0E"/>
<path d="M3.88 14V16H5V15H11.1V16H12.17V14H3.88Z" fill="#0E0E0E"/>
</svg>
