<svg width="16" height="16" viewBox="0 0 16 16" fill="none" xmlns="http://www.w3.org/2000/svg">
<g id="dds2_hinge" clip-path="url(#clip0_7172_1402)">
<g id="Vector">
<path d="M8.19001 13.68H9.60001C8.68491 14.4347 7.53616 14.8482 6.35001 14.85C5.30617 14.851 4.2861 14.5385 3.42201 13.9529C2.55792 13.3672 1.88966 12.5356 1.50385 11.5657C1.11804 10.5958 1.03247 9.53231 1.25823 8.51318C1.48399 7.49406 2.01067 6.56624 2.77001 5.85L2.30001 4.73C1.29367 5.56591 0.569108 6.6914 0.224795 7.95351C-0.119519 9.21562 -0.0668851 10.5531 0.375542 11.7843C0.817969 13.0154 1.62873 14.0805 2.69765 14.8348C3.76656 15.589 5.04178 15.9958 6.35001 16C7.80731 16.0028 9.22065 15.501 10.35 14.58V15.79H11.49V12.53H8.19001V13.68Z" fill="#0E0E0E"/>
<path d="M6.68001 9.28L2.85001 0L1.79001 0.43L5.86001 10.43H16V9.28H6.68001Z" fill="#0E0E0E"/>
<path d="M6.00001 4.71L7.10001 6.19L8.00001 5.5L7.26001 4.5C8.19407 4.67983 9.0609 5.11242 9.76618 5.7507C10.4715 6.38897 10.9881 7.20847 11.26 8.12H12.46C12.1685 6.91479 11.53 5.82151 10.6236 4.97547C9.71709 4.12943 8.58243 3.56777 7.36001 3.36L8.45001 2.54L7.76001 1.62L5.16001 3.62L6.00001 4.71Z" fill="#0E0E0E"/>
</g>
</g>
<defs>
<clipPath id="clip0_7172_1402">
<rect width="16" height="16" fill="white"/>
</clipPath>
</defs>
</svg>
