<svg width="16" height="16" viewBox="0 0 16 16" fill="none" xmlns="http://www.w3.org/2000/svg">
<g id="dds2_pin" clip-path="url(#clip0_7172_1422)">
<path id="Vector" d="M9.91 0L8.11 1.77L8.47 3.54L6.07 5.91L3.6 4.56C3.41722 4.45765 3.2092 4.40911 3 4.42C2.69383 4.41747 2.39907 4.53609 2.18 4.75L0.59 6.36L4.66 10.36L0.16 14.94L0 16L1.06 15.82L5.56 11.27L9.56 15.2L11.19 13.59C11.3697 13.4178 11.487 13.1906 11.5232 12.9443C11.5594 12.698 11.5125 12.4467 11.39 12.23L10 9.79L12.41 7.42L14.2 7.78L16 6L9.91 0ZM13.85 6.62L12.06 6.27L8.67 9.61L10.43 12.74C10.4399 12.7548 10.4452 12.7722 10.4452 12.79C10.4452 12.8078 10.4399 12.8252 10.43 12.84L9.56 13.69L2.12 6.36L3 5.51L6.26 7.23L9.65 3.89L9.53 3.33L9.29 2.12L9.91 1.51L14.47 6L13.85 6.61V6.62Z" fill="#0E0E0E"/>
</g>
<defs>
<clipPath id="clip0_7172_1422">
<rect width="16" height="16" fill="white"/>
</clipPath>
</defs>
</svg>
