<svg width="16" height="16" viewBox="0 0 16 16" fill="none" xmlns="http://www.w3.org/2000/svg">
<g id="dds2_office">
<g id="Vector">
<path d="M4.50998 4.19H5.57998V5.26H4.50998V4.19Z" fill="#0E0E0E"/>
<path d="M4.50998 6.33H5.57998V7.4H4.50998V6.33Z" fill="#0E0E0E"/>
<path d="M4.50998 8.47H5.57998V9.53H4.50998V8.47Z" fill="#0E0E0E"/>
<path d="M6.60998 4.19H7.67998V5.26H6.60998V4.19Z" fill="#0E0E0E"/>
<path d="M6.60998 6.33H7.67998V7.4H6.60998V6.33Z" fill="#0E0E0E"/>
<path d="M6.60998 8.47H7.67998V9.53H6.60998V8.47Z" fill="#0E0E0E"/>
<path d="M10.84 8.49H11.91V9.56H10.84V8.49Z" fill="#0E0E0E"/>
<path d="M10.84 10.63H11.91V11.7H10.84V10.63Z" fill="#0E0E0E"/>
<path d="M10.84 12.77H11.91V13.84H10.84V12.77Z" fill="#0E0E0E"/>
<path d="M9.99998 6.33V1.91H8.44998V0H3.67998V1.91H2.16998V16H13.83V6.33H9.99998ZM4.74998 1.07H7.37998V1.88H4.74998V1.07ZM5.52998 14.9V12.5H6.59998V14.9H5.52998ZM8.88998 14.9H7.65998V11.4H4.45998V14.9H3.22998V3H8.88998V15V14.9ZM12.76 14.9H9.99998V7.4H12.78L12.76 14.9Z" fill="#0E0E0E"/>
</g>
</g>
</svg>
