<svg width="16" height="16" viewBox="0 0 16 16" fill="none" xmlns="http://www.w3.org/2000/svg">
<g id="dds2_host-server-hex" clip-path="url(#clip0_7172_988)">
<g id="Vector">
<path d="M0.920013 0V4.69H15.08V0H0.920013ZM14 1.33V3.33L13.88 3.53H12.5L11.8 2.32L12.5 1.1H13.9L14 1.33ZM10.58 2.28L9.90001 1.07H11.3L10.58 2.28ZM9.38001 2.35L8.70001 3.56H7.30001L6.60001 2.35L7.30001 1.13H8.70001L9.38001 2.35ZM5.38001 2.28L4.70001 1.07H6.10001L5.38001 2.28ZM4.18001 2.35L3.50001 3.56H2.10001L2.00001 3.36V1.36L2.12001 1.16H3.50001L4.18001 2.35ZM5.38001 2.41L6.08001 3.62H4.70001L5.40001 2.41H5.38001ZM10.58 2.41L11.28 3.62H9.90001L10.6 2.41H10.58Z" fill="#0E0E0E"/>
<path d="M0.920013 10.34H15.08V5.67H0.920013V10.34ZM2.00001 9V7L2.12001 6.8H3.50001L4.20001 8L3.50001 9.21H2.10001L2.00001 9ZM5.40001 8.06L6.10001 9.28H4.70001L5.40001 8.06ZM6.60001 8L7.30001 6.79H8.70001L9.40001 8L8.70001 9.21H7.30001L6.60001 8ZM10.6 8.06L11.3 9.28H9.90001L10.6 8.06ZM11.8 8L12.5 6.79H13.9L14 7V9L13.88 9.2H12.5L11.8 8ZM10.6 7.94L9.90001 6.73H11.29L10.6 7.94ZM5.40001 7.94L4.71001 6.73H6.10001L5.40001 7.94Z" fill="#0E0E0E"/>
<path d="M0.920013 16H15.08V11.31H0.920013V16ZM2.00001 14.67V12.67L2.12001 12.47H3.50001L4.20001 13.69L3.50001 14.9H2.10001L2.00001 14.67ZM5.42001 13.72L6.12001 14.93H4.70001L5.40001 13.72H5.42001ZM6.62001 13.66L7.32001 12.44H8.70001L9.40001 13.66L8.70001 14.87H7.30001L6.62001 13.66ZM10.62 13.72L11.32 14.93H9.90001L10.6 13.72H10.62ZM11.82 13.66L12.52 12.44H13.92L14.04 12.64V14.64L13.92 14.84H12.5L11.82 13.66ZM10.62 13.59L9.92001 12.38H11.32L10.62 13.59ZM5.42001 13.59L4.72001 12.38H6.10001L5.40001 13.59H5.42001Z" fill="#0E0E0E"/>
</g>
</g>
<defs>
<clipPath id="clip0_7172_988">
<rect width="16" height="16" fill="white"/>
</clipPath>
</defs>
</svg>
