<svg width="16" height="16" viewBox="0 0 16 16" fill="none" xmlns="http://www.w3.org/2000/svg">
<g id="dds2_tag" clip-path="url(#clip0_7172_592)">
<g id="Vector">
<path d="M7.79 0H2.23L0 2.23V7.79L8.21 16L16 8.21L7.79 0ZM1.07 7.35V2.67L2.67 1.07H7.35L14.49 8.21L8.21 14.49L1.07 7.35Z" fill="#0E0E0E"/>
<path d="M2.63 2.63C2.50828 2.75165 2.42537 2.90667 2.39175 3.07545C2.35814 3.24422 2.37534 3.41918 2.44118 3.57818C2.50701 3.73718 2.61852 3.87309 2.7616 3.96871C2.90468 4.06433 3.07291 4.11537 3.245 4.11537C3.41709 4.11537 3.58532 4.06433 3.7284 3.96871C3.87148 3.87309 3.98299 3.73718 4.04882 3.57818C4.11466 3.41918 4.13186 3.24422 4.09825 3.07545C4.06463 2.90667 3.98172 2.75165 3.86 2.63C3.69686 2.46696 3.47565 2.37537 3.245 2.37537C3.01435 2.37537 2.79314 2.46696 2.63 2.63Z" fill="#0E0E0E"/>
</g>
</g>
<defs>
<clipPath id="clip0_7172_592">
<rect width="16" height="16" fill="white"/>
</clipPath>
</defs>
</svg>
