<svg width="16" height="16" viewBox="0 0 16 16" fill="none" xmlns="http://www.w3.org/2000/svg">
<g clip-path="url(#clip0_7172_815)">
<path d="M13.66 2.34C12.5408 1.22207 11.1153 0.461031 9.56374 0.153071C8.01213 -0.15489 6.40405 0.00405663 4.94276 0.609819C3.48147 1.21558 2.23257 2.24097 1.35391 3.55637C0.475254 4.87177 0.00628662 6.41813 0.00628662 8C0.00628662 9.58187 0.475254 11.1282 1.35391 12.4436C2.23257 13.759 3.48147 14.7844 4.94276 15.3902C6.40405 15.996 8.01213 16.1549 9.56374 15.8469C11.1153 15.539 12.5408 14.7779 13.66 13.66C14.4038 12.917 14.9939 12.0347 15.3965 11.0635C15.7991 10.0923 16.0063 9.05133 16.0063 8C16.0063 6.94868 15.7991 5.90767 15.3965 4.93648C14.9939 3.9653 14.4038 3.08299 13.66 2.34ZM3.09999 3.1C4.33188 1.86426 5.98567 1.14032 7.72928 1.07354C9.47288 1.00676 11.1772 1.6021 12.5 2.74L2.73999 12.5C1.60209 11.1772 1.00675 9.47289 1.07353 7.72929C1.14031 5.98568 1.86425 4.33189 3.09999 3.1ZM12.9 12.9C11.6681 14.1357 10.0143 14.8597 8.27071 14.9265C6.5271 14.9932 4.82279 14.3979 3.49999 13.26L13.26 3.5C14.3979 4.8228 14.9932 6.52711 14.9265 8.27072C14.8597 10.0143 14.1357 11.6681 12.9 12.9Z" fill="#0E0E0E"/>
</g>
<defs>
<clipPath id="clip0_7172_815">
<rect width="16" height="16" fill="white"/>
</clipPath>
</defs>
</svg>
