<svg width="16" height="16" viewBox="0 0 16 16" fill="none" xmlns="http://www.w3.org/2000/svg">
<g id="dds2_movie-clapper-play" clip-path="url(#clip0_7172_1002)">
<g id="Vector">
<path d="M3.23 6.63L15.76 3L14.88 0L0 4.27L0.8 7.07V16H16V6.63H3.23ZM9.36 3.83L7.73 4.3L6.25 3.52L7.87 3.05L9.36 3.83ZM9.27 2.65L10.89 2.19L12.36 3L10.76 3.46L9.27 2.65ZM6.34 4.7L4.66 5.18L3.25 4.38L4.86 3.92L6.34 4.7ZM14.52 2.35L13.74 2.57L12.28 1.79L14.2 1.24L14.52 2.35ZM1.91 4.77L3.31 5.57L1.55 6.07L1.23 5L1.91 4.81V4.77ZM15 15H1.8V7.64H15V15Z" fill="#0E0E0E"/>
<path d="M6.1 8.12V14.47L11.66 11.24L6.1 8.12ZM7.31 10.06L9.49 11.24L7.31 12.42V10.06Z" fill="#0E0E0E"/>
</g>
</g>
<defs>
<clipPath id="clip0_7172_1002">
<rect width="16" height="16" fill="white"/>
</clipPath>
</defs>
</svg>
