<svg width="16" height="16" viewBox="0 0 16 16" fill="none" xmlns="http://www.w3.org/2000/svg">
<g id="dds2_search-arrow-left" clip-path="url(#clip0_7172_1012)">
<g id="Vector">
<path d="M10.1 7.87C10.1099 6.86701 9.82086 5.88381 9.26979 5.04572C8.71871 4.20763 7.93054 3.55264 7.00576 3.16423C6.08098 2.77583 5.06148 2.67161 4.07724 2.86487C3.093 3.05813 2.18861 3.5401 1.47936 4.24936C0.770105 4.95861 0.288128 5.863 0.0948692 6.84724C-0.0983892 7.83148 0.0058271 8.85098 0.394232 9.77576C0.782637 10.7005 1.43763 11.4887 2.27572 12.0398C3.11381 12.5909 4.09702 12.8799 5.1 12.87C6.25795 12.8653 7.37838 12.4588 8.27 11.72L12.46 16L13.21 15.25L9 11C9.71221 10.1123 10.1003 9.00812 10.1 7.87ZM5.1 11.87C4.30888 11.87 3.53552 11.6354 2.87772 11.1959C2.21992 10.7564 1.70723 10.1316 1.40448 9.40073C1.10173 8.66983 1.02252 7.86556 1.17686 7.08964C1.3312 6.31371 1.71216 5.60098 2.27157 5.04157C2.83098 4.48216 3.54372 4.1012 4.31964 3.94686C5.09556 3.79252 5.89983 3.87173 6.63074 4.17448C7.36164 4.47723 7.98635 4.98992 8.42588 5.64772C8.86541 6.30552 9.1 7.07887 9.1 7.87C9.0974 8.39784 8.99036 8.91994 8.78504 9.40621C8.57973 9.89249 8.28019 10.3333 7.90371 10.7033C7.52723 11.0733 7.08125 11.3651 6.59147 11.5619C6.10169 11.7587 5.5778 11.8566 5.05 11.85L5.1 11.87Z" fill="#0E0E0E"/>
<path d="M16 2.81H11.41L13.53 0.68L12.85 0L9.57 3.28L12.85 6.55L13.53 5.87L11.44 3.77H16V2.81Z" fill="#0E0E0E"/>
</g>
</g>
<defs>
<clipPath id="clip0_7172_1012">
<rect width="16" height="16" fill="white"/>
</clipPath>
</defs>
</svg>
