<svg width="16" height="16" viewBox="0 0 16 16" fill="none" xmlns="http://www.w3.org/2000/svg">
<g id="dds2_gear-arrow" clip-path="url(#clip0_7172_847)">
<g id="Vector">
<path d="M14 7.5899L14.26 7.6799V8.5399L12.45 9.1999L12 10.7699L12.82 12.4099L12.2 13.0299L10.48 12.2499L8.91 12.9099L8.33 14.7799H7.4L6.76 12.9399L5.19 12.2299L3.38 13.1699L2.78 12.5699L3.66 10.7499L3 9.1799L1.07 8.5899V7.7399L2.92 7.0999L3.7 5.5499L2.7 3.7299L3.29 3.1399L5.15 4.0599L6.73 3.4399L7.34 1.5999H8.22L8.56 2.5999L9.41 1.8099L9 0.529902H6.55L5.89 2.6299L5.23 2.8899L3.12 1.8899L1.41 3.5299L2.5 5.5299L2.16 6.1999L0 6.9999V9.3699L2.2 10.0599L2.49 10.7199L1.49 12.7899L3.2 14.4699L5.2 13.4199L5.88 13.7199L6.61 15.8499H9.08L9.75 13.6999L10.43 13.4099L12.43 14.3099L14.11 12.6299L13.11 10.6299L13.31 9.9699L15.31 9.2399V6.9199L14 6.4599V7.5899Z" fill="#0E0E0E"/>
<path d="M7.66 5.3899C7.10666 5.39386 6.56689 5.56168 6.10886 5.87219C5.65083 6.18269 5.29507 6.62195 5.08651 7.1345C4.87795 7.64705 4.82593 8.20991 4.93703 8.752C5.04813 9.29409 5.31736 9.7911 5.71073 10.1803C6.1041 10.5695 6.60397 10.8334 7.14722 10.9387C7.69047 11.044 8.25273 10.9859 8.76302 10.7719C9.27331 10.5579 9.70874 10.1974 10.0143 9.73611C10.3199 9.27479 10.482 8.73326 10.48 8.1799C10.4787 7.81136 10.4046 7.44669 10.2621 7.10682C10.1195 6.76696 9.91129 6.45858 9.6493 6.19937C9.38731 5.94017 9.07672 5.73523 8.73535 5.59632C8.39398 5.45742 8.02854 5.38727 7.66 5.3899ZM7.66 9.9099C7.31872 9.90596 6.98623 9.80115 6.70437 9.60867C6.42252 9.4162 6.2039 9.14465 6.07602 8.8282C5.94814 8.51176 5.91672 8.16456 5.98572 7.8303C6.05471 7.49604 6.22103 7.18966 6.46376 6.94971C6.70648 6.70976 7.01475 6.54697 7.34978 6.48183C7.68481 6.41668 8.03163 6.45209 8.34658 6.58359C8.66153 6.7151 8.93055 6.93683 9.11977 7.22088C9.309 7.50492 9.40998 7.8386 9.41 8.1799C9.40869 8.4084 9.36239 8.63441 9.27373 8.84502C9.18508 9.05562 9.05581 9.2467 8.8933 9.40735C8.7308 9.56799 8.53825 9.69506 8.32663 9.78129C8.11502 9.86752 7.8885 9.91122 7.66 9.9099Z" fill="#0E0E0E"/>
<path d="M8.74 3.7799L9.5 4.5299L11.85 2.1799V7.2699H12.92V2.2099L15.24 4.5299L16 3.7799L12.37 0.149902L9 3.5299L8.74 3.7799Z" fill="#0E0E0E"/>
</g>
</g>
<defs>
<clipPath id="clip0_7172_847">
<rect width="16" height="16" fill="white"/>
</clipPath>
</defs>
</svg>
