<svg width="16" height="16" viewBox="0 0 16 16" fill="none" xmlns="http://www.w3.org/2000/svg">
<g id="dds2_user-about">
<path id="Vector" d="M10.93 4.24023H16V5.31023H10.93V4.24023Z" fill="#0E0E0E"/>
<g id="Vector_2">
<path d="M10.93 6.17988H16V7.24988H10.93V6.17988Z" fill="#0E0E0E"/>
<path d="M6 8.86988C6.66695 8.86988 7.3189 8.67198 7.87331 8.30124C8.42772 7.93049 8.85965 7.40358 9.11442 6.78721C9.36919 6.17084 9.43534 5.49273 9.3045 4.83874C9.17365 4.18476 8.8517 3.5843 8.37939 3.1134C7.90709 2.64249 7.30568 2.32232 6.6513 2.19342C5.99693 2.06452 5.31902 2.13269 4.70341 2.38929C4.0878 2.64589 3.56217 3.07939 3.19308 3.6349C2.82398 4.1904 2.62802 4.84294 2.63 5.50988C2.63527 6.40112 2.99233 7.2542 3.62347 7.88347C4.25462 8.51274 5.10876 8.86726 6 8.86988ZM6 3.19988C6.45404 3.20186 6.89734 3.33818 7.27403 3.59167C7.65073 3.84515 7.94397 4.20446 8.11681 4.62432C8.28965 5.04418 8.33436 5.5058 8.24529 5.95103C8.15623 6.39625 7.93738 6.80515 7.61632 7.12621C7.29527 7.44727 6.88637 7.66611 6.44114 7.75518C5.99592 7.84424 5.5343 7.79954 5.11444 7.6267C4.69458 7.45386 4.33527 7.16061 4.08178 6.78392C3.8283 6.40722 3.69198 5.96392 3.69 5.50988C3.69 4.89723 3.93337 4.30968 4.36658 3.87647C4.79979 3.44326 5.38735 3.19988 6 3.19988Z" fill="#0E0E0E"/>
<path d="M9.17 8.50988L8.84 8.28988L8.53 8.54988C7.81112 9.12266 6.91916 9.43456 6 9.43456C5.08084 9.43456 4.18888 9.12266 3.47 8.54988L3.17 8.28988L2.84 8.50988C2.07858 9.07384 1.43959 9.78652 0.96173 10.6047C0.483871 11.4229 0.177099 12.3296 0.06 13.2699L0 13.8599H12L11.94 13.2699C11.8241 12.3304 11.5189 11.4242 11.0428 10.606C10.5667 9.78787 9.92957 9.07478 9.17 8.50988ZM1.24 12.7999C1.49842 11.5614 2.15945 10.4433 3.12 9.61988C3.97134 10.1973 4.97634 10.5059 6.005 10.5059C7.03366 10.5059 8.03866 10.1973 8.89 9.61988C9.84538 10.4476 10.5053 11.5639 10.77 12.7999H1.24Z" fill="#0E0E0E"/>
</g>
</g>
</svg>
