<svg width="16" height="16" viewBox="0 0 16 16" fill="none" xmlns="http://www.w3.org/2000/svg">
<g id="dds2_user-directory">
<g id="Vector">
<path d="M10 7.27022H13.69V8.34021H10V7.27022Z" fill="#0E0E0E"/>
<path d="M10 9.21021H13.69V10.2802H10V9.21021Z" fill="#0E0E0E"/>
<path d="M8.34 11.4802H3.5C3.66472 10.9584 3.96903 10.4915 4.38 10.1302C4.05114 9.95732 3.75094 9.7347 3.49 9.47021C2.83476 10.1658 2.41797 11.0519 2.3 12.0002L2.24 12.5902H9.6L9.54 12.0002C9.42203 11.0519 9.00524 10.1658 8.35 9.47021C8.0937 9.73999 7.79257 9.96329 7.46 10.1302C7.87753 10.4858 8.18317 10.9547 8.34 11.4802Z" fill="#0E0E0E"/>
<path d="M3.77 7.14021C3.76604 7.56868 3.8896 7.98864 4.12496 8.34669C4.36033 8.70473 4.69686 8.98469 5.09177 9.15095C5.48668 9.31721 5.92211 9.36227 6.3427 9.28038C6.76328 9.1985 7.15001 8.99337 7.45369 8.6911C7.75738 8.38882 7.9643 8.00306 8.04815 7.58286C8.132 7.16266 8.08897 6.72702 7.92455 6.33135C7.76014 5.93567 7.48175 5.59783 7.1248 5.3608C6.76786 5.12376 6.34848 4.99825 5.92 5.00021C5.35151 5.00021 4.80616 5.22535 4.40324 5.6264C4.00033 6.02744 3.77264 6.57173 3.77 7.14021ZM7 7.14021C7.00198 7.35664 6.93948 7.56874 6.82047 7.74952C6.70147 7.93029 6.53134 8.07155 6.33176 8.15528C6.13219 8.23902 5.91221 8.26145 5.69984 8.21971C5.48747 8.17797 5.29234 8.07395 5.1393 7.92092C4.98626 7.76788 4.88225 7.57274 4.84051 7.36038C4.79877 7.14801 4.8212 6.92802 4.90493 6.72845C4.98867 6.52888 5.12992 6.35875 5.3107 6.23974C5.49147 6.12073 5.70358 6.05824 5.92 6.06021C6.20563 6.06282 6.47882 6.17745 6.68079 6.37942C6.88277 6.5814 6.99739 6.85459 7 7.14021Z" fill="#0E0E0E"/>
<path d="M10.3 2.78021V1.22021H5.66V2.78021H0V14.7802H16V2.78021H10.3ZM6.73 2.29021H9.23V2.78021H6.73V2.29021ZM14.93 13.7102H1.06V3.84021H14.93V13.7102Z" fill="#0E0E0E"/>
</g>
</g>
</svg>
