<svg width="16" height="16" viewBox="0 0 16 16" fill="none" xmlns="http://www.w3.org/2000/svg">
<g id="dds2_game-controller" clip-path="url(#clip0_7172_1259)">
<g id="Vector">
<path d="M11.13 3.5001C10.7403 3.74493 10.2902 3.8765 9.83 3.8801H6.32C5.79699 3.88361 5.28138 3.75643 4.82 3.5101L3.31 4.3701C3.0969 4.48276 2.92266 4.65699 2.81 4.8701C1.85036 6.74127 1.2532 8.77703 1.05 10.8701V10.9401C1.03882 11.0565 1.03882 11.1737 1.05 11.2901C1.04546 11.7515 1.22128 12.1964 1.54 12.5301L3.63 10.2801C3.88391 10.0018 4.19269 9.77902 4.53689 9.62585C4.88109 9.47268 5.25326 9.39242 5.63 9.3901H10.54C10.9168 9.39181 11.2892 9.47181 11.6335 9.62501C11.9778 9.77822 12.2865 10.0013 12.54 10.2801L14.54 12.5201C14.8591 12.1566 15.0241 11.6832 15 11.2001C15.0098 11.1003 15.0098 10.9999 15 10.9001C14.7946 8.80618 14.194 6.77021 13.23 4.9001C13.1181 4.68139 12.9441 4.50053 12.73 4.3801L11.13 3.5001ZM2.82 3.5001L4.33 2.6401C4.48094 2.55769 4.64831 2.50986 4.82 2.5001C4.9833 2.49783 5.14467 2.5356 5.29 2.6101C5.59523 2.78298 5.93923 2.87586 6.29 2.8801H9.78C10.0785 2.8695 10.37 2.78718 10.63 2.6401C10.7839 2.55625 10.9549 2.50838 11.13 2.5001C11.3034 2.51133 11.4731 2.55545 11.63 2.6301L13.13 3.5001C13.5178 3.71318 13.8369 4.03229 14.05 4.4201C15.077 6.37364 15.7379 8.49864 16 10.6901V10.7701C16.0157 10.9297 16.0157 11.0905 16 11.2501C16.0043 11.9624 15.7359 12.6493 15.25 13.1701C15.1579 13.2694 15.0466 13.349 14.9228 13.404C14.7991 13.459 14.6654 13.4883 14.53 13.4901C14.3929 13.4897 14.2573 13.461 14.1317 13.406C14.0062 13.3509 13.8932 13.2706 13.8 13.1701L11.8 10.9201C11.4756 10.5773 11.0314 10.3731 10.56 10.3501H5.56C5.32355 10.3588 5.09123 10.4146 4.8766 10.5142C4.66197 10.6138 4.46935 10.7552 4.31 10.9301L2.25 13.1801C2.15676 13.2806 2.04384 13.3609 1.91826 13.416C1.79268 13.471 1.65712 13.4997 1.52 13.5001C1.38046 13.4998 1.24253 13.4702 1.11508 13.4134C0.987635 13.3566 0.873494 13.2737 0.78 13.1701C0.279506 12.6442 0.000256695 11.9461 1.80677e-07 11.2201C-0.0152385 11.0671 -0.0152385 10.9131 1.80677e-07 10.7601C0.250517 8.50883 0.929384 6.32627 2 4.3301C2.21058 3.99777 2.49025 3.71468 2.82 3.5001ZM10.48 8.0601C10.4787 8.12528 10.4904 8.19007 10.5144 8.25068C10.5384 8.31129 10.5743 8.3665 10.6199 8.41306C10.6656 8.45963 10.72 8.49662 10.7801 8.52186C10.8403 8.54711 10.9048 8.56011 10.97 8.5601C11.1026 8.5601 11.2298 8.50742 11.3236 8.41365C11.4173 8.31988 11.47 8.1927 11.47 8.0601C11.4649 7.93004 11.4103 7.80685 11.3174 7.71576C11.2244 7.62466 11.1001 7.57255 10.97 7.5701C10.84 7.5701 10.7154 7.62172 10.6235 7.71361C10.5316 7.80551 10.48 7.93014 10.48 8.0601ZM10.48 6.0601C10.4787 6.12528 10.4904 6.19007 10.5144 6.25068C10.5384 6.31129 10.5743 6.3665 10.6199 6.41306C10.6656 6.45963 10.72 6.49662 10.7801 6.52186C10.8403 6.54711 10.9048 6.56011 10.97 6.5601C11.1026 6.5601 11.2298 6.50742 11.3236 6.41365C11.4173 6.31988 11.47 6.1927 11.47 6.0601C11.4649 5.93004 11.4103 5.80685 11.3174 5.71576C11.2244 5.62466 11.1001 5.57255 10.97 5.5701C10.9066 5.56873 10.8436 5.58022 10.7847 5.60385C10.7259 5.62749 10.6724 5.6628 10.6276 5.70765C10.5827 5.75249 10.5474 5.80595 10.5238 5.86481C10.5001 5.92366 10.4886 5.98669 10.49 6.0501L10.48 6.0601ZM9.48 7.0601C9.48 7.1927 9.53268 7.31988 9.62645 7.41365C9.72021 7.50742 9.84739 7.5601 9.98 7.5601C10.1118 7.55754 10.2375 7.50404 10.3307 7.41082C10.4239 7.3176 10.4774 7.1919 10.48 7.0601C10.4728 6.92982 10.4178 6.80678 10.3256 6.71452C10.2333 6.62227 10.1103 6.56728 9.98 6.5601C9.84739 6.5601 9.72021 6.61277 9.62645 6.70654C9.53268 6.80031 9.48 6.92749 9.48 7.0601ZM11.48 7.0601C11.48 7.1927 11.5327 7.31988 11.6264 7.41365C11.7202 7.50742 11.8474 7.5601 11.98 7.5601C12.1118 7.55754 12.2375 7.50404 12.3307 7.41082C12.4239 7.3176 12.4774 7.1919 12.48 7.0601C12.475 6.92907 12.4208 6.80475 12.3281 6.71203C12.2353 6.61931 12.111 6.56505 11.98 6.5601C11.8474 6.5601 11.7202 6.61277 11.6264 6.70654C11.5327 6.80031 11.48 6.92749 11.48 7.0601ZM7.36 5.2001C7.36 5.36983 7.42743 5.53262 7.54745 5.65264C7.66747 5.77267 7.83026 5.8401 8 5.8401C8.16535 5.83747 8.32303 5.76994 8.43903 5.65207C8.55502 5.53421 8.62002 5.37546 8.62 5.2101C8.62008 5.04377 8.5554 4.88394 8.43967 4.76447C8.32394 4.64501 8.16625 4.57529 8 4.5701C7.83463 4.57008 7.67589 4.63508 7.55802 4.75107C7.44016 4.86706 7.37262 5.02475 7.37 5.1901L7.36 5.2001Z" fill="#0E0E0E"/>
<path d="M5.5 6.5801H6.5V7.5701H5.5V8.5501H4.51V7.5701H3.51V6.5801H4.51V5.5701H5.5V6.5801Z" fill="#0E0E0E"/>
</g>
</g>
<defs>
<clipPath id="clip0_7172_1259">
<rect width="16" height="16" fill="white"/>
</clipPath>
</defs>
</svg>
