<svg width="16" height="16" viewBox="0 0 16 16" fill="none" xmlns="http://www.w3.org/2000/svg">
<path d="M2 0V16H14V0H2ZM12.93 1.07V4.4H3.07V1.07H12.93ZM3.07 14.93V5.47H12.93V14.93H3.07Z" fill="#0E0E0E"/>
<path d="M6.37 6.44H7.43V7.51H6.37V6.44Z" fill="#0E0E0E"/>
<path d="M6.37 8.58H7.43V9.64H6.37V8.58Z" fill="#0E0E0E"/>
<path d="M6.37 10.71H7.43V11.78H6.37V10.71Z" fill="#0E0E0E"/>
<path d="M6.37 12.85H7.43V13.91H6.37V12.85Z" fill="#0E0E0E"/>
<path d="M4.23 6.44H5.3V7.51H4.23V6.44Z" fill="#0E0E0E"/>
<path d="M4.23 8.58H5.3V9.64H4.23V8.58Z" fill="#0E0E0E"/>
<path d="M4.23 10.71H5.3V11.78H4.23V10.71Z" fill="#0E0E0E"/>
<path d="M4.23 12.85H5.3V13.91H4.23V12.85Z" fill="#0E0E0E"/>
<path d="M8.5 6.44H9.57V7.51H8.5V6.44Z" fill="#0E0E0E"/>
<path d="M8.5 8.58H9.57V9.64H8.5V8.58Z" fill="#0E0E0E"/>
<path d="M8.5 10.71H9.57V11.78H8.5V10.71Z" fill="#0E0E0E"/>
<path d="M8.5 12.85H9.57V13.91H8.5V12.85Z" fill="#0E0E0E"/>
<path d="M10.63 6.44H11.7V7.51H10.63V6.44Z" fill="#0E0E0E"/>
<path d="M10.63 8.58H11.7V9.64H10.63V8.58Z" fill="#0E0E0E"/>
<path d="M10.63 10.71H11.7V13.92H10.63V10.71Z" fill="#0E0E0E"/>
</svg>
