<svg width="16" height="16" viewBox="0 0 16 16" fill="none" xmlns="http://www.w3.org/2000/svg">
<g id="dds2_wifi-simple">
<g id="Vector">
<path d="M15.62 5.21998C13.5973 3.20238 10.8569 2.06934 8 2.06934C5.14306 2.06934 2.40273 3.20238 0.38 5.21998L0 5.59998L0.75 6.34998L1.13 5.99998C2.0318 5.09713 3.10273 4.38089 4.28153 3.89221C5.46034 3.40353 6.72391 3.152 8 3.152C9.27609 3.152 10.5397 3.40353 11.7185 3.89221C12.8973 4.38089 13.9682 5.09713 14.87 5.99998L15.25 6.36998L16 5.59998L15.62 5.21998Z" fill="#0E0E0E"/>
<path d="M8 6.06998C7.15329 6.07588 6.31614 6.24948 5.5369 6.58074C4.75766 6.912 4.05177 7.39437 3.46 7.99998L3.08 8.37998L3.83 9.12998L4.21 8.75998C4.70637 8.2599 5.29681 7.86299 5.94728 7.59213C6.59775 7.32128 7.29539 7.18183 8 7.18183C8.70461 7.18183 9.40225 7.32128 10.0527 7.59213C10.7032 7.86299 11.2936 8.2599 11.79 8.75998L12.17 9.12998L12.92 8.37998L12.54 7.99998C11.9489 7.39348 11.2432 6.91053 10.4638 6.5792C9.68436 6.24787 8.84688 6.07478 8 6.06998Z" fill="#0E0E0E"/>
<path d="M8 9.93998C7.60444 9.93998 7.21776 10.0573 6.88886 10.277C6.55996 10.4968 6.30362 10.8092 6.15224 11.1746C6.00087 11.5401 5.96126 11.9422 6.03843 12.3302C6.1156 12.7181 6.30608 13.0745 6.58579 13.3542C6.86549 13.6339 7.22186 13.8244 7.60982 13.9016C7.99778 13.9787 8.39991 13.9391 8.76537 13.7877C9.13082 13.6364 9.44318 13.38 9.66294 13.0511C9.8827 12.7222 10 12.3355 10 11.94C10 11.4096 9.78929 10.9008 9.41421 10.5258C9.03914 10.1507 8.53043 9.93998 8 9.93998ZM8 12.87C7.81367 12.872 7.63096 12.8185 7.47507 12.7164C7.31918 12.6144 7.19714 12.4683 7.12446 12.2967C7.05177 12.1251 7.03173 11.9358 7.06686 11.7528C7.10199 11.5698 7.19072 11.4014 7.32177 11.2689C7.45283 11.1365 7.6203 11.0459 7.80291 11.0088C7.98552 10.9718 8.17503 10.9898 8.34737 11.0606C8.51972 11.1315 8.66712 11.2519 8.77086 11.4067C8.8746 11.5615 8.92999 11.7436 8.93 11.93C8.93001 12.1776 8.83235 12.4152 8.65823 12.5912C8.4841 12.7672 8.24757 12.8673 8 12.87Z" fill="#0E0E0E"/>
</g>
</g>
</svg>
