<svg width="16" height="16" viewBox="0 0 16 16" fill="none" xmlns="http://www.w3.org/2000/svg">
<g id="dds2_warranty" clip-path="url(#clip0_7172_215)">
<g id="Vector">
<path d="M14.44 8L15.61 5.53L13.21 4.21L12.7 1.53H12.42L10 1.88L8 0L6 1.88L3.29 1.53L2.79 4.22L0.389999 5.53L1.56 8L0.389999 10.48L2.79 11.79L3.3 14.47L6 14.12L8 16L10 14.12L12.72 14.47L13.22 11.78L15.62 10.47L14.44 8ZM12.7 10.85L12.26 11.09L12.16 11.58L11.84 13.28L9.63 13L8 14.53L6.38 13L4.16 13.29L3.84 11.59L3.75 11.09L1.79 10L2.52 8.44L2.74 8L2.52 7.55L1.78 6L3.78 4.93L3.88 4.44L4.19 2.74L6.37 3L8 1.47L9.62 3L11.84 2.71L12.16 4.41L12.25 4.91L14.25 5.98L13.51 7.54L13.26 8L14.26 10L12.74 10.83L12.7 10.85Z" fill="#0E0E0E"/>
<path d="M7 9.34L5.18 7.58L4.44 8.35L7 10.83L11.56 6.29L10.81 5.54L7 9.34Z" fill="#0E0E0E"/>
</g>
</g>
<defs>
<clipPath id="clip0_7172_215">
<rect width="16" height="16" fill="white"/>
</clipPath>
</defs>
</svg>
