<svg width="16" height="16" viewBox="0 0 16 16" fill="none" xmlns="http://www.w3.org/2000/svg">
<g id="dds2_snowflake" clip-path="url(#clip0_7172_1154)">
<path id="Vector" d="M15.07 8.83L12 9.67L9.07002 8L12 6.33L15.1 7.17L15.38 6.17L13.31 5.61L15.23 4.51L14.7 3.58L12.7 4.72L13.26 2.66L12.26 2.38L11.43 5.47L8.53002 7.08V3.72L10.8 1.46L10.05 0.7L8.53002 2.21V0H7.47002V2.29L6.00002 0.78L5.25002 1.53L7.47002 3.8V7.08L4.62002 5.44L3.79002 2.35L2.79002 2.63L3.35002 4.69L1.35002 3.55L0.800024 4.48L2.72002 5.58L0.650024 6.14L0.930024 7.14L4.00002 6.33L6.93002 8L4.00002 9.67L0.930024 8.83L0.650024 9.83L2.72002 10.39L0.800024 11.52L1.33002 12.45L3.33002 11.31L2.77002 13.37L3.77002 13.65L4.60002 10.56L7.47002 8.92V12.28L5.20002 14.54L6.00002 15.3L7.52002 13.79V16H8.53002V13.71L10.05 15.22L10.8 14.47L8.53002 12.2V8.92L11.38 10.56L12.21 13.65L13.21 13.37L12.65 11.31L14.65 12.45L15.18 11.52L13.26 10.42L15.33 9.86L15.07 8.83Z" fill="#0E0E0E"/>
</g>
<defs>
<clipPath id="clip0_7172_1154">
<rect width="16" height="16" fill="white"/>
</clipPath>
</defs>
</svg>
