<svg width="16" height="16" viewBox="0 0 16 16" fill="none" xmlns="http://www.w3.org/2000/svg">
<g id="dds2_power-supply">
<path id="Vector" d="M14.22 4V3.5H11.26V0H9.62V3.46H6.39V0H4.75V3.46H1.81V3.96C1.81 4.16 1.55 8.96 3.81 11.32C4.46939 12.0317 5.36499 12.4795 6.33 12.58V16H9.73V12.58C10.6999 12.4792 11.5997 12.0276 12.26 11.31C13.59 10.22 14.19 7.69 14.22 4ZM8.67 11.55V14.94H7.34V11.54H6.8C6.3743 11.5526 5.95081 11.4743 5.55769 11.3105C5.16457 11.1467 4.81083 10.9011 4.52 10.59C3 9 2.84 5.76 2.84 4.53H13.18C13.05 9.38 11.69 11.69 8.67 11.55Z" fill="#0E0E0E"/>
</g>
</svg>
