<svg width="16" height="16" viewBox="0 0 16 16" fill="none" xmlns="http://www.w3.org/2000/svg">
<g id="dds2_headphones" clip-path="url(#clip0_7172_717)">
<path id="Vector" d="M16 7.51C16 3.23 12.57 0 8 0C3.43 0 0 3.3 0 7.51V13H1V13.36C0.998684 13.7062 1.06574 14.0493 1.19732 14.3695C1.3289 14.6898 1.52242 14.9809 1.76676 15.2262C2.01111 15.4714 2.30149 15.6661 2.62123 15.7989C2.94097 15.9316 3.28378 16 3.63 16H4.74V9.07H3.63C3.0414 9.07028 2.46978 9.26725 2.00595 9.62962C1.54212 9.99198 1.21269 10.499 1.07 11.07V7.51C1.07 3.84 4.07 1.07 8.07 1.07C12.07 1.07 14.96 3.84 14.96 7.51V11.11C14.8189 10.5381 14.4899 10.0301 14.0257 9.66749C13.5615 9.30485 12.989 9.10853 12.4 9.11H11.25V16H12.37C13.0675 16 13.7365 15.7229 14.2297 15.2297C14.7229 14.7365 15 14.0675 15 13.37V13H16V7.51ZM2.06 11.7C2.06 11.4943 2.10068 11.2906 2.1797 11.1007C2.25872 10.9108 2.37452 10.7384 2.52044 10.5934C2.66636 10.4484 2.83952 10.3337 3.02994 10.2559C3.22037 10.1781 3.4243 10.1387 3.63 10.14L3.68 14.93H3.63C3.4243 14.9313 3.22037 14.8919 3.02994 14.8141C2.83952 14.7363 2.66636 14.6216 2.52044 14.4766C2.37452 14.3316 2.25872 14.1592 2.1797 13.9693C2.10068 13.7794 2.06 13.5757 2.06 13.37V11.7ZM13.94 13.37C13.94 13.5757 13.8993 13.7794 13.8203 13.9693C13.7413 14.1592 13.6255 14.3316 13.4796 14.4766C13.3336 14.6216 13.1605 14.7363 12.9701 14.8141C12.7796 14.8919 12.5757 14.9313 12.37 14.93V10.14C12.5757 10.1387 12.7796 10.1781 12.9701 10.2559C13.1605 10.3337 13.3336 10.4484 13.4796 10.5934C13.6255 10.7384 13.7413 10.9108 13.8203 11.1007C13.8993 11.2906 13.94 11.4943 13.94 11.7V13.37Z" fill="#0E0E0E"/>
</g>
<defs>
<clipPath id="clip0_7172_717">
<rect width="16" height="16" fill="white"/>
</clipPath>
</defs>
</svg>
