<svg width="16" height="16" viewBox="0 0 16 16" fill="none" xmlns="http://www.w3.org/2000/svg">
<g id="dds2_globe-simple" clip-path="url(#clip0_7172_309)">
<path id="Vector" d="M8 0C6.41775 0 4.87103 0.469192 3.55544 1.34824C2.23985 2.22729 1.21447 3.47672 0.608967 4.93853C0.00346625 6.40034 -0.15496 8.00887 0.153721 9.56072C0.462403 11.1126 1.22433 12.538 2.34315 13.6569C3.46197 14.7757 4.88743 15.5376 6.43928 15.8463C7.99113 16.155 9.59966 15.9965 11.0615 15.391C12.5233 14.7855 13.7727 13.7602 14.6518 12.4446C15.5308 11.129 16 9.58225 16 8C16 5.87827 15.1571 3.84344 13.6569 2.34315C12.1566 0.842855 10.1217 0 8 0ZM1.09 8.53H3.71C3.72541 9.39389 3.82251 10.2544 4 11.1H1.81C1.4074 10.2974 1.16296 9.42492 1.09 8.53ZM8.53 3.84V1.23C9.02396 1.50538 9.45626 1.87903 9.80024 2.32792C10.1442 2.77682 10.3926 3.29142 10.53 3.84H8.53ZM10.88 4.9C11.0788 5.74346 11.196 6.60409 11.23 7.47H8.53V4.9H10.88ZM7.47 1.23V3.84H5.47C5.60743 3.29142 5.85579 2.77682 6.19977 2.32792C6.54375 1.87903 6.97605 1.50538 7.47 1.23ZM7.47 4.9V7.47H4.77C4.80398 6.60409 4.92118 5.74346 5.12 4.9H7.47ZM3.71 7.47H1.09C1.16121 6.57477 1.40575 5.70192 1.81 4.9H4C3.8231 5.7457 3.726 6.60614 3.71 7.47ZM4.77 8.53H7.47V11.1H5.12C4.92118 10.2565 4.80398 9.39591 4.77 8.53ZM7.47 12.16V14.77C6.97605 14.4946 6.54375 14.121 6.19977 13.6721C5.85579 13.2232 5.60743 12.7086 5.47 12.16H7.47ZM8.53 14.77V12.16H10.53C10.3926 12.7086 10.1442 13.2232 9.80024 13.6721C9.45626 14.121 9.02396 14.4946 8.53 14.77ZM8.53 11.1V8.53H11.23C11.196 9.39591 11.0788 10.2565 10.88 11.1H8.53ZM12.29 8.53H14.91C14.8437 9.4261 14.5989 10.2999 14.19 11.1H12C12.1769 10.2543 12.274 9.39386 12.29 8.53ZM12.29 7.47C12.2746 6.6061 12.1775 5.7456 12 4.9H14.21C14.6126 5.70256 14.8571 6.57508 14.93 7.47H12.29ZM13.53 3.84H11.68C11.429 3.02208 11.0437 2.25158 10.54 1.56C11.729 2.02762 12.7644 2.81711 13.53 3.84ZM5.46 1.56C4.95629 2.25158 4.57104 3.02208 4.32 3.84H2.47C3.23563 2.81711 4.27096 2.02762 5.46 1.56ZM2.46 12.16H4.32C4.57104 12.9779 4.95629 13.7484 5.46 14.44C4.27096 13.9724 3.23563 13.1829 2.47 12.16H2.46ZM10.53 14.44C11.0337 13.7484 11.419 12.9779 11.67 12.16H13.52C12.7594 13.1837 11.727 13.9736 10.54 14.44H10.53Z" fill="#0E0E0E"/>
</g>
<defs>
<clipPath id="clip0_7172_309">
<rect width="16" height="16" fill="white"/>
</clipPath>
</defs>
</svg>
