<svg width="16" height="16" viewBox="0 0 16 16" fill="none" xmlns="http://www.w3.org/2000/svg">
<path fill-rule="evenodd" clip-rule="evenodd" d="M11 1H5V0H4V1H1V15H8.31794C7.79843 14.7476 7.32918 14.4079 6.92928 14H2V5H14V6.92928C14.4079 7.32918 14.7476 7.79843 15 8.31794V1H12V0H11V1ZM5 3V2H11V3H12V2H14V4H2V2H4V3H5Z" fill="#0E0E0E"/>
<path fill-rule="evenodd" clip-rule="evenodd" d="M12.9528 13.6599C12.2755 14.1865 11.4244 14.5 10.5 14.5C8.29086 14.5 6.5 12.7091 6.5 10.5C6.5 8.29086 8.29086 6.5 10.5 6.5C12.7091 6.5 14.5 8.29086 14.5 10.5C14.5 11.4243 14.1865 12.2755 13.6599 12.9528L15.8536 15.1464L15.1464 15.8535L12.9528 13.6599ZM13.5 10.5C13.5 12.1569 12.1569 13.5 10.5 13.5C8.84315 13.5 7.5 12.1569 7.5 10.5C7.5 8.84315 8.84315 7.5 10.5 7.5C12.1569 7.5 13.5 8.84315 13.5 10.5Z" fill="#0E0E0E"/>
</svg>
