<svg width="16" height="16" viewBox="0 0 16 16" fill="none" xmlns="http://www.w3.org/2000/svg">
<g id="dds2_refresh-spin" clip-path="url(#clip0_7172_1148)">
<g id="Vector">
<path d="M8 1.26C9.05327 1.26151 10.0915 1.51022 11.0311 1.98612C11.9707 2.46201 12.7856 3.1518 13.41 4H10.28V5.05H15.33V0H14.26V3.32C13.2751 2.01027 11.9036 1.04304 10.3393 0.554923C8.77495 0.0668019 7.09679 0.0824552 5.54182 0.599671C3.98686 1.11689 2.63367 2.10953 1.67337 3.4374C0.713067 4.76528 0.194184 6.36128 0.190002 8H1.26C1.26 6.21244 1.97011 4.4981 3.2341 3.2341C4.4981 1.97011 6.21244 1.26 8 1.26Z" fill="#0E0E0E"/>
<path d="M14.74 8C14.7358 9.41548 14.2861 10.7937 13.4547 11.9393C12.6232 13.0848 11.4522 13.9395 10.1077 14.3821C8.76318 14.8248 7.31345 14.8329 5.96409 14.4053C4.61472 13.9777 3.43422 13.1362 2.59 12H5.72V11H0.720002V16H1.74V12.68C2.72491 13.9897 4.09638 14.957 5.66072 15.4451C7.22506 15.9332 8.90322 15.9175 10.4582 15.4003C12.0131 14.8831 13.3663 13.8905 14.3266 12.5626C15.2869 11.2347 15.8058 9.63872 15.81 8H14.74Z" fill="#0E0E0E"/>
</g>
</g>
<defs>
<clipPath id="clip0_7172_1148">
<rect width="16" height="16" fill="white"/>
</clipPath>
</defs>
</svg>
