<svg width="16" height="16" viewBox="0 0 16 16" fill="none" xmlns="http://www.w3.org/2000/svg">
<g id="dds2_key" clip-path="url(#clip0_7172_1265)">
<g id="Vector">
<path d="M3.45 8C3.44999 8.14678 3.40632 8.29024 3.32456 8.41214C3.2428 8.53404 3.12663 8.62887 2.99083 8.68458C2.85503 8.74028 2.70573 8.75434 2.56192 8.72496C2.4181 8.69559 2.28628 8.62411 2.18319 8.51962C2.08011 8.41513 2.01043 8.28234 1.98302 8.13814C1.95561 7.99394 1.9717 7.84485 2.02924 7.70982C2.08679 7.57479 2.18319 7.45992 2.30619 7.37982C2.42919 7.29973 2.57323 7.25802 2.72 7.26C2.91452 7.26263 3.10019 7.34175 3.23681 7.48025C3.37343 7.61874 3.45002 7.80546 3.45 8Z" fill="#0E0E0E"/>
<path d="M14 5.76H7.19C6.71046 5.05055 6.01591 4.51371 5.2085 4.22846C4.4011 3.94321 3.52346 3.92459 2.70468 4.17535C1.8859 4.42611 1.16921 4.93301 0.660023 5.62149C0.150835 6.30997 -0.12397 7.14368 -0.12397 8C-0.12397 8.85632 0.150835 9.69003 0.660023 10.3785C1.16921 11.067 1.8859 11.5739 2.70468 11.8246C3.52346 12.0754 4.4011 12.0568 5.2085 11.7715C6.01591 11.4863 6.71046 10.9495 7.19 10.24H9.38L10.14 9.38L11.14 10.46L12.14 9.36L13.24 10.42L16 7.7L14 5.76ZM13.26 8.92L12.15 7.83L11.15 8.91L10.1 7.81L8.9 9.18H6.6L6.44 9.44C6.19543 9.8738 5.84145 10.2359 5.41335 10.4904C4.98524 10.7448 4.49794 10.8826 4 10.89C3.23352 10.89 2.49844 10.5855 1.95646 10.0435C1.41448 9.50156 1.11 8.76648 1.11 8C1.11 7.23352 1.41448 6.49844 1.95646 5.95646C2.49844 5.41448 3.23352 5.11 4 5.11C4.49816 5.11644 4.98585 5.25381 5.41413 5.50832C5.84241 5.76284 6.19621 6.12553 6.44 6.56L6.6 6.82H13.6L14.5 7.71L13.28 8.92H13.26Z" fill="#0E0E0E"/>
</g>
</g>
<defs>
<clipPath id="clip0_7172_1265">
<rect width="16" height="16" fill="white"/>
</clipPath>
</defs>
</svg>
