<svg width="16" height="16" viewBox="0 0 16 16" fill="none" xmlns="http://www.w3.org/2000/svg">
<g id="dds2_headset" clip-path="url(#clip0_7172_578)">
<path id="Vector" d="M8.00001 -4.42751e-06C7.19622 -0.0307147 6.39434 0.0986402 5.64098 0.380542C4.88761 0.662444 4.19779 1.09127 3.61161 1.6421C3.02542 2.19293 2.55456 2.85477 2.2264 3.58916C1.89823 4.32355 1.7193 5.11585 1.70001 5.92V10.29H2.47001V10.46C2.47001 10.7397 2.52511 11.0167 2.63215 11.2751C2.73919 11.5335 2.89609 11.7683 3.09387 11.9661C3.29166 12.1639 3.52647 12.3208 3.7849 12.4279C4.04332 12.5349 4.3203 12.59 4.60001 12.59H5.60001V7H4.60001C4.22909 7.00204 3.86513 7.10092 3.54417 7.28684C3.2232 7.47275 2.95634 7.73926 2.77001 8.06V5.92C2.78922 5.2563 2.94042 4.60307 3.2148 3.99844C3.48917 3.3938 3.88123 2.84987 4.36809 2.39839C4.85494 1.94691 5.42684 1.59692 6.05042 1.36884C6.674 1.14077 7.33675 1.03917 8.00001 1.07C8.66343 1.03213 9.32764 1.12904 9.95258 1.35488C10.5775 1.58073 11.1502 1.93083 11.6362 2.38406C12.1221 2.83729 12.5112 3.38426 12.78 3.99197C13.0488 4.59969 13.1916 5.25555 13.2 5.92V8.06C13.0163 7.74359 12.7542 7.47985 12.4389 7.29419C12.1236 7.10853 11.7658 7.00721 11.4 7H10.4V12.59H11.4C11.7709 12.5879 12.1349 12.4891 12.4559 12.3032C12.7768 12.1172 13.0437 11.8507 13.23 11.53V13.24L10 14.93H8.53001V14H7.47001V16H10.28L14.28 13.88V5.88C14.2649 5.07809 14.0891 4.28736 13.7631 3.55456C13.437 2.82176 12.9674 2.16176 12.3819 1.61358C11.7965 1.06539 11.107 0.640159 10.3544 0.36301C9.60175 0.0858606 8.80118 -0.0375767 8.00001 -4.42751e-06ZM3.54001 9.13C3.53958 8.85896 3.64298 8.59805 3.82897 8.4009C4.01496 8.20375 4.26941 8.08534 4.54001 8.06999V11.52C4.26941 11.5047 4.01496 11.3862 3.82897 11.1891C3.64298 10.9919 3.53958 10.731 3.54001 10.46V9.13ZM12.46 10.46C12.4604 10.731 12.357 10.9919 12.1711 11.1891C11.9851 11.3862 11.7306 11.5047 11.46 11.52V8.06999C11.7306 8.08534 11.9851 8.20375 12.1711 8.4009C12.357 8.59805 12.4604 8.85896 12.46 9.13V10.46Z" fill="#0E0E0E"/>
</g>
<defs>
<clipPath id="clip0_7172_578">
<rect width="16" height="16" fill="white"/>
</clipPath>
</defs>
</svg>
