<svg width="16" height="16" viewBox="0 0 16 16" fill="none" xmlns="http://www.w3.org/2000/svg">
<g id="dds2_location-play">
<g id="Vector">
<path d="M7.99998 1.07C8.7493 1.06885 9.48567 1.26537 10.1348 1.63973C10.7839 2.01408 11.3228 2.55302 11.697 3.20218C12.0713 3.85133 12.2677 4.58772 12.2665 5.33703C12.2653 6.08635 12.0664 6.82209 11.69 7.47L7.99998 13.87L4.30998 7.47C3.93356 6.82209 3.7347 6.08635 3.73346 5.33703C3.73222 4.58772 3.92865 3.85133 4.30293 3.20218C4.67721 2.55302 5.21609 2.01408 5.86519 1.63973C6.5143 1.26537 7.25066 1.06885 7.99998 1.07ZM7.99998 0C6.58638 0 5.23067 0.561552 4.2311 1.56112C3.23154 2.56069 2.66998 3.9164 2.66998 5.33C2.67158 6.26645 2.91622 7.18645 3.37998 8L7.99998 16L12.62 8C13.0837 7.18645 13.3284 6.26645 13.33 5.33C13.33 4.63005 13.1921 3.93696 12.9243 3.2903C12.6564 2.64363 12.2638 2.05606 11.7689 1.56112C11.2739 1.06618 10.6864 0.67358 10.0397 0.405722C9.39302 0.137865 8.69993 0 7.99998 0Z" fill="#0E0E0E"/>
<path d="M6.31998 8.85V2.74L11.11 5.8L6.31998 8.85ZM7.38998 4.69V6.91L9.12998 5.8L7.38998 4.69Z" fill="#0E0E0E"/>
</g>
</g>
</svg>
