<svg width="16" height="16" viewBox="0 0 16 16" fill="none" xmlns="http://www.w3.org/2000/svg">
<g id="dds2_wrench-manage" clip-path="url(#clip0_7172_173)">
<g id="Vector">
<path d="M0 2.47H7.15V3.54H0V2.47Z" fill="#0E0E0E"/>
<path d="M0 5H7.15V6.09H0V5Z" fill="#0E0E0E"/>
<path d="M0 7.56H7.15V8.63H0V7.56Z" fill="#0E0E0E"/>
<path d="M13.54 0.31L12.8 0V2.56C12.8123 2.66781 12.8018 2.777 12.769 2.88044C12.7361 2.98387 12.6818 3.07919 12.6096 3.16017C12.5374 3.24115 12.4488 3.30594 12.3498 3.35031C12.2508 3.39467 12.1435 3.41761 12.035 3.41761C11.9265 3.41761 11.8192 3.39467 11.7202 3.35031C11.6212 3.30594 11.5326 3.24115 11.4604 3.16017C11.3882 3.07919 11.3339 2.98387 11.301 2.88044C11.2682 2.777 11.2577 2.66781 11.27 2.56V0L10.53 0.31C9.84005 0.606482 9.2475 1.0912 8.82014 1.70869C8.39277 2.32618 8.14787 3.0515 8.11344 3.80166C8.07901 4.55182 8.25644 5.29653 8.62545 5.95057C8.99445 6.60461 9.54011 7.14156 10.2 7.5V14.16C10.1814 14.4124 10.215 14.6659 10.2987 14.9047C10.3825 15.1434 10.5146 15.3624 10.6868 15.5478C10.8591 15.7332 11.0677 15.8811 11.2996 15.9822C11.5316 16.0834 11.7819 16.1356 12.035 16.1356C12.2881 16.1356 12.5384 16.0834 12.7704 15.9822C13.0023 15.8811 13.2109 15.7332 13.3832 15.5478C13.5554 15.3624 13.6875 15.1434 13.7713 14.9047C13.855 14.6659 13.8886 14.4124 13.87 14.16V7.5C14.5299 7.14156 15.0756 6.60461 15.4446 5.95057C15.8136 5.29653 15.991 4.55182 15.9566 3.80166C15.9221 3.0515 15.6772 2.32618 15.2499 1.70869C14.8225 1.0912 14.2299 0.606482 13.54 0.31ZM13.14 6.66L12.8 6.8V14.16C12.8123 14.2678 12.8018 14.377 12.769 14.4804C12.7361 14.5839 12.6818 14.6792 12.6096 14.7602C12.5374 14.8411 12.4488 14.9059 12.3498 14.9503C12.2508 14.9947 12.1435 15.0176 12.035 15.0176C11.9265 15.0176 11.8192 14.9947 11.7202 14.9503C11.6212 14.9059 11.5326 14.8411 11.4604 14.7602C11.3882 14.6792 11.3339 14.5839 11.301 14.4804C11.2682 14.377 11.2577 14.2678 11.27 14.16V6.8L10.94 6.66C10.4766 6.46926 10.0706 6.1617 9.76146 5.76731C9.45234 5.37293 9.25068 4.90517 9.17615 4.40964C9.10162 3.91412 9.15676 3.40774 9.33619 2.93987C9.51563 2.472 9.81324 2.05861 10.2 1.74V2.56C10.1814 2.81237 10.215 3.06586 10.2987 3.30465C10.3825 3.54344 10.5146 3.76238 10.6868 3.94779C10.8591 4.1332 11.0677 4.28109 11.2996 4.38222C11.5316 4.48336 11.7819 4.53555 12.035 4.53555C12.2881 4.53555 12.5384 4.48336 12.7704 4.38222C13.0023 4.28109 13.2109 4.1332 13.3832 3.94779C13.5554 3.76238 13.6875 3.54344 13.7713 3.30465C13.855 3.06586 13.8886 2.81237 13.87 2.56V1.74C14.2568 2.05861 14.5544 2.472 14.7338 2.93987C14.9132 3.40774 14.9684 3.91412 14.8939 4.40964C14.8193 4.90517 14.6177 5.37293 14.3085 5.76731C13.9994 6.1617 13.5934 6.46926 13.13 6.66H13.14Z" fill="#0E0E0E"/>
</g>
</g>
<defs>
<clipPath id="clip0_7172_173">
<rect width="16" height="16" fill="white"/>
</clipPath>
</defs>
</svg>
