<svg width="16" height="16" viewBox="0 0 16 16" fill="none" xmlns="http://www.w3.org/2000/svg">
<g id="dds2_view-list">
<g id="Vector">
<path d="M2.69 2.39012H16V3.46012H2.69V2.39012Z" fill="#0E0E0E"/>
<path d="M1.6 2.92012C1.6 3.13229 1.51571 3.33577 1.36569 3.4858C1.21566 3.63583 1.01217 3.72012 0.8 3.72012C0.641775 3.72012 0.487104 3.6732 0.355544 3.58529C0.223985 3.49739 0.121447 3.37245 0.0608967 3.22626C0.000346631 3.08008 -0.015496 2.91923 0.0153721 2.76405C0.0462403 2.60886 0.122433 2.46631 0.234315 2.35443C0.346197 2.24255 0.488743 2.16636 0.643928 2.13549C0.799113 2.10462 0.959966 2.12046 1.10615 2.18101C1.25233 2.24156 1.37727 2.3441 1.46518 2.47566C1.55308 2.60722 1.6 2.76189 1.6 2.92012Z" fill="#0E0E0E"/>
<path d="M2.69 5.75012H16V6.82012H2.69V5.75012Z" fill="#0E0E0E"/>
<path d="M1.6 6.29012C1.59803 6.4479 1.54944 6.60158 1.46034 6.73182C1.37125 6.86205 1.24563 6.96303 1.09928 7.02205C0.952938 7.08107 0.792409 7.0955 0.637888 7.06351C0.483368 7.03152 0.341759 6.95455 0.230875 6.84228C0.119991 6.73001 0.0447854 6.58745 0.0147191 6.43255C-0.0153472 6.27764 0.00106861 6.1173 0.0619015 5.97171C0.122734 5.82611 0.225267 5.70175 0.356601 5.61428C0.487935 5.52681 0.642204 5.48013 0.8 5.48012C0.905905 5.48011 1.01076 5.50113 1.10847 5.54196C1.20619 5.58278 1.29483 5.64261 1.36925 5.71796C1.44367 5.79331 1.50239 5.88268 1.542 5.9809C1.58161 6.07912 1.60132 6.18422 1.6 6.29012Z" fill="#0E0E0E"/>
<path d="M2.69 9.16012H16V10.2301H2.69V9.16012Z" fill="#0E0E0E"/>
<path d="M1.6 9.69012C1.6 9.84834 1.55308 10.003 1.46518 10.1346C1.37727 10.2661 1.25233 10.3687 1.10615 10.4292C0.959966 10.4898 0.799113 10.5056 0.643928 10.4747C0.488743 10.4439 0.346197 10.3677 0.234315 10.2558C0.122433 10.1439 0.0462403 10.0014 0.0153721 9.84619C-0.015496 9.691 0.000346631 9.53015 0.0608967 9.38397C0.121447 9.23779 0.223985 9.11285 0.355544 9.02494C0.487104 8.93704 0.641775 8.89012 0.8 8.89012C1.01217 8.89012 1.21566 8.9744 1.36569 9.12443C1.51571 9.27446 1.6 9.47794 1.6 9.69012Z" fill="#0E0E0E"/>
<path d="M2.69 12.5401H16V13.6101H2.69V12.5401Z" fill="#0E0E0E"/>
<path d="M1.6 13.0801C1.6 13.2383 1.55308 13.393 1.46518 13.5246C1.37727 13.6561 1.25233 13.7587 1.10615 13.8192C0.959966 13.8798 0.799113 13.8956 0.643928 13.8647C0.488743 13.8339 0.346197 13.7577 0.234315 13.6458C0.122433 13.5339 0.0462403 13.3914 0.0153721 13.2362C-0.015496 13.081 0.000346631 12.9202 0.0608967 12.774C0.121447 12.6278 0.223985 12.5028 0.355544 12.4149C0.487104 12.327 0.641775 12.2801 0.8 12.2801C1.01217 12.2801 1.21566 12.3644 1.36569 12.5144C1.51571 12.6645 1.6 12.8679 1.6 13.0801Z" fill="#0E0E0E"/>
</g>
</g>
</svg>
