<svg width="16" height="16" viewBox="0 0 16 16" fill="none" xmlns="http://www.w3.org/2000/svg">
<g id="dds2_globe-location" clip-path="url(#clip0_7172_444)">
<g id="Vector">
<path d="M6.53002 12.6599C7.35452 13.0291 8.24666 13.2232 9.15002 13.2299C9.60094 13.2311 10.0505 13.1808 10.49 13.0799C11.976 12.7691 13.3097 11.9563 14.2669 10.7781C15.2242 9.59982 15.7468 8.12799 15.7468 6.60988C15.7468 5.09178 15.2242 3.61994 14.2669 2.44171C13.3097 1.26348 11.976 0.450673 10.49 0.139882C10.0665 0.0458488 9.63386 -0.00110271 9.20002 -0.000117625C7.62109 -0.00988962 6.09098 0.546716 4.88736 1.56869C3.68375 2.59066 2.8864 4.01027 2.64002 5.56988C2.87734 5.52435 3.11837 5.50092 3.36002 5.49988H3.56002C3.65411 4.97855 3.82249 4.4734 4.06002 3.99988H5.87002C5.71279 4.6961 5.62569 5.40631 5.61002 6.11988C6.0126 6.34833 6.37424 6.64237 6.68002 6.98988H8.81002V9.18988H7.47002C7.48124 9.37638 7.48124 9.56339 7.47002 9.74988V10.0699H8.70002V12.1999C8.15383 11.9083 7.72346 11.4391 7.48002 10.8699C7.38056 11.2204 7.23602 11.5566 7.05002 11.8699L6.53002 12.6599ZM4.59002 3.19988C5.20625 2.36217 6.03956 1.70866 7.00002 1.30988C6.58814 1.87713 6.27382 2.50915 6.07002 3.17988L4.59002 3.19988ZM8.72002 6.19988H6.49002C6.51079 5.45913 6.60458 4.72223 6.77002 3.99988H8.77002L8.72002 6.19988ZM8.72002 3.19988H7.05002C7.16717 2.7532 7.37382 2.33497 7.65745 1.97055C7.94108 1.60613 8.29577 1.30312 8.70002 1.07988L8.72002 3.19988ZM14.87 6.19988H12.74C12.7222 5.45948 12.6318 4.72262 12.47 3.99988V4.07988H14.3C14.6158 4.73183 14.8058 5.4375 14.86 6.15988L14.87 6.19988ZM13.73 3.19988H12.2C11.9802 2.51608 11.6417 1.87632 11.2 1.30988C12.1797 1.69414 13.0344 2.34121 13.67 3.17988L13.73 3.19988ZM9.60002 1.06988C9.95667 1.21963 10.2648 1.46542 10.49 1.77988C10.8166 2.19922 11.0733 2.66861 11.25 3.16988H9.60002V1.06988ZM9.60002 4.06988H11.53C11.7026 4.76436 11.8031 5.47478 11.83 6.18988H9.60002V4.06988ZM9.60002 7.06988H11.83C11.8087 7.78876 11.7081 8.50309 11.53 9.19988H9.60002V7.06988ZM9.60002 12.2199V10.0699H11.27C11.0933 10.5905 10.8296 11.0775 10.49 11.5099C10.2627 11.8199 9.95492 12.062 9.60002 12.2099V12.2199ZM11.25 11.9599C11.6649 11.4039 11.9827 10.7818 12.19 10.1199H13.72C13.0931 10.9523 12.2488 11.5959 11.28 11.9799L11.25 11.9599ZM12.45 9.18988C12.6098 8.49435 12.6937 7.78351 12.7 7.06988H14.84C14.7856 7.81306 14.5815 8.53756 14.24 9.19988H12.45V9.18988Z" fill="#0E0E0E"/>
<path d="M3.36002 8.52988C3.11477 8.52988 2.87503 8.60261 2.67111 8.73886C2.46719 8.87511 2.30826 9.06877 2.21441 9.29535C2.12055 9.52194 2.096 9.77126 2.14384 10.0118C2.19169 10.2523 2.30979 10.4733 2.4832 10.6467C2.65662 10.8201 2.87757 10.9382 3.1181 10.9861C3.35864 11.0339 3.60796 11.0093 3.83454 10.9155C4.06112 10.8216 4.25479 10.6627 4.39104 10.4588C4.52729 10.2549 4.60002 10.0151 4.60002 9.76988C4.60002 9.44101 4.46937 9.12562 4.23683 8.89307C4.00428 8.66053 3.68888 8.52988 3.36002 8.52988ZM3.36002 10.1299C3.26363 10.1273 3.17207 10.0871 3.10483 10.018C3.03759 9.94893 2.99998 9.85631 3.00002 9.75988C3.00002 9.6644 3.03795 9.57284 3.10546 9.50532C3.17297 9.43781 3.26454 9.39988 3.36002 9.39988C3.45549 9.39988 3.54706 9.43781 3.61458 9.50532C3.68209 9.57284 3.72002 9.6644 3.72002 9.75988C3.71763 9.85556 3.67923 9.94681 3.61249 10.0154C3.54575 10.084 3.45559 10.1249 3.36002 10.1299Z" fill="#0E0E0E"/>
<path d="M3.36002 6.60988C2.53162 6.61253 1.73806 6.94346 1.15323 7.53017C0.568406 8.11687 0.240012 8.91148 0.240017 9.73988C0.237741 10.2881 0.382797 10.8269 0.660017 11.2999L3.36002 15.9999L6.07002 11.3099C6.34595 10.834 6.49158 10.2938 6.49225 9.74366C6.49291 9.19355 6.34858 8.65298 6.0738 8.17642C5.79901 7.69985 5.40348 7.30413 4.92705 7.02911C4.45062 6.75409 3.91013 6.60949 3.36002 6.60988ZM3.36002 14.2599L1.36002 10.8699C1.15079 10.5296 1.03682 10.1393 1.03002 9.73988C1.03002 9.14049 1.26812 8.56565 1.69196 8.14182C2.11579 7.71799 2.69063 7.47988 3.29002 7.47988C3.88941 7.47988 4.46425 7.71799 4.88808 8.14182C5.31191 8.56565 5.55002 9.14049 5.55002 9.73988V9.83988C5.54633 10.1894 5.45706 10.5328 5.29002 10.8399L3.36002 14.2599Z" fill="#0E0E0E"/>
</g>
</g>
<defs>
<clipPath id="clip0_7172_444">
<rect width="16" height="16" fill="white"/>
</clipPath>
</defs>
</svg>
