<svg width="16" height="16" viewBox="0 0 16 16" fill="none" xmlns="http://www.w3.org/2000/svg">
<path d="M4.85 7H11.15V8H4.85V7Z" fill="#0E0E0E"/>
<path d="M4.85 9.29H11.15V10.36H4.85V9.29Z" fill="#0E0E0E"/>
<path d="M4.85 11.61H11.15V12.67H4.85V11.61Z" fill="#0E0E0E"/>
<path d="M12.27 1.89V3H13.12V15H2.88V3H3.73V1.89H1.82V16H14.18V1.89H12.27Z" fill="#0E0E0E"/>
<path d="M11.26 1.29H9.74C9.62579 0.917618 9.39513 0.591703 9.08192 0.360161C8.76872 0.128618 8.3895 0.00366211 8 0.00366211C7.6105 0.00366211 7.23128 0.128618 6.91807 0.360161C6.60487 0.591703 6.37421 0.917618 6.26 1.29H4.74V4.59H11.26V1.29ZM10.19 3.52H5.81V2.36H7.24V1.82C7.24 1.61843 7.32007 1.42512 7.4626 1.28259C7.60513 1.14007 7.79844 1.06 8 1.06C8.20156 1.06 8.39487 1.14007 8.5374 1.28259C8.67993 1.42512 8.76 1.61843 8.76 1.82V2.36H10.19V3.52Z" fill="#0E0E0E"/>
</svg>
