<svg width="16" height="16" viewBox="0 0 16 16" fill="none" xmlns="http://www.w3.org/2000/svg">
<path d="M0 2V14H16V2H0ZM14.93 3.06V9.5H1.07V3.06H14.93ZM1.07 12.94V10.56H14.93V12.94H1.07Z" fill="#0E0E0E"/>
<path d="M8.53 11.73C8.53 11.8348 8.49892 11.9373 8.44068 12.0245C8.38244 12.1116 8.29967 12.1795 8.20282 12.2197C8.10598 12.2598 7.99941 12.2703 7.8966 12.2498C7.79379 12.2294 7.69936 12.1789 7.62523 12.1048C7.55111 12.0306 7.50063 11.9362 7.48018 11.8334C7.45973 11.7306 7.47023 11.624 7.51034 11.5272C7.55046 11.4303 7.61839 11.3476 7.70555 11.2893C7.79271 11.2311 7.89518 11.2 8 11.2C8.0696 11.2 8.13852 11.2137 8.20282 11.2403C8.26713 11.267 8.32555 11.306 8.37477 11.3552C8.42398 11.4044 8.46302 11.4629 8.48966 11.5272C8.51629 11.5915 8.53 11.6604 8.53 11.73Z" fill="#0E0E0E"/>
</svg>
