<svg width="16" height="16" viewBox="0 0 16 16" fill="none" xmlns="http://www.w3.org/2000/svg">
<g id="dds2_lightbulb">
<g id="Vector">
<path d="M8 0C3.77 0 2.64001 3 2.64001 4.68C2.59953 5.29139 2.6911 5.90433 2.90851 6.47719C3.12592 7.05005 3.46408 7.56941 3.90001 8C4.32342 8.43977 4.64221 8.96935 4.83265 9.54935C5.0231 10.1294 5.08031 10.7448 5.00001 11.35H6.09001C6.16251 10.6207 6.0738 9.88432 5.83014 9.19309C5.58648 8.50186 5.19383 7.87264 4.68 7.35C4.32234 7.01374 4.0463 6.60015 3.87298 6.14086C3.69966 5.68156 3.63366 5.18872 3.68001 4.7C3.68001 4.09 3.89 1.08 7.98 1.07C12.07 1.06 12.28 4.07 12.28 4.7C12.3264 5.18872 12.2603 5.68156 12.087 6.14086C11.9137 6.60015 11.6377 7.01374 11.28 7.35C10.7662 7.87264 10.3735 8.50186 10.1299 9.19309C9.88621 9.88432 9.7975 10.6207 9.87 11.35H11C10.9197 10.7448 10.9769 10.1294 11.1674 9.54935C11.3578 8.96935 11.6766 8.43977 12.1 8C12.5413 7.56492 12.8825 7.03901 13.1001 6.45879C13.3177 5.87856 13.4064 5.25794 13.36 4.64C13.36 3 12.23 0 8 0Z" fill="#0E0E0E"/>
<path d="M5.07001 12.32H10.93V13.5H5.07001V12.32Z" fill="#0E0E0E"/>
<path d="M10.93 15.31V14.31H5.07001V15.31C6.07001 16.23 9.99001 16.23 10.92 15.31H10.93Z" fill="#0E0E0E"/>
</g>
</g>
</svg>
