<svg width="16" height="16" viewBox="0 0 16 16" fill="none" xmlns="http://www.w3.org/2000/svg">
<g clip-path="url(#clip0_7172_968)">
<path d="M16 13V6H6V13H9.5V15H8V16H14V15H12.5V13H16ZM11.5 15H10.5V13H11.5V15ZM7 12V7H15V12H7Z" fill="#0E0E0E"/>
<path d="M4.2 11.9C4.2 12.0384 4.15895 12.1738 4.08203 12.2889C4.00511 12.404 3.89579 12.4937 3.76788 12.5467C3.63997 12.5997 3.49922 12.6136 3.36344 12.5865C3.22765 12.5595 3.10292 12.4929 3.00503 12.395C2.90713 12.2971 2.84046 12.1723 2.81345 12.0366C2.78644 11.9008 2.8003 11.76 2.85328 11.6321C2.90627 11.5042 2.99599 11.3949 3.1111 11.318C3.22622 11.2411 3.36155 11.2 3.5 11.2C3.68565 11.2 3.8637 11.2738 3.99497 11.405C4.12625 11.5363 4.2 11.7143 4.2 11.9Z" fill="#0E0E0E"/>
<path d="M2 3H5V4H2V3Z" fill="#0E0E0E"/>
<path d="M6 15H1V1H6V5H7V0H0V16H7V14H6V15Z" fill="#0E0E0E"/>
<path d="M2 5H5V6H2V5Z" fill="#0E0E0E"/>
</g>
<defs>
<clipPath id="clip0_7172_968">
<rect width="16" height="16" fill="white"/>
</clipPath>
</defs>
</svg>
