<svg width="16" height="16" viewBox="0 0 16 16" fill="none" xmlns="http://www.w3.org/2000/svg">
<path d="M0 3.59998V12.4H16V3.59998H0ZM14.93 11.33H1.07V4.66998H14.93V11.33Z" fill="#0E0E0E"/>
<path d="M6.82 5.50998H9.12V6.56998H6.82V5.50998Z" fill="#0E0E0E"/>
<path d="M6.82 7.44998H9.12V8.50998H6.82V7.44998Z" fill="#0E0E0E"/>
<path d="M6.82 9.42998H9.12V10.49H6.82V9.42998Z" fill="#0E0E0E"/>
<path d="M11 5.50998H13.3V6.56998H11V5.50998Z" fill="#0E0E0E"/>
<path d="M11 7.44998H13.3V8.50998H11V7.44998Z" fill="#0E0E0E"/>
<path d="M11 9.42998H13.3V10.49H11V9.42998Z" fill="#0E0E0E"/>
<path d="M2.62 5.50998H4.92V6.56998H2.62V5.50998Z" fill="#0E0E0E"/>
<path d="M2.62 7.44998H4.92V8.50998H2.62V7.44998Z" fill="#0E0E0E"/>
<path d="M2.62 9.42998H4.92V10.49H2.62V9.42998Z" fill="#0E0E0E"/>
</svg>
