<svg width="16" height="16" viewBox="0 0 16 16" fill="none" xmlns="http://www.w3.org/2000/svg">
<g clip-path="url(#clip0_7172_972)">
<path d="M13.44 7.53C13.6787 8.79156 13.5224 10.096 12.9925 11.2655C12.4625 12.435 11.5847 13.4125 10.4788 14.0648C9.37293 14.7171 8.09273 15.0123 6.81285 14.9103C5.53298 14.8082 4.31573 14.3139 3.32714 13.4946C2.33855 12.6753 1.62674 11.5711 1.2888 10.3324C0.950857 9.09375 1.00323 7.78099 1.43879 6.57319C1.87434 5.36539 2.67186 4.32134 3.72258 3.58345C4.7733 2.84556 6.02607 2.44975 7.31 2.45C7.75035 2.45097 8.18939 2.4979 8.62 2.59L9.49 1.71C8.78477 1.48795 8.04936 1.37662 7.31 1.38C5.86422 1.38 4.45091 1.80872 3.24879 2.61196C2.04666 3.41519 1.10972 4.55686 0.556444 5.89258C0.00316727 7.22831 -0.141595 8.69811 0.140463 10.1161C0.422521 11.5341 1.11873 12.8366 2.14105 13.859C3.16337 14.8813 4.46589 15.5775 5.88389 15.8595C7.30189 16.1416 8.77169 15.9968 10.1074 15.4436C11.4431 14.8903 12.5848 13.9533 13.388 12.7512C14.1913 11.5491 14.62 10.1358 14.62 8.69C14.6173 8.29798 14.5839 7.90678 14.52 7.52H13.44V7.53Z" fill="#0E0E0E"/>
<path d="M5.06 8.69C5.06 9.13501 5.19196 9.57002 5.4392 9.94003C5.68643 10.31 6.03783 10.5984 6.44897 10.7687C6.8601 10.939 7.3125 10.9836 7.74896 10.8968C8.18541 10.8099 8.58633 10.5957 8.90099 10.281C9.21566 9.96632 9.42995 9.56541 9.51677 9.12895C9.60359 8.6925 9.55903 8.2401 9.38873 7.82896C9.21843 7.41783 8.93005 7.06643 8.56004 6.81919C8.19003 6.57196 7.75501 6.44 7.31 6.44C6.71327 6.44 6.14097 6.67705 5.71901 7.09901C5.29706 7.52097 5.06 8.09326 5.06 8.69ZM8.49 8.69C8.49198 8.9262 8.42362 9.15764 8.29362 9.35486C8.16363 9.55208 7.97788 9.70615 7.76003 9.79746C7.54219 9.88876 7.30209 9.91317 7.07033 9.86758C6.83856 9.82198 6.62561 9.70844 6.45859 9.54142C6.29156 9.37439 6.17802 9.16144 6.13243 8.92967C6.08683 8.69791 6.11124 8.45782 6.20254 8.23997C6.29385 8.02212 6.44792 7.83637 6.64514 7.70638C6.84236 7.57638 7.0738 7.50802 7.31 7.51C7.46496 7.51 7.61841 7.54052 7.76157 7.59982C7.90473 7.65912 8.03482 7.74604 8.14439 7.85561C8.25396 7.96519 8.34088 8.09527 8.40018 8.23843C8.45948 8.3816 8.49 8.53504 8.49 8.69Z" fill="#0E0E0E"/>
<path d="M12.71 0L9.42 3.29L10.1 4L12.24 1.86V6.46H13.24V1.87L15.31 4L16 3.29L12.71 0Z" fill="#0E0E0E"/>
</g>
<defs>
<clipPath id="clip0_7172_972">
<rect width="16" height="16" fill="white"/>
</clipPath>
</defs>
</svg>
