<svg width="16" height="16" viewBox="0 0 16 16" fill="none" xmlns="http://www.w3.org/2000/svg">
<g id="dds2_wrench-cir" clip-path="url(#clip0_7172_442)">
<g id="Vector">
<path d="M12.38 9.33C12.6628 8.47735 12.6942 7.56132 12.4705 6.69129C12.2468 5.82125 11.7775 5.03399 11.1185 4.42349C10.4595 3.81299 9.63868 3.40505 8.75412 3.24839C7.86955 3.09173 6.95859 3.19296 6.13 3.54L5.39 3.85L7.46 5.91C7.56312 6.00373 7.64551 6.11797 7.70189 6.24541C7.75827 6.37284 7.7874 6.51065 7.7874 6.65C7.7874 6.78935 7.75827 6.92716 7.70189 7.05459C7.64551 7.18203 7.56312 7.29627 7.46 7.39C7.26079 7.57271 7.00031 7.67407 6.73 7.67407C6.45969 7.67407 6.19921 7.57271 6 7.39L3.92 5.32L3.61 6.06C3.26296 6.88859 3.16173 7.79955 3.31839 8.68411C3.47505 9.56868 3.88299 10.3895 4.49349 11.0485C5.10399 11.7075 5.89126 12.1768 6.76129 12.4005C7.63132 12.6242 8.54735 12.5928 9.4 12.31L10.4 13.31L11.15 12.55L9.66 11.07L9.33 11.2C8.733 11.4601 8.07675 11.5539 7.43077 11.4714C6.7848 11.389 6.17317 11.1333 5.66068 10.7315C5.14819 10.3297 4.75393 9.79675 4.51967 9.18913C4.28541 8.58151 4.21987 7.92184 4.33 7.28L5.2 8.14C5.60145 8.53094 6.13965 8.74971 6.7 8.74971C7.26035 8.74971 7.79856 8.53094 8.2 8.14C8.4008 7.94518 8.56044 7.71203 8.66945 7.45436C8.77846 7.1967 8.83463 6.91977 8.83463 6.64C8.83463 6.36023 8.77846 6.0833 8.66945 5.82564C8.56044 5.56797 8.4008 5.33482 8.2 5.14L7.34 4.27C7.98184 4.15987 8.64151 4.22541 9.24913 4.45967C9.85676 4.69393 10.3897 5.08819 10.7915 5.60068C11.1933 6.11317 11.449 6.7248 11.5314 7.37077C11.6139 8.01674 11.5201 8.67299 11.26 9.27L11.13 9.61L12.59 11L13.35 10.25L12.35 9.25L12.38 9.33Z" fill="#0E0E0E"/>
<path d="M8 0C6.41775 0 4.87103 0.469192 3.55544 1.34824C2.23985 2.22729 1.21447 3.47672 0.608967 4.93853C0.00346625 6.40034 -0.15496 8.00887 0.153721 9.56072C0.462403 11.1126 1.22433 12.538 2.34315 13.6569C3.46197 14.7757 4.88743 15.5376 6.43928 15.8463C7.99113 16.155 9.59966 15.9965 11.0615 15.391C12.5233 14.7855 13.7727 13.7602 14.6518 12.4446C15.5308 11.129 16 9.58225 16 8C16 5.87827 15.1571 3.84344 13.6569 2.34315C12.1566 0.842855 10.1217 0 8 0ZM8 14.93C6.62938 14.93 5.28953 14.5236 4.1499 13.7621C3.01027 13.0006 2.12203 11.9183 1.59752 10.652C1.073 9.3857 0.935766 7.99231 1.20316 6.64802C1.47056 5.30374 2.13058 4.06893 3.09975 3.09975C4.06893 2.13057 5.30374 1.47055 6.64803 1.20316C7.99232 0.935762 9.38571 1.073 10.652 1.59751C11.9183 2.12203 13.0006 3.01027 13.7621 4.1499C14.5236 5.28953 14.93 6.62938 14.93 8C14.9274 9.83714 14.1964 11.5983 12.8973 12.8973C11.5983 14.1964 9.83714 14.9274 8 14.93Z" fill="#0E0E0E"/>
</g>
</g>
<defs>
<clipPath id="clip0_7172_442">
<rect width="16" height="16" fill="white"/>
</clipPath>
</defs>
</svg>
