<svg width="16" height="16" viewBox="0 0 16 16" fill="none" xmlns="http://www.w3.org/2000/svg">
<g id="dds2_manage-info">
<g id="Vector">
<path d="M0 1.75V14.25H16V1.75H0ZM14.93 2.82V4.82H1.07V2.82H14.93ZM1.07 13.18V5.85H14.93V13.18H1.07Z" fill="#0E0E0E"/>
<path d="M2.41 11.84H6.78V7.47H2.41V11.84ZM3.48 8.54H5.71V10.77H3.48V8.54Z" fill="#0E0E0E"/>
<path d="M13.86 11.3C13.862 11.4076 13.8317 11.5134 13.7732 11.6037C13.7146 11.694 13.6304 11.7648 13.5313 11.8069C13.4322 11.849 13.3228 11.8605 13.2172 11.84C13.1115 11.8195 13.0144 11.7679 12.9383 11.6917C12.8621 11.6156 12.8105 11.5185 12.79 11.4128C12.7695 11.3072 12.781 11.1978 12.8231 11.0987C12.8652 10.9996 12.936 10.9154 13.0263 10.8568C13.1166 10.7983 13.2224 10.768 13.33 10.77C13.4698 10.7726 13.6031 10.8292 13.7019 10.9281C13.8008 11.0269 13.8574 11.1602 13.86 11.3Z" fill="#0E0E0E"/>
</g>
</g>
</svg>
