<svg width="16" height="16" viewBox="0 0 16 16" fill="none" xmlns="http://www.w3.org/2000/svg">
<g clip-path="url(#clip0_7172_691)">
<path d="M9.33 4.15995C11.33 4.15995 12.28 5.90995 12.28 7.63995V8.63995L13.28 8.72995C13.56 8.72995 14.94 8.92995 14.94 10.29C14.9321 10.7108 14.7587 11.1116 14.4573 11.4055C14.156 11.6994 13.7509 11.8627 13.33 11.86H2.89C2.6444 11.8719 2.39907 11.8316 2.17018 11.7418C1.94128 11.652 1.73402 11.5147 1.56205 11.3389C1.39008 11.1632 1.25732 10.953 1.1725 10.7222C1.08769 10.4914 1.05275 10.2452 1.07 9.99995C1.0715 9.59511 1.20093 9.2011 1.4398 8.87423C1.67866 8.54736 2.01474 8.30436 2.4 8.17995L3.07 7.99995L3.17 7.30995C3.17 7.24995 3.38 5.93995 5.22 5.93995C5.4 5.93995 5.61 5.93995 5.82 5.93995L6.55 6.01995L6.9 5.37995C7.16313 4.982 7.52595 4.65996 7.95231 4.4459C8.37866 4.23184 8.85367 4.13325 9.33 4.15995ZM9.33 3.08995C8.66317 3.07591 8.00438 3.23763 7.41985 3.55886C6.83532 3.88009 6.34563 4.34951 6 4.91995C5.75702 4.90142 5.51298 4.90142 5.27 4.91995C4.56225 4.84624 3.85243 5.03901 3.27919 5.46061C2.70596 5.88222 2.31048 6.50238 2.17 7.19995C1.55792 7.37591 1.01772 7.74208 0.6276 8.24547C0.237475 8.74886 0.0176688 9.36334 2.61934e-08 9.99995C-0.0125187 10.3829 0.0536726 10.7643 0.194478 11.1205C0.335284 11.4768 0.547708 11.8005 0.818606 12.0713C1.0895 12.3422 1.41311 12.5547 1.76941 12.6955C2.1257 12.8363 2.5071 12.9025 2.89 12.89H13.37C13.37 12.89 16 12.73 16 10.28C16 7.82995 13.35 7.63995 13.35 7.63995C13.35 5.06995 11.77 3.08995 9.35 3.08995H9.33Z" fill="#0E0E0E"/>
</g>
<defs>
<clipPath id="clip0_7172_691">
<rect width="16" height="16" fill="white"/>
</clipPath>
</defs>
</svg>
