<svg width="16" height="16" viewBox="0 0 16 16" fill="none" xmlns="http://www.w3.org/2000/svg">
<g id="dds2_usb">
<path id="Vector" d="M11.79 3.27V0H4.21001V3.27H2.39001V6.79C2.38597 7.37817 2.5846 7.9498 2.95248 8.40874C3.32036 8.86768 3.83506 9.18594 4.41001 9.31V12.22H7.41001V16H8.53001V12.22H11.53V9.31C12.1142 9.19608 12.6404 8.88217 13.0182 8.42226C13.396 7.96235 13.6017 7.38518 13.6 6.79V3.27H11.79ZM5.28001 1.07H10.73V3.27H5.28001V1.07ZM12.54 6.79C12.5419 7.13892 12.4222 7.47759 12.2013 7.74773C11.9805 8.01786 11.6724 8.20255 11.33 8.27L10.47 8.44V11.15H5.47001V8.44L4.62001 8.27C4.2812 8.20084 3.9767 8.01675 3.75802 7.74887C3.53935 7.481 3.41994 7.1458 3.42001 6.8V4.34H12.54V6.79Z" fill="#0E0E0E"/>
</g>
</svg>
