<svg width="16" height="16" viewBox="0 0 16 16" fill="none" xmlns="http://www.w3.org/2000/svg">
<path d="M3.41 12.67C3.08907 12.3526 2.83518 11.9739 2.6634 11.5565C2.49162 11.1391 2.40545 10.6914 2.41 10.24C2.44133 9.75744 2.58405 9.28871 2.82695 8.87057C3.06985 8.45243 3.40633 8.09626 3.81 7.83C5.64928 6.58662 7.07386 4.82069 7.9 2.76C8.16 3.17 8.38 3.55 8.58 3.93L9.13 2.79C8.5563 1.82076 7.9217 0.888884 7.23 0C7.13 0 8.16 3.29 3.23 7C2.72423 7.32695 2.29774 7.76259 1.98159 8.27519C1.66544 8.78779 1.4676 9.36444 1.40246 9.96316C1.33732 10.5619 1.40652 11.1676 1.60504 11.7362C1.80355 12.3048 2.12637 12.8219 2.55 13.25L1 15.05L1.78 15.73L3.39 13.88C4.11202 14.2908 4.92932 14.5046 5.76 14.5C5.93318 14.5102 6.10682 14.5102 6.28 14.5L6.74 13.37C6.41205 13.4464 6.07672 13.4866 5.74 13.49C4.9041 13.5065 4.08932 13.2267 3.44 12.7L3.41 12.67Z" fill="#0E0E0E"/>
<path d="M12.78 6.43L14.49 2.82H10.26L7.16 9.33H9.41L6.74 16L15.05 6.47L12.78 6.43ZM10 10.71L11 8.29H8.8L10.91 3.86H12.85L11.15 7.45H12.8L10 10.71Z" fill="#0E0E0E"/>
</svg>
