<svg width="16" height="16" viewBox="0 0 16 16" fill="none" xmlns="http://www.w3.org/2000/svg">
<g clip-path="url(#clip0_7172_294)">
<path d="M8 0C6.41775 0 4.87103 0.469192 3.55544 1.34824C2.23985 2.22729 1.21447 3.47672 0.608967 4.93853C0.00346625 6.40034 -0.15496 8.00887 0.153721 9.56072C0.462403 11.1126 1.22433 12.538 2.34315 13.6569C3.46197 14.7757 4.88743 15.5376 6.43928 15.8463C7.99113 16.155 9.59966 15.9965 11.0615 15.391C12.5233 14.7855 13.7727 13.7602 14.6518 12.4446C15.5308 11.129 16 9.58225 16 8C16 5.87827 15.1571 3.84344 13.6569 2.34315C12.1566 0.842855 10.1217 0 8 0ZM8 14.93C6.62938 14.93 5.28953 14.5236 4.1499 13.7621C3.01027 13.0006 2.12203 11.9183 1.59752 10.652C1.073 9.3857 0.935766 7.99231 1.20316 6.64802C1.47056 5.30374 2.13058 4.06893 3.09975 3.09975C4.06893 2.13057 5.30374 1.47055 6.64803 1.20316C7.99232 0.935762 9.38571 1.073 10.652 1.59751C11.9183 2.12203 13.0006 3.01027 13.7621 4.1499C14.5236 5.28953 14.93 6.62938 14.93 8C14.9274 9.83714 14.1964 11.5983 12.8973 12.8973C11.5983 14.1964 9.83714 14.9274 8 14.93Z" fill="#0E0E0E"/>
<path d="M8 5.54C7.51346 5.54 7.03785 5.68428 6.6333 5.95458C6.22876 6.22489 5.91345 6.60909 5.72726 7.0586C5.54107 7.5081 5.49235 8.00273 5.58727 8.47992C5.68219 8.95712 5.91648 9.39545 6.26052 9.73948C6.60456 10.0835 7.04289 10.3178 7.52008 10.4127C7.99727 10.5077 8.4919 10.4589 8.94141 10.2727C9.39091 10.0866 9.77511 9.77125 10.0454 9.3667C10.3157 8.96216 10.46 8.48654 10.46 8C10.46 7.34757 10.2008 6.72186 9.73949 6.26052C9.27815 5.79918 8.65244 5.54 8 5.54ZM8 9.39C7.72509 9.39 7.45635 9.30848 7.22776 9.15574C6.99918 9.00301 6.82102 8.78592 6.71581 8.53193C6.61061 8.27794 6.58308 7.99846 6.63671 7.72882C6.69035 7.45919 6.82273 7.21152 7.01713 7.01712C7.21152 6.82273 7.45919 6.69034 7.72883 6.63671C7.99846 6.58307 8.27794 6.6106 8.53193 6.71581C8.78592 6.82101 9.00301 6.99917 9.15575 7.22776C9.30848 7.45634 9.39 7.72508 9.39 8C9.39 8.18254 9.35405 8.36329 9.2842 8.53193C9.21434 8.70057 9.11196 8.85381 8.98288 8.98288C8.85381 9.11195 8.70058 9.21434 8.53193 9.28419C8.36329 9.35405 8.18254 9.39 8 9.39Z" fill="#0E0E0E"/>
</g>
<defs>
<clipPath id="clip0_7172_294">
<rect width="16" height="16" fill="white"/>
</clipPath>
</defs>
</svg>
