<svg width="16" height="16" viewBox="0 0 16 16" fill="none" xmlns="http://www.w3.org/2000/svg">
<g id="dds2_accessibility" clip-path="url(#clip0_7172_1354)">
<g id="Vector">
<path d="M8 5.24C8.31885 5.24198 8.6311 5.14924 8.89718 4.97354C9.16325 4.79784 9.37117 4.54709 9.49456 4.25308C9.61795 3.95907 9.65127 3.63505 9.59028 3.32208C9.52929 3.00911 9.37675 2.72131 9.15199 2.49514C8.92723 2.26898 8.64037 2.11464 8.3278 2.05171C8.01522 1.98877 7.69099 2.02006 7.39622 2.14162C7.10144 2.26318 6.8494 2.46953 6.67205 2.7345C6.49469 2.99948 6.40001 3.31115 6.4 3.63C6.4 4.05527 6.56825 4.46327 6.86802 4.76492C7.1678 5.06657 7.57474 5.23736 8 5.24ZM8 3.1C8.10723 3.10002 8.21202 3.13196 8.30103 3.19175C8.39003 3.25154 8.45922 3.33647 8.49978 3.43573C8.54034 3.53498 8.55044 3.64407 8.52878 3.74908C8.50712 3.85409 8.45469 3.95028 8.37816 4.02539C8.30164 4.1005 8.20449 4.15112 8.09909 4.17081C7.99369 4.19051 7.88481 4.17838 7.78633 4.13597C7.68785 4.09356 7.60423 4.02279 7.54611 3.93268C7.48799 3.84258 7.45802 3.73721 7.46 3.63C7.46262 3.48852 7.52067 3.35373 7.62166 3.25461C7.72265 3.15549 7.8585 3.09998 8 3.1Z" fill="#0E0E0E"/>
<path d="M12.35 6.69C12.2852 6.38565 12.1109 6.11568 11.8602 5.93134C11.6095 5.747 11.2998 5.66112 10.99 5.69L8.08 5.96H8L5 5.67C4.75694 5.66542 4.51727 5.72756 4.30704 5.84965C4.09681 5.97174 3.92407 6.14911 3.80758 6.3625C3.6911 6.57588 3.63533 6.81711 3.64633 7.05997C3.65734 7.30283 3.7347 7.53802 3.87 7.74C3.96979 7.89452 4.10195 8.02551 4.25735 8.12393C4.41274 8.22235 4.58766 8.28583 4.77 8.31L6 8.4L5.14 12.3C5.10004 12.4707 5.09423 12.6477 5.12292 12.8207C5.1516 12.9937 5.21422 13.1593 5.30716 13.308C5.4001 13.4567 5.52153 13.5856 5.66447 13.6872C5.8074 13.7888 5.96901 13.8611 6.14 13.9C6.45386 13.9762 6.78494 13.931 7.06684 13.7733C7.34874 13.6157 7.56063 13.3573 7.66 13.05L8 11.84L8.39 13.08C8.47757 13.33 8.63941 13.5473 8.85387 13.7028C9.06833 13.8583 9.32517 13.9445 9.59 13.95C9.71605 13.9678 9.84396 13.9678 9.97 13.95C10.2965 13.8562 10.5752 13.6419 10.7497 13.3504C10.9242 13.059 10.9815 12.7121 10.91 12.38L10 8.47L11.24 8.33C11.4281 8.30754 11.6089 8.24392 11.7697 8.14368C11.9304 8.04344 12.0671 7.90903 12.17 7.75C12.3437 7.44747 12.4073 7.09412 12.35 6.75V6.69ZM8.4 9.69H7.63L6.63 12.69C6.63 12.8 6.51 12.89 6.3 12.84C6.23819 12.8194 6.18688 12.7754 6.157 12.7175C6.12711 12.6596 6.12101 12.5923 6.14 12.53L7 8.64C7.03517 8.50211 7.0405 8.3583 7.01563 8.21818C6.99077 8.07807 6.93629 7.94487 6.85583 7.8275C6.77537 7.71012 6.67079 7.61127 6.54907 7.53755C6.42735 7.46383 6.2913 7.41693 6.15 7.4L4.92 7.25C4.84915 7.24175 4.78444 7.2058 4.74 7.15C4.7115 7.07598 4.7115 6.99402 4.74 6.92C4.74108 6.89316 4.74783 6.86685 4.75982 6.84281C4.7718 6.81877 4.78875 6.79755 4.80954 6.78054C4.83033 6.76353 4.85449 6.75112 4.88042 6.74413C4.90636 6.73715 4.93348 6.73574 4.96 6.74L7.96 7.01L11.11 6.74C11.21 6.74 11.3 6.8 11.33 6.92C11.3449 7.01307 11.3272 7.10842 11.28 7.19C11.2476 7.23133 11.2015 7.2597 11.15 7.27L9.88 7.42C9.74898 7.43963 9.62316 7.4851 9.50986 7.55377C9.39656 7.62243 9.29803 7.71293 9.22 7.82C9.124 7.93333 9.05444 8.06662 9.01638 8.21019C8.97833 8.35375 8.97273 8.504 9 8.65L9.87 12.55C9.88486 12.6136 9.877 12.6804 9.84778 12.7389C9.81856 12.7973 9.76982 12.8437 9.71 12.87H9.62C9.57689 12.8678 9.53526 12.8535 9.4999 12.8287C9.46453 12.804 9.43684 12.7698 9.42 12.73L8.42 9.73L8.4 9.69Z" fill="#0E0E0E"/>
<path d="M8 0C6.41775 0 4.87103 0.469192 3.55544 1.34824C2.23985 2.22729 1.21447 3.47672 0.608967 4.93853C0.00346625 6.40034 -0.15496 8.00887 0.153721 9.56072C0.462403 11.1126 1.22433 12.538 2.34315 13.6569C3.46197 14.7757 4.88743 15.5376 6.43928 15.8463C7.99113 16.155 9.59966 15.9965 11.0615 15.391C12.5233 14.7855 13.7727 13.7602 14.6518 12.4446C15.5308 11.129 16 9.58225 16 8C16 5.87827 15.1571 3.84344 13.6569 2.34315C12.1566 0.842855 10.1217 0 8 0ZM8 14.93C6.62938 14.93 5.28953 14.5236 4.1499 13.7621C3.01027 13.0006 2.12203 11.9183 1.59752 10.652C1.073 9.3857 0.935766 7.99231 1.20316 6.64802C1.47056 5.30374 2.13058 4.06893 3.09975 3.09975C4.06893 2.13057 5.30374 1.47055 6.64803 1.20316C7.99232 0.935762 9.38571 1.073 10.652 1.59751C11.9183 2.12203 13.0006 3.01027 13.7621 4.1499C14.5236 5.28953 14.93 6.62938 14.93 8C14.9274 9.83714 14.1964 11.5983 12.8973 12.8973C11.5983 14.1964 9.83714 14.9274 8 14.93Z" fill="#0E0E0E"/>
</g>
</g>
<defs>
<clipPath id="clip0_7172_1354">
<rect width="16" height="16" fill="white"/>
</clipPath>
</defs>
</svg>
