<svg width="16" height="16" viewBox="0 0 16 16" fill="none" xmlns="http://www.w3.org/2000/svg">
<g id="dds2_graphics-card" clip-path="url(#clip0_7172_175)">
<g id="Vector">
<path d="M16 2.69988H3.22V0.629883H0V1.68988H2.15V4.68988H1.15V7.46988H2.15V9.05988H1.15V11.8699H2.15V15.3699H3.22V13.8299H16V2.69988ZM14.93 12.7599H3.22V3.75988H14.93V12.7599Z" fill="#0E0E0E"/>
<path d="M9.08 11.9199C9.80473 11.9219 10.5137 11.7086 11.1171 11.3072C11.7206 10.9058 12.1912 10.3343 12.4695 9.66513C12.7477 8.99594 12.821 8.25922 12.6801 7.54831C12.5392 6.83741 12.1905 6.18435 11.678 5.67189C11.1655 5.15942 10.5125 4.81064 9.80157 4.66974C9.09067 4.52883 8.35394 4.60216 7.68475 4.88041C7.01557 5.15867 6.44406 5.62933 6.04265 6.23274C5.64125 6.83615 5.42802 7.54516 5.43 8.26988C5.43264 9.23711 5.81804 10.164 6.50198 10.8479C7.18591 11.5318 8.11277 11.9172 9.08 11.9199ZM8.58 10.7999L10.36 8.99988L11.14 9.78988C10.8816 10.2141 10.4917 10.5424 10.0296 10.7247C9.56747 10.907 9.05848 10.9334 8.58 10.7999ZM9.58 8.26988L9.06 8.78988L8.53 8.26988L9.06 7.73988L9.58 8.26988ZM11.58 8.76988L9.83 6.99988L10.62 6.20988C10.9956 6.51185 11.2848 6.90752 11.4587 7.35698C11.6325 7.80645 11.6847 8.2938 11.61 8.76988H11.58ZM9.08 5.67988C9.24785 5.68114 9.41523 5.69788 9.58 5.72988L7.8 7.50988L7 6.72988C7.24003 6.40397 7.55338 6.13911 7.91472 5.95671C8.27605 5.7743 8.67524 5.67947 9.08 5.67988ZM6.54 7.76988L8.32 9.54988L7.54 10.3299C7.226 10.0867 6.97239 9.77422 6.79894 9.4169C6.62548 9.05959 6.53687 8.66706 6.54 8.26988C6.52424 8.10359 6.52424 7.93618 6.54 7.76988Z" fill="#0E0E0E"/>
</g>
</g>
<defs>
<clipPath id="clip0_7172_175">
<rect width="16" height="16" fill="white"/>
</clipPath>
</defs>
</svg>
