<svg width="16" height="16" viewBox="0 0 16 16" fill="none" xmlns="http://www.w3.org/2000/svg">
<g clip-path="url(#clip0_7172_426)">
<path d="M11.46 16H16V11.46H11.46V16ZM12.53 12.53H14.93V14.93H12.53V12.53Z" fill="#0E0E0E"/>
<path d="M5.73 10.27H10.27V5.73H5.73V10.27ZM6.8 6.8H9.21V9.2H6.8V6.8Z" fill="#0E0E0E"/>
<path d="M5.73 13.2H2.88L2.81 4.54H4.54V0H0V4.54H1.74L1.82 14.26H5.73V16H10.27V11.46H5.73V13.2ZM1.07 1.07H3.47V3.47H1.07V1.07ZM6.8 12.53H9.21V14.93H6.8V12.53Z" fill="#0E0E0E"/>
<path d="M11.46 0V4.54H16V0H11.46ZM14.93 3.47H12.52V1.07H14.93V3.47Z" fill="#0E0E0E"/>
<path d="M5.73 4.54H10.27V0H5.73V4.54ZM6.8 1.07H9.21V3.47H6.8V1.07Z" fill="#0E0E0E"/>
</g>
<defs>
<clipPath id="clip0_7172_426">
<rect width="16" height="16" fill="white"/>
</clipPath>
</defs>
</svg>
