<svg width="16" height="16" viewBox="0 0 16 16" fill="none" xmlns="http://www.w3.org/2000/svg">
<g id="dds2_music-note" clip-path="url(#clip0_7172_865)">
<path id="Vector" d="M14.08 0L6.35001 2.75V11.75C5.75304 11.3802 5.04529 11.2316 4.35001 11.33C3.68254 11.3834 3.06056 11.6893 2.61088 12.1854C2.16121 12.6815 1.9177 13.3305 1.93001 14C1.96561 14.2829 2.05845 14.5556 2.20287 14.8014C2.34728 15.0473 2.54025 15.2612 2.77001 15.43C3.27589 15.8125 3.89594 16.0133 4.53001 16H5.00001C5.63393 15.9543 6.23053 15.683 6.68177 15.2355C7.13302 14.7879 7.40909 14.1935 7.46001 13.56V6.32L13.07 4.32V9.38C12.4718 9.01372 11.7641 8.86864 11.07 8.97C10.3918 9.01129 9.75651 9.3154 9.29901 9.81771C8.84152 10.32 8.59793 10.9809 8.62001 11.66C8.65478 11.9434 8.74617 12.2169 8.88876 12.4643C9.03134 12.7117 9.22221 12.9279 9.45001 13.1C9.95533 13.4847 10.575 13.6889 11.21 13.68H11.64C12.2793 13.6328 12.8797 13.3556 13.3302 12.8996C13.7807 12.4436 14.0506 11.8398 14.09 11.2V0H14.08ZM4.81001 14.91C4.5696 14.9496 4.3237 14.9409 4.08673 14.8842C3.84975 14.8275 3.62648 14.7241 3.43001 14.58C3.31313 14.4955 3.21471 14.3881 3.14078 14.2643C3.06684 14.1405 3.01894 14.0029 3.00001 13.86C2.91001 13.15 3.60001 12.48 4.53001 12.36C4.6264 12.3497 4.72362 12.3497 4.82001 12.36C5.21153 12.3564 5.59378 12.4791 5.91001 12.71C6.14574 12.8827 6.30384 13.1414 6.35001 13.43C6.43001 14.11 5.74001 14.79 4.81001 14.91ZM7.41001 5.19V3.51L13.02 1.51V3.2L7.41001 5.19ZM13 11.08C13.08 11.79 12.4 12.46 11.47 12.59C10.9802 12.66 10.4822 12.5382 10.08 12.25C9.96505 12.1659 9.86787 12.0598 9.79408 11.938C9.72028 11.8161 9.67132 11.6809 9.65001 11.54C9.57001 10.83 10.25 10.15 11.18 10.03H11.47C11.8656 10.0197 12.2531 10.143 12.57 10.38C12.8028 10.5538 12.9574 10.8126 13 11.1V11.08Z" fill="#0E0E0E"/>
</g>
<defs>
<clipPath id="clip0_7172_865">
<rect width="16" height="16" fill="white"/>
</clipPath>
</defs>
</svg>
