<svg width="16" height="16" viewBox="0 0 16 16" fill="none" xmlns="http://www.w3.org/2000/svg">
<path d="M2 0V16H14V0H2ZM13 1.07V10.58H3.06V1.07H13ZM3.06 14.93V11.64H12.94V14.93H3.06Z" fill="#0E0E0E"/>
<path d="M8.74 13.26C8.74 13.4064 8.6966 13.5494 8.61529 13.6711C8.53398 13.7928 8.4184 13.8877 8.28319 13.9437C8.14797 13.9997 7.99918 14.0143 7.85563 13.9858C7.71209 13.9572 7.58023 13.8868 7.47674 13.7833C7.37325 13.6798 7.30277 13.5479 7.27422 13.4044C7.24567 13.2608 7.26032 13.112 7.31633 12.9768C7.37234 12.8416 7.46719 12.726 7.58888 12.6447C7.71057 12.5634 7.85364 12.52 8 12.52C8.19626 12.52 8.38448 12.598 8.52326 12.7367C8.66204 12.8755 8.74 13.0637 8.74 13.26Z" fill="#0E0E0E"/>
</svg>
