<svg width="16" height="16" viewBox="0 0 16 16" fill="none" xmlns="http://www.w3.org/2000/svg">
<g id="dds2_pie-chart-solid" clip-path="url(#clip0_7172_197)">
<path id="Vector" d="M8 0C6.41775 0 4.87103 0.469192 3.55544 1.34824C2.23985 2.22729 1.21447 3.47672 0.608967 4.93853C0.00346625 6.40034 -0.15496 8.00887 0.153721 9.56072C0.462403 11.1126 1.22433 12.538 2.34315 13.6569C3.46197 14.7757 4.88743 15.5376 6.43928 15.8463C7.99113 16.155 9.59966 15.9965 11.0615 15.391C12.5233 14.7855 13.7727 13.7602 14.6518 12.4446C15.5308 11.129 16 9.58225 16 8C16 5.87827 15.1571 3.84344 13.6569 2.34315C12.1566 0.842855 10.1217 0 8 0ZM14.93 8C14.9309 9.66129 14.3306 11.2668 13.24 12.52L13.05 12.34L8.83 8.12L14.35 5.23C14.7326 6.10334 14.9301 7.04651 14.93 8ZM1.12 8.8C1.10973 8.61681 1.10973 8.43319 1.12 8.25C1.12 8.17 1.12 8.09 1.12 8C1.11915 7.10516 1.29237 6.2187 1.63 5.39L2 5.6V11.4C1.49165 10.6216 1.18888 9.72711 1.12 8.8ZM11.52 12.35L12.46 13.29C12.1637 13.5303 11.8494 13.7476 11.52 13.94V12.35ZM10.52 11.35V14.41C10.1494 14.5502 9.76818 14.6605 9.38 14.74V10.22L10.52 11.35ZM3 6.1L4.14 6.68V13.68C3.72719 13.386 3.34524 13.051 3 12.68V6.1ZM5.12 7.18L6.26 7.76V14.66C5.86749 14.561 5.48566 14.4237 5.12 14.25V7.18ZM7.25 8.26L7.61 8.44L8.39 9.23V14.86H8.02C7.76356 14.8752 7.50645 14.8752 7.25 14.86V8.26ZM8.46 1.1C9.54444 1.17665 10.5961 1.50484 11.5317 2.05854C12.4673 2.61224 13.261 3.37625 13.85 4.29L8.46 7.12V1.1ZM7.39 1.1V7.1L7.25 7.03L2.08 4.41C2.6488 3.48605 3.42459 2.70696 4.34612 2.13426C5.26766 1.56155 6.30971 1.21091 7.39 1.11V1.1Z" fill="#0E0E0E"/>
</g>
<defs>
<clipPath id="clip0_7172_197">
<rect width="16" height="16" fill="white"/>
</clipPath>
</defs>
</svg>
