<svg width="16" height="16" viewBox="0 0 16 16" fill="none" xmlns="http://www.w3.org/2000/svg">
<g clip-path="url(#clip0_7172_954)">
<path d="M8.63 -2.50945e-06C7.47511 0.00645928 6.33786 0.283875 5.30972 0.809931C4.28158 1.33599 3.39126 2.096 2.71035 3.02883C2.02945 3.96167 1.57699 5.04128 1.38935 6.18084C1.20171 7.32041 1.28414 8.4881 1.63 9.59L2.5 8.72C2.404 8.27293 2.35374 7.81725 2.35 7.36C2.35 6.11398 2.71949 4.89593 3.41174 3.85991C4.10399 2.82388 5.08792 2.01639 6.23909 1.53956C7.39027 1.06272 8.65699 0.937963 9.87907 1.18105C11.1011 1.42414 12.2237 2.02415 13.1048 2.90522C13.9858 3.7863 14.5859 4.90885 14.8289 6.13093C15.072 7.35301 14.9473 8.61973 14.4704 9.7709C13.9936 10.9221 13.1861 11.906 12.1501 12.5983C11.1141 13.2905 9.89602 13.66 8.65 13.66C8.27732 13.6591 7.90561 13.6222 7.54 13.55V14.63C7.90666 14.6935 8.27789 14.7269 8.65 14.73C9.64005 14.7651 10.627 14.6003 11.5519 14.2453C12.4768 13.8903 13.3207 13.3526 14.033 12.6641C14.7454 11.9756 15.3116 11.1506 15.6979 10.2383C16.0842 9.32607 16.2826 8.3453 16.2812 7.35462C16.2799 6.36395 16.0788 5.38371 15.6901 4.4725C15.3013 3.56129 14.7328 2.73781 14.0186 2.05128C13.3044 1.36475 12.4591 0.829254 11.5332 0.476807C10.6074 0.124359 9.61995 -0.0378077 8.63 -2.50945e-06Z" fill="#0E0E0E"/>
<path d="M8.24 11.73H9.24V10.88C9.64363 10.8113 10.0187 10.6272 10.32 10.35C10.4965 10.1731 10.6354 9.9623 10.7282 9.73027C10.821 9.49825 10.8658 9.24983 10.86 9C10.861 8.75082 10.8169 8.50352 10.73 8.27C10.6383 8.05054 10.506 7.85037 10.34 7.68C10.1589 7.50293 9.9493 7.35758 9.72 7.25C9.39631 7.09927 9.0621 6.97227 8.72 6.87C8.43061 6.78177 8.15216 6.661 7.89 6.51C7.75411 6.4345 7.6377 6.32835 7.55 6.2C7.48079 6.04989 7.44987 5.88498 7.46 5.72C7.45444 5.58147 7.48245 5.44365 7.54165 5.31828C7.60086 5.19291 7.68949 5.08372 7.8 5C8.04516 4.80278 8.35036 4.69525 8.665 4.69525C8.97964 4.69525 9.28484 4.80278 9.53 5C9.65033 5.13472 9.74029 5.29374 9.79378 5.46628C9.84727 5.63881 9.86303 5.82083 9.84 6V6.37H10.84V6C10.8746 5.41678 10.6809 4.843 10.3 4.4C10.005 4.07234 9.60578 3.85682 9.17 3.79V3H8.17V3.83C7.7673 3.89528 7.39216 4.0759 7.09 4.35C6.89972 4.52687 6.74951 4.74243 6.64947 4.98218C6.54942 5.22194 6.50187 5.48033 6.51 5.74C6.5041 6.05485 6.57262 6.36664 6.71 6.65C6.85992 6.9108 7.06463 7.13597 7.31 7.31C7.65837 7.5236 8.03101 7.69481 8.42 7.82C8.76684 7.92537 9.10194 8.0661 9.42 8.24C9.56644 8.32098 9.69287 8.43374 9.79 8.57C9.86355 8.71174 9.89807 8.87051 9.89 9.03C9.89277 9.15791 9.86627 9.28476 9.81255 9.40088C9.75882 9.51699 9.67928 9.6193 9.58 9.7C9.33721 9.90339 9.02627 10.007 8.71 9.99C8.34722 10.0082 7.99068 9.89056 7.71 9.66C7.58743 9.54406 7.49237 9.40216 7.43181 9.24469C7.37124 9.08722 7.34671 8.91819 7.36 8.75V8.33H6.36V8.7C6.34665 8.99425 6.39391 9.28811 6.49884 9.56334C6.60377 9.83858 6.76414 10.0893 6.97 10.3C7.32739 10.6332 7.78392 10.8404 8.27 10.89V11.73H8.24Z" fill="#0E0E0E"/>
<path d="M1.87 12.21L4 10.1L3.31 9.42L0 12.71L3.29 16L4 15.31L1.84 13.18H6.46V12.18L1.87 12.21Z" fill="#0E0E0E"/>
</g>
<defs>
<clipPath id="clip0_7172_954">
<rect width="16" height="16" fill="white"/>
</clipPath>
</defs>
</svg>
