<svg width="16" height="16" viewBox="0 0 16 16" fill="none" xmlns="http://www.w3.org/2000/svg">
<g id="dds2_suspend" clip-path="url(#clip0_7172_1000)">
<path id="Vector" d="M8 0C6.41775 0 4.87103 0.469192 3.55544 1.34824C2.23985 2.22729 1.21447 3.47672 0.608967 4.93853C0.00346625 6.40034 -0.15496 8.00887 0.153721 9.56072C0.462403 11.1126 1.22433 12.538 2.34315 13.6569C3.46197 14.7757 4.88743 15.5376 6.43928 15.8463C7.99113 16.155 9.59966 15.9965 11.0615 15.391C12.5233 14.7855 13.7727 13.7602 14.6518 12.4446C15.5308 11.129 16 9.58225 16 8C16 5.87827 15.1571 3.84344 13.6569 2.34315C12.1566 0.842855 10.1217 0 8 0ZM8 1.07C9.74294 1.07225 11.421 1.73117 12.6998 2.91544C13.9786 4.09971 14.7642 5.72237 14.9 7.46H1.1C1.23582 5.72237 2.0214 4.09971 3.30019 2.91544C4.57899 1.73117 6.25707 1.07225 8 1.07ZM8 14.93C6.25707 14.9278 4.57899 14.2688 3.30019 13.0846C2.0214 11.9003 1.23582 10.2776 1.1 8.54H14.9C14.7642 10.2776 13.9786 11.9003 12.6998 13.0846C11.421 14.2688 9.74294 14.9278 8 14.93Z" fill="#0E0E0E"/>
</g>
<defs>
<clipPath id="clip0_7172_1000">
<rect width="16" height="16" fill="white"/>
</clipPath>
</defs>
</svg>
