<svg width="16" height="16" viewBox="0 0 16 16" fill="none" xmlns="http://www.w3.org/2000/svg">
<g id="dds2_power-supply-cord" clip-path="url(#clip0_7172_456)">
<path id="Vector" d="M12.65 9.00002H12.31C10.52 9.00002 9.70004 10.58 9.00004 12C8.30004 13.42 7.61004 14.66 6.13004 14.66H5.78004C5.16381 14.6495 4.57686 14.3952 4.14767 13.9529C3.71848 13.5106 3.48201 12.9163 3.49004 12.3V9.00002C4.18975 8.90509 4.83079 8.55812 5.2929 8.02421C5.75502 7.49029 6.00645 6.80612 6.00004 6.10002V2.89002H5.13004V0.27002H4.06004V2.89002H1.91004V0.27002H0.85004V2.89002H3.95736e-05V6.10002C-0.0115748 6.79332 0.226467 7.46768 0.670729 8.00006C1.11499 8.53244 1.73586 8.88735 2.42004 9.00002V12.3C2.41471 13.1947 2.76435 14.0551 3.39232 14.6924C4.02029 15.3297 4.87534 15.6921 5.77004 15.7H6.11004C8.24004 15.7 9.11004 13.98 9.93004 12.46C10.75 10.94 11.24 10.08 12.31 10.08H12.65C12.9547 10.0852 13.2554 10.1504 13.5349 10.2718C13.8144 10.3933 14.0672 10.5686 14.2789 10.7877C14.4906 11.0069 14.6571 11.2656 14.7688 11.5491C14.8806 11.8326 14.9353 12.1353 14.93 12.44V15.73H16V12.44C16.008 11.9936 15.9274 11.5501 15.763 11.135C15.5986 10.72 15.3535 10.3416 15.0421 10.0218C14.7306 9.70191 14.3588 9.44695 13.9483 9.27158C13.5377 9.09621 13.0965 9.00391 12.65 9.00002ZM1.07004 6.10002V4.00002H4.91004V6.10002C4.92076 6.33989 4.88392 6.57951 4.80162 6.80507C4.71933 7.03064 4.59321 7.23769 4.43055 7.4143C4.26788 7.59091 4.07187 7.73359 3.85382 7.83412C3.63577 7.93464 3.39998 7.99102 3.16004 8.00002H2.82004C2.5801 7.99102 2.34431 7.93464 2.12626 7.83412C1.90821 7.73359 1.7122 7.59091 1.54953 7.4143C1.38686 7.23769 1.26075 7.03064 1.17846 6.80507C1.09616 6.57951 1.05932 6.33989 1.07004 6.10002Z" fill="#0E0E0E"/>
</g>
<defs>
<clipPath id="clip0_7172_456">
<rect width="16" height="16" fill="white"/>
</clipPath>
</defs>
</svg>
