<svg width="16" height="16" viewBox="0 0 16 16" fill="none" xmlns="http://www.w3.org/2000/svg">
<g id="dds2_alert-check-cir" clip-path="url(#clip0_7172_534)">
<g id="Vector">
<path d="M4.26 7.29L3.53 8L6.79 11.17L16 2.06L15.26 1.32L6.78 9.74L4.26 7.29Z" fill="#0E0E0E"/>
<path d="M14.41 6.38C14.5476 6.90931 14.6214 7.45316 14.63 8C14.63 9.34293 14.2318 10.6557 13.4857 11.7723C12.7396 12.8889 11.6791 13.7592 10.4384 14.2731C9.19771 14.7871 7.83247 14.9215 6.51534 14.6595C5.19821 14.3975 3.98835 13.7508 3.03875 12.8013C2.08915 11.8517 1.44247 10.6418 1.18047 9.32466C0.918479 8.00753 1.05294 6.64229 1.56686 5.40158C2.08078 4.16087 2.95107 3.10041 4.06768 2.35432C5.18429 1.60822 6.49707 1.21 7.84 1.21C9.15199 1.21185 10.4347 1.59772 11.53 2.32L12.3 1.56C10.9929 0.645409 9.43533 0.156496 7.84 0.159996C6.17329 0.153849 4.54765 0.677013 3.19736 1.6541C1.84707 2.63118 0.841842 4.01173 0.326546 5.5968C-0.18875 7.18188 -0.187511 8.88962 0.330086 10.4739C0.847683 12.0583 1.85491 13.4374 3.20662 14.4125C4.55833 15.3876 6.18472 15.9084 7.85143 15.8998C9.51814 15.8913 11.1391 15.3538 12.4807 14.3648C13.8223 13.3758 14.8153 11.9865 15.3166 10.3969C15.8179 8.80735 15.8016 7.09969 15.27 5.52L14.41 6.38Z" fill="#0E0E0E"/>
</g>
</g>
<defs>
<clipPath id="clip0_7172_534">
<rect width="16" height="16" fill="white"/>
</clipPath>
</defs>
</svg>
