<svg width="16" height="16" viewBox="0 0 16 16" fill="none" xmlns="http://www.w3.org/2000/svg">
<path fill-rule="evenodd" clip-rule="evenodd" d="M3 2C3 0.895431 3.89543 0 5 0C6.10457 0 7 0.895431 7 2C7 3.10457 6.10457 4 5 4C3.89543 4 3 3.10457 3 2ZM5 1C4.44772 1 4 1.44772 4 2C4 2.55228 4.44772 3 5 3C5.55228 3 6 2.55228 6 2C6 1.44772 5.55228 1 5 1Z" fill="#0E0E0E"/>
<path fill-rule="evenodd" clip-rule="evenodd" d="M9 2C9 0.895431 9.89543 0 11 0C12.1046 0 13 0.895431 13 2C13 3.10457 12.1046 4 11 4C9.89543 4 9 3.10457 9 2ZM11 1C10.4477 1 10 1.44772 10 2C10 2.55228 10.4477 3 11 3C11.5523 3 12 2.55228 12 2C12 1.44772 11.5523 1 11 1Z" fill="#0E0E0E"/>
<path d="M2 5C1.44772 5 1 5.44772 1 6V11H3V16H7V10H6V15H4V10H2V6H14V10H12V15H10V10H9V16H13V11H15V6C15 5.44771 14.5523 5 14 5H2Z" fill="#0E0E0E"/>
</svg>
