<svg width="16" height="16" viewBox="0 0 16 16" fill="none" xmlns="http://www.w3.org/2000/svg">
<g clip-path="url(#clip0_7172_432)">
<path d="M8.69 0C7.72919 -8.99019e-07 6.77782 0.189409 5.89027 0.557396C5.00273 0.925383 4.19644 1.46473 3.51751 2.14458C2.83858 2.82444 2.30034 3.63147 1.93357 4.51951C1.56679 5.40756 1.37869 6.3592 1.38 7.32C1.72282 7.15296 2.09129 7.04478 2.47 7C2.54227 5.78337 2.96924 4.61453 3.69821 3.63779C4.42717 2.66104 5.42622 1.91915 6.57201 1.50371C7.71779 1.08827 8.96016 1.01746 10.1457 1.30003C11.3313 1.5826 12.4082 2.20617 13.2434 3.09376C14.0786 3.98135 14.6356 5.09411 14.8457 6.29465C15.0557 7.4952 14.9096 8.73097 14.4253 9.84941C13.941 10.9678 13.1398 11.92 12.1206 12.5883C11.1014 13.2566 9.90878 13.6118 8.69 13.61C8.11716 13.5956 7.54881 13.5048 7 13.34V14.44C7.54082 14.568 8.09426 14.6351 8.65 14.64C10.5914 14.6453 12.4554 13.8792 13.8319 12.5102C15.2084 11.1411 15.9847 9.28138 15.99 7.34C15.9953 5.39862 15.2292 3.53464 13.8602 2.15812C12.4911 0.781603 10.6314 0.00530433 8.69 0Z" fill="#0E0E0E"/>
<path d="M8.69 9.57C9.13501 9.57 9.57002 9.43804 9.94003 9.19081C10.31 8.94357 10.5984 8.59217 10.7687 8.18104C10.939 7.7699 10.9836 7.3175 10.8968 6.88105C10.8099 6.44459 10.5957 6.04368 10.281 5.72901C9.96632 5.41434 9.56541 5.20005 9.12895 5.11323C8.6925 5.02642 8.2401 5.07097 7.82896 5.24127C7.41783 5.41157 7.06643 5.69996 6.81919 6.06997C6.57196 6.43998 6.44 6.87499 6.44 7.32C6.44 7.91674 6.67705 8.48903 7.09901 8.91099C7.52097 9.33295 8.09326 9.57 8.69 9.57ZM8.69 6.13C8.92578 6.12802 9.15683 6.19612 9.35383 6.32567C9.55084 6.45522 9.70492 6.64037 9.79652 6.85764C9.88812 7.0749 9.91312 7.31447 9.86834 7.54597C9.82356 7.77746 9.71102 7.99043 9.545 8.15786C9.37898 8.32528 9.16697 8.43962 8.93586 8.48635C8.70475 8.53308 8.46497 8.51011 8.24695 8.42034C8.02892 8.33057 7.84247 8.17806 7.71127 7.98216C7.58006 7.78625 7.51001 7.55578 7.51 7.32C7.50999 7.00612 7.63399 6.70494 7.855 6.48206C8.07601 6.25918 8.37613 6.13264 8.69 6.13Z" fill="#0E0E0E"/>
<path d="M5.22 10.16C5.20948 9.58 4.97031 9.02764 4.55454 8.62311C4.13878 8.21858 3.58007 7.99463 3 8C2.83047 7.98204 2.65953 7.98204 2.49 8C2.11494 8.09434 1.77052 8.28377 1.49 8.55C1.28072 8.75435 1.11449 8.99856 1.00113 9.26822C0.887776 9.53787 0.829587 9.82749 0.83 10.12V11.29H0V16H6V11.33H5.22V10.16ZM4.9 14.93H1.07V12.4H4.9V14.93ZM2.58 11.33H1.9V10.16C1.9 10.16 1.9 10.1 1.9 10.07C1.91443 9.84277 1.99777 9.62534 2.13891 9.44668C2.28005 9.26803 2.47228 9.13663 2.69 9.07C2.78927 9.03137 2.89376 9.00777 3 9C3.14708 9 3.29272 9.02897 3.42861 9.08525C3.56449 9.14154 3.68796 9.22404 3.79196 9.32804C3.89596 9.43204 3.97846 9.55551 4.03475 9.69139C4.09103 9.82728 4.12 9.97292 4.12 10.12V11.29L2.58 11.33Z" fill="#0E0E0E"/>
</g>
<defs>
<clipPath id="clip0_7172_432">
<rect width="16" height="16" fill="white"/>
</clipPath>
</defs>
</svg>
