<svg width="16" height="16" viewBox="0 0 16 16" fill="none" xmlns="http://www.w3.org/2000/svg">
<g id="dds2_wrench-single" clip-path="url(#clip0_7172_1356)">
<path id="Vector" d="M15.3101 2.23982L13.2001 4.35982C12.9932 4.56669 12.7126 4.68291 12.4201 4.68291C12.1275 4.68291 11.8469 4.56669 11.6401 4.35982C11.4332 4.15295 11.317 3.87238 11.317 3.57982C11.317 3.28727 11.4332 3.00669 11.6401 2.79982L13.7601 0.679822L13.0001 0.379822C12.1429 0.0167459 11.199 -0.0903756 10.2823 0.0713983C9.36566 0.233172 8.51543 0.65692 7.83437 1.29145C7.1533 1.92598 6.67055 2.74415 6.44441 3.64711C6.21828 4.55007 6.25844 5.49919 6.56005 6.37982L0.610054 12.3798C0.230006 12.7682 0.0119245 13.2866 5.38342e-05 13.8298C-0.00196249 14.1154 0.0526798 14.3986 0.160819 14.6629C0.268957 14.9273 0.428446 15.1675 0.630054 15.3698C1.04112 15.7733 1.59404 15.9995 2.17005 15.9998C2.45397 16.0005 2.73524 15.9452 2.99777 15.8371C3.2603 15.729 3.49895 15.5702 3.70005 15.3698L9.70005 9.41982C10.5807 9.72143 11.5298 9.7616 12.4328 9.53547C13.3357 9.30933 14.1539 8.82657 14.7884 8.14551C15.423 7.46445 15.8467 6.61422 16.0085 5.69754C16.1702 4.78085 16.0631 3.83694 15.7001 2.97982L15.3101 2.23982ZM13.8201 7.50982C13.293 8.03477 12.6218 8.39112 11.8918 8.53358C11.1617 8.67603 10.4057 8.59814 9.72005 8.30982L9.39005 8.16982L3.00005 14.6098C2.78873 14.8081 2.50983 14.9184 2.22005 14.9184C1.93028 14.9184 1.65138 14.8081 1.44005 14.6098C1.33725 14.5076 1.25567 14.3861 1.20001 14.2522C1.14434 14.1183 1.11568 13.9748 1.11568 13.8298C1.11568 13.6848 1.14434 13.5413 1.20001 13.4074C1.25567 13.2736 1.33725 13.152 1.44005 13.0498L7.83005 6.60982L7.69005 6.27982C7.4515 5.70909 7.35745 5.08832 7.41623 4.47254C7.475 3.85676 7.6848 3.26499 8.02701 2.74969C8.36922 2.23439 8.83328 1.81149 9.37805 1.51846C9.92282 1.22543 10.5315 1.07133 11.1501 1.06982C11.3681 1.06947 11.5857 1.08956 11.8001 1.12982L10.8801 2.04982C10.6785 2.25468 10.5192 2.49724 10.4114 2.76365C10.3035 3.03006 10.2492 3.3151 10.2516 3.6025C10.2539 3.8899 10.3128 4.17402 10.4249 4.43865C10.537 4.70329 10.7002 4.94324 10.9051 5.14482C11.1099 5.3464 11.3525 5.50566 11.6189 5.61349C11.8853 5.72133 12.1703 5.77564 12.4577 5.77332C12.7451 5.771 13.0293 5.71209 13.2939 5.59996C13.5585 5.48784 13.7985 5.32468 14.0001 5.11982L14.9201 4.19982C15.0194 4.7994 14.9712 5.41416 14.7795 5.99091C14.5879 6.56765 14.2585 7.089 13.8201 7.50982Z" fill="#0E0E0E"/>
</g>
<defs>
<clipPath id="clip0_7172_1356">
<rect width="16" height="16" fill="white"/>
</clipPath>
</defs>
</svg>
