<svg width="16" height="16" viewBox="0 0 16 16" fill="none" xmlns="http://www.w3.org/2000/svg">
<g clip-path="url(#clip0_7172_1239)">
<path d="M13.35 6.50005C13.35 3.92005 11.77 1.95005 9.34997 1.95005C8.68039 1.92935 8.01735 2.08698 7.42871 2.40677C6.84008 2.72657 6.347 3.19705 5.99997 3.77005C5.75349 3.75647 5.50645 3.75647 5.25997 3.77005C4.55325 3.68629 3.84061 3.86809 3.26039 4.28016C2.68016 4.69223 2.27372 5.30519 2.11997 6.00005C1.50428 6.18895 0.965721 6.57098 0.583935 7.08963C0.202149 7.60828 -0.00259841 8.23603 -3.04915e-05 8.88005C-0.0125492 9.26295 0.0536421 9.64435 0.194448 10.0006C0.335253 10.3569 0.547677 10.6805 0.818575 10.9514C1.08947 11.2223 1.41308 11.4348 1.76937 11.5756C2.12567 11.7164 2.50707 11.7826 2.88997 11.77H3.74997L2.66997 10.68C2.44523 10.6713 2.22457 10.6173 2.02123 10.5212C1.81789 10.4251 1.63605 10.2889 1.48663 10.1208C1.33721 9.95269 1.22328 9.75615 1.15168 9.54294C1.08009 9.32973 1.05229 9.10426 1.06997 8.88005C1.05858 8.46501 1.18204 8.05746 1.42182 7.71851C1.66161 7.37956 2.00481 7.12748 2.39997 7.00005L3.04997 6.80005L3.16997 6.14005C3.16997 5.90005 3.49997 4.75005 5.21997 4.75005C5.39997 4.75005 5.60997 4.75005 5.81997 4.75005L6.55997 4.85005L6.89997 4.18005C7.17062 3.7923 7.53602 3.4803 7.96138 3.27375C8.38673 3.0672 8.85789 2.97297 9.32997 3.00005C11.33 3.00005 12.28 4.75005 12.28 6.48005V7.48005L13.28 7.55005C13.45 7.55005 14.93 7.70005 14.93 9.11005C14.9221 9.53091 14.7487 9.93171 14.4473 10.2256C14.1459 10.5195 13.7409 10.6828 13.32 10.68L12.25 11.75H13.38C13.38 11.75 16 11.59 16 9.13005C16 6.67005 13.35 6.50005 13.35 6.50005Z" fill="#0E0E0E"/>
<path d="M12.33 9.43005C11.7631 8.86011 11.0892 8.40783 10.347 8.09921C9.60472 7.79059 8.80881 7.63172 8.00497 7.63172C7.20113 7.63172 6.40522 7.79059 5.66298 8.09921C4.92075 8.40783 4.24683 8.86011 3.67997 9.43005L3.29997 9.80005L4.04997 10.56L4.42997 10.18C4.89546 9.70534 5.45096 9.32824 6.06395 9.07081C6.67694 8.81337 7.33512 8.68078 7.99997 8.68078C8.66482 8.68078 9.323 8.81337 9.93599 9.07081C10.549 9.32824 11.1045 9.70534 11.57 10.18L11.95 10.56L12.7 9.80005L12.33 9.43005Z" fill="#0E0E0E"/>
<path d="M10.39 10.7C9.71209 10.1606 8.87133 9.86682 8.00497 9.86682C7.13861 9.86682 6.29785 10.1606 5.61997 10.7C5.52897 10.7645 5.44213 10.8346 5.35997 10.91L4.99997 11.29L5.74997 12.04L6.12997 11.67C6.63831 11.1823 7.31551 10.91 8.01997 10.91C8.72443 10.91 9.40163 11.1823 9.90997 11.67L10.01 11.77L10.29 12.04L10.57 11.77L11.04 11.29L10.67 10.91C10.59 10.83 10.49 10.77 10.41 10.7H10.39Z" fill="#0E0E0E"/>
<path d="M7.99997 12.46C7.89539 12.4587 7.79158 12.4782 7.69458 12.5173C7.59757 12.5564 7.5093 12.6144 7.43488 12.6879C7.36046 12.7614 7.30137 12.8489 7.26105 12.9454C7.22072 13.0419 7.19996 13.1455 7.19997 13.25C7.19997 13.4622 7.28426 13.6657 7.43428 13.8157C7.58431 13.9658 7.7878 14.05 7.99997 14.05C8.21214 14.05 8.41563 13.9658 8.56565 13.8157C8.71568 13.6657 8.79997 13.4622 8.79997 13.25C8.79998 13.1455 8.77922 13.0419 8.73889 12.9454C8.69857 12.8489 8.63948 12.7614 8.56506 12.6879C8.49064 12.6144 8.40237 12.5564 8.30536 12.5173C8.20836 12.4782 8.10455 12.4587 7.99997 12.46Z" fill="#0E0E0E"/>
</g>
<defs>
<clipPath id="clip0_7172_1239">
<rect width="16" height="16" fill="white"/>
</clipPath>
</defs>
</svg>
