<svg width="16" height="16" viewBox="0 0 16 16" fill="none" xmlns="http://www.w3.org/2000/svg">
<g id="dds2_microchip" clip-path="url(#clip0_7172_994)">
<path id="Vector" d="M0 0V16H16V0H0ZM14.93 3.3H12.49L10 5.15H8.53V1.07H14.93V3.3ZM14.93 8.53V11.67H12.84L10.84 10.22V8.53H14.93ZM10.86 7.47V5.81L12.86 4.37H14.95V7.47H10.86ZM6.21 9.79V6.21H9.79V9.79H6.21ZM7.46 1.07V5.15H6L3.43 3.28H1.07V1.07H7.46ZM5.14 8.53V10.14L3.08 11.65H1.08V8.53H5.14ZM1.07 7.47V4.35H3.07L5.13 5.85V7.47H1.07ZM1.07 12.71H3.43L6 10.85H7.47V14.93H1.07V12.71ZM8.53 14.93V10.85H9.92L12.49 12.73H14.93V14.93H8.53Z" fill="#0E0E0E"/>
</g>
<defs>
<clipPath id="clip0_7172_994">
<rect width="16" height="16" fill="white"/>
</clipPath>
</defs>
</svg>
