<svg width="16" height="16" viewBox="0 0 16 16" fill="none" xmlns="http://www.w3.org/2000/svg">
<g id="dds2_paint-brush" clip-path="url(#clip0_7172_733)">
<path id="Vector" d="M16 2L13.39 0L6.44 9.3C4.81 9.63 4 10.42 2.69 12.94C2.22707 13.7264 1.6277 14.4239 0.92 15L0 15.8L1.21 15.93C2 16 3 16 4.15 16C4.82 16 5.37 16 5.67 16C6.19916 15.9616 6.71497 15.8159 7.18602 15.5718C7.65708 15.3276 8.07352 14.9902 8.41 14.58C8.73608 14.1023 8.9641 13.5646 9.08083 12.9982C9.19756 12.4317 9.20067 11.8477 9.09 11.28L16 2ZM5.62 14.9C5.08 14.9 3.56 14.9 2.52 14.9C2.95978 14.4706 3.33381 13.9786 3.63 13.44C4.83 11.13 5.41 10.61 6.56 10.36L8.06 11.51C8.21347 12.3356 8.04145 13.1885 7.58 13.89C7.34233 14.1863 7.04502 14.4293 6.70736 14.6033C6.3697 14.7773 5.99924 14.8784 5.62 14.9ZM8.4 10.41L7.47 9.7L13.59 1.5L14.52 2.21L8.4 10.41Z" fill="#0E0E0E"/>
</g>
<defs>
<clipPath id="clip0_7172_733">
<rect width="16" height="16" fill="white"/>
</clipPath>
</defs>
</svg>
