<svg width="16" height="16" viewBox="0 0 16 16" fill="none" xmlns="http://www.w3.org/2000/svg">
<g id="dds2_wrench-double" clip-path="url(#clip0_7172_304)">
<path id="Vector" d="M15.42 1.51012L13.76 3.18012C13.6312 3.29676 13.4637 3.36137 13.29 3.36137C13.1163 3.36137 12.9487 3.29676 12.82 3.18012C12.6966 3.05479 12.6275 2.88598 12.6275 2.71012C12.6275 2.53426 12.6966 2.36545 12.82 2.24012L14.48 0.570117L13.78 0.280117C13.1474 0.0165338 12.4528 -0.061525 11.7774 0.0550654C11.1021 0.171656 10.4739 0.478078 9.96626 0.938511C9.45862 1.39894 9.09255 1.99436 8.91081 2.65517C8.72908 3.31597 8.7392 4.01485 8.93999 4.67012L4.66999 8.94012C4.01473 8.73932 3.31585 8.7292 2.65505 8.91093C1.99424 9.09267 1.39882 9.45875 0.938389 9.96638C0.477956 10.474 0.171534 11.1022 0.0549433 11.7776C-0.0616471 12.4529 0.0164117 13.1475 0.279995 13.7801L0.579995 14.4801L2.23999 12.8201C2.36654 12.6991 2.53489 12.6315 2.70999 12.6315C2.8851 12.6315 3.05345 12.6991 3.17999 12.8201C3.30336 12.9454 3.3725 13.1143 3.3725 13.2901C3.3725 13.466 3.30336 13.6348 3.17999 13.7601L1.51999 15.4201L2.21999 15.7201C2.88772 16.0081 3.62685 16.0877 4.34059 15.9485C5.05432 15.8094 5.70939 15.4579 6.21999 14.9401C6.68281 14.4763 7.01028 13.8951 7.16711 13.2589C7.32395 12.6228 7.3042 11.9559 7.10999 11.3301L11.38 7.06012C12.0353 7.26091 12.7341 7.27103 13.3949 7.0893C14.0557 6.90757 14.6512 6.54149 15.1116 6.03386C15.572 5.52623 15.8785 4.89802 15.995 4.22267C16.1116 3.54732 16.0336 2.85274 15.77 2.22012L15.42 1.51012ZM14.22 5.44012C13.8593 5.80389 13.3981 6.05156 12.8956 6.15134C12.3932 6.25113 11.8723 6.19846 11.4 6.00012L11.08 5.87012L5.85999 11.0801L5.99999 11.4001C6.19958 11.8715 6.25386 12.3917 6.15587 12.8942C6.05788 13.3966 5.81209 13.8583 5.44999 14.2201C5.188 14.4786 4.87449 14.679 4.5299 14.8082C4.1853 14.9374 3.81734 14.9926 3.44999 14.9701L3.92999 14.4901C4.24692 14.1732 4.42497 13.7433 4.42497 13.2951C4.42497 12.8469 4.24692 12.4171 3.92999 12.1001C3.60812 11.7926 3.18012 11.6211 2.73499 11.6211C2.28987 11.6211 1.86186 11.7926 1.53999 12.1001L0.999995 12.5801C0.97625 12.2126 1.03083 11.8443 1.16013 11.4995C1.28942 11.1548 1.49048 10.8414 1.74999 10.5801C2.11087 10.2069 2.57632 9.95171 3.08506 9.84818C3.59379 9.74465 4.12195 9.79762 4.59999 10.0001L4.91999 10.1301L10.14 4.91012L9.99999 4.60012C9.82203 4.19089 9.75326 3.7425 9.80039 3.29874C9.84752 2.85499 10.0089 2.43104 10.2689 2.06832C10.5288 1.7056 10.8784 1.41651 11.2835 1.22928C11.6886 1.04206 12.1353 0.963096 12.58 1.00012L12.1 1.48012C11.7791 1.79705 11.5972 2.22848 11.5944 2.67951C11.5916 3.13053 11.7681 3.5642 12.085 3.88512C12.4019 4.20603 12.8334 4.3879 13.2844 4.39071C13.7354 4.39352 14.1691 4.21705 14.49 3.90012L15 3.42012C15.0228 3.79309 14.9649 4.1666 14.8303 4.51518C14.6957 4.86377 14.4875 5.17924 14.22 5.44012Z" fill="#0E0E0E"/>
</g>
<defs>
<clipPath id="clip0_7172_304">
<rect width="16" height="16" fill="white"/>
</clipPath>
</defs>
</svg>
