<svg width="16" height="16" viewBox="0 0 16 16" fill="none" xmlns="http://www.w3.org/2000/svg">
<g clip-path="url(#clip0_7172_693)">
<path d="M5.18997 14.93H3.26997V1.07H8.15997V6.43C8.50749 6.34514 8.86255 6.2949 9.21997 6.28V0H2.21997V16H6.26997C5.85968 15.6979 5.49582 15.3375 5.18997 14.93Z" fill="#0E0E0E"/>
<path d="M9.99997 7.37C9.81359 7.35546 9.62635 7.35546 9.43997 7.37C8.33286 7.36177 7.26466 7.77793 6.45491 8.53295C5.64515 9.28797 5.15537 10.3245 5.08623 11.4295C5.01709 12.5344 5.37384 13.6239 6.08316 14.474C6.79248 15.3241 7.80047 15.8702 8.89997 16C9.08968 16.0149 9.28026 16.0149 9.46997 16C10.5761 16.0055 11.6425 15.5875 12.4502 14.8317C13.2579 14.0759 13.7457 13.0396 13.8135 11.9355C13.8813 10.8314 13.5239 9.74319 12.8148 8.89422C12.1057 8.04525 11.0985 7.49987 9.99997 7.37ZM11.89 13.83C11.5823 14.1758 11.205 14.4527 10.7827 14.6422C10.3604 14.8318 9.90284 14.9299 9.43997 14.93H9.00997C8.14404 14.869 7.33781 14.4665 6.76863 13.8111C6.19946 13.1556 5.91397 12.3009 5.97497 11.435C6.03597 10.5691 6.43846 9.76283 7.0939 9.19366C7.74934 8.62449 8.60404 8.339 9.46997 8.4H9.89997C10.4848 8.48192 11.0364 8.72065 11.4965 9.09086C11.9565 9.46107 12.3077 9.94893 12.5128 10.5027C12.7179 11.0564 12.7692 11.6553 12.6613 12.2359C12.5534 12.8164 12.2903 13.3569 11.9 13.8L11.89 13.83Z" fill="#0E0E0E"/>
<path d="M11.7 11.13H9.99997V9.43H8.91997V11.13H7.22997V12.2H8.91997V13.9H9.99997V12.2H11.7V11.13Z" fill="#0E0E0E"/>
</g>
<defs>
<clipPath id="clip0_7172_693">
<rect width="16" height="16" fill="white"/>
</clipPath>
</defs>
</svg>
