<svg width="16" height="16" viewBox="0 0 16 16" fill="none" xmlns="http://www.w3.org/2000/svg">
<g id="dds2_award-certificate" clip-path="url(#clip0_7172_408)">
<g id="Vector">
<path d="M1.07 2.11999H12.78V2.70999H12.87C13.2075 2.7102 13.5436 2.75389 13.87 2.83999V1.04999H0V11H9.25V9.90999H1.07V2.11999Z" fill="#0E0E0E"/>
<path d="M12.87 3.76999C12.0416 3.77263 11.248 4.10357 10.6632 4.69027C10.0784 5.27697 9.75 6.07159 9.75 6.89999C9.74896 7.54145 9.94824 8.16723 10.32 8.68999V15L12.87 13.56L15.43 15V8.68999C15.8018 8.16723 16.001 7.54145 16 6.89999C16 6.06986 15.6702 5.27373 15.0832 4.68674C14.4963 4.09975 13.7001 3.76999 12.87 3.76999ZM14.36 13.12L12.87 12.28L11.39 13.12V9.63999C11.8489 9.89478 12.3651 10.0285 12.89 10.0285C13.4149 10.0285 13.9311 9.89478 14.39 9.63999L14.36 13.12ZM12.87 8.99999C12.4629 8.99788 12.0656 8.8746 11.7288 8.64585C11.392 8.4171 11.131 8.09326 10.9789 7.71558C10.8269 7.33791 10.7907 6.92352 10.8751 6.52523C10.9595 6.12694 11.1605 5.76278 11.4526 5.47919C11.7447 5.19559 12.1147 5.00539 12.5153 4.93283C12.9159 4.86028 13.329 4.90865 13.702 5.07178C14.0751 5.23492 14.391 5.50543 14.6097 5.84883C14.8284 6.19223 14.9399 6.59298 14.93 6.99999C14.9169 7.5367 14.6938 8.04687 14.3086 8.42085C13.9234 8.79482 13.4069 9.00277 12.87 8.99999Z" fill="#0E0E0E"/>
</g>
</g>
<defs>
<clipPath id="clip0_7172_408">
<rect width="16" height="16" fill="white"/>
</clipPath>
</defs>
</svg>
