<svg width="16" height="16" viewBox="0 0 16 16" fill="none" xmlns="http://www.w3.org/2000/svg">
<path d="M16 10.75V1.75H0V10.75H6.25V13.23H3.75V14.29H12.25V13.23H9.75V10.75H16ZM8.68 13.21H7.32V10.75H8.68V13.21ZM1.07 9.68V2.78H14.93V9.68H1.07Z" fill="#0E0E0E"/>
<path d="M6.77 6.19C6.92182 6.09969 7.05162 5.97672 7.15 5.83C7.27982 5.6569 7.35 5.44637 7.35 5.23C7.36322 5.04571 7.33606 4.86075 7.27043 4.68804C7.2048 4.51532 7.10227 4.35901 6.97 4.23C6.6908 3.99476 6.33496 3.87021 5.97 3.88C5.60211 3.87384 5.24528 4.00586 4.97 4.25C4.83805 4.36796 4.73312 4.51301 4.66236 4.67523C4.5916 4.83746 4.55669 5.01304 4.56 5.19V5.27H5.29V5.2C5.28439 5.10795 5.29843 5.01576 5.33119 4.92955C5.36394 4.84334 5.41467 4.76509 5.48 4.7C5.62583 4.57115 5.81552 4.50314 6.01 4.51C6.10504 4.49669 6.20187 4.50562 6.29286 4.53609C6.38386 4.56657 6.46654 4.61774 6.5344 4.6856C6.60226 4.75346 6.65343 4.83614 6.68391 4.92714C6.71438 5.01813 6.72331 5.11496 6.71 5.21C6.71592 5.30389 6.70005 5.39788 6.66362 5.48462C6.62719 5.57136 6.57119 5.6485 6.5 5.71C6.33902 5.8398 6.13666 5.90726 5.93 5.9H5.34V6.52H5.85C6.07777 6.50435 6.30297 6.57584 6.48 6.72C6.55298 6.78658 6.60982 6.86891 6.6462 6.96075C6.68259 7.05259 6.69757 7.15151 6.69 7.25C6.69736 7.3513 6.68433 7.45305 6.6517 7.54924C6.61907 7.64542 6.56748 7.73409 6.5 7.81C6.34138 7.94407 6.13733 8.01208 5.93 8C5.72563 8.01262 5.52449 7.94438 5.37 7.81C5.301 7.74509 5.24726 7.66568 5.21268 7.57748C5.17809 7.48928 5.16351 7.39451 5.17 7.3V7.22H4.44V7.3C4.42658 7.48795 4.45761 7.67643 4.53057 7.85016C4.60354 8.02389 4.7164 8.178 4.86 8.3C5.16062 8.54684 5.54131 8.67492 5.93 8.66C6.32576 8.66401 6.70826 8.51745 7 8.25C7.13841 8.1238 7.24767 7.96898 7.3202 7.79629C7.39274 7.6236 7.42679 7.43718 7.42 7.25C7.42883 6.9953 7.3513 6.74509 7.2 6.54C7.0893 6.39059 6.94091 6.27326 6.77 6.2V6.19Z" fill="#0E0E0E"/>
<path d="M10.59 4.22C10.259 4.05356 9.88983 3.97766 9.52 4H8.18V8.56H9.5C9.87709 8.56319 10.2488 8.47027 10.58 8.29C10.8941 8.11566 11.1484 7.85084 11.31 7.53C11.4824 7.17479 11.5714 6.78485 11.57 6.39V6.1C11.5625 5.71902 11.4739 5.34401 11.31 5C11.1496 4.68162 10.8993 4.41735 10.59 4.24V4.22ZM10.85 6.49C10.8211 6.85442 10.6854 7.20223 10.46 7.49C10.3341 7.62757 10.1788 7.73499 10.0057 7.80424C9.83256 7.87349 9.64603 7.90281 9.46 7.89H8.93V4.59H9.53C9.71674 4.56909 9.90575 4.59467 10.0802 4.66446C10.2547 4.73425 10.4092 4.84608 10.53 4.99C10.7577 5.31599 10.883 5.70244 10.89 6.1C10.8861 6.23079 10.8727 6.36113 10.85 6.49Z" fill="#0E0E0E"/>
</svg>
