<svg width="16" height="16" viewBox="0 0 16 16" fill="none" xmlns="http://www.w3.org/2000/svg">
<g clip-path="url(#clip0_7172_1243)">
<path d="M16 4.69V0H11.33V1.07H14.19L11.82 3.44C10.7419 2.542 9.38312 2.05025 7.98 2.05025C6.57688 2.05025 5.21813 2.542 4.14 3.44L1.79 1.07H4.69V0H0V4.69H1.09V1.88L3.38 4.19C2.47156 5.27107 1.97352 6.63791 1.97352 8.05C1.97352 9.46209 2.47156 10.8289 3.38 11.91L1.08 14.23V11.44H0V16H4.67V14.93H1.88L4.14 12.67C5.21738 13.5654 6.57411 14.0556 7.975 14.0556C9.37589 14.0556 10.7326 13.5654 11.81 12.67L14.05 14.93H11.31V16H16V11.34H14.91V14.28L12.56 11.92C13.4684 10.8389 13.9665 9.47209 13.9665 8.06C13.9665 6.64791 13.4684 5.28107 12.56 4.2L14.92 1.83V4.69H16ZM12.9 8.05C12.898 9.17729 12.5058 10.2691 11.79 11.14C11.3919 11.6471 10.8964 12.0695 10.3328 12.3824C9.76916 12.6954 9.14868 12.8926 8.50779 12.9624C7.8669 13.0323 7.2185 12.9734 6.60068 12.7893C5.98285 12.6051 5.40804 12.2994 4.91 11.89C4.63306 11.6647 4.38157 11.4099 4.16 11.13C3.45279 10.2656 3.06558 9.18362 3.06376 8.06678C3.06194 6.94994 3.44562 5.8667 4.15 5C4.37529 4.7201 4.6301 4.46529 4.91 4.24C5.77387 3.52628 6.85943 3.13584 7.98 3.13584C9.10057 3.13584 10.1861 3.52628 11.05 4.24C11.3299 4.46157 11.5847 4.71306 11.81 4.99C12.5038 5.86026 12.8874 6.93712 12.9 8.05Z" fill="#0E0E0E"/>
<path d="M8 5.79C7.55218 5.78604 7.11329 5.91521 6.73901 6.16112C6.36473 6.40703 6.07195 6.75859 5.89783 7.17119C5.7237 7.58378 5.67608 8.03881 5.76101 8.47852C5.84595 8.91822 6.0596 9.32278 6.37485 9.64085C6.69011 9.95893 7.09275 10.1762 7.53169 10.265C7.97062 10.3538 8.42605 10.3103 8.84018 10.1398C9.25431 9.96936 9.60846 9.67972 9.85769 9.30764C10.1069 8.93557 10.24 8.49783 10.24 8.05C10.2413 7.75453 10.1844 7.46168 10.0726 7.1882C9.9607 6.91471 9.79607 6.66594 9.58807 6.45607C9.38006 6.24621 9.13276 6.07938 8.86028 5.96509C8.5878 5.85081 8.29548 5.79131 8 5.79ZM8 9.24C7.76345 9.24597 7.5305 9.18128 7.3309 9.0542C7.1313 8.92712 6.97411 8.74342 6.87943 8.52656C6.78474 8.30971 6.75685 8.06956 6.79933 7.83678C6.8418 7.604 6.9527 7.38917 7.11787 7.21973C7.28304 7.05029 7.49497 6.93394 7.72659 6.88554C7.9582 6.83714 8.19899 6.85889 8.41819 6.94801C8.63739 7.03713 8.82504 7.18957 8.95718 7.38586C9.08931 7.58215 9.15992 7.81338 9.16 8.05C9.1601 8.36048 9.03885 8.6587 8.82213 8.88103C8.60541 9.10335 8.31038 9.23217 8 9.24Z" fill="#0E0E0E"/>
</g>
<defs>
<clipPath id="clip0_7172_1243">
<rect width="16" height="16" fill="white"/>
</clipPath>
</defs>
</svg>
