<svg width="16" height="16" viewBox="0 0 16 16" fill="none" xmlns="http://www.w3.org/2000/svg">
<g id="dds2_recycle-bin">
<g id="Vector">
<path d="M7.87 6.09C8.06469 5.77122 8.33633 5.50645 8.66 5.32H6.92C6.85954 5.34558 6.80998 5.39159 6.78 5.45L5.78 7.13L6.86 7.81L7.86 6.1L7.87 6.09Z" fill="#0E0E0E"/>
<path d="M8.38 6.07L8.19 6.34L8.93 7.73L8.31 8.17L10.11 8.22L10.76 6.44L10.12 6.89L9.58 5.94C9.5321 5.85373 9.46625 5.77874 9.38689 5.72009C9.30754 5.66143 9.21653 5.62048 9.12 5.6C8.97046 5.62165 8.8272 5.67473 8.69966 5.75574C8.57211 5.83675 8.46317 5.94385 8.38 6.07Z" fill="#0E0E0E"/>
<path d="M4.61 9.55C4.55699 9.63208 4.52317 9.72505 4.51105 9.82201C4.49893 9.91896 4.50883 10.0174 4.54 10.11C4.62903 10.2321 4.74457 10.3324 4.87794 10.4034C5.0113 10.4744 5.15902 10.5143 5.31 10.52H5.65L6.47 9.18L7.17 9.5L6.25 7.92L4.45 8.27L5.16 8.6L4.61 9.55Z" fill="#0E0E0E"/>
<path d="M10.83 8.34L9.7 8.93L9.95 9.36L10.56 10.42L10.69 10.65C10.7478 10.7494 10.798 10.853 10.84 10.96C10.9443 11.1882 10.9824 11.4412 10.95 11.69L11.82 10.18C11.832 10.1273 11.832 10.0727 11.82 10.02L10.83 8.34Z" fill="#0E0E0E"/>
<path d="M10.32 10.88H8.81L8.74 10.12L7.81 11.68L9 13.1L8.93 12.33H10C10.0985 12.3343 10.1967 12.3158 10.2869 12.2759C10.3771 12.236 10.4569 12.1758 10.52 12.1C10.5815 11.9632 10.6134 11.815 10.6134 11.665C10.6134 11.515 10.5815 11.3668 10.52 11.23C10.4595 11.1099 10.3927 10.9931 10.32 10.88Z" fill="#0E0E0E"/>
<path d="M5.07 10.85C4.82229 10.8339 4.58524 10.7433 4.39 10.59L5.26 12.1C5.30503 12.129 5.3566 12.1461 5.41 12.15H7.41V10.88H5.71C5.44 10.87 5.19 10.87 5.07 10.85Z" fill="#0E0E0E"/>
<path d="M15 1.88C15 0.09 9.16 0 8 0C6.84 0 1.05 0.09 1.05 1.88C1.04518 1.91985 1.04518 1.96014 1.05 2L4.15 16H11.85L15 1.88ZM8 1.06C11.28 1.06 13.25 1.56 13.79 1.88C13.25 2.21 11.28 2.71 8 2.71C4.72 2.71 2.75 2.21 2.21 1.88C2.75 1.56 4.72 1.06 8 1.06ZM11 14.94H5L2.39 3.1C4.22128 3.57502 6.10836 3.80039 8 3.77C9.89164 3.80039 11.7787 3.57502 13.61 3.1L11 14.94Z" fill="#0E0E0E"/>
</g>
</g>
</svg>
