<svg width="16" height="16" viewBox="0 0 16 16" fill="none" xmlns="http://www.w3.org/2000/svg">
<g id="dds2_windows-support" clip-path="url(#clip0_7172_574)">
<g id="Vector">
<path d="M14.84 10.5402V12.0002H10.55L9.49 13.0702H15.9V9.56016C15.5955 9.94168 15.2386 10.2783 14.84 10.5602V10.5402Z" fill="#0E0E0E"/>
<path d="M1.06 4.73016H7.39C7.51912 4.35857 7.69023 4.00294 7.9 3.67016H1.06V1.72016H10.37C10.9142 1.51708 11.4892 1.40885 12.07 1.40016C12.6541 1.4079 13.2326 1.51615 13.78 1.72016H14.84V2.24016C15.2386 2.52198 15.5955 2.85863 15.9 3.24016V0.660156H0V13.0702H2.12C2.17774 12.6912 2.31032 12.3274 2.51 12.0002H1.06V4.73016Z" fill="#0E0E0E"/>
<path d="M14.85 9.19016C15.4019 8.64045 15.7775 7.9388 15.9289 7.17471C16.0803 6.41063 16.0006 5.61876 15.7 4.90016L15.39 4.17016L13.6 6.00016C13.4525 6.13508 13.2599 6.2099 13.06 6.2099C12.8601 6.2099 12.6675 6.13508 12.52 6.00016C12.3805 5.8548 12.3018 5.66162 12.3 5.46016C12.2993 5.3601 12.3184 5.26089 12.3562 5.16822C12.3939 5.07555 12.4496 4.99125 12.52 4.92016L14.31 3.13016L13.58 2.83016C12.8949 2.5431 12.1422 2.45713 11.4101 2.58231C10.6779 2.70748 9.99651 3.03863 9.4457 3.53698C8.89489 4.03533 8.49743 4.68027 8.29984 5.39631C8.10225 6.11235 8.11271 6.86985 8.33 7.58016L3.68 12.2302C3.50887 12.3986 3.37296 12.5994 3.28019 12.8209C3.18742 13.0423 3.13965 13.28 3.13965 13.5202C3.13965 13.7603 3.18742 13.998 3.28019 14.2195C3.37296 14.4409 3.50887 14.6417 3.68 14.8102C4.02116 15.1503 4.48325 15.3413 4.965 15.3413C5.44675 15.3413 5.90884 15.1503 6.25 14.8102L10.9 10.1602C11.5869 10.3704 12.3183 10.3884 13.0147 10.212C13.7111 10.0357 14.3459 9.67193 14.85 9.16016V9.19016ZM5.5 14.0602C5.35252 14.1951 5.15988 14.2699 4.96 14.2699C4.76012 14.2699 4.56748 14.1951 4.42 14.0602C4.28049 13.9148 4.20179 13.7216 4.2 13.5202C4.20384 13.325 4.28261 13.1388 4.42 13.0002L9.56 7.84016L9.43 7.51016C9.24062 7.07442 9.16277 6.59837 9.2035 6.12501C9.24422 5.65165 9.40223 5.19589 9.66325 4.7989C9.92426 4.40192 10.2801 4.07621 10.6985 3.85121C11.117 3.6262 11.5849 3.50899 12.06 3.51016H12.35L11.77 4.08016C11.4293 4.42302 11.238 4.88677 11.238 5.37016C11.238 5.85354 11.4293 6.3173 11.77 6.66016C12.12 6.98704 12.5811 7.16885 13.06 7.16885C13.5389 7.16885 14 6.98704 14.35 6.66016L14.92 6.08016C14.966 6.50208 14.9161 6.92894 14.7741 7.32891C14.6321 7.72888 14.4017 8.09164 14.1 8.39016C13.7059 8.79354 13.2014 9.07142 12.6498 9.18885C12.0982 9.30629 11.5242 9.25803 11 9.05016L10.67 8.92016L5.5 14.0602Z" fill="#0E0E0E"/>
</g>
</g>
<defs>
<clipPath id="clip0_7172_574">
<rect width="16" height="16" fill="white"/>
</clipPath>
</defs>
</svg>
