<svg width="16" height="16" viewBox="0 0 16 16" fill="none" xmlns="http://www.w3.org/2000/svg">
<path d="M13.35 14.93H5.44V14.44H4.37V16H14.37V7.3L13.35 8.36V14.93Z" fill="#0E0E0E"/>
<path d="M12.71 2.61V3.67H13.35V5.07L14.41 6.14V2.61H12.71Z" fill="#0E0E0E"/>
<path d="M11.63 10.08L10.56 11.15V12.33H2.65V4H5.92V1.07H10.56V2.29L11.63 3.35V0H4.88L1.59 3.12V13.39H11.59V10.08H11.63ZM4.85 1.5V3H3.32L4.85 1.5Z" fill="#0E0E0E"/>
<path d="M9.51 9.32L10.2 10.01L13.49 6.72L10.2 3.43L9.51 4.11L11.63 6.23H7V7.23H11.58L10.52 8.23L9.51 9.32Z" fill="#0E0E0E"/>
</svg>
