<svg width="16" height="16" viewBox="0 0 16 16" fill="none" xmlns="http://www.w3.org/2000/svg">
<g id="dds2_reset" clip-path="url(#clip0_7172_602)">
<g id="Vector">
<path d="M8 0V1.07C9.37062 1.07 10.7105 1.47644 11.8501 2.23792C12.9897 2.99939 13.878 4.08171 14.4025 5.348C14.927 6.6143 15.0642 8.00769 14.7968 9.35198C14.5294 10.6963 13.8694 11.9311 12.9003 12.9003C11.9311 13.8694 10.6963 14.5294 9.35198 14.7968C8.00769 15.0642 6.6143 14.927 5.348 14.4025C4.08171 13.878 2.99939 12.9897 2.23792 11.8501C1.47644 10.7105 1.07 9.37062 1.07 8H0C0 9.58225 0.469192 11.129 1.34824 12.4446C2.22729 13.7602 3.47672 14.7855 4.93853 15.391C6.40034 15.9965 8.00887 16.155 9.56072 15.8463C11.1126 15.5376 12.538 14.7757 13.6569 13.6569C14.7757 12.538 15.5376 11.1126 15.8463 9.56072C16.155 8.00887 15.9965 6.40034 15.391 4.93853C14.7855 3.47672 13.7602 2.22729 12.4446 1.34824C11.129 0.469192 9.58225 0 8 0Z" fill="#0E0E0E"/>
<path d="M1.08 1.91L8.46 9.29L9.22 8.54L1.76 1.07H5V0H0V5H1.08V1.91Z" fill="#0E0E0E"/>
</g>
</g>
<defs>
<clipPath id="clip0_7172_602">
<rect width="16" height="16" fill="white"/>
</clipPath>
</defs>
</svg>
