<svg width="16" height="16" viewBox="0 0 16 16" fill="none" xmlns="http://www.w3.org/2000/svg">
<path d="M1.84 10.23L2.76 9.60999C2.18823 9.14498 1.68345 8.60319 1.26 8C2.39405 6.39591 4.08313 5.26986 6 4.84C5.46629 5.17568 5.02721 5.64218 4.72443 6.19522C4.42166 6.74827 4.26523 7.36951 4.27 8C4.27629 8.18412 4.29299 8.36775 4.32 8.55L5.32 7.86C5.35597 7.17468 5.65445 6.52953 6.15347 6.05843C6.65249 5.58734 7.31375 5.32648 8 5.33C8.29388 5.33195 8.58508 5.38613 8.86 5.49L11 4C10.0138 3.66992 8.97997 3.50438 7.94 3.51C6.33653 3.48312 4.75499 3.88518 3.35904 4.67458C1.96308 5.46399 0.803406 6.61205 0 8C0.483203 8.83593 1.10546 9.58332 1.84 10.21V10.23Z" fill="#0E0E0E"/>
<path d="M14.1 5.81L13.19 6.43C13.767 6.88355 14.2815 7.41147 14.72 8C13.5606 9.56071 11.8902 10.6649 10 11.12C10.5267 10.7865 10.9611 10.3261 11.2634 9.78091C11.5657 9.23574 11.7261 8.62335 11.73 8C11.7237 7.81587 11.707 7.63224 11.68 7.45L10.68 8.14C10.644 8.82531 10.3456 9.47046 9.84653 9.94156C9.34751 10.4127 8.68625 10.6735 8 10.67C7.7066 10.6632 7.4162 10.6092 7.14 10.51L6.14 11.18H6.03H6.11L5 12C5.96959 12.3101 6.98203 12.4654 8 12.46C9.60516 12.4711 11.1858 12.0661 12.5878 11.2844C13.9899 10.5028 15.1655 9.37121 16 8C15.4894 7.16614 14.8478 6.41992 14.1 5.79V5.81Z" fill="#0E0E0E"/>
<path d="M16 3.22L15.42 2.37L0 12.78L0.58 13.63L5.34 10.41L16 3.22Z" fill="#0E0E0E"/>
</svg>
