<svg width="16" height="16" viewBox="0 0 16 16" fill="none" xmlns="http://www.w3.org/2000/svg">
<g clip-path="url(#clip0_7172_151)">
<path d="M8.62 -4.60306e-06C6.66617 0.00264108 4.79312 0.779971 3.41155 2.16154C2.02998 3.54311 1.25265 5.41616 1.25 7.37C1.24914 8.09458 1.35356 8.81544 1.56 9.51L2.44 8.64C2.35567 8.22187 2.31213 7.79654 2.31 7.37C2.30154 6.04585 2.7066 4.75209 3.46867 3.66918C4.23073 2.58627 5.3118 1.76823 6.56106 1.32917C7.81033 0.89011 9.16548 0.851928 10.4375 1.21995C11.7095 1.58797 12.8349 2.34385 13.6567 3.38213C14.4786 4.42041 14.9558 5.68931 15.0219 7.01183C15.0881 8.33435 14.7397 9.64453 14.0255 10.7596C13.3114 11.8747 12.2669 12.739 11.038 13.2321C9.80903 13.7251 8.45682 13.8223 7.17 13.51L6.3 14.37C7.04703 14.624 7.83098 14.7524 8.62 14.75C9.61135 14.7865 10.5999 14.6228 11.5265 14.2686C12.4532 13.9144 13.2989 13.377 14.0131 12.6886C14.7274 12.0002 15.2955 11.1748 15.6836 10.2618C16.0716 9.34885 16.2716 8.36701 16.2716 7.375C16.2716 6.38298 16.0716 5.40114 15.6836 4.48816C15.2955 3.57519 14.7274 2.74982 14.0131 2.06138C13.2989 1.37295 12.4532 0.835582 11.5265 0.481398C10.5999 0.127214 9.61135 -0.0365152 8.62 -4.60306e-06Z" fill="#0E0E0E"/>
<path d="M8.08 2.05V8.42H12.64V7.35H9.14V2.05H8.08Z" fill="#0E0E0E"/>
<path d="M3.17 9.42L2.48 10.1L4.59 12.21H0V13.21H4.62L2.48 15.32L3.17 16L6.46 12.71L3.17 9.42Z" fill="#0E0E0E"/>
</g>
<defs>
<clipPath id="clip0_7172_151">
<rect width="16" height="16" fill="white"/>
</clipPath>
</defs>
</svg>
