<svg width="16" height="16" viewBox="0 0 16 16" fill="none" xmlns="http://www.w3.org/2000/svg">
<g id="dds2_airplane" clip-path="url(#clip0_7172_1077)">
<path id="Vector" d="M16 1.8C16.0076 1.32724 15.8279 0.870682 15.5 0.529999C15.1554 0.188634 14.69 -0.00287628 14.205 -0.00287628C13.72 -0.00287628 13.2546 0.188634 12.91 0.529999L9.8 3.64L1.94 1.86L0 3.8L6.34 7.12L3.73 9.71L1.6 9.42L0 11L3.2 12.79L5 16L6.58 14.4L6.28 12.27L8.9 9.65L12.22 16L14.16 14.06L12.36 6.2L15.47 3.08C15.8085 2.73988 15.999 2.27985 16 1.8ZM14.72 2.33L11.19 5.86L13 13.72L12.5 14.22L9.18 7.87L5.18 11.87L5.45 14L5.23 14.22L4 12L1.76 10.77L2 10.55L4.12 10.84L8.12 6.84L1.78 3.53L2.28 3.03L10.14 4.8L13.66 1.28C13.8069 1.14 14.0021 1.0619 14.205 1.0619C14.4079 1.0619 14.6031 1.14 14.75 1.28C14.8767 1.41915 14.9448 1.60186 14.94 1.79C14.9326 1.99031 14.8547 2.18157 14.72 2.33Z" fill="#0E0E0E"/>
</g>
<defs>
<clipPath id="clip0_7172_1077">
<rect width="16" height="16" fill="white"/>
</clipPath>
</defs>
</svg>
