<svg width="16" height="16" viewBox="0 0 16 16" fill="none" xmlns="http://www.w3.org/2000/svg">
<path d="M0 5.52002V10.52H16V5.52002H0ZM14.93 9.41002H1.07V6.59002H14.93V9.41002Z" fill="#0E0E0E"/>
<path d="M3.58 8.69002C3.71647 8.69002 3.84987 8.64955 3.96334 8.57373C4.07681 8.49792 4.16525 8.39015 4.21748 8.26407C4.2697 8.13799 4.28337 7.99925 4.25674 7.86541C4.23012 7.73156 4.1644 7.60861 4.0679 7.51212C3.97141 7.41562 3.84846 7.3499 3.71461 7.32328C3.58077 7.29665 3.44203 7.31032 3.31595 7.36254C3.18987 7.41477 3.0821 7.50321 3.00629 7.61668C2.93047 7.73015 2.89 7.86355 2.89 8.00002C2.89 8.18302 2.9627 8.35852 3.0921 8.48792C3.2215 8.61732 3.397 8.69002 3.58 8.69002Z" fill="#0E0E0E"/>
</svg>
