<svg width="16" height="16" viewBox="0 0 16 16" fill="none" xmlns="http://www.w3.org/2000/svg">
<g clip-path="url(#clip0_7172_552)">
<path d="M12.21 6.99998C12.629 7.32508 12.9877 7.72107 13.27 8.16998V1.88998H11.36V2.99998H12.21V6.99998Z" fill="#0E0E0E"/>
<path d="M2.00001 14.92V2.99998H2.85001V1.88998H0.920013V16H13L11.93 14.93L2.00001 14.92Z" fill="#0E0E0E"/>
<path d="M10.35 1.28998H8.84001C8.72283 0.919035 8.49049 0.595083 8.17671 0.36514C7.86292 0.135198 7.48403 0.0112305 7.09501 0.0112305C6.706 0.0112305 6.3271 0.135198 6.01332 0.36514C5.69954 0.595083 5.4672 0.919035 5.35001 1.28998H3.84001V4.57998H10.35V1.28998ZM4.91001 3.51998V2.34998H6.34001V1.81998C6.36137 1.63472 6.4501 1.46377 6.58932 1.33968C6.72854 1.21559 6.90852 1.14702 7.09501 1.14702C7.28151 1.14702 7.46149 1.21559 7.60071 1.33968C7.73993 1.46377 7.82866 1.63472 7.85001 1.81998V2.34998H9.29001V3.51998H4.91001Z" fill="#0E0E0E"/>
<path d="M13.27 13.44L12.39 12.55C12.8274 11.948 13.0653 11.2241 13.07 10.48C13.072 9.78139 12.8666 9.09792 12.48 8.5161C12.0933 7.93428 11.5427 7.48028 10.8978 7.21157C10.253 6.94285 9.54291 6.87152 8.8575 7.0066C8.17208 7.14167 7.54216 7.47708 7.04748 7.97036C6.5528 8.46364 6.21561 9.0926 6.07859 9.77763C5.94157 10.4627 6.01089 11.1729 6.27777 11.8185C6.54465 12.4641 6.99709 13.016 7.57782 13.4044C8.15854 13.7927 8.84142 14 9.54001 14C10.2954 13.9971 11.0292 13.7478 11.63 13.29L14.33 15.99L15.08 15.24L13.27 13.43V13.44ZM9.54001 12.94C9.05065 12.942 8.57172 12.7985 8.164 12.5279C7.75629 12.2572 7.43815 11.8716 7.24997 11.4198C7.06178 10.9681 7.01202 10.4706 7.10701 9.99058C7.20199 9.51051 7.43744 9.06949 7.78348 8.72345C8.12952 8.37741 8.57054 8.14196 9.05061 8.04698C9.53067 7.95199 10.0281 8.00175 10.4799 8.18993C10.9316 8.37812 11.3173 8.69626 11.5879 9.10397C11.8586 9.51169 12.002 9.99062 12 10.48C12 10.803 11.9364 11.1229 11.8128 11.4214C11.6891 11.7198 11.5079 11.991 11.2795 12.2195C11.0511 12.4479 10.7799 12.6291 10.4814 12.7527C10.183 12.8764 9.86306 12.94 9.54001 12.94Z" fill="#0E0E0E"/>
</g>
<defs>
<clipPath id="clip0_7172_552">
<rect width="16" height="16" fill="white"/>
</clipPath>
</defs>
</svg>
