<svg width="16" height="16" viewBox="0 0 16 16" fill="none" xmlns="http://www.w3.org/2000/svg">
<g id="dds2_user-add" clip-path="url(#clip0_7172_1158)">
<g id="Vector">
<path d="M1.17 10.67C1.4421 9.42177 2.11668 8.29748 3.09 7.46999C3.83281 7.98012 4.69605 8.28725 5.59414 8.36092C6.49224 8.43459 7.39399 8.27225 8.21 7.88999C8.68488 7.45549 9.22472 7.09784 9.81 6.82999C9.6 6.71999 9.39 6.50999 9.17 6.39999L8.85 6.18999L8.53 6.39999C7.79805 6.96923 6.89725 7.27829 5.97 7.27829C5.04275 7.27829 4.14195 6.96923 3.41 6.39999L3.2 6.18999L2.77 6.39999C0.43 7.88999 0.11 11 0 11.09V11.73H6.51C6.49356 11.3737 6.52722 11.0169 6.61 10.67H1.17Z" fill="#0E0E0E"/>
<path d="M11.73 7.46999C10.885 7.46999 10.0591 7.72067 9.35668 8.19031C8.65427 8.65995 8.10698 9.32742 7.78409 10.1082C7.4612 10.8891 7.37722 11.7481 7.54279 12.5767C7.70836 13.4053 8.11604 14.1661 8.71421 14.7629C9.31238 15.3596 10.0742 15.7655 10.9031 15.9292C11.7321 16.0928 12.5909 16.0068 13.371 15.6821C14.1511 15.3574 14.8173 14.8085 15.2852 14.105C15.7532 13.4015 16.002 12.5749 16 11.73C15.9947 10.6001 15.5428 9.51806 14.7429 8.72001C13.943 7.92196 12.8599 7.47261 11.73 7.46999ZM11.73 14.93C11.0971 14.93 10.4784 14.7423 9.95218 14.3907C9.42594 14.0391 9.01579 13.5393 8.77359 12.9546C8.53139 12.3699 8.46801 11.7264 8.59149 11.1057C8.71496 10.485 9.01973 9.91477 9.46726 9.46725C9.91479 9.01972 10.485 8.71495 11.1057 8.59147C11.7264 8.468 12.3699 8.53137 12.9546 8.77357C13.5393 9.01577 14.0391 9.42592 14.3907 9.95216C14.7423 10.4784 14.93 11.0971 14.93 11.73C14.9396 12.1528 14.8633 12.5732 14.7059 12.9658C14.5485 13.3584 14.3131 13.715 14.014 14.014C13.715 14.3131 13.3584 14.5485 12.9658 14.7059C12.5732 14.8633 12.1528 14.9396 11.73 14.93Z" fill="#0E0E0E"/>
<path d="M12.27 9.48999H11.2V11.2H9.49V12.27H11.2V14H12.27V12.3H14V11.2H12.3L12.27 9.48999Z" fill="#0E0E0E"/>
<path d="M6 6.73999C6.66609 6.73801 7.31666 6.53868 7.86954 6.16718C8.42242 5.79568 8.8528 5.26867 9.10633 4.65272C9.35987 4.03676 9.42518 3.35948 9.29402 2.70642C9.16286 2.05337 8.84112 1.45383 8.36942 0.983524C7.89772 0.513221 7.29723 0.193251 6.64378 0.0640274C5.99034 -0.0651964 5.31326 0.00212228 4.69806 0.257481C4.08285 0.512839 3.55712 0.944784 3.18726 1.49876C2.8174 2.05273 2.62 2.70389 2.62 3.36999C2.62527 4.26387 2.98338 5.1195 3.6164 5.75064C4.24942 6.38179 5.1061 6.73737 6 6.73999ZM6 1.06999C6.45447 1.07196 6.89816 1.20853 7.27508 1.46246C7.65199 1.71638 7.94523 2.07628 8.11778 2.49672C8.29033 2.91716 8.33445 3.3793 8.24458 3.82479C8.15471 4.27029 7.93487 4.67917 7.61281 4.99983C7.29076 5.3205 6.88092 5.53856 6.43504 5.6265C5.98916 5.71444 5.52722 5.66831 5.10753 5.49394C4.68785 5.31956 4.32922 5.02477 4.07694 4.64675C3.82465 4.26874 3.69 3.82446 3.69 3.36999C3.69264 2.75907 3.93719 2.17408 4.37011 1.74303C4.80303 1.31198 5.38908 1.06998 6 1.06999Z" fill="#0E0E0E"/>
</g>
</g>
<defs>
<clipPath id="clip0_7172_1158">
<rect width="16" height="16" fill="white"/>
</clipPath>
</defs>
</svg>
