<svg width="16" height="16" viewBox="0 0 16 16" fill="none" xmlns="http://www.w3.org/2000/svg">
<g id="dds2_gear-wrench" clip-path="url(#clip0_7172_715)">
<g id="Vector">
<path d="M9.15 12.8101L8.86 12.93L8.28 14.8H7.38L6.75 13L5.18 12.29L3.38 13.22L2.77 12.63L3.66 10.8101L3 9.21005L1.1 8.61005V7.77005L2.94 7.13005L3.72 5.58005L2.72 3.76005L3.32 3.18005L5.17 4.10005L6.75 3.48005L7.33 1.63005H7.63C7.83846 1.24661 8.09375 0.890549 8.39 0.570049H6.54L5.88 2.67005L5.22 2.93005L3.11 1.88005L1.41 3.57005L2.49 5.57005L2.15 6.24005L0 7.00005V9.40005L2.19 10.08L2.48 10.74L1.48 12.8101L3.18 14.49L5.18 13.43L5.86 13.74L6.59 15.86H9.07L9.31 15.0601C9.20349 14.7578 9.1461 14.4405 9.14 14.12V12.8101H9.15Z" fill="#0E0E0E"/>
<path d="M7.65 6.48005C7.46273 6.1661 7.31494 5.83022 7.21 5.48005C6.80135 5.54206 6.41167 5.69442 6.06933 5.92603C5.72699 6.15764 5.4406 6.46267 5.23101 6.81892C5.02142 7.17517 4.89391 7.57367 4.85775 7.98541C4.8216 8.39716 4.87771 8.81178 5.02201 9.1991C5.16631 9.58643 5.39515 9.9367 5.6919 10.2244C5.98864 10.5121 6.3458 10.7301 6.73739 10.8624C7.12898 10.9946 7.54514 11.0379 7.95557 10.9891C8.36601 10.9403 8.76038 10.8005 9.11 10.58V9.07005C8.95889 9.3338 8.74096 9.55308 8.47815 9.70581C8.21534 9.85854 7.91692 9.93933 7.61295 9.94004C7.30898 9.94075 7.01019 9.86136 6.74667 9.70987C6.48314 9.55837 6.26418 9.34011 6.11185 9.07707C5.95951 8.81403 5.87916 8.51549 5.8789 8.21152C5.87864 7.90755 5.95848 7.60888 6.11037 7.34558C6.26226 7.08228 6.48084 6.86365 6.74411 6.7117C7.00738 6.55976 7.30603 6.47986 7.61 6.48005H7.65Z" fill="#0E0E0E"/>
<path d="M13.55 0.350049L12.81 0.0500488V2.59005C12.8099 2.7681 12.7465 2.94032 12.6311 3.0759C12.5157 3.21147 12.3558 3.30156 12.18 3.33005H11.93C11.7506 3.30591 11.586 3.21771 11.4665 3.0817C11.347 2.94569 11.2808 2.77107 11.28 2.59005V0.0500488L10.54 0.350049C9.62245 0.739079 8.87901 1.4505 8.45 2.35005C8.21394 2.86816 8.0912 3.4307 8.09 4.00005C8.09553 4.72026 8.29542 5.42562 8.66857 6.04166C9.04171 6.6577 9.57426 7.16156 10.21 7.50005V14.12C10.2442 14.5833 10.4524 15.0165 10.7928 15.3326C11.1331 15.6488 11.5805 15.8245 12.045 15.8245C12.5095 15.8245 12.9569 15.6488 13.2972 15.3326C13.6376 15.0165 13.8458 14.5833 13.88 14.12V7.50005C14.2478 7.31619 14.5851 7.07671 14.88 6.79005C15.3399 6.32846 15.6782 5.76002 15.8645 5.13562C16.0508 4.51123 16.0793 3.85038 15.9475 3.21225C15.8157 2.57412 15.5277 1.97864 15.1093 1.47913C14.6909 0.979621 14.1551 0.59168 13.55 0.350049ZM13.66 6.35005C13.4971 6.4643 13.3228 6.56148 13.14 6.64005L12.81 6.78005V14.09C12.7885 14.2779 12.6986 14.4512 12.5576 14.5771C12.4165 14.7029 12.234 14.7724 12.045 14.7724C11.856 14.7724 11.6735 14.7029 11.5324 14.5771C11.3914 14.4512 11.3015 14.2779 11.28 14.09V6.80005L11 6.67005C10.4607 6.46121 9.99671 6.09483 9.66853 5.61861C9.34035 5.14239 9.16315 4.57839 9.16 4.00005C9.14966 3.87693 9.14966 3.75317 9.16 3.63005C9.21174 3.21067 9.35513 2.80781 9.58 2.45005C9.74375 2.19679 9.94237 1.96787 10.17 1.77005V2.58005C10.1646 2.6733 10.1646 2.76679 10.17 2.86005C10.2346 3.2417 10.4204 3.59237 10.7 3.86005C10.8678 4.02856 11.0673 4.16216 11.287 4.25313C11.5067 4.3441 11.7422 4.39063 11.98 4.39005C12.1129 4.40534 12.2471 4.40534 12.38 4.39005C12.6509 4.32696 12.9045 4.20454 13.1224 4.03162C13.3402 3.85869 13.517 3.63957 13.64 3.39005C13.7472 3.14721 13.805 2.88545 13.81 2.62005V1.78005C14.1558 2.06396 14.4304 2.4248 14.612 2.83374C14.7935 3.24268 14.8769 3.6884 14.8556 4.13531C14.8342 4.58223 14.7086 5.01795 14.4889 5.4077C14.2691 5.79745 13.9613 6.13043 13.59 6.38005L13.66 6.35005Z" fill="#0E0E0E"/>
</g>
</g>
<defs>
<clipPath id="clip0_7172_715">
<rect width="16" height="16" fill="white"/>
</clipPath>
</defs>
</svg>
