<svg width="16" height="16" viewBox="0 0 16 16" fill="none" xmlns="http://www.w3.org/2000/svg">
<g id="dds2_redo-move" clip-path="url(#clip0_7172_1285)">
<path id="Vector" d="M7.61997 7.35H15V0H13.9V5.42C13.2662 4.38521 12.3725 3.5344 11.3078 2.95221C10.2431 2.37001 9.04457 2.07671 7.83136 2.1015C6.61815 2.12629 5.43257 2.46829 4.39256 3.09349C3.35255 3.71868 2.49435 4.60528 1.90334 5.66509C1.31233 6.72491 1.00911 7.92099 1.02383 9.13436C1.03855 10.3477 1.3707 11.5361 1.98725 12.5813C2.6038 13.6264 3.48325 14.492 4.53812 15.0917C5.59299 15.6915 6.78652 16.0047 7.99997 16V14.93C6.95845 14.9347 5.93437 14.6627 5.03247 14.1418C4.13057 13.6209 3.38322 12.8697 2.86685 11.9652C2.35049 11.0607 2.08364 10.0353 2.09361 8.9938C2.10357 7.95232 2.38999 6.93218 2.92357 6.03771C3.45715 5.14325 4.21873 4.40655 5.13044 3.90299C6.04214 3.39943 7.07124 3.14706 8.11247 3.17171C9.15371 3.19635 10.1697 3.49712 11.0566 4.04326C11.9434 4.58939 12.6693 5.36129 13.16 6.28H7.61997V7.35Z" fill="#0E0E0E"/>
</g>
<defs>
<clipPath id="clip0_7172_1285">
<rect width="16" height="16" fill="white"/>
</clipPath>
</defs>
</svg>
