<svg width="16" height="16" viewBox="0 0 16 16" fill="none" xmlns="http://www.w3.org/2000/svg">
<g id="dds2_paper-clip" clip-path="url(#clip0_7172_464)">
<path id="Vector" d="M15.07 2.0001L14.69 1.6201C14.3992 1.32895 14.0528 1.09925 13.6714 0.944637C13.29 0.790027 12.8815 0.713669 12.47 0.720102C11.64 0.728803 10.8465 1.06271 10.26 1.6501L4.42999 7.5301C3.99274 7.97175 3.74824 8.56862 3.74999 9.1901C3.75525 9.80551 4.00273 10.3941 4.43884 10.8283C4.87495 11.2625 5.46457 11.5075 6.07999 11.5101H6.19999C6.78197 11.4825 7.33204 11.2361 7.73999 10.8201L12.07 6.4601L11.32 5.7101L6.99999 10.0701C6.88249 10.1897 6.74246 10.2849 6.58799 10.3501C6.43352 10.4153 6.26766 10.4493 6.09999 10.4501H5.99999C5.68082 10.4354 5.37823 10.3037 5.14999 10.0801C5.03147 9.9621 4.93742 9.82185 4.87325 9.6674C4.80907 9.51295 4.77604 9.34735 4.77604 9.1801C4.77604 9.01285 4.80907 8.84725 4.87325 8.6928C4.93742 8.53836 5.03147 8.3981 5.14999 8.2801L11 2.4001C11.1923 2.20602 11.4213 2.05213 11.6737 1.94741C11.9261 1.84268 12.1968 1.78921 12.47 1.7901C13.0186 1.79522 13.5445 2.00987 13.94 2.3901L14.32 2.7601C14.5141 2.95243 14.668 3.18144 14.7727 3.43381C14.8774 3.68618 14.9309 3.95687 14.93 4.2301C14.9311 4.77995 14.7156 5.3081 14.33 5.7001L6.80999 13.2901C6.21986 13.8763 5.42181 14.2054 4.58999 14.2054C3.75817 14.2054 2.96012 13.8763 2.36999 13.2901L1.99999 12.9301C1.70434 12.6411 1.4697 12.2957 1.30995 11.9144C1.1502 11.533 1.06861 11.1235 1.06999 10.7101C1.07235 9.87292 1.40683 9.07089 1.99999 8.4801L7.99999 2.4101L7.24999 1.6601L1.24999 7.7301C0.461637 8.51947 0.0188293 9.58948 0.0188293 10.7051C0.0188293 11.8207 0.461637 12.8907 1.24999 13.6801L1.62999 14.0601C2.02105 14.4592 2.48781 14.7763 3.00294 14.9928C3.51808 15.2092 4.07123 15.3207 4.62999 15.3207C5.18876 15.3207 5.74191 15.2092 6.25704 14.9928C6.77217 14.7763 7.23894 14.4592 7.62999 14.0601L15.15 6.4701C15.434 6.17028 15.6554 5.8169 15.8013 5.4306C15.9472 5.04429 16.0148 4.63279 16 4.2201C16.0025 3.8065 15.9214 3.39665 15.7616 3.01516C15.6018 2.63367 15.3666 2.28841 15.07 2.0001Z" fill="#0E0E0E"/>
</g>
<defs>
<clipPath id="clip0_7172_464">
<rect width="16" height="16" fill="white"/>
</clipPath>
</defs>
</svg>
