<svg width="16" height="16" viewBox="0 0 16 16" fill="none" xmlns="http://www.w3.org/2000/svg">
<g id="dds2_location">
<path id="Vector" d="M7.99998 1.07C8.7493 1.06885 9.48567 1.26537 10.1348 1.63973C10.7839 2.01408 11.3228 2.55302 11.697 3.20218C12.0713 3.85133 12.2677 4.58772 12.2665 5.33703C12.2653 6.08635 12.0664 6.82209 11.69 7.47L7.99998 13.87L4.30998 7.47C3.93356 6.82209 3.7347 6.08635 3.73346 5.33703C3.73222 4.58772 3.92865 3.85133 4.30293 3.20218C4.67721 2.55302 5.21609 2.01408 5.86519 1.63973C6.5143 1.26537 7.25066 1.06885 7.99998 1.07ZM7.99998 0C6.58638 0 5.23067 0.561552 4.2311 1.56112C3.23154 2.56069 2.66998 3.9164 2.66998 5.33C2.67158 6.26645 2.91622 7.18645 3.37998 8L7.99998 16L12.62 8C13.0837 7.18645 13.3284 6.26645 13.33 5.33C13.33 4.63005 13.1921 3.93696 12.9243 3.2903C12.6564 2.64363 12.2638 2.05606 11.7689 1.56112C11.2739 1.06618 10.6864 0.67358 10.0397 0.405722C9.39302 0.137865 8.69993 0 7.99998 0V0Z" fill="#0E0E0E"/>
<path id="Vector_2" d="M8 4.43988C8.17603 4.43988 8.3481 4.49208 8.49446 4.58987C8.64082 4.68767 8.75489 4.82667 8.82225 4.98929C8.88962 5.15192 8.90724 5.33087 8.8729 5.50351C8.83856 5.67616 8.75379 5.83474 8.62933 5.95921C8.50486 6.08368 8.34628 6.16844 8.17363 6.20278C8.00099 6.23712 7.82204 6.2195 7.65941 6.15214C7.49679 6.08477 7.35779 5.9707 7.25999 5.82434C7.1622 5.67798 7.11 5.50591 7.11 5.32988C7.11 5.09384 7.20377 4.86747 7.37068 4.70056C7.53758 4.53365 7.76396 4.43988 8 4.43988ZM8 3.37988C7.60444 3.37988 7.21776 3.49718 6.88886 3.71694C6.55996 3.93671 6.30362 4.24906 6.15224 4.61452C6.00087 4.97997 5.96126 5.3821 6.03843 5.77006C6.1156 6.15803 6.30608 6.51439 6.58579 6.7941C6.86549 7.0738 7.22186 7.26428 7.60982 7.34145C7.99778 7.41862 8.39992 7.37902 8.76537 7.22764C9.13082 7.07627 9.44318 6.81992 9.66294 6.49102C9.8827 6.16212 10 5.77545 10 5.37988C10 4.84945 9.78929 4.34074 9.41421 3.96567C9.03914 3.5906 8.53043 3.37988 8 3.37988Z" fill="#0E0E0E"/>
</g>
</svg>
