<svg width="16" height="16" viewBox="0 0 16 16" fill="none" xmlns="http://www.w3.org/2000/svg">
<g id="dds2_user-remove" clip-path="url(#clip0_7172_614)">
<g id="Vector">
<path d="M6 6.73022C6.66609 6.72824 7.31666 6.52892 7.86954 6.15742C8.42242 5.78592 8.8528 5.25891 9.10633 4.64295C9.35987 4.02699 9.42518 3.34971 9.29402 2.69666C9.16286 2.0436 8.84112 1.44406 8.36942 0.973758C7.89772 0.503455 7.29723 0.183486 6.64378 0.0542618C5.99034 -0.074962 5.31326 -0.00764337 4.69806 0.247715C4.08285 0.503074 3.55712 0.935018 3.18726 1.48899C2.8174 2.04297 2.62 2.69412 2.62 3.36022C2.62 3.80362 2.7075 4.24266 2.87748 4.65218C3.04746 5.0617 3.29659 5.43365 3.61058 5.74671C3.92458 6.05978 4.29726 6.3078 4.70729 6.47657C5.11731 6.64534 5.5566 6.73154 6 6.73022ZM6 1.07022C6.45445 1.07418 6.89754 1.21268 7.27334 1.46824C7.64915 1.7238 7.94082 2.08497 8.11154 2.50615C8.28225 2.92733 8.32437 3.38965 8.23256 3.83475C8.14076 4.27985 7.91915 4.68777 7.59571 5.00703C7.27227 5.32629 6.86149 5.54257 6.41524 5.62857C5.96898 5.71458 5.50725 5.66645 5.08833 5.49027C4.6694 5.31408 4.31206 5.01774 4.06141 4.63864C3.81076 4.25954 3.67804 3.81468 3.68 3.36022C3.68131 3.05733 3.74242 2.75769 3.85985 2.47848C3.97727 2.19928 4.14869 1.94602 4.36425 1.73324C4.57982 1.52046 4.83529 1.35236 5.11599 1.23858C5.3967 1.1248 5.69712 1.06758 6 1.07022Z" fill="#0E0E0E"/>
<path d="M3.11 7.47022C3.84589 7.97098 4.69961 8.27124 5.58694 8.34139C6.47428 8.41153 7.36457 8.24914 8.17 7.87022C8.6387 7.44318 9.18075 7.10439 9.77 6.87022C9.57619 6.69125 9.36891 6.52743 9.15 6.38022L8.82 6.17022L8.52 6.42022C7.80112 6.993 6.90916 7.30489 5.99 7.30489C5.07084 7.30489 4.17888 6.993 3.46 6.42022L3.16 6.17022L2.83 6.38022C2.07269 6.94286 1.43693 7.65278 0.960921 8.46733C0.484908 9.28188 0.178464 10.1842 0.06 11.1202L0 11.7102H6.46C6.45929 11.3535 6.49956 10.9978 6.58 10.6502H1.23C1.4947 9.41419 2.15463 8.29793 3.11 7.47022Z" fill="#0E0E0E"/>
<path d="M11.76 7.52022C10.9214 7.52022 10.1016 7.76889 9.40438 8.23479C8.70712 8.70069 8.16367 9.36289 7.84275 10.1376C7.52183 10.9124 7.43787 11.7649 7.60147 12.5874C7.76507 13.4099 8.16889 14.1654 8.76187 14.7584C9.35484 15.3513 10.1103 15.7551 10.9328 15.9187C11.7553 16.0824 12.6078 15.9984 13.3826 15.6775C14.1573 15.3566 14.8195 14.8131 15.2854 14.1158C15.7513 13.4186 16 12.5988 16 11.7602C16 10.6357 15.5533 9.55724 14.7581 8.76209C13.963 7.96693 12.8845 7.52022 11.76 7.52022ZM11.76 14.9302C11.1302 14.9322 10.514 14.7471 9.98953 14.3985C9.46506 14.0498 9.05592 13.5533 8.81399 12.9718C8.57207 12.3903 8.50825 11.7501 8.63063 11.1323C8.75301 10.5145 9.05608 9.94697 9.50142 9.50164C9.94675 9.0563 10.5143 8.75324 11.1321 8.63085C11.7499 8.50847 12.3901 8.57229 12.9716 8.81421C13.553 9.05614 14.0496 9.46528 14.3982 9.98975C14.7469 10.5142 14.932 11.1304 14.93 11.7602C14.93 12.1765 14.848 12.5887 14.6887 12.9733C14.5294 13.3579 14.2959 13.7074 14.0015 14.0017C13.7072 14.2961 13.3577 14.5296 12.9731 14.6889C12.5885 14.8482 12.1763 14.9302 11.76 14.9302Z" fill="#0E0E0E"/>
<path d="M13.07 9.69022L11.76 11.0002L10.45 9.70022L9.69 10.4502L11 11.7602L9.7 13.0602L10.46 13.8202L11.76 12.5202L13.06 13.8302L13.82 13.0702L12.51 11.7602L13.83 10.4402L13.07 9.69022Z" fill="#0E0E0E"/>
</g>
</g>
<defs>
<clipPath id="clip0_7172_614">
<rect width="16" height="16" fill="white"/>
</clipPath>
</defs>
</svg>
