<svg width="16" height="16" viewBox="0 0 16 16" fill="none" xmlns="http://www.w3.org/2000/svg">
<g id="dds2_social-networking" clip-path="url(#clip0_7172_1016)">
<path id="Vector" d="M14 9.25V6.75C14.2804 6.67123 14.5389 6.52906 14.7555 6.33448C14.9722 6.13991 15.1413 5.89813 15.2496 5.62782C15.358 5.35751 15.4028 5.06591 15.3805 4.77555C15.3582 4.48518 15.2695 4.20382 15.1212 3.9532C14.9729 3.70258 14.7689 3.4894 14.5251 3.33014C14.2813 3.17087 14.0042 3.06979 13.7151 3.03468C13.426 2.99958 13.1327 3.0314 12.8578 3.12769C12.583 3.22398 12.334 3.38215 12.13 3.59L9.85 2.32C9.882 2.18225 9.89877 2.04141 9.9 1.9C9.9 1.39609 9.69982 0.912816 9.3435 0.556497C8.98718 0.200178 8.50391 0 8 0C7.49609 0 7.01281 0.200178 6.65649 0.556497C6.30018 0.912816 6.1 1.39609 6.1 1.9C6.10123 2.04141 6.11799 2.18225 6.15 2.32L3.86 3.58C3.68661 3.39884 3.47873 3.2542 3.24861 3.15459C3.01848 3.05499 2.77075 3.00242 2.52 3C2.04504 2.97549 1.57817 3.12999 1.2116 3.43298C0.845022 3.73598 0.605408 4.16543 0.540085 4.63651C0.474762 5.10758 0.588482 5.58603 0.858779 5.97734C1.12908 6.36864 1.5363 6.64435 2 6.75V9.25C1.72162 9.33049 1.46534 9.4736 1.25077 9.66836C1.0362 9.86312 0.869017 10.1044 0.76202 10.3737C0.655024 10.643 0.611046 10.9332 0.633451 11.2221C0.655855 11.511 0.744049 11.791 0.891284 12.0406C1.03852 12.2902 1.24089 12.5028 1.48293 12.6622C1.72496 12.8215 2.00024 12.9234 2.2877 12.96C2.57516 12.9966 2.86718 12.967 3.14144 12.8734C3.41569 12.7798 3.6649 12.6247 3.87 12.42L6.16 13.68C6.12799 13.8177 6.11123 13.9586 6.11 14.1C6.11 14.3495 6.15914 14.5966 6.25463 14.8271C6.35011 15.0576 6.49006 15.2671 6.66649 15.4435C6.84293 15.6199 7.05238 15.7599 7.2829 15.8554C7.51342 15.9509 7.76049 16 8.01 16C8.25951 16 8.50658 15.9509 8.7371 15.8554C8.96761 15.7599 9.17707 15.6199 9.3535 15.4435C9.52993 15.2671 9.66988 15.0576 9.76537 14.8271C9.86085 14.5966 9.91 14.3495 9.91 14.1C9.90877 13.9586 9.892 13.8177 9.86 13.68L12.15 12.42C12.3259 12.5957 12.5349 12.7348 12.7649 12.8292C12.9949 12.9236 13.2414 12.9715 13.49 12.97C13.9432 12.9618 14.3785 12.7918 14.7174 12.4908C15.0563 12.1897 15.2763 11.7775 15.3379 11.3284C15.3995 10.8793 15.2985 10.423 15.0531 10.0419C14.8078 9.66076 14.4343 9.37989 14 9.25ZM11.56 11.07C11.5447 11.2062 11.5447 11.3438 11.56 11.48L9.34 12.75C9.11396 12.5275 8.83532 12.3658 8.53 12.28V9.82C8.92521 9.7069 9.27278 9.46803 9.52001 9.13959C9.76723 8.81116 9.90064 8.41108 9.9 8C9.89935 7.85855 9.88258 7.71764 9.85 7.58L12.15 6.29C12.3707 6.50701 12.6423 6.66517 12.94 6.75V9.25C12.5473 9.36407 12.2018 9.60182 11.955 9.92791C11.7082 10.254 11.5731 10.651 11.57 11.06L11.56 11.07ZM3.06 9.25V6.75C3.36229 6.66922 3.63812 6.51062 3.86 6.29L6.15 7.58C6.11799 7.71775 6.10123 7.85859 6.1 8C6.09936 8.41108 6.23276 8.81116 6.47999 9.13959C6.72722 9.46803 7.07478 9.7069 7.47 9.82V12.28C7.16467 12.3658 6.88603 12.5275 6.66 12.75L4.38 11.48C4.39527 11.3438 4.39527 11.2062 4.38 11.07C4.38385 10.6653 4.25767 10.27 4.02005 9.94238C3.78242 9.61475 3.44589 9.37204 3.06 9.25ZM11.63 5.36L9.33 6.64C8.97361 6.29423 8.49656 6.10084 8 6.10084C7.50343 6.10084 7.02639 6.29423 6.67 6.64L4.37 5.36C4.40953 5.22349 4.42973 5.08212 4.43 4.94C4.44585 4.80045 4.44585 4.65955 4.43 4.52L6.66 3.25C7.0173 3.60177 7.49859 3.79893 8 3.79893C8.5014 3.79893 8.9827 3.60177 9.34 3.25L11.62 4.52C11.6041 4.65955 11.6041 4.80045 11.62 4.94C11.6203 5.08212 11.6405 5.22349 11.68 5.36H11.63ZM8 8.84C7.83386 8.84 7.67146 8.79074 7.53332 8.69843C7.39518 8.60613 7.28752 8.47494 7.22394 8.32145C7.16036 8.16796 7.14373 7.99907 7.17614 7.83612C7.20855 7.67318 7.28855 7.52351 7.40603 7.40603C7.5235 7.28855 7.67318 7.20855 7.83612 7.17614C7.99907 7.14373 8.16796 7.16036 8.32145 7.22394C8.47494 7.28752 8.60613 7.39518 8.69843 7.53332C8.79073 7.67146 8.84 7.83386 8.84 8C8.8374 8.22198 8.74807 8.43413 8.5911 8.5911C8.43412 8.74807 8.22197 8.8374 8 8.84ZM13.48 4.1C13.701 4.10263 13.9121 4.19229 14.0675 4.34954C14.2229 4.50678 14.31 4.71894 14.31 4.94C14.31 5.16013 14.2226 5.37124 14.0669 5.5269C13.9112 5.68255 13.7001 5.77 13.48 5.77C13.2589 5.77002 13.0468 5.68289 12.8895 5.52752C12.7323 5.37214 12.6426 5.16104 12.64 4.94C12.6426 4.71802 12.7319 4.50587 12.8889 4.3489C13.0459 4.19193 13.258 4.1026 13.48 4.1ZM8 1.07C8.22106 1.06998 8.43321 1.15711 8.59046 1.31248C8.74771 1.46786 8.83737 1.67896 8.84 1.9C8.84 2.12278 8.7515 2.33644 8.59397 2.49397C8.43644 2.6515 8.22278 2.74 8 2.74C7.77722 2.74 7.56356 2.6515 7.40603 2.49397C7.2485 2.33644 7.16 2.12278 7.16 1.9C7.16263 1.67896 7.25229 1.46786 7.40954 1.31248C7.56678 1.15711 7.77894 1.06998 8 1.07ZM1.69 4.94C1.68802 4.77303 1.73585 4.60926 1.82739 4.4696C1.91892 4.32994 2.05001 4.22073 2.2039 4.15592C2.35779 4.0911 2.52751 4.07363 2.69138 4.10572C2.85525 4.13781 3.00583 4.21801 3.12391 4.33609C3.24198 4.45416 3.32219 4.60475 3.35428 4.76862C3.38637 4.93249 3.3689 5.10221 3.30408 5.2561C3.23927 5.40999 3.13006 5.54107 2.9904 5.63261C2.85074 5.72414 2.68697 5.77198 2.52 5.77C2.29987 5.77 2.08875 5.68255 1.9331 5.5269C1.77744 5.37124 1.69 5.16013 1.69 4.94ZM2.52 11.94C2.35386 11.94 2.19146 11.8907 2.05332 11.7984C1.91518 11.7061 1.80752 11.5749 1.74394 11.4215C1.68036 11.268 1.66373 11.0991 1.69614 10.9361C1.72855 10.7732 1.80855 10.6235 1.92603 10.506C2.0435 10.3886 2.19318 10.3086 2.35612 10.2761C2.51907 10.2437 2.68796 10.2604 2.84145 10.3239C2.99494 10.3875 3.12613 10.4952 3.21843 10.6333C3.31073 10.7715 3.36 10.9339 3.36 11.1C3.35218 11.3166 3.25992 11.5216 3.10295 11.6711C2.94598 11.8206 2.73675 11.9028 2.52 11.9V11.94ZM8 14.94C7.77894 14.94 7.56678 14.8529 7.40954 14.6975C7.25229 14.5421 7.16263 14.331 7.16 14.11C7.16 13.8872 7.2485 13.6736 7.40603 13.516C7.56356 13.3585 7.77722 13.27 8 13.27C8.22278 13.27 8.43644 13.3585 8.59397 13.516C8.7515 13.6736 8.84 13.8872 8.84 14.11C8.83477 14.3293 8.74397 14.5379 8.58701 14.6911C8.43004 14.8443 8.21936 14.9301 8 14.93V14.94ZM13.48 11.94C13.3627 11.9529 13.2439 11.9408 13.1316 11.9047C13.0192 11.8686 12.9157 11.8093 12.8278 11.7305C12.7399 11.6517 12.6696 11.5553 12.6215 11.4475C12.5734 11.3397 12.5485 11.223 12.5485 11.105C12.5485 10.987 12.5734 10.8703 12.6215 10.7625C12.6696 10.6547 12.7399 10.5583 12.8278 10.4795C12.9157 10.4007 13.0192 10.3414 13.1316 10.3053C13.2439 10.2692 13.3627 10.2571 13.48 10.27C13.6857 10.2925 13.8758 10.3902 14.014 10.5443C14.1521 10.6984 14.2285 10.8981 14.2285 11.105C14.2285 11.3119 14.1521 11.5116 14.014 11.6657C13.8758 11.8198 13.6857 11.9175 13.48 11.94Z" fill="#0E0E0E"/>
</g>
<defs>
<clipPath id="clip0_7172_1016">
<rect width="16" height="16" fill="white"/>
</clipPath>
</defs>
</svg>
