<svg width="16" height="16" viewBox="0 0 16 16" fill="none" xmlns="http://www.w3.org/2000/svg">
<g id="dds2_user-cir" clip-path="url(#clip0_7172_883)">
<g id="Vector">
<path d="M8 10.05C8.66695 10.05 9.3189 9.85209 9.87331 9.48135C10.4277 9.11061 10.8597 8.58369 11.1144 7.96732C11.3692 7.35095 11.4353 6.67285 11.3045 6.01886C11.1737 5.36487 10.8517 4.76441 10.3794 4.29351C9.90709 3.82261 9.30568 3.50244 8.65131 3.37354C7.99693 3.24464 7.31903 3.3128 6.70342 3.56941C6.08781 3.82601 5.56218 4.2595 5.19308 4.81501C4.82399 5.37052 4.62803 6.02305 4.63 6.69C4.63265 7.58205 4.98887 8.43665 5.62058 9.06649C6.25229 9.69633 7.10795 10.05 8 10.05ZM8 4.39C8.45447 4.39198 8.89816 4.52855 9.27508 4.78247C9.65199 5.0364 9.94523 5.3963 10.1178 5.81674C10.2903 6.23718 10.3345 6.69931 10.2446 7.14481C10.1547 7.5903 9.93487 7.99919 9.61282 8.31985C9.29076 8.64051 8.88093 8.85857 8.43505 8.94651C7.98917 9.03445 7.52723 8.98832 7.10754 8.81395C6.68785 8.63958 6.32923 8.34478 6.07694 7.96677C5.82465 7.58875 5.69001 7.14447 5.69 6.69C5.69265 6.07908 5.93719 5.49409 6.37011 5.06304C6.80304 4.632 7.38908 4.38999 8 4.39Z" fill="#0E0E0E"/>
<path d="M8 0C6.41775 0 4.87103 0.469192 3.55544 1.34824C2.23985 2.22729 1.21447 3.47672 0.608967 4.93853C0.00346625 6.40034 -0.15496 8.00887 0.153721 9.56072C0.462403 11.1126 1.22433 12.538 2.34315 13.6569C3.46197 14.7757 4.88743 15.5376 6.43928 15.8463C7.99113 16.155 9.59966 15.9965 11.0615 15.391C12.5233 14.7855 13.7727 13.7602 14.6518 12.4446C15.5308 11.129 16 9.58225 16 8C16 5.87827 15.1571 3.84344 13.6569 2.34315C12.1566 0.842855 10.1217 0 8 0ZM8 1.07C9.31195 1.07285 10.5962 1.44752 11.7039 2.15056C12.8116 2.8536 13.6973 3.85622 14.2583 5.04216C14.8194 6.2281 15.0328 7.54878 14.8738 8.85106C14.7148 10.1533 14.1899 11.3839 13.36 12.4C12.9114 11.2986 12.1457 10.3553 11.16 9.69L10.83 9.47L10.53 9.72C9.81113 10.2928 8.91917 10.6047 8 10.6047C7.08084 10.6047 6.18888 10.2928 5.47 9.72L5.17 9.47L4.84 9.68C3.85431 10.3453 3.08856 11.2886 2.64 12.39C1.80897 11.3749 1.28313 10.1449 1.1236 8.84274C0.964069 7.54062 1.17741 6.21997 1.73881 5.03431C2.30022 3.84866 3.18663 2.8467 4.295 2.14494C5.40336 1.44317 6.68815 1.07041 8 1.07ZM3.47 13.23C3.77641 12.2761 4.34885 11.4296 5.12 10.79C5.96982 11.3665 6.97309 11.6747 8 11.6747C9.02691 11.6747 10.0302 11.3665 10.88 10.79C11.6467 11.4336 12.2182 12.2788 12.53 13.23C11.275 14.3251 9.66568 14.9285 8 14.9285C6.33433 14.9285 4.72505 14.3251 3.47 13.23Z" fill="#0E0E0E"/>
</g>
</g>
<defs>
<clipPath id="clip0_7172_883">
<rect width="16" height="16" fill="white"/>
</clipPath>
</defs>
</svg>
