<svg width="16" height="16" viewBox="0 0 16 16" fill="none" xmlns="http://www.w3.org/2000/svg">
<g clip-path="url(#clip0_7172_420)">
<path d="M8 1.07C9.37063 1.07 10.7105 1.47644 11.8501 2.23792C12.9897 2.99939 13.878 4.08171 14.4025 5.348C14.927 6.6143 15.0642 8.00769 14.7968 9.35198C14.5294 10.6963 13.8694 11.9311 12.9003 12.9003C11.9311 13.8694 10.6963 14.5294 9.35198 14.7968C8.00769 15.0642 6.6143 14.927 5.34801 14.4025C4.08172 13.878 2.9994 12.9897 2.23792 11.8501C1.47644 10.7105 1.07 9.37062 1.07 8C1.07265 6.16286 1.80362 4.40173 3.10268 3.10267C4.40173 1.80362 6.16287 1.07265 8 1.07ZM8 0C6.41775 0 4.87103 0.469192 3.55544 1.34824C2.23985 2.22729 1.21447 3.47672 0.608967 4.93853C0.00346625 6.40034 -0.15496 8.00887 0.153721 9.56072C0.462403 11.1126 1.22433 12.538 2.34315 13.6569C3.46197 14.7757 4.88743 15.5376 6.43928 15.8463C7.99113 16.155 9.59966 15.9965 11.0615 15.391C12.5233 14.7855 13.7727 13.7602 14.6518 12.4446C15.5308 11.129 16 9.58225 16 8C16 5.87827 15.1571 3.84344 13.6569 2.34315C12.1566 0.842855 10.1217 0 8 0Z" fill="#0E0E0E"/>
<path d="M12.36 9.09H7.45V2.22H8.52V8H12.36V9.09Z" fill="#0E0E0E"/>
</g>
<defs>
<clipPath id="clip0_7172_420">
<rect width="16" height="16" fill="white"/>
</clipPath>
</defs>
</svg>
