<svg width="16" height="16" viewBox="0 0 16 16" fill="none" xmlns="http://www.w3.org/2000/svg">
<g id="dds2_task-check-progress" clip-path="url(#clip0_7172_191)">
<g id="Vector">
<path d="M11.92 4.81024L6.61 10.0702L4 7.57024L3.25 8.34024L6.58 11.5602L12.63 5.56024L11.92 4.81024Z" fill="#0E0E0E"/>
<path d="M8 0.000236914C7.63878 -0.0026439 7.27783 0.0207511 6.92 0.0702369L7.06 1.13024C8.00503 0.995114 8.96777 1.05642 9.88803 1.31031C10.8083 1.5642 11.6663 2.00522 12.4083 2.60579C13.1504 3.20636 13.7606 3.95357 14.2007 4.8007C14.6408 5.64782 14.9015 6.57664 14.9663 7.52907C15.0311 8.48151 14.8987 9.43708 14.5775 10.336C14.2562 11.235 13.7529 12.058 13.0991 12.7536C12.4452 13.4492 11.6549 14.0024 10.7775 14.3786C9.90018 14.7549 8.95462 14.9461 8 14.9402C7.69213 14.9372 7.38479 14.9138 7.08 14.8702L6.94 15.9302C7.29122 15.9788 7.64545 16.0022 8 16.0002C10.1217 16.0002 12.1566 15.1574 13.6569 13.6571C15.1571 12.1568 16 10.122 16 8.00024C16 5.8785 15.1571 3.84367 13.6569 2.34338C12.1566 0.843092 10.1217 0.000236914 8 0.000236914Z" fill="#0E0E0E"/>
<path d="M1.45 5.63024L0.45 5.27024C0.207937 5.9128 0.056484 6.58592 0 7.27024L1.06 7.37024C1.11862 6.78302 1.24961 6.20531 1.45 5.65024V5.63024Z" fill="#0E0E0E"/>
<path d="M3.12 3.05024L2.37 2.29024C1.88163 2.76855 1.45499 3.30605 1.1 3.89024L2 4.44024C2.30648 3.92956 2.67978 3.4621 3.11 3.05024H3.12Z" fill="#0E0E0E"/>
<path d="M5.73 1.44024L5.39 0.440237C4.74315 0.658643 4.12787 0.961242 3.56 1.34024L4.15 2.23024C4.63913 1.89771 5.1705 1.63203 5.73 1.44024Z" fill="#0E0E0E"/>
<path d="M1.07 8.68024L0 8.78024C0.0668337 9.46389 0.221439 10.1361 0.46 10.7802L1.46 10.4102C1.25025 9.85795 1.11897 9.27898 1.07 8.69024V8.68024Z" fill="#0E0E0E"/>
<path d="M3.59 14.6902C4.15598 15.07 4.77183 15.3695 5.42 15.5802L5.76 14.5802C5.19738 14.3972 4.66243 14.1382 4.17 13.8102L3.59 14.7002V14.6902Z" fill="#0E0E0E"/>
<path d="M1.12 12.1402C1.47438 12.7248 1.90108 13.2624 2.39 13.7402L3.13 13.0002C2.694 12.581 2.31417 12.1071 2 11.5902L1.12 12.1402Z" fill="#0E0E0E"/>
</g>
</g>
<defs>
<clipPath id="clip0_7172_191">
<rect width="16" height="16" fill="white"/>
</clipPath>
</defs>
</svg>
