<svg width="16" height="16" viewBox="0 0 16 16" fill="none" xmlns="http://www.w3.org/2000/svg">
<g clip-path="url(#clip0_7172_823)">
<path d="M11.31 3.45998L12.38 2.38998V1.88998H10.46V2.99998H11.31V3.45998Z" fill="#0E0E0E"/>
<path d="M11.31 14.93H7.7L7.31 15.32L5.56 16H12.38V10.25L11.31 11.32V14.93Z" fill="#0E0E0E"/>
<path d="M1.08 2.99998H1.93V1.88998H0V16H1.6L1.85 15.35L1.95 15.12L2 14.93H1.08V2.99998Z" fill="#0E0E0E"/>
<path d="M9.45 1.28998H7.94C7.82282 0.919035 7.59047 0.595083 7.27669 0.36514C6.96291 0.135198 6.58402 0.0112305 6.195 0.0112305C5.80598 0.0112305 5.42709 0.135198 5.11331 0.36514C4.79953 0.595083 4.56718 0.919035 4.45 1.28998H2.94V4.58998H9.45V1.28998ZM8.39 3.51998H4V2.35998H5.44V1.81998C5.44 1.61311 5.52218 1.41472 5.66846 1.26844C5.81473 1.12216 6.01313 1.03998 6.22 1.03998C6.42687 1.03998 6.62527 1.12216 6.77154 1.26844C6.91782 1.41472 7 1.61311 7 1.81998V2.35998H8.39V3.51998Z" fill="#0E0E0E"/>
<path d="M16 5.12998L13.57 2.70998L4.29 12L2.92 15.51L2.77 15.93L3.41 15.7L6.72 14.4L16 5.12998ZM13.58 4.21998L14.49 5.12998L14 5.62998L13.08 4.71998L13.58 4.21998ZM12.31 5.47998L13.23 6.37998L6.74 12.87L5.82 12L12.31 5.47998ZM4.62 14.08L5.13 12.78L5.92 13.57L4.62 14.08Z" fill="#0E0E0E"/>
</g>
<defs>
<clipPath id="clip0_7172_823">
<rect width="16" height="16" fill="white"/>
</clipPath>
</defs>
</svg>
