<svg width="16" height="16" viewBox="0 0 16 16" fill="none" xmlns="http://www.w3.org/2000/svg">
<g clip-path="url(#clip0_25221_1727)">
<path d="M5 0V2H9V3H8.02705L7.97616 3.15266C7.41292 4.98009 6.43036 6.66782 5.17342 8.15438C5.52789 8.58074 5.91189 9.01106 6.32803 9.44968C6.86854 10.0194 7.39083 10.5229 7.91003 10.9749L7.51788 11.9553C6.88716 11.4253 6.25642 10.8271 5.60258 10.138C5.20866 9.72276 4.84123 9.31324 4.49854 8.90609C3.3943 10.066 2.12259 11.0836 0.763178 11.9251L0.236822 11.0749C1.57172 10.2485 2.80671 9.25059 3.86561 8.12C2.83896 6.78353 2.06899 5.44965 1.49347 4H2.57501C3.0713 5.16026 3.71075 6.25276 4.53914 7.3537C5.62307 6.0374 6.4699 4.56851 6.97578 3H0V2H4V0H5Z" fill="#0E0E0E"/>
<path d="M13.6316 13L14.7745 16H15.8446L11.9672 5.82201H11.0328L7.15543 16H8.22553L9.36839 13H13.6316ZM13.2507 12H9.74934L11.5 7.40452L13.2507 12Z" fill="#0E0E0E"/>
</g>
<defs>
<clipPath id="clip0_25221_1727">
<rect width="16" height="16" fill="white"/>
</clipPath>
</defs>
</svg>
