<svg width="16" height="16" viewBox="0 0 16 16" fill="none" xmlns="http://www.w3.org/2000/svg">
<g id="dds2_hand-touch-screen">
<g id="Vector">
<path d="M13 10.3C12.9975 9.742 12.783 9.20582 12.4 8.8C12.2582 8.69527 12.0951 8.62305 11.9223 8.58849C11.7495 8.55392 11.5711 8.55785 11.4 8.6H11.3C11.0997 8.41902 10.8592 8.28834 10.5983 8.21878C10.3375 8.14922 10.0638 8.14279 9.8 8.2C9.64022 8.09288 9.46009 8.01984 9.27083 7.98543C9.08157 7.95102 8.88726 7.95598 8.7 8V5.5C8.7 4.2 8 4 7.3 4C6.91891 3.99915 6.55178 4.14339 6.27319 4.40341C5.99459 4.66344 5.82541 5.01976 5.8 5.4V10.6L5 9.9C4.71551 9.64997 4.35941 9.49604 3.98237 9.46013C3.60533 9.42422 3.22657 9.50816 2.9 9.7C2.68164 9.80583 2.50439 9.9809 2.39587 10.1979C2.28735 10.415 2.25365 10.6618 2.3 10.9C2.4 11.8 3.7 12.6 3.9 12.8L5.9 14.4L7.1 16H11.9V15.5C12.0234 15.0833 12.1911 14.681 12.4 14.3C12.4 14.2 12.5 14.1 12.5 14C12.7573 13.4993 12.9265 12.9581 13 12.4V10.3ZM11.4 13.9L10.9 14.9H7.7L6.8 13.8C6.17298 13.1198 5.46814 12.5156 4.7 12C4.1 11.6 3.5 11 3.5 10.7H3.7C3.8238 10.6659 3.95458 10.6666 4.07805 10.7018C4.20151 10.7371 4.31289 10.8057 4.4 10.9L5.5 11.8C5.61255 11.886 5.74593 11.9406 5.88648 11.9581C6.02704 11.9757 6.16974 11.9556 6.3 11.9C6.4447 11.8337 6.57329 11.7367 6.67688 11.6159C6.78046 11.495 6.85659 11.3531 6.9 11.2V5.5C6.9 5.39391 6.94214 5.29217 7.01716 5.21716C7.09217 5.14214 7.19391 5.1 7.3 5.1C7.6 5.1 7.7 5.1 7.7 5.5V8.8L7.9 9C8.048 9.09889 8.222 9.15167 8.4 9.15167C8.578 9.15167 8.752 9.09889 8.9 9H9.1C9.23394 9.15248 9.41549 9.25522 9.61518 9.29152C9.81486 9.32783 10.021 9.29558 10.2 9.2H10.5C10.634 9.35503 10.8054 9.47319 10.9979 9.54321C11.1905 9.61323 11.3978 9.63278 11.6 9.6H11.7C11.8272 9.81161 11.8962 10.0531 11.9 10.3V12.2C11.8532 12.7952 11.6829 13.3742 11.4 13.9Z" fill="#0E0E0E"/>
<path d="M7.3 1.1C8.41391 1.1 9.4822 1.5425 10.2698 2.33015C11.0575 3.1178 11.5 4.18609 11.5 5.3H12.6C12.6 3.89435 12.0416 2.54628 11.0477 1.55233C10.0537 0.558391 8.70565 0 7.3 0C5.89435 0 4.54628 0.558391 3.55233 1.55233C2.55839 2.54628 2 3.89435 2 5.3H3.1C3.1 4.18609 3.5425 3.1178 4.33015 2.33015C5.1178 1.5425 6.18609 1.1 7.3 1.1Z" fill="#0E0E0E"/>
<path d="M7.3 2.1C6.45131 2.1 5.63737 2.43714 5.03726 3.03726C4.43714 3.63737 4.1 4.45131 4.1 5.3H5.1C5.1 4.71652 5.33179 4.15695 5.74437 3.74437C6.15695 3.33179 6.71652 3.1 7.3 3.1C7.88348 3.1 8.44305 3.33179 8.85563 3.74437C9.26821 4.15695 9.5 4.71652 9.5 5.3H10.5C10.5 4.45131 10.1629 3.63737 9.56274 3.03726C8.96263 2.43714 8.14869 2.1 7.3 2.1Z" fill="#0E0E0E"/>
</g>
<g id="Vector_2">
<path d="M13 10.3C12.9975 9.742 12.783 9.20582 12.4 8.8C12.2582 8.69527 12.0951 8.62305 11.9223 8.58849C11.7495 8.55392 11.5711 8.55785 11.4 8.6H11.3C11.0997 8.41902 10.8592 8.28834 10.5983 8.21878C10.3375 8.14922 10.0638 8.14279 9.8 8.2C9.64022 8.09288 9.46009 8.01984 9.27083 7.98543C9.08157 7.95102 8.88726 7.95598 8.7 8V5.5C8.7 4.2 8 4 7.3 4C6.91891 3.99915 6.55178 4.14339 6.27319 4.40341C5.99459 4.66344 5.82541 5.01976 5.8 5.4V10.6L5 9.9C4.71551 9.64997 4.35941 9.49604 3.98237 9.46013C3.60533 9.42422 3.22657 9.50816 2.9 9.7C2.68164 9.80583 2.50439 9.9809 2.39587 10.1979C2.28735 10.415 2.25365 10.6618 2.3 10.9C2.4 11.8 3.7 12.6 3.9 12.8L5.9 14.4L7.1 16H11.9V15.5C12.0234 15.0833 12.1911 14.681 12.4 14.3C12.4 14.2 12.5 14.1 12.5 14C12.7573 13.4993 12.9265 12.9581 13 12.4V10.3ZM11.4 13.9L10.9 14.9H7.7L6.8 13.8C6.17298 13.1198 5.46814 12.5156 4.7 12C4.1 11.6 3.5 11 3.5 10.7H3.7C3.8238 10.6659 3.95458 10.6666 4.07805 10.7018C4.20151 10.7371 4.31289 10.8057 4.4 10.9L5.5 11.8C5.61255 11.886 5.74593 11.9406 5.88648 11.9581C6.02704 11.9757 6.16974 11.9556 6.3 11.9C6.4447 11.8337 6.57329 11.7367 6.67688 11.6159C6.78046 11.495 6.85659 11.3531 6.9 11.2V5.5C6.9 5.39391 6.94214 5.29217 7.01716 5.21716C7.09217 5.14214 7.19391 5.1 7.3 5.1C7.6 5.1 7.7 5.1 7.7 5.5V8.8L7.9 9C8.048 9.09889 8.222 9.15167 8.4 9.15167C8.578 9.15167 8.752 9.09889 8.9 9H9.1C9.23394 9.15248 9.41549 9.25522 9.61518 9.29152C9.81486 9.32783 10.021 9.29558 10.2 9.2H10.5C10.634 9.35503 10.8054 9.47319 10.9979 9.54321C11.1905 9.61323 11.3978 9.63278 11.6 9.6H11.7C11.8272 9.81161 11.8962 10.0531 11.9 10.3V12.2C11.8532 12.7952 11.6829 13.3742 11.4 13.9Z" fill="#0E0E0E"/>
<path d="M7.3 1.1C8.41391 1.1 9.4822 1.5425 10.2698 2.33015C11.0575 3.1178 11.5 4.18609 11.5 5.3H12.6C12.6 3.89435 12.0416 2.54628 11.0477 1.55233C10.0537 0.558391 8.70565 0 7.3 0C5.89435 0 4.54628 0.558391 3.55233 1.55233C2.55839 2.54628 2 3.89435 2 5.3H3.1C3.1 4.18609 3.5425 3.1178 4.33015 2.33015C5.1178 1.5425 6.18609 1.1 7.3 1.1Z" fill="#0E0E0E"/>
<path d="M7.3 2.1C6.45131 2.1 5.63737 2.43714 5.03726 3.03726C4.43714 3.63737 4.1 4.45131 4.1 5.3H5.1C5.1 4.71652 5.33179 4.15695 5.74437 3.74437C6.15695 3.33179 6.71652 3.1 7.3 3.1C7.88348 3.1 8.44305 3.33179 8.85563 3.74437C9.26821 4.15695 9.5 4.71652 9.5 5.3H10.5C10.5 4.45131 10.1629 3.63737 9.56274 3.03726C8.96263 2.43714 8.14869 2.1 7.3 2.1Z" fill="#0E0E0E"/>
</g>
</g>
</svg>
