<svg width="16" height="16" viewBox="0 0 16 16" fill="none" xmlns="http://www.w3.org/2000/svg">
<g clip-path="url(#clip0_7172_163)">
<path d="M8.69 -9.76391e-06C6.75392 -9.76391e-06 4.89714 0.769095 3.52812 2.13811C2.1591 3.50713 1.39 5.36391 1.39 7.29999C1.39307 7.6953 1.4265 8.0898 1.49 8.47999H2.57C2.4895 8.09183 2.44929 7.69641 2.45 7.29999C2.44691 6.08306 2.79972 4.89178 3.46501 3.8728C4.1303 2.85381 5.07902 2.0516 6.19439 1.56491C7.30977 1.07821 8.54312 0.928282 9.74261 1.13357C10.9421 1.33885 12.0554 1.8904 12.9454 2.72031C13.8355 3.55022 14.4634 4.62227 14.752 5.8045C15.0406 6.98672 14.9772 8.22753 14.5696 9.37418C14.1619 10.5208 13.428 11.5233 12.4579 12.2581C11.4879 12.9929 10.3242 13.4281 9.11 13.51V14.57C11.0115 14.4709 12.7987 13.6317 14.0895 12.232C15.3803 10.8323 16.0723 8.98308 16.0174 7.07982C15.9625 5.17656 15.1652 3.3703 13.7959 2.04726C12.4266 0.724225 10.594 -0.0105718 8.69 -9.76391e-06Z" fill="#0E0E0E"/>
<path d="M3 9.92999L2.71 9.53999H0V16H8.05V10.3H3.32L3 9.92999ZM7 11.36V14.94H1.07V10.61H2.22L2.79 11.36H7Z" fill="#0E0E0E"/>
<path d="M10.94 7.29999C10.94 6.70325 10.7029 6.13096 10.281 5.709C9.85903 5.28704 9.28674 5.04999 8.69 5.04999C8.09326 5.04999 7.52097 5.28704 7.09901 5.709C6.67705 6.13096 6.44 6.70325 6.44 7.29999C6.44071 7.69291 6.54568 8.0786 6.74421 8.41768C6.94274 8.75676 7.2277 9.03707 7.57 9.22999C7.90759 9.43465 8.29522 9.54194 8.69 9.53999C8.82956 9.55576 8.97044 9.55576 9.11 9.53999C9.62376 9.44434 10.0879 9.17207 10.4221 8.7703C10.7563 8.36854 10.9395 7.86258 10.94 7.33999V7.29999ZM7.51 7.29999C7.50802 7.06379 7.57638 6.83235 7.70638 6.63513C7.83637 6.43791 8.02212 6.28384 8.23997 6.19253C8.45782 6.10123 8.69791 6.07682 8.92967 6.12241C9.16144 6.16801 9.37439 6.28155 9.54142 6.44858C9.70844 6.6156 9.82198 6.82855 9.86758 7.06032C9.91317 7.29208 9.88876 7.53217 9.79746 7.75002C9.70615 7.96787 9.55208 8.15362 9.35486 8.28361C9.15764 8.41361 8.9262 8.48197 8.69 8.47999C8.37704 8.47999 8.07691 8.35567 7.85561 8.13438C7.63432 7.91308 7.51 7.61295 7.51 7.29999Z" fill="#0E0E0E"/>
</g>
<defs>
<clipPath id="clip0_7172_163">
<rect width="16" height="16" fill="white"/>
</clipPath>
</defs>
</svg>
