<svg width="16" height="16" viewBox="0 0 16 16" fill="none" xmlns="http://www.w3.org/2000/svg">
<g clip-path="url(#clip0_7172_1382)">
<path d="M5 4.16C5.35694 3.96682 5.73209 3.80939 6.12 3.69C6.23824 3.2705 6.49027 2.90111 6.83776 2.63802C7.18524 2.37494 7.60916 2.23256 8.045 2.23256C8.48084 2.23256 8.90476 2.37494 9.25224 2.63802C9.59973 2.90111 9.85176 3.2705 9.97 3.69C10.3556 3.81554 10.7303 3.97274 11.09 4.16C11.0636 3.70024 10.9317 3.25274 10.7045 2.85216C10.4773 2.45157 10.161 2.10867 9.78 1.85L10.4 0.42L9.46 0L8.85 1.41C8.5734 1.33044 8.28773 1.28675 8 1.28C7.71562 1.28749 7.43334 1.33118 7.16 1.41L6.55 0L5.61 0.43L6.23 1.85C5.86379 2.1171 5.56287 2.46372 5.34983 2.86381C5.1368 3.26389 5.01719 3.70706 5 4.16Z" fill="#0E0E0E"/>
<path d="M0.49 16H2.32L3.79 14.11C4.31379 14.7121 4.96064 15.1949 5.6869 15.5257C6.41316 15.8565 7.20194 16.0277 8 16.0277C8.79806 16.0277 9.58684 15.8565 10.3131 15.5257C11.0394 15.1949 11.6862 14.7121 12.21 14.11L13.68 16H15.68V14.92H14.18L12.85 13.21C13.2733 12.5051 13.5393 11.7172 13.63 10.9L14.53 10.08H15.71V9H14.13L13.63 9.46C13.5571 8.73233 13.3431 8.02584 13 7.38L12.08 8C12.4484 8.68596 12.6441 9.45139 12.65 10.23C12.65 10.3 12.65 10.36 12.65 10.43C12.6189 11.6461 12.1166 12.8025 11.249 13.6551C10.3814 14.5078 9.21642 14.99 8 15C7.31976 14.9971 6.64879 14.842 6.03625 14.5461C5.42372 14.2502 4.88515 13.821 4.46 13.29L0.49 16Z" fill="#0E0E0E"/>
<path d="M1.47 10.08L2 10.6L2.32 10.38L3.37 9.65C3.44857 8.93968 3.68741 8.25647 4.06851 7.65191C4.44961 7.04735 4.96301 6.53722 5.57 6.16C5.88266 5.96774 6.21875 5.8165 6.57 5.71C7.03004 5.54999 7.51296 5.46557 8 5.46C8.41266 5.46795 8.82263 5.52844 9.22 5.64L10.29 4.91L10 4.78C8.71583 4.26797 7.28417 4.26797 6 4.78C5.67292 4.8994 5.35812 5.0501 5.06 5.23C4.63669 5.4913 4.2471 5.80364 3.9 6.16L2.32 4.07H0.32V5.07H1.82L3.28 7C2.7885 7.74862 2.47703 8.60088 2.37 9.49L1.87 9H0.29V10.05L1.47 10.08Z" fill="#0E0E0E"/>
<path d="M2.08 13.36L16 3.76L15.42 2.89L0 13.52L0.58 14.39L2.08 13.36Z" fill="#0E0E0E"/>
</g>
<defs>
<clipPath id="clip0_7172_1382">
<rect width="16" height="16" fill="white"/>
</clipPath>
</defs>
</svg>
