<svg width="16" height="16" viewBox="0 0 16 16" fill="none" xmlns="http://www.w3.org/2000/svg">
<g id="dds2_host-server">
<g id="Vector">
<path d="M3.06 0V16H12.94V0H3.06ZM11.87 14.93H4.13V1.07H11.87V14.93Z" fill="#0E0E0E"/>
<path d="M8.84 12C8.84 12.1582 8.79308 12.3129 8.70517 12.4445C8.61727 12.576 8.49233 12.6786 8.34614 12.7391C8.19996 12.7997 8.03911 12.8155 7.88393 12.7846C7.72874 12.7538 7.58619 12.6776 7.47431 12.5657C7.36243 12.4538 7.28624 12.3113 7.25537 12.1561C7.2245 12.0009 7.24034 11.84 7.30089 11.6939C7.36144 11.5477 7.46398 11.4227 7.59554 11.3348C7.7271 11.2469 7.88177 11.2 8.04 11.2C8.14506 11.2 8.24908 11.2207 8.34614 11.2609C8.4432 11.3011 8.5314 11.36 8.60568 11.4343C8.67997 11.5086 8.7389 11.5968 8.7791 11.6939C8.8193 11.7909 8.84 11.8949 8.84 12Z" fill="#0E0E0E"/>
<path d="M5.24 2.93H10.76V4H5.24V2.93Z" fill="#0E0E0E"/>
<path d="M5.24 5.64H10.76V6.71H5.24V5.64Z" fill="#0E0E0E"/>
</g>
</g>
</svg>
