<svg width="16" height="16" viewBox="0 0 16 16" fill="none" xmlns="http://www.w3.org/2000/svg">
<g id="dds2_alarm-clock">
<g id="Vector">
<path d="M6.63 1.06V0H9.51V1.08L6.63 1.06Z" fill="black"/>
<path d="M8 1.94C6.61553 1.94 5.26216 2.35054 4.11101 3.11971C2.95987 3.88888 2.06266 4.98213 1.53285 6.26122C1.00303 7.5403 0.86441 8.94777 1.13451 10.3056C1.4046 11.6635 2.07129 12.9108 3.05026 13.8897C4.02922 14.8687 5.2765 15.5354 6.63437 15.8055C7.99224 16.0756 9.3997 15.937 10.6788 15.4072C11.9579 14.8773 13.0511 13.9801 13.8203 12.829C14.5895 11.6778 15 10.3245 15 8.94C15 7.08348 14.2625 5.30301 12.9497 3.99025C11.637 2.6775 9.85652 1.94 8 1.94ZM8 14.94C6.81332 14.94 5.65328 14.5881 4.66658 13.9288C3.67989 13.2695 2.91085 12.3325 2.45673 11.2361C2.0026 10.1397 1.88378 8.93334 2.11529 7.76946C2.3468 6.60557 2.91825 5.53647 3.75736 4.69736C4.59648 3.85824 5.66558 3.2868 6.82946 3.05529C7.99335 2.82378 9.19975 2.9426 10.2961 3.39672C11.3925 3.85085 12.3295 4.61988 12.9888 5.60658C13.6481 6.59327 14 7.75331 14 8.94C14 10.5313 13.3679 12.0574 12.2426 13.1826C11.1174 14.3079 9.5913 14.94 8 14.94Z" fill="black"/>
<path d="M8.52 3.89H7.46V10H11.83V8.92H8.52V3.89Z" fill="black"/>
</g>
</g>
</svg>
