<svg width="16" height="16" viewBox="0 0 16 16" fill="none" xmlns="http://www.w3.org/2000/svg">
<g id="dds2_microphone-off" clip-path="url(#clip0_7172_857)">
<g id="Vector">
<path d="M6.13 9.87994L16 3.21994L15.42 2.36994L0 12.7799L0.58 13.6299L5.44 10.3499L6.13 9.87994Z" fill="#0E0E0E"/>
<path d="M5 8.18994V6.66994H4V8.41994C3.98968 8.56643 3.98968 8.71346 4 8.85994L5 8.18994Z" fill="#0E0E0E"/>
<path d="M12.07 7.11994L11.07 7.80994C11.15 10.1899 10.13 11.4799 8.07 11.6999C7.40838 11.7116 6.76148 11.5042 6.23 11.1099L5.36 11.6899C5.96457 12.2544 6.73719 12.6056 7.56 12.6899V14.6899H5.12V15.6899H10.88V14.6899H8.51V12.6899C11.44 12.1199 12.45 10.1299 12.07 7.11994Z" fill="#0E0E0E"/>
<path d="M6.82 2.61994C6.82 1.74994 7.22 1.31994 8 1.31994C9 1.31994 9.18 2.01994 9.18 2.60994V5.33994L10.18 4.64994V2.64994C10.213 2.34727 10.1807 2.04103 10.0854 1.75188C9.99002 1.46273 9.83377 1.19739 9.62718 0.973736C9.42058 0.750084 9.16844 0.573322 8.88775 0.455365C8.60706 0.337409 8.30434 0.281001 8 0.289942C7.69647 0.275655 7.39341 0.326786 7.11137 0.439869C6.82933 0.552952 6.57489 0.725344 6.36531 0.945364C6.15572 1.16538 5.99588 1.42789 5.89662 1.71508C5.79736 2.00228 5.761 2.30746 5.79 2.60994V7.60994L6.79 6.91994L6.82 2.61994Z" fill="#0E0E0E"/>
<path d="M8 9.83994L6.85 10.6199C7.20759 10.7947 7.60212 10.8805 8 10.8699C8.31445 10.8818 8.62767 10.8246 8.91756 10.7022C9.20745 10.5798 9.46694 10.3952 9.67771 10.1616C9.88848 9.92789 10.0454 9.65082 10.1374 9.34989C10.2293 9.04896 10.2541 8.73151 10.21 8.41994V8.36994L9.07 9.13994C9.00146 9.36321 8.85694 9.55544 8.66149 9.6833C8.46605 9.81116 8.23203 9.86658 8 9.83994Z" fill="#0E0E0E"/>
</g>
</g>
<defs>
<clipPath id="clip0_7172_857">
<rect width="16" height="16" fill="white"/>
</clipPath>
</defs>
</svg>
