<svg width="16" height="16" viewBox="0 0 16 16" fill="none" xmlns="http://www.w3.org/2000/svg">
<g clip-path="url(#clip0_7172_1109)">
<path d="M13.39 7.29C13.4942 7.74944 13.5479 8.21889 13.55 8.69C13.55 9.92416 13.184 11.1306 12.4984 12.1568C11.8127 13.1829 10.8382 13.9827 9.69795 14.455C8.55774 14.9273 7.30308 15.0509 6.09264 14.8101C4.8822 14.5693 3.77034 13.975 2.89766 13.1023C2.02498 12.2297 1.43067 11.1178 1.1899 9.90736C0.949131 8.69692 1.0727 7.44227 1.545 6.30206C2.01729 5.16184 2.81708 4.18729 3.84325 3.50163C4.86941 2.81597 6.07585 2.45 7.31 2.45C7.71248 2.45098 8.11406 2.48779 8.51 2.56L9.39 1.68C8.71413 1.48314 8.01396 1.38215 7.31 1.38C5.86422 1.38 4.45091 1.80872 3.24879 2.61196C2.04666 3.41519 1.10972 4.55686 0.556444 5.89258C0.00316727 7.22831 -0.141595 8.69811 0.140463 10.1161C0.422521 11.5341 1.11873 12.8366 2.14105 13.859C3.16337 14.8813 4.46589 15.5775 5.88389 15.8595C7.30189 16.1416 8.77169 15.9968 10.1074 15.4436C11.4431 14.8903 12.5848 13.9533 13.388 12.7512C14.1913 11.5491 14.62 10.1358 14.62 8.69C14.6207 7.91827 14.4957 7.15157 14.25 6.42L13.39 7.29Z" fill="#0E0E0E"/>
<path d="M7.31 6.44C6.865 6.44 6.42998 6.57196 6.05997 6.81919C5.68996 7.06643 5.40157 7.41783 5.23127 7.82896C5.06098 8.2401 5.01642 8.6925 5.10324 9.12895C5.19005 9.56541 5.40434 9.96632 5.71901 10.281C6.03368 10.5957 6.43459 10.8099 6.87105 10.8968C7.30751 10.9836 7.75991 10.939 8.17104 10.7687C8.58217 10.5984 8.93358 10.31 9.18081 9.94003C9.42804 9.57002 9.56 9.13501 9.56 8.69C9.56 8.09326 9.32295 7.52097 8.90099 7.09901C8.47904 6.67705 7.90674 6.44 7.31 6.44ZM7.31 9.87C7.07662 9.87 6.84848 9.80079 6.65443 9.67113C6.46038 9.54147 6.30914 9.35718 6.21982 9.14157C6.13051 8.92595 6.10715 8.68869 6.15268 8.45979C6.19821 8.2309 6.31059 8.02064 6.47562 7.85561C6.64064 7.69059 6.8509 7.5782 7.0798 7.53267C7.30869 7.48714 7.54595 7.51051 7.76157 7.59982C7.97719 7.68913 8.16148 7.84038 8.29114 8.03443C8.4208 8.22848 8.49 8.45662 8.49 8.69C8.49 8.84496 8.45948 8.9984 8.40018 9.14157C8.34088 9.28473 8.25396 9.41481 8.14439 9.52439C8.03482 9.63396 7.90473 9.72088 7.76157 9.78018C7.61841 9.83948 7.46496 9.87 7.31 9.87Z" fill="#0E0E0E"/>
<path d="M13 6.16L16 3.16L15.31 2.47L13.18 4.62V0H12.18V4.59L10.1 2.48L9.42 3.16L12.71 6.46L13 6.16Z" fill="#0E0E0E"/>
</g>
<defs>
<clipPath id="clip0_7172_1109">
<rect width="16" height="16" fill="white"/>
</clipPath>
</defs>
</svg>
