<svg width="16" height="16" viewBox="0 0 16 16" fill="none" xmlns="http://www.w3.org/2000/svg">
<g id="dds2_zoom-in" clip-path="url(#clip0_7172_1079)">
<g id="Vector">
<path d="M16 15.25L10.74 10C11.484 9.11157 11.9591 8.02928 12.1095 6.88024C12.2598 5.73121 12.0792 4.56312 11.5889 3.51313C11.0986 2.46315 10.3188 1.57486 9.34124 0.952577C8.36367 0.33029 7.22883 -0.000164308 6.07 1.70432e-05C5.08871 -0.00230429 4.12139 0.232535 3.2504 0.684541C2.37941 1.13655 1.63054 1.79233 1.06756 2.59606C0.504571 3.3998 0.144144 4.32767 0.0169601 5.30069C-0.110224 6.2737 -0.000396788 7.26304 0.33709 8.18447C0.674576 9.10591 1.22973 9.93214 1.95528 10.5928C2.68083 11.2535 3.55529 11.7291 4.50421 11.9791C5.45312 12.2291 6.4484 12.246 7.40529 12.0286C8.36218 11.8111 9.25234 11.3656 10 10.73L15.25 16L16 15.25ZM6.07 11.11C5.08109 11.11 4.11439 10.8168 3.29215 10.2674C2.4699 9.71796 1.82904 8.93707 1.4506 8.02343C1.07216 7.1098 0.973146 6.10447 1.16607 5.13457C1.359 4.16466 1.8352 3.27375 2.53447 2.57448C3.23373 1.87522 4.12464 1.39902 5.09455 1.20609C6.06445 1.01316 7.06979 1.11218 7.98342 1.49062C8.89705 1.86906 9.67794 2.50992 10.2273 3.33217C10.7768 4.15441 11.07 5.12111 11.07 6.11002C11.07 7.4361 10.5432 8.70787 9.60553 9.64555C8.66785 10.5832 7.39608 11.11 6.07 11.11Z" fill="#0E0E0E"/>
<path d="M6.59 2.93002H5.53V5.58002H2.89V6.64002H5.53V9.29002H6.59V6.64002H9.24V5.58002H6.59V2.93002Z" fill="#0E0E0E"/>
</g>
</g>
<defs>
<clipPath id="clip0_7172_1079">
<rect width="16" height="16" fill="white"/>
</clipPath>
</defs>
</svg>
