<svg width="16" height="16" viewBox="0 0 16 16" fill="none" xmlns="http://www.w3.org/2000/svg">
<g id="dds2_virtualization">
<g id="Vector">
<path d="M16 14.1301H3.7V5.59012H16V14.1301ZM4.78 13.0601H14.93V6.67012H4.78V13.0601Z" fill="#0E0E0E"/>
<path d="M11.22 9.33012H9.61V10.4001H12.3V7.72012H11.22V9.33012Z" fill="#0E0E0E"/>
<path d="M5.83 9.33012H7.88V10.4001H5.88L5.83 9.33012Z" fill="#0E0E0E"/>
<path d="M4.42 9.33012H4.78V10.4001H4.42V9.33012Z" fill="#0E0E0E"/>
<path d="M1.07 7.72012H0V10.4001H2.68V9.33012H1.07V7.72012Z" fill="#0E0E0E"/>
<path d="M0 4.56012H1.07V2.94012H2.68V1.87012H0V4.56012Z" fill="#0E0E0E"/>
<path d="M4.42 1.87012H7.88V2.94012H4.42V1.87012Z" fill="#0E0E0E"/>
<path d="M9.62 1.87012V2.94012H11.23V4.56012H12.3V1.87012H9.62Z" fill="#0E0E0E"/>
</g>
</g>
</svg>
