<svg width="16" height="16" viewBox="0 0 16 16" fill="none" xmlns="http://www.w3.org/2000/svg">
<g id="dds2_share" clip-path="url(#clip0_7172_1428)">
<g id="Vector">
<path d="M8.4 7.9C8.41548 7.35406 8.56382 6.82012 8.83216 6.34442C9.1005 5.86873 9.48076 5.46562 9.94 5.17C11.0869 4.38943 12.4537 3.9969 13.84 4.05L11.58 6.32L12.42 7.16L16 3.58L12.42 0L11.58 0.84L13.58 2.84C12.0322 2.84426 10.5223 3.31853 9.25 4.2C8.6374 4.60401 8.13423 5.15325 7.78528 5.7988C7.43633 6.44435 7.25245 7.16618 7.25 7.9H8.4Z" fill="#0E0E0E"/>
<path d="M14.91 14.93H1.09V1.07H8V0H0V16H16V7.94H14.91V14.93Z" fill="#0E0E0E"/>
</g>
</g>
<defs>
<clipPath id="clip0_7172_1428">
<rect width="16" height="16" fill="white"/>
</clipPath>
</defs>
</svg>
