<svg width="16" height="16" viewBox="0 0 16 16" fill="none" xmlns="http://www.w3.org/2000/svg">
<g id="dds2_network-share" clip-path="url(#clip0_7172_462)">
<path id="Vector" d="M13 9.70999C12.4882 9.71163 11.9834 9.82843 11.5229 10.0517C11.0625 10.2751 10.6582 10.5991 10.34 11L6.45999 8.99999C6.68171 8.35176 6.68171 7.64822 6.45999 6.99999L10.34 4.99999C10.7332 5.52891 11.2828 5.92071 11.911 6.1199C12.5392 6.31908 13.2142 6.31555 13.8403 6.1098C14.4664 5.90404 15.0119 5.50651 15.3995 4.9735C15.7871 4.44049 15.9972 3.79903 16 3.13999C16 2.30456 15.6681 1.50334 15.0774 0.912604C14.4866 0.321864 13.6854 -0.0100098 12.85 -0.0100098C12.0146 -0.0100098 11.2133 0.321864 10.6226 0.912604C10.0319 1.50334 9.69999 2.30456 9.69999 3.13999C9.70279 3.44924 9.75339 3.7562 9.84999 4.04999L5.99999 5.99999C5.58113 5.44763 4.99942 5.04072 4.33693 4.83665C3.67443 4.63259 2.96458 4.64168 2.30752 4.86263C1.65047 5.08359 1.07936 5.50526 0.674779 6.06816C0.270195 6.63106 0.0525513 7.30678 0.0525513 7.99999C0.0525513 8.6932 0.270195 9.36892 0.674779 9.93182C1.07936 10.4947 1.65047 10.9164 2.30752 11.1373C2.96458 11.3583 3.67443 11.3674 4.33693 11.1633C4.99942 10.9593 5.58113 10.5524 5.99999 9.99999L9.89999 12C9.79999 12.2932 9.74601 12.6002 9.73999 12.91C9.73999 13.7454 10.0719 14.5466 10.6626 15.1374C11.2533 15.7281 12.0546 16.06 12.89 16.06C13.7254 16.06 14.5266 15.7281 15.1174 15.1374C15.7081 14.5466 16.04 13.7454 16.04 12.91C16.0533 12.4996 15.985 12.0906 15.8389 11.7068C15.6928 11.323 15.472 10.972 15.1891 10.6743C14.9063 10.3766 14.5671 10.138 14.1913 9.9725C13.8155 9.80695 13.4106 9.71772 13 9.70999ZM12.86 1.06999C13.2694 1.07197 13.669 1.19531 14.0083 1.42441C14.3476 1.65351 14.6114 1.97808 14.7662 2.35707C14.9211 2.73606 14.96 3.15246 14.8782 3.55361C14.7964 3.95476 14.5975 4.32264 14.3066 4.61073C14.0157 4.89882 13.6459 5.09419 13.244 5.17212C12.8421 5.25005 12.4261 5.20705 12.0486 5.04855C11.6711 4.89006 11.3491 4.62318 11.1233 4.28168C10.8975 3.94018 10.778 3.53939 10.78 3.12999C10.7826 2.58273 11.0019 2.05878 11.3898 1.67274C11.7777 1.2867 12.3027 1.06998 12.85 1.06999H12.86ZM3.31999 10.24C2.87739 10.238 2.4453 10.105 2.07825 9.85763C1.7112 9.6103 1.42565 9.25977 1.25765 8.8503C1.08964 8.44082 1.0467 7.99075 1.13426 7.55689C1.22182 7.12303 1.43594 6.72484 1.74961 6.41257C2.06327 6.1003 2.46241 5.88795 2.89666 5.80233C3.3309 5.7167 3.78077 5.76164 4.1895 5.93147C4.59822 6.1013 4.94747 6.38841 5.19317 6.75656C5.43886 7.1247 5.56999 7.55739 5.56999 7.99999C5.57 8.29499 5.51173 8.58709 5.39853 8.85952C5.28534 9.13194 5.11944 9.37932 4.91038 9.58746C4.70132 9.79559 4.4532 9.96038 4.18028 10.0724C3.90735 10.1843 3.61499 10.2413 3.31999 10.24ZM12.85 14.93C12.4406 14.928 12.041 14.8047 11.7017 14.5756C11.3624 14.3465 11.0986 14.0219 10.9438 13.6429C10.7889 13.2639 10.75 12.8475 10.8318 12.4464C10.9136 12.0452 11.1125 11.6773 11.4034 11.3892C11.6943 11.1012 12.0641 10.9058 12.466 10.8279C12.8679 10.7499 13.2839 10.7929 13.6614 10.9514C14.0389 11.1099 14.3609 11.3768 14.5867 11.7183C14.8125 12.0598 14.932 12.4606 14.93 12.87C14.9287 13.1418 14.8738 13.4107 14.7686 13.6614C14.6634 13.912 14.5098 14.1395 14.3166 14.3308C14.1235 14.5221 13.8946 14.6734 13.6429 14.7763C13.3913 14.8791 13.1218 14.9313 12.85 14.93Z" fill="#0E0E0E"/>
</g>
<defs>
<clipPath id="clip0_7172_462">
<rect width="16" height="16" fill="white"/>
</clipPath>
</defs>
</svg>
