<svg width="16" height="16" viewBox="0 0 16 16" fill="none" xmlns="http://www.w3.org/2000/svg">
<g id="dds2_pie-chart" clip-path="url(#clip0_7172_332)">
<g id="Vector">
<path d="M7.4 8.81L14.47 13.53C14.662 13.2427 14.8389 12.9457 15 12.64C15.6242 11.4575 15.9665 10.1467 16 8.81H7.4ZM14.12 12L10.92 9.86H14.79C14.6736 10.6025 14.4478 11.3237 14.12 12Z" fill="#0E0E0E"/>
<path d="M11.21 1C10.0205 0.375517 8.70308 0.0333429 7.36 0V7.78H15.9C15.7372 6.351 15.2239 4.98434 14.4057 3.80152C13.5875 2.61869 12.4897 1.65634 11.21 1ZM8.42 1.21C9.22211 1.32864 9.99919 1.57866 10.72 1.95C11.6705 2.43411 12.5088 3.1124 13.1806 3.94097C13.8524 4.76954 14.3428 5.72994 14.62 6.76H8.42V1.21Z" fill="#0E0E0E"/>
<path d="M6.29 1.14C5.12843 1.33628 4.02965 1.80413 3.08313 2.50546C2.13661 3.20679 1.36912 4.12177 0.843169 5.17587C0.317216 6.22998 0.0476706 7.3934 0.0564838 8.5714C0.0652969 9.7494 0.35222 10.9087 0.893885 11.9548C1.43555 13.0009 2.21664 13.9043 3.17355 14.5914C4.13045 15.2785 5.23611 15.7298 6.40049 15.9087C7.56486 16.0876 8.75502 15.9889 9.87404 15.6207C10.9931 15.2526 12.0093 14.6253 12.84 13.79L6.25 9.47L6.29 1.14ZM11.05 13.89C10.2969 14.383 9.44858 14.7121 8.56006 14.856C7.67154 14.9999 6.76269 14.9554 5.8925 14.7253C5.02231 14.4952 4.21023 14.0847 3.50897 13.5204C2.80771 12.9561 2.23294 12.2507 1.82197 11.4499C1.411 10.6491 1.17301 9.77081 1.12345 8.87208C1.07389 7.97335 1.21386 7.07424 1.53429 6.23311C1.85472 5.39198 2.34844 4.62762 2.9834 3.98966C3.61837 3.3517 4.38038 2.85439 5.22 2.53V10.05L11.09 13.89H11.05Z" fill="#0E0E0E"/>
</g>
</g>
<defs>
<clipPath id="clip0_7172_332">
<rect width="16" height="16" fill="white"/>
</clipPath>
</defs>
</svg>
