<svg width="16" height="16" viewBox="0 0 16 16" fill="none" xmlns="http://www.w3.org/2000/svg">
<g id="dds2_undo" clip-path="url(#clip0_7172_610)">
<path id="Vector" d="M10.43 5.18H2.13L6.69 0.75L5.92 0L0 5.75L5.92 11.5L6.69 10.74L2.07 6.25H10.43C11.5979 6.23396 12.7245 6.68192 13.5625 7.49557C14.4006 8.30923 14.8816 9.42211 14.9 10.59C14.8922 11.1691 14.7703 11.7411 14.5415 12.2731C14.3126 12.8052 13.9811 13.2869 13.566 13.6909C13.1509 14.0948 12.6603 14.4131 12.1223 14.6274C11.5842 14.8417 11.0091 14.9479 10.43 14.94H3V16H10.47C11.9184 16.0081 13.3116 15.4445 14.3469 14.4316C15.3823 13.4187 15.9763 12.0382 16 10.59C15.9763 9.13476 15.3768 7.74825 14.3327 6.73421C13.2887 5.72016 11.8853 5.16128 10.43 5.18Z" fill="#0E0E0E"/>
</g>
<defs>
<clipPath id="clip0_7172_610">
<rect width="16" height="16" fill="white"/>
</clipPath>
</defs>
</svg>
