<svg width="16" height="16" viewBox="0 0 16 16" fill="none" xmlns="http://www.w3.org/2000/svg">
<path d="M10.71 2.70999V3.77999C11.8292 3.77999 12.9026 4.22459 13.694 5.01599C14.4854 5.8074 14.93 6.88077 14.93 7.99999C14.93 9.1192 14.4854 10.1926 13.694 10.984C12.9026 11.7754 11.8292 12.22 10.71 12.22V13.29C12.113 13.29 13.4585 12.7326 14.4506 11.7406C15.4427 10.7485 16 9.40298 16 7.99999C16 6.59699 15.4427 5.25146 14.4506 4.25939C13.4585 3.26732 12.113 2.70999 10.71 2.70999Z" fill="#0E0E0E"/>
<path d="M12.71 7.99999C12.71 7.46955 12.4993 6.96084 12.1242 6.58577C11.7491 6.2107 11.2404 5.99999 10.71 5.99999V7.06999C10.9567 7.06999 11.1932 7.16797 11.3676 7.34238C11.542 7.51678 11.64 7.75333 11.64 7.99999C11.64 8.24664 11.542 8.48319 11.3676 8.65759C11.1932 8.832 10.9567 8.92999 10.71 8.92999V9.99999C11.2404 9.99999 11.7491 9.78927 12.1242 9.4142C12.4993 9.03913 12.71 8.53042 12.71 7.99999Z" fill="#0E0E0E"/>
<path d="M0 14.39H9.64V1.60999H0V14.39ZM1.07 2.67999H8.57V13.32H1.07V2.67999Z" fill="#0E0E0E"/>
<path d="M5.66 6.19999L4.9 5.43999L2.35 7.99999L4.9 10.56L5.66 9.79999L4.38 8.51999H7.49V7.45999H4.4L5.66 6.19999Z" fill="#0E0E0E"/>
</svg>
