<svg width="16" height="16" viewBox="0 0 16 16" fill="none" xmlns="http://www.w3.org/2000/svg">
<g id="dds2_puzzle" clip-path="url(#clip0_7172_727)">
<g id="Vector">
<path d="M14 8.25C14 8.25 14 8.19 14 8.15C14.0524 7.98162 14.0794 7.80635 14.08 7.63C14.0822 7.17754 13.9186 6.73995 13.62 6.4C13.4432 6.18298 13.2207 6.0077 12.9683 5.88669C12.7159 5.76569 12.4399 5.70193 12.16 5.7C11.9011 5.69199 11.6432 5.73591 11.4015 5.82918C11.1598 5.92245 10.9392 6.06318 10.7528 6.24307C10.5664 6.42296 10.4179 6.63836 10.3161 6.87656C10.2143 7.11477 10.1612 7.37095 10.16 7.63C10.16 7.84152 10.1972 8.0514 10.27 8.25H8.73V9.3H11.73V8.41C11.5798 8.34174 11.4521 8.23216 11.3618 8.09405C11.2715 7.95594 11.2223 7.795 11.22 7.63C11.2226 7.39569 11.3176 7.17188 11.4842 7.00713C11.6508 6.84238 11.8757 6.74999 12.11 6.75C12.2396 6.74961 12.3675 6.77919 12.4837 6.83644C12.5999 6.89369 12.7013 6.97705 12.78 7.08C12.9075 7.23125 12.9782 7.42221 12.98 7.62C12.98 7.68 12.98 7.72 12.98 7.77C12.95 7.94753 12.8662 8.11158 12.74 8.24C12.6706 8.30779 12.5893 8.36205 12.5 8.4V9.3H14.92V15H8.73V16H16V8.25H14Z" fill="#0E0E0E"/>
<path d="M7.87 14H8C8.3057 14.091 8.62921 14.1049 8.94158 14.0403C9.25395 13.9758 9.54545 13.8348 9.79 13.63C10.0084 13.4567 10.1848 13.2362 10.306 12.9851C10.4272 12.7341 10.4901 12.4588 10.49 12.18C10.4874 11.9227 10.4337 11.6684 10.3319 11.432C10.2301 11.1957 10.0823 10.9819 9.89711 10.8032C9.71191 10.6245 9.493 10.4845 9.25314 10.3912C9.01328 10.298 8.75727 10.2534 8.5 10.26C8.28472 10.264 8.07168 10.3046 7.87 10.38V8.84H6.8V11.84H7.71C7.77943 11.6893 7.89095 11.562 8.03112 11.4733C8.17129 11.3846 8.33412 11.3383 8.5 11.34C8.61557 11.3387 8.73026 11.3601 8.83753 11.4031C8.9448 11.4462 9.04255 11.5099 9.1252 11.5907C9.20784 11.6714 9.27377 11.7677 9.3192 11.874C9.36464 11.9803 9.38869 12.0944 9.39 12.21C9.38886 12.3379 9.35854 12.4638 9.30135 12.5782C9.24416 12.6926 9.16162 12.7924 9.06 12.87C8.901 12.9975 8.7038 13.0679 8.5 13.07H8.35C8.17344 13.0434 8.00935 12.9631 7.88 12.84C7.81181 12.7688 7.75453 12.6879 7.71 12.6H6.8V15H1.07V8.84H0V16H7.87V14Z" fill="#0E0E0E"/>
<path d="M2 7.78C2 7.78 2 7.84 2 7.87C1.92016 8.15531 1.90708 8.45517 1.96177 8.74634C2.01646 9.03752 2.13744 9.3122 2.31536 9.5491C2.49328 9.786 2.72334 9.97875 2.98773 10.1124C3.25213 10.2461 3.54375 10.3171 3.84 10.32C4.09844 10.3294 4.35613 10.2867 4.59776 10.1946C4.8394 10.1024 5.06005 9.96264 5.24661 9.78355C5.43316 9.60445 5.58183 9.38969 5.68376 9.15202C5.7857 8.91434 5.83883 8.65861 5.84 8.4C5.84005 8.18847 5.80281 7.9786 5.73 7.78H7.27V6.78H4.27V7.67C4.42097 7.73726 4.54936 7.8466 4.63981 7.98493C4.73026 8.12326 4.77893 8.28473 4.78 8.45C4.77869 8.56557 4.75464 8.67974 4.7092 8.78601C4.66377 8.89228 4.59784 8.98855 4.5152 9.06934C4.43255 9.15013 4.3348 9.21385 4.22753 9.25686C4.12026 9.29986 4.00557 9.32132 3.89 9.32C3.76044 9.32039 3.63254 9.29081 3.51631 9.23356C3.40008 9.17631 3.29866 9.09295 3.22 8.99C3.07407 8.82463 2.99556 8.6105 3 8.39C3 8.34 3 8.3 3 8.25C3.03003 8.07247 3.1138 7.90842 3.24 7.78C3.30936 7.71221 3.39075 7.65795 3.48 7.62V6.72H1.07V1.08H7.27V0H0V7.78H2Z" fill="#0E0E0E"/>
<path d="M8.13 2H8C7.6943 1.90895 7.37079 1.89509 7.05842 1.95966C6.74605 2.02423 6.45455 2.16521 6.21 2.37C5.9916 2.54332 5.8152 2.76376 5.69398 3.01485C5.57276 3.26594 5.50987 3.54118 5.51 3.82C5.51121 4.07905 5.56429 4.33523 5.66611 4.57344C5.76793 4.81164 5.91643 5.02704 6.10284 5.20693C6.28925 5.38682 6.5098 5.52755 6.75148 5.62082C6.99316 5.71409 7.25107 5.75801 7.51 5.75C7.72528 5.74599 7.93832 5.70541 8.14 5.63V7.16H9.2V4.16H8.3C8.22691 4.30994 8.11315 4.43631 7.9717 4.52472C7.83025 4.61312 7.6668 4.66 7.5 4.66C7.38443 4.66132 7.26974 4.63986 7.16247 4.59686C7.0552 4.55385 6.95745 4.49013 6.8748 4.40934C6.79216 4.32855 6.72623 4.23228 6.6808 4.12601C6.63536 4.01974 6.61131 3.90557 6.61 3.79C6.61951 3.65867 6.65977 3.53142 6.72751 3.41851C6.79526 3.3056 6.8886 3.2102 7 3.14C7.159 3.0125 7.3562 2.94208 7.56 2.94C7.60989 2.9353 7.66011 2.9353 7.71 2.94C7.88656 2.96662 8.05065 3.04692 8.18 3.17C8.24819 3.24118 8.30547 3.32206 8.35 3.41H9.25V1.05H14.98V7.16H16V0H8.13V2Z" fill="#0E0E0E"/>
</g>
</g>
<defs>
<clipPath id="clip0_7172_727">
<rect width="16" height="16" fill="white"/>
</clipPath>
</defs>
</svg>
