<svg width="16" height="16" viewBox="0 0 16 16" fill="none" xmlns="http://www.w3.org/2000/svg">
<g clip-path="url(#clip0_7172_1241)">
<path d="M6.9 3.27002C8.05307 3.27002 9.18024 3.61194 10.139 4.25255C11.0977 4.89316 11.845 5.80368 12.2862 6.86898C12.7275 7.93427 12.8429 9.10649 12.618 10.2374C12.393 11.3683 11.8378 12.4071 11.0224 13.2225C10.2071 14.0378 9.16829 14.593 8.03738 14.818C6.90647 15.0429 5.73425 14.9275 4.66896 14.4862C3.60367 14.045 2.69314 13.2977 2.05254 12.339C1.41193 11.3803 1.07 10.2531 1.07 9.10002C1.07 7.55381 1.68423 6.07092 2.77757 4.97759C3.87091 3.88425 5.35379 3.27002 6.9 3.27002ZM6.9 2.20002C5.53531 2.20002 4.20127 2.6047 3.06657 3.36288C1.93187 4.12106 1.04748 5.19869 0.525234 6.4595C0.00298965 7.72031 -0.133653 9.10767 0.132585 10.4461C0.398823 11.7846 1.05598 13.0141 2.02097 13.9791C2.98595 14.944 4.21541 15.6012 5.55388 15.8674C6.89235 16.1337 8.27971 15.997 9.54052 15.4748C10.8013 14.9525 11.879 14.0682 12.6371 12.9335C13.3953 11.7988 13.8 10.4647 13.8 9.10002C13.8 8.1939 13.6215 7.29665 13.2748 6.4595C12.928 5.62236 12.4198 4.86171 11.779 4.22098C11.1383 3.58026 10.3777 3.07201 9.54052 2.72525C8.70337 2.37849 7.80612 2.20002 6.9 2.20002Z" fill="#0E0E0E"/>
<path d="M9.08 1.93116e-05C7.59156 0.00818498 6.14333 0.483933 4.94 1.36002C5.56985 1.19574 6.21919 1.11835 6.87 1.13002C7.20451 1.11545 7.53963 1.13555 7.87 1.19002C8.27835 1.0879 8.69968 1.04745 9.12 1.07002C10.661 1.07795 12.1362 1.69568 13.2231 2.78816C14.3099 3.88064 14.92 5.35899 14.92 6.90002C14.9132 7.31546 14.8764 7.72986 14.81 8.14002C14.8624 8.47062 14.8825 8.80553 14.87 9.14002C14.8477 9.76554 14.7708 10.3879 14.64 11C15.5276 9.81784 16.0051 8.37829 16 6.90002C16.0053 5.99072 15.8298 5.08943 15.4837 4.24857C15.1376 3.4077 14.6278 2.64404 13.9838 2.00199C13.3399 1.35994 12.5748 0.852308 11.7329 0.508622C10.8911 0.164936 9.98928 -0.00794954 9.08 1.93116e-05Z" fill="#0E0E0E"/>
<path d="M7.43 12H6.35L5 9.61002H3.86V12H2.78V5.82002H4.88C5.46256 5.78719 6.0395 5.94901 6.52 6.28002C6.72705 6.45019 6.89174 6.66613 7.00107 6.91082C7.1104 7.15551 7.16138 7.42226 7.15 7.69002C7.15393 8.05236 7.03397 8.40517 6.81 8.69002C6.60011 8.93699 6.34991 9.14662 6.07 9.31002L7.38 11.7L7.43 12ZM3.86 8.71002H4.86C5.1675 8.70932 5.46621 8.60741 5.71 8.42002C5.81784 8.34535 5.90539 8.245 5.96475 8.12803C6.02411 8.01105 6.05341 7.88115 6.05 7.75002C6.04713 7.47841 5.95586 7.21513 5.79 7.00002C5.54494 6.8162 5.24634 6.71784 4.94 6.72002H3.86V8.71002Z" fill="#0E0E0E"/>
<path d="M9.48 12C9.107 12.0218 8.73477 11.9459 8.4 11.78C8.12306 11.633 7.87289 11.4403 7.66 11.21L7.6 11.1C7.46883 10.8744 7.39341 10.6207 7.38 10.36V10.19H8.45V10.36C8.45532 10.4701 8.48391 10.5779 8.5339 10.6761C8.58389 10.7744 8.65413 10.8609 8.74 10.93C8.93437 11.0799 9.1747 11.1576 9.42 11.15C9.68751 11.1555 9.95418 11.1184 10.21 11.04L10.27 10.98C10.38 10.87 10.5 10.82 10.5 10.59C10.5175 10.5139 10.5105 10.4343 10.4799 10.3624C10.4494 10.2906 10.3969 10.2302 10.33 10.19C10.1788 10.0846 10.0033 10.0192 9.82 10C9.7 10 9.59 10 9.53 9.89002C9.18099 9.82947 8.84359 9.71475 8.53 9.55002C8.29421 9.44421 8.09563 9.27002 7.96 9.05002C7.81303 8.85416 7.7356 8.61485 7.74 8.37002C7.73404 8.15536 7.77683 7.94215 7.86517 7.74642C7.95351 7.55069 8.08508 7.37755 8.25 7.24002C8.63644 6.93392 9.1171 6.77135 9.61 6.78002C9.86064 6.76039 10.1127 6.79097 10.3514 6.86995C10.59 6.94894 10.8106 7.07475 11 7.24002C11.17 7.38426 11.3045 7.56576 11.3929 7.77041C11.4814 7.97507 11.5214 8.19736 11.51 8.42002V8.54002H10.38V8.42002C10.3818 8.32571 10.3631 8.23213 10.3251 8.14579C10.2871 8.05944 10.2308 7.98241 10.16 7.92002C9.98274 7.77312 9.76022 7.69188 9.53 7.69002C9.3396 7.68785 9.15362 7.7475 9 7.86002C8.93204 7.91382 8.87699 7.98217 8.83892 8.06005C8.80085 8.13792 8.78071 8.22334 8.78 8.31002C8.77599 8.37663 8.78959 8.44312 8.81943 8.5028C8.84928 8.56249 8.89431 8.61326 8.95 8.65002C9.18428 8.762 9.43353 8.83947 9.69 8.88002C10.039 8.94057 10.3764 9.05529 10.69 9.22002C10.97 9.39002 11.2 9.50002 11.31 9.72002C11.4511 9.93937 11.5112 10.2011 11.48 10.46C11.4812 10.68 11.4302 10.8972 11.3311 11.0937C11.232 11.2901 11.0877 11.4602 10.91 11.59C10.7103 11.7491 10.4813 11.8672 10.2359 11.9375C9.99048 12.0079 9.73361 12.0291 9.48 12Z" fill="#0E0E0E"/>
</g>
<defs>
<clipPath id="clip0_7172_1241">
<rect width="16" height="16" fill="white"/>
</clipPath>
</defs>
</svg>
