<svg width="16" height="16" viewBox="0 0 16 16" fill="none" xmlns="http://www.w3.org/2000/svg">
<g id="dds2_snapshot" clip-path="url(#clip0_7172_1291)">
<g id="Vector">
<path d="M14.93 14.93H12.27V16H16V12.27H14.93V14.93Z" fill="#0E0E0E"/>
<path d="M1.07 12.27H0V16H3.73V14.93H1.07V12.27Z" fill="#0E0E0E"/>
<path d="M1.07 1.07H3.73V0H0V3.73H1.07V1.07Z" fill="#0E0E0E"/>
<path d="M12.27 0V1.07H14.93V3.73H16V0H12.27Z" fill="#0E0E0E"/>
<path d="M12.35 8.53H14.35V7.47H12.35C12.2303 6.49854 11.7893 5.59496 11.0972 4.90283C10.405 4.2107 9.50146 3.76974 8.53 3.65V1.65H7.47V3.65C6.49854 3.76974 5.59496 4.2107 4.90283 4.90283C4.2107 5.59496 3.76974 6.49854 3.65 7.47H1.65V8.53H3.65C3.76974 9.50146 4.2107 10.405 4.90283 11.0972C5.59496 11.7893 6.49854 12.2303 7.47 12.35V14.35H8.53V12.35C9.50146 12.2303 10.405 11.7893 11.0972 11.0972C11.7893 10.405 12.2303 9.50146 12.35 8.53ZM11.28 7.47H8.53V4.72C9.21872 4.83243 9.85472 5.15839 10.3482 5.65183C10.8416 6.14528 11.1676 6.78128 11.28 7.47ZM7.47 4.72V7.47H4.72C4.83243 6.78128 5.15839 6.14528 5.65183 5.65183C6.14528 5.15839 6.78128 4.83243 7.47 4.72ZM4.72 8.53H7.47V11.28C6.78128 11.1676 6.14528 10.8416 5.65183 10.3482C5.15839 9.85472 4.83243 9.21872 4.72 8.53ZM8.53 11.28V8.53H11.28C11.1676 9.21872 10.8416 9.85472 10.3482 10.3482C9.85472 10.8416 9.21872 11.1676 8.53 11.28Z" fill="#0E0E0E"/>
</g>
</g>
<defs>
<clipPath id="clip0_7172_1291">
<rect width="16" height="16" fill="white"/>
</clipPath>
</defs>
</svg>
