<svg width="16" height="16" viewBox="0 0 16 16" fill="none" xmlns="http://www.w3.org/2000/svg">
<g id="dds2_power-supply-double" clip-path="url(#clip0_7172_322)">
<path id="Vector" d="M15.15 8.73007C14.6993 8.31378 14.1032 8.09113 13.49 8.11007C11.7 8.11007 11.12 9.60007 10.65 10.7901C10.18 11.9801 9.78 12.8601 8.65 12.8601H8.4C7.90641 12.855 7.43418 12.658 7.08328 12.3108C6.73238 11.9637 6.53037 11.4936 6.52 11.0001V9.39007C6.88109 9.28985 7.19958 9.07444 7.42702 8.77661C7.65445 8.47877 7.7784 8.11481 7.78 7.74007V4.14007H6.52V2.07007H5.45V4.14007H4.25V7.74007C4.24728 8.10489 4.3627 8.46079 4.57899 8.75459C4.79528 9.04838 5.10084 9.2643 5.45 9.37007V11.0001C5.45377 11.6988 5.70135 12.3744 6.15 12.9101H4.15C3.64865 12.9022 3.17051 12.6975 2.81878 12.3401C2.46705 11.9828 2.26994 11.5015 2.27 11.0001V9.39007C2.63109 9.28985 2.94958 9.07444 3.17702 8.77661C3.40445 8.47877 3.5284 8.11481 3.53 7.74007V4.14007H2.27V2.07007H1.2V4.14007H2.97538e-07V7.74007C-0.00111227 8.1045 0.114917 8.45964 0.330975 8.75312C0.547034 9.0466 0.851685 9.26288 1.2 9.37007V11.0001C1.2 11.7957 1.51607 12.5588 2.07868 13.1214C2.64129 13.684 3.40435 14.0001 4.2 14.0001H8.69C10.57 14.0001 11.17 12.4801 11.69 11.2501C12.21 10.0201 12.53 9.25007 13.57 9.25007C13.9023 9.24515 14.224 9.36669 14.47 9.59007C14.6549 9.80454 14.7945 10.0542 14.8804 10.324C14.9663 10.5938 14.9968 10.8782 14.97 11.1601V13.7101H16V11.0901C16.0312 10.6591 15.9717 10.2264 15.8252 9.81994C15.6788 9.41343 15.4488 9.04215 15.15 8.73007ZM5.32 5.21007H6.71V7.74007C6.71132 7.82412 6.69608 7.9076 6.66513 7.98576C6.63418 8.06391 6.58815 8.13521 6.52964 8.19557C6.47114 8.25593 6.40132 8.30417 6.32417 8.33755C6.24702 8.37092 6.16405 8.38877 6.08 8.39007H5.94C5.77201 8.38484 5.61281 8.31373 5.49681 8.19211C5.3808 8.07049 5.31729 7.90812 5.32 7.74007V5.21007ZM1.07 5.21007H2.46V7.74007C2.46132 7.82412 2.44608 7.9076 2.41513 7.98576C2.38419 8.06391 2.33815 8.13521 2.27964 8.19557C2.22114 8.25593 2.15132 8.30417 2.07417 8.33755C1.99702 8.37092 1.91405 8.38877 1.83 8.39007H1.7C1.61595 8.38877 1.53298 8.37092 1.45583 8.33755C1.37868 8.30417 1.30886 8.25593 1.25036 8.19557C1.19185 8.13521 1.14582 8.06391 1.11487 7.98576C1.08392 7.9076 1.06868 7.82412 1.07 7.74007V5.21007Z" fill="#0E0E0E"/>
</g>
<defs>
<clipPath id="clip0_7172_322">
<rect width="16" height="16" fill="white"/>
</clipPath>
</defs>
</svg>
