<svg width="16" height="16" viewBox="0 0 16 16" fill="none" xmlns="http://www.w3.org/2000/svg">
<g id="dds2_import" clip-path="url(#clip0_7172_713)">
<g id="Vector">
<path d="M1.07 8C1.07 6.16205 1.80013 4.39938 3.09975 3.09975C4.39938 1.80013 6.16205 1.07 8 1.07C9.83795 1.07 11.6006 1.80013 12.9003 3.09975C14.1999 4.39938 14.93 6.16205 14.93 8H16C16 6.41775 15.5308 4.87103 14.6518 3.55544C13.7727 2.23985 12.5233 1.21447 11.0615 0.608967C9.59966 0.00346625 7.99113 -0.15496 6.43928 0.153721C4.88743 0.462403 3.46197 1.22433 2.34315 2.34315C1.22433 3.46197 0.462403 4.88743 0.153721 6.43928C-0.15496 7.99113 0.00346625 9.59966 0.608967 11.0615C1.21447 12.5233 2.23985 13.7727 3.55544 14.6518C4.87103 15.5308 6.41775 16 8 16V14.93C6.16287 14.9274 4.40173 14.1964 3.10268 12.8973C1.80362 11.5983 1.07265 9.83714 1.07 8Z" fill="#0E0E0E"/>
<path d="M14.92 14.09L7.54 6.71L6.78 7.46L14.24 14.93H11V16H16V11H14.92V14.09Z" fill="#0E0E0E"/>
</g>
</g>
<defs>
<clipPath id="clip0_7172_713">
<rect width="16" height="16" fill="white"/>
</clipPath>
</defs>
</svg>
