<svg width="16" height="16" viewBox="0 0 16 16" fill="none" xmlns="http://www.w3.org/2000/svg">
<g id="dds2_objects" clip-path="url(#clip0_7172_1418)">
<g id="Vector">
<path d="M4.71 3.14998L6.06 5.88998C6.3805 5.7239 6.71516 5.58669 7.06 5.47998L4.71 0.72998L0 10.3H3.15C3.17998 9.93742 3.24699 9.57889 3.35 9.22998H1.72L4.72 3.14998H4.71Z" fill="#0E0E0E"/>
<path d="M8 2.32998V5.32998C8.21162 5.29468 8.42551 5.27463 8.64 5.26998C8.78 5.26998 8.92 5.26998 9.07 5.26998V3.38998H14.9V9.22998H14C14.103 9.57889 14.17 9.93742 14.2 10.3H16V2.29998L8 2.32998Z" fill="#0E0E0E"/>
<path d="M8.65 6.27998C7.75956 6.278 6.88855 6.54024 6.14722 7.0335C5.40588 7.52676 4.82755 8.22887 4.48542 9.05097C4.14329 9.87306 4.05275 10.7782 4.22525 11.6517C4.39775 12.5253 4.82555 13.3281 5.45448 13.9584C6.08342 14.5887 6.88522 15.0183 7.75841 15.1928C8.6316 15.3672 9.53691 15.2787 10.3598 14.9384C11.1826 14.5981 11.886 14.0213 12.3809 13.2811C12.8758 12.5408 13.14 11.6704 13.14 10.78C13.14 9.58824 12.6673 8.44516 11.8255 7.60153C10.9838 6.7579 9.84174 6.28263 8.65 6.27998ZM8.65 14.21C7.97119 14.212 7.30705 14.0125 6.74168 13.6368C6.1763 13.2611 5.73512 12.7261 5.47397 12.0995C5.21283 11.473 5.14348 10.783 5.27469 10.117C5.40591 9.45096 5.73179 8.83886 6.21109 8.35816C6.69038 7.87747 7.30153 7.5498 7.96715 7.41664C8.63278 7.28348 9.32295 7.35082 9.95028 7.61013C10.5776 7.86944 11.1139 8.30906 11.4912 8.87334C11.8686 9.43761 12.07 10.1012 12.07 10.78C12.07 11.6879 11.71 12.5589 11.0689 13.2018C10.4278 13.8448 9.55796 14.2073 8.65 14.21Z" fill="#0E0E0E"/>
</g>
</g>
<defs>
<clipPath id="clip0_7172_1418">
<rect width="16" height="16" fill="white"/>
</clipPath>
</defs>
</svg>
