<svg width="16" height="16" viewBox="0 0 16 16" fill="none" xmlns="http://www.w3.org/2000/svg">
<g id="dds2_user-cir-remove" clip-path="url(#clip0_7172_612)">
<g id="Vector">
<path d="M15.82 6.31H14.71C14.8542 6.86182 14.9282 7.42965 14.93 8C14.9317 9.60417 14.3768 11.1593 13.36 12.4C12.9131 11.2949 12.1472 10.348 11.16 9.68L10.83 9.47L10.53 9.72C9.81113 10.2928 8.91917 10.6047 8 10.6047C7.08084 10.6047 6.18888 10.2928 5.47 9.72L5.17 9.47L4.84 9.68C3.85915 10.3506 3.09472 11.2923 2.64 12.39C1.80897 11.3749 1.28313 10.1449 1.1236 8.84274C0.964069 7.54062 1.17741 6.21997 1.73881 5.03431C2.30022 3.84866 3.18663 2.8467 4.295 2.14494C5.40336 1.44317 6.68815 1.07041 8 1.07C8.57366 1.07165 9.14482 1.14557 9.7 1.29V0.18C9.14084 0.062957 8.57128 0.00265134 8 0C6.41775 0 4.87103 0.469192 3.55544 1.34824C2.23985 2.22729 1.21447 3.47672 0.608967 4.93853C0.00346625 6.40034 -0.15496 8.00887 0.153721 9.56072C0.462403 11.1126 1.22433 12.538 2.34315 13.6569C3.46197 14.7757 4.88743 15.5376 6.43928 15.8463C7.99113 16.155 9.59966 15.9965 11.0615 15.391C12.5233 14.7855 13.7727 13.7602 14.6518 12.4446C15.5308 11.129 16 9.58225 16 8C15.9967 7.43206 15.9364 6.86589 15.82 6.31ZM3.47 13.23C3.77641 12.2761 4.34885 11.4296 5.12 10.79C5.96982 11.3665 6.97309 11.6747 8 11.6747C9.02691 11.6747 10.0302 11.3665 10.88 10.79C11.6488 11.4338 12.2235 12.2785 12.54 13.23C11.2833 14.3259 9.67237 14.9296 8.005 14.9296C6.33763 14.9296 4.72666 14.3259 3.47 13.23Z" fill="#0E0E0E"/>
<path d="M10.77 2.09H16V3.15H10.77V2.09Z" fill="#0E0E0E"/>
<path d="M4.63 6.68C4.62803 7.34694 4.82399 7.99948 5.19308 8.55499C5.56218 9.1105 6.08781 9.54399 6.70342 9.80059C7.31903 10.0572 7.99693 10.1254 8.65131 9.99646C9.30568 9.86756 9.90709 9.54739 10.3794 9.07649C10.8517 8.60559 11.1737 8.00513 11.3045 7.35114C11.4353 6.69715 11.3692 6.01905 11.1144 5.40268C10.8597 4.78631 10.4277 4.25939 9.87331 3.88865C9.3189 3.5179 8.66695 3.32 8 3.32C7.10795 3.32 6.25229 3.67368 5.62058 4.30351C4.98887 4.93335 4.63265 5.78795 4.63 6.68ZM10.31 6.68C10.314 7.13771 10.1819 7.58627 9.93046 7.96877C9.67905 8.35127 9.31968 8.65046 8.89795 8.82837C8.47622 9.00628 8.01114 9.05489 7.56173 8.96803C7.11232 8.88116 6.69885 8.66275 6.37379 8.3405C6.04873 8.01825 5.82673 7.6067 5.73596 7.15807C5.6452 6.70943 5.68976 6.24395 5.864 5.82068C6.03823 5.39742 6.33428 5.03546 6.71458 4.78074C7.09488 4.52602 7.54228 4.39002 8 4.39C8.6092 4.38998 9.19375 4.6306 9.62639 5.0595C10.059 5.48839 10.3047 6.07082 10.31 6.68Z" fill="#0E0E0E"/>
</g>
</g>
<defs>
<clipPath id="clip0_7172_612">
<rect width="16" height="16" fill="white"/>
</clipPath>
</defs>
</svg>
