<svg width="16" height="16" viewBox="0 0 16 16" fill="none" xmlns="http://www.w3.org/2000/svg">
<path d="M8 5.00001C7.26228 5.00001 6.54112 5.21877 5.92772 5.62863C5.31433 6.03848 4.83624 6.62103 4.55393 7.3026C4.27161 7.98417 4.19775 8.73415 4.34167 9.4577C4.48559 10.1812 4.84084 10.8459 5.36249 11.3675C5.88414 11.8892 6.54876 12.2444 7.27231 12.3883C7.99586 12.5323 8.74584 12.4584 9.42741 12.1761C10.109 11.8938 10.6915 11.4157 11.1014 10.8023C11.5112 10.1889 11.73 9.46773 11.73 8.73001C11.73 7.74075 11.337 6.79201 10.6375 6.0925C9.938 5.39299 8.98926 5.00001 8 5.00001ZM8 11.38C7.47348 11.38 6.9588 11.2237 6.52115 10.931C6.0835 10.6383 5.74257 10.2223 5.54154 9.73562C5.34051 9.24899 5.28842 8.71364 5.39187 8.19738C5.49532 7.68112 5.74965 7.20717 6.12266 6.83556C6.49567 6.46396 6.97057 6.21141 7.48722 6.1099C8.00386 6.0084 8.53901 6.06251 9.02489 6.26537C9.51076 6.46823 9.9255 6.81073 10.2166 7.24948C10.5077 7.68822 10.662 8.20349 10.66 8.73001C10.664 9.08137 10.598 9.43002 10.466 9.75566C10.334 10.0813 10.1385 10.3774 9.89101 10.6268C9.64347 10.8762 9.34881 11.0739 9.02417 11.2084C8.69952 11.3428 8.35138 11.4114 8 11.41V11.38Z" fill="#0E0E0E"/>
<path d="M13.38 7.18001C13.5789 7.18001 13.7697 7.10099 13.9103 6.96034C14.051 6.81968 14.13 6.62892 14.13 6.43001C14.13 6.28167 14.086 6.13667 14.0036 6.01333C13.9212 5.88999 13.8041 5.79386 13.667 5.7371C13.53 5.68033 13.3792 5.66548 13.2337 5.69442C13.0882 5.72336 12.9546 5.79479 12.8497 5.89968C12.7448 6.00457 12.6734 6.1382 12.6444 6.28369C12.6155 6.42918 12.6303 6.57998 12.6871 6.71702C12.7439 6.85406 12.84 6.9712 12.9633 7.05361C13.0867 7.13602 13.2317 7.18001 13.38 7.18001Z" fill="#0E0E0E"/>
<path d="M13 3.88001L10.6 1.07001H5.6L3 3.88001H0V14.93H16V3.93001L13 3.88001ZM14.92 13.88H1.07V4.94001H3.48L6.08 2.13001H10.08L12.48 4.94001H14.9V13.87L14.92 13.88Z" fill="#0E0E0E"/>
</svg>
