<svg width="16" height="16" viewBox="0 0 16 16" fill="none" xmlns="http://www.w3.org/2000/svg">
<g id="dds2_user-cir-add" clip-path="url(#clip0_7172_749)">
<g id="Vector">
<path d="M15.82 6.31H14.71C14.8536 6.86194 14.9275 7.42969 14.93 8C14.9317 9.60417 14.3768 11.1593 13.36 12.4C12.9114 11.2986 12.1457 10.3553 11.16 9.69L10.83 9.47L10.53 9.72C9.81113 10.2928 8.91917 10.6047 8 10.6047C7.08084 10.6047 6.18888 10.2928 5.47 9.72L5.17 9.47L4.84 9.68C3.85915 10.3506 3.09472 11.2923 2.64 12.39C1.80897 11.3749 1.28313 10.1449 1.1236 8.84274C0.964069 7.54062 1.17741 6.21997 1.73881 5.03431C2.30022 3.84866 3.18663 2.8467 4.295 2.14494C5.40336 1.44317 6.68815 1.07041 8 1.07C8.57366 1.07165 9.14482 1.14557 9.7 1.29V0.18C9.14084 0.062957 8.57128 0.00265134 8 0C6.41775 0 4.87103 0.469192 3.55544 1.34824C2.23985 2.22729 1.21447 3.47672 0.608967 4.93853C0.00346625 6.40034 -0.15496 8.00887 0.153721 9.56072C0.462403 11.1126 1.22433 12.538 2.34315 13.6569C3.46197 14.7757 4.88743 15.5376 6.43928 15.8463C7.99113 16.155 9.59966 15.9965 11.0615 15.391C12.5233 14.7855 13.7727 13.7602 14.6518 12.4446C15.5308 11.129 16 9.58225 16 8C15.9967 7.43206 15.9364 6.86589 15.82 6.31ZM3.47 13.23C3.77641 12.2761 4.34885 11.4296 5.12 10.79C5.96982 11.3665 6.97309 11.6747 8 11.6747C9.02691 11.6747 10.0302 11.3665 10.88 10.79C11.6499 11.4307 12.2221 12.2769 12.53 13.23C11.275 14.3251 9.66568 14.9285 8 14.9285C6.33433 14.9285 4.72505 14.3251 3.47 13.23Z" fill="#0E0E0E"/>
<path d="M12.83 5.23H13.89V3.16H16V2.09H13.9V0H12.83V2.09H10.77V3.16H12.83V5.23Z" fill="#0E0E0E"/>
<path d="M4.63 6.69C4.63 7.35652 4.82765 8.00808 5.19795 8.56227C5.56825 9.11647 6.09457 9.54841 6.71036 9.80347C7.32615 10.0585 8.00374 10.1253 8.65746 9.99525C9.31117 9.86521 9.91165 9.54425 10.383 9.07295C10.8543 8.60165 11.1752 8.00117 11.3053 7.34745C11.4353 6.69374 11.3685 6.01614 11.1135 5.40036C10.8584 4.78457 10.4265 4.25825 9.87228 3.88795C9.31808 3.51765 8.66653 3.32 8 3.32C7.10622 3.32 6.24905 3.67505 5.61705 4.30705C4.98506 4.93905 4.63 5.79622 4.63 6.69ZM10.31 6.69C10.312 7.1473 10.1782 7.59489 9.92557 7.97608C9.67295 8.35727 9.31287 8.65491 8.89095 8.83128C8.46904 9.00765 8.00426 9.05483 7.55551 8.96683C7.10675 8.87883 6.69422 8.65961 6.37016 8.33696C6.0461 8.0143 5.82509 7.60272 5.73515 7.15435C5.6452 6.70598 5.69036 6.24101 5.8649 5.81833C6.03944 5.39565 6.33551 5.03428 6.7156 4.78001C7.09569 4.52574 7.5427 4.39 8 4.39C8.61093 4.38999 9.19697 4.632 9.6299 5.06304C10.0628 5.49409 10.3074 6.07908 10.31 6.69Z" fill="#0E0E0E"/>
</g>
</g>
<defs>
<clipPath id="clip0_7172_749">
<rect width="16" height="16" fill="white"/>
</clipPath>
</defs>
</svg>
