<svg width="16" height="16" viewBox="0 0 16 16" fill="none" xmlns="http://www.w3.org/2000/svg">
<g id="dds2_package-open" clip-path="url(#clip0_7172_867)">
<path id="Vector" d="M16 8.3999L13.2 5.9999L16 3.6999L10.9 0.399902L8 2.7999L5.3 0.399902L0 3.7999L3 6.0999L0 8.3999L3.1 10.1999V12.2999L8 15.5999L13 12.2999V10.1999L16 8.3999ZM10.9 10.1999L9 8.6999L12.3 6.6999L14.2 8.1999L10.9 10.1999ZM8 8.0999L4.9 6.0999L8 4.0999L11.3 5.9999L8 8.0999ZM11 1.7999L14.2 3.7999L12.3 5.2999L9 3.3999L11 1.7999ZM5.2 1.7999L7.1 3.3999L3.9 5.3999L1.9 3.8999L5.2 1.7999ZM3.9 6.7999L7.1 8.7999L5.2 10.1999L1.9 8.2999L3.9 6.7999ZM11.9 11.7999L8 14.2999L4.1 11.6999V10.7999L5.3 11.4999L8 9.3999L10.8 11.4999L11.9 10.7999V11.7999Z" fill="#0E0E0E"/>
</g>
<defs>
<clipPath id="clip0_7172_867">
<rect width="16" height="16" fill="white"/>
</clipPath>
</defs>
</svg>
