<svg width="16" height="16" viewBox="0 0 16 16" fill="none" xmlns="http://www.w3.org/2000/svg">
<path d="M11.78 9.79C11.6297 9.41065 11.3975 9.06918 11.1 8.79C10.7801 8.46694 10.4083 8.19989 9.99999 8C9.43392 7.72564 8.84912 7.49172 8.24999 7.3C7.68783 7.12173 7.14508 6.88721 6.62999 6.6C6.34398 6.43554 6.10074 6.20601 5.91999 5.93C5.77015 5.61883 5.70136 5.27486 5.71999 4.93C5.70834 4.65345 5.7589 4.37782 5.86793 4.1234C5.97697 3.86899 6.1417 3.64229 6.34999 3.46C6.84891 3.04105 7.48974 2.82983 8.13999 2.87C8.47201 2.8486 8.80474 2.89917 9.1154 3.01826C9.42607 3.13735 9.70735 3.32215 9.93999 3.56C10.398 4.07585 10.6351 4.75103 10.6 5.44V5.9H11.94V5.42C11.9876 4.4111 11.6518 3.42154 11 2.65C10.4289 2.03352 9.65514 1.64308 8.81999 1.55V0H7.48999V1.54C6.7096 1.62141 5.97475 1.94684 5.38999 2.47C5.05848 2.78152 4.79766 3.16053 4.62515 3.58146C4.45264 4.00239 4.37245 4.45543 4.38999 4.91C4.37389 5.45641 4.49056 5.99858 4.72999 6.49C4.96451 6.95191 5.30767 7.34998 5.72999 7.65C6.35385 8.04227 7.02618 8.35154 7.72999 8.57C8.37829 8.77825 9.00462 9.04955 9.59999 9.38C9.91752 9.55348 10.1859 9.80464 10.38 10.11C10.5459 10.416 10.6222 10.7626 10.6 11.11C10.6094 11.3776 10.5606 11.644 10.4571 11.8909C10.3535 12.1378 10.1975 12.3593 9.99999 12.54C9.50153 12.9617 8.86221 13.1795 8.20999 13.15C7.44092 13.2009 6.68178 12.9538 6.08999 12.46C5.8355 12.2186 5.63728 11.9241 5.50939 11.5975C5.3815 11.2708 5.32708 10.92 5.34999 10.57V10.12H3.99999V10.57C3.97462 11.0884 4.05657 11.6064 4.24069 12.0917C4.4248 12.5769 4.70713 13.0189 5.06999 13.39C5.76171 14.0201 6.64645 14.3972 7.57999 14.46V16H8.92999V14.44C9.71868 14.339 10.4545 13.9886 11.03 13.44C11.3558 13.1326 11.6133 12.76 11.7856 12.3465C11.9579 11.933 12.0412 11.4878 12.03 11.04C12.0186 10.6121 11.934 10.1893 11.78 9.79Z" fill="#0E0E0E"/>
</svg>
