<svg width="16" height="16" viewBox="0 0 16 16" fill="none" xmlns="http://www.w3.org/2000/svg">
<g clip-path="url(#clip0_7172_1378)">
<path d="M13.35 6.54C13.35 4 11.77 2 9.33 2C8.66413 1.98492 8.00599 2.14513 7.42154 2.46455C6.8371 2.78398 6.34687 3.25141 6 3.82C5.75703 3.80115 5.51297 3.80115 5.27 3.82C4.56225 3.74628 3.85243 3.93905 3.27919 4.36066C2.70596 4.78226 2.31048 5.40242 2.17 6.1C1.55473 6.27698 1.01221 6.64616 0.621778 7.15355C0.231342 7.66093 0.0134636 8.27992 2.6077e-08 8.92C-0.0125187 9.3029 0.0536726 9.6843 0.194478 10.0406C0.335284 10.3969 0.547708 10.7205 0.818606 10.9914C1.0895 11.2623 1.41311 11.4747 1.76941 11.6155C2.1257 11.7563 2.5071 11.8225 2.89 11.81H4.15L3.08 10.74H2.89C2.64797 10.7514 2.40622 10.7121 2.18024 10.6247C1.95426 10.5373 1.74904 10.4036 1.5777 10.2323C1.40637 10.061 1.27271 9.85573 1.18528 9.62975C1.09786 9.40378 1.05859 9.16203 1.07 8.92C1.06726 8.51174 1.19473 8.11323 1.4339 7.78235C1.67307 7.45147 2.01148 7.20545 2.4 7.08L3.07 6.89L3.17 6.2C3.17 6.2 3.38 4.83 5.17 4.83C5.37309 4.81595 5.57691 4.81595 5.78 4.83L6.55 5L6.9 4.37C7.15208 3.95539 7.5101 3.61546 7.93721 3.38521C8.36433 3.15496 8.84509 3.0427 9.33 3.06C11.33 3.06 12.28 4.81 12.28 6.54V7.54L13.28 7.61C13.45 7.61 14.94 7.76 14.94 9.18C14.9295 9.59911 14.755 9.99737 14.4539 10.2891C14.1528 10.5808 13.7492 10.7427 13.33 10.74H12.93L11.86 11.81H13.38C13.38 11.81 16 11.63 16 9.17C16 6.71 13.34 6.54 13.34 6.54H13.35Z" fill="#0E0E0E"/>
<path d="M4.38 10.53L5.13 11.28L7.48 8.93V14H8.55V9L10.87 11.32L11.62 10.57L8 6.91L4.38 10.53Z" fill="#0E0E0E"/>
</g>
<defs>
<clipPath id="clip0_7172_1378">
<rect width="16" height="16" fill="white"/>
</clipPath>
</defs>
</svg>
