<svg width="16" height="16" viewBox="0 0 16 16" fill="none" xmlns="http://www.w3.org/2000/svg">
<g id="dds2_ink-toner">
<g id="Vector">
<path d="M6 7.14C5.81542 7.46996 5.71898 7.84192 5.72 8.22C5.72261 8.82482 5.96334 9.40426 6.39008 9.83287C6.81681 10.2615 7.3952 10.5047 8 10.51C8.60653 10.5074 9.18748 10.2653 9.61637 9.83637C10.0453 9.40748 10.2874 8.82654 10.29 8.22C10.288 7.84103 10.1881 7.46901 10 7.14L8 4L6 7.14ZM8 6L9 7.54L9.05 7.63C9.14864 7.80738 9.20028 8.00704 9.2 8.21C9.2 8.53356 9.07146 8.84388 8.84267 9.07267C8.61388 9.30146 8.30356 9.43 7.98 9.43C7.65644 9.43 7.34612 9.30146 7.11733 9.07267C6.88854 8.84388 6.76 8.53356 6.76 8.21C6.75859 8.02644 6.79966 7.84505 6.88 7.68L8 6Z" fill="#0E0E0E"/>
<path d="M0 2V5.45H1V14H8L10.11 12.12H14.94V5.45H16V2H0ZM14.93 4.4H13.86V11.07H9.69L7.59 12.95H2.09V4.39H1.09V3.06H14.93V4.4Z" fill="#0E0E0E"/>
</g>
</g>
</svg>
