<svg width="16" height="16" viewBox="0 0 16 16" fill="none" xmlns="http://www.w3.org/2000/svg">
<g id="dds2_protractor" clip-path="url(#clip0_7172_998)">
<path id="Vector" d="M11.79 10L9.75998 5.11C10.0511 4.7315 10.2093 4.26753 10.21 3.79C10.2065 3.29874 10.0395 2.82263 9.73525 2.4369C9.43101 2.05117 9.00692 1.7778 8.52998 1.66V0H7.45998V1.66C6.9849 1.7797 6.56306 2.05388 6.26077 2.43944C5.95847 2.825 5.79287 3.30007 5.78998 3.79C5.78915 4.26778 5.94748 4.73222 6.23998 5.11L4.16998 10H0.169983V11.07H3.66998L1.78998 15.58L2.78998 16L4.88998 11.06H7.45998V12.66H8.52998V11.06H11.13L13.23 16L14.23 15.58L12.31 11.06H15.81V10H11.79ZM7.99998 2.66C8.15799 2.64515 8.31735 2.66346 8.46787 2.71375C8.61839 2.76403 8.75675 2.84519 8.8741 2.95203C8.99145 3.05887 9.0852 3.18904 9.14935 3.33419C9.2135 3.47935 9.24664 3.6363 9.24664 3.795C9.24664 3.9537 9.2135 4.11065 9.14935 4.25581C9.0852 4.40096 8.99145 4.53113 8.8741 4.63797C8.75675 4.74481 8.61839 4.82597 8.46787 4.87625C8.31735 4.92654 8.15799 4.94485 7.99998 4.93C7.85364 4.9319 7.70838 4.90458 7.57273 4.84963C7.43708 4.79468 7.31375 4.71321 7.20998 4.61C7.10044 4.50316 7.01312 4.3757 6.95306 4.23497C6.89299 4.09424 6.86136 3.94301 6.85998 3.79C6.86262 3.48939 6.98389 3.20199 7.1974 2.99036C7.4109 2.77872 7.69936 2.65999 7.99998 2.66ZM8.52998 10V8.39H7.45998V10H5.32998L7.10998 5.8C7.38841 5.93107 7.69225 5.99935 7.99998 6C8.30671 5.99998 8.60999 5.93524 8.88998 5.81L10.67 10H8.52998Z" fill="#0E0E0E"/>
</g>
<defs>
<clipPath id="clip0_7172_998">
<rect width="16" height="16" fill="white"/>
</clipPath>
</defs>
</svg>
