<svg width="16" height="16" viewBox="0 0 16 16" fill="none" xmlns="http://www.w3.org/2000/svg">
<g id="dds2_shield-protect">
<g id="Vector">
<path d="M2.32 0V6.13L3.39 3.89V1.07H13.39V8.28C13.2939 9.74632 12.7687 11.152 11.8796 12.322C10.9906 13.492 9.77699 14.3746 8.39001 14.86C7.36781 14.4515 6.43154 13.8545 5.63 13.1L4.93 13.9C5.91571 14.8348 7.08805 15.5505 8.37001 16C10.0276 15.4704 11.4868 14.4532 12.5573 13.0813C13.6277 11.7094 14.2594 10.0466 14.37 8.31V0H2.32Z" fill="#0E0E0E"/>
<path d="M7.79 6.24L9.54 2.55H5.22L2.06 9.19H4.35L1.63 16L10.11 6.27L7.79 6.24ZM4.93 10.6L5.93 8.13H3.74001L5.89 3.61H7.89L6.13 7.27H7.81L4.93 10.6Z" fill="#0E0E0E"/>
</g>
</g>
</svg>
