<svg width="16" height="16" viewBox="0 0 16 16" fill="none" xmlns="http://www.w3.org/2000/svg">
<path d="M13 5.35V0H5L1 3.73V16H13V13.12H12V14.93H2.08V4.69H6.08V1.07H12V4.66C12.3721 4.82809 12.7108 5.06183 13 5.35ZM5 3.63H2.67L5 1.41V3.63Z" fill="#0E0E0E"/>
<path d="M13.2 8.49C13.1963 8.08856 13.1287 7.69026 13 7.31C12.8307 6.73199 12.4801 6.22367 12 5.86C11.5677 5.57182 11.0595 5.41867 10.54 5.42C10.0766 5.39457 9.61503 5.49559 9.20462 5.71224C8.79421 5.92889 8.45041 6.25304 8.21 6.65H7.71C7.23636 6.59744 6.7601 6.7229 6.37382 7.00198C5.98754 7.28106 5.71885 7.69382 5.62 8.16C5.20313 8.28392 4.83801 8.54034 4.57997 8.89041C4.32192 9.24049 4.18502 9.66513 4.19 10.1C4.17455 10.3624 4.21402 10.6252 4.30588 10.8715C4.39774 11.1178 4.53998 11.3422 4.72349 11.5305C4.90701 11.7187 5.12778 11.8666 5.37168 11.9646C5.61559 12.0627 5.87727 12.1088 6.14 12.1H13.21C13.21 12.1 15 11.93 15 10.27C15 8.61 13.2 8.49 13.2 8.49ZM13.2 10.98H6.2C6.08134 10.9905 5.96182 10.9751 5.84974 10.9347C5.73766 10.8943 5.63572 10.8301 5.55102 10.7463C5.46631 10.6625 5.40087 10.5613 5.35925 10.4497C5.31762 10.3381 5.30082 10.2188 5.31 10.1C5.30333 9.89798 5.36338 9.69938 5.48086 9.5349C5.59835 9.37042 5.76674 9.24921 5.96 9.19L6.57 9L6.67 8.31C6.67 8.06 6.91 7.66 7.67 7.66C7.78982 7.65059 7.91018 7.65059 8.03 7.66L8.77 7.76L9.11 7.09C9.26016 6.87718 9.46185 6.70592 9.6962 6.59224C9.93055 6.47856 10.1899 6.42618 10.45 6.44C10.7904 6.41391 11.1296 6.50472 11.4114 6.69746C11.6932 6.89019 11.9008 7.17329 12 7.5C12.1196 7.8198 12.1806 8.15856 12.18 8.5V9.5L13.18 9.57C13.36 9.57 13.97 9.67 13.97 10.28C13.9674 10.3767 13.9457 10.472 13.9059 10.5603C13.8662 10.6485 13.8093 10.728 13.7386 10.7941C13.6679 10.8601 13.5847 10.9115 13.494 10.9451C13.4032 10.9788 13.3067 10.994 13.21 10.99L13.2 10.98Z" fill="#0E0E0E"/>
</svg>
