<svg width="16" height="16" viewBox="0 0 16 16" fill="none" xmlns="http://www.w3.org/2000/svg">
<g id="dds2_search" clip-path="url(#clip0_7172_1150)">
<path id="Vector" d="M16 15.26L10.7 10C11.6081 8.86609 12.0957 7.45274 12.08 6.00005C12.0801 5.20534 11.9223 4.41853 11.6157 3.68531C11.3092 2.9521 10.8601 2.28708 10.2945 1.72887C9.7288 1.17066 9.05789 0.730381 8.32068 0.4336C7.58346 0.13682 6.79464 -0.010551 6 4.51174e-05C5.20162 0.0078616 4.41266 0.173368 3.67845 0.487054C2.94423 0.800739 2.27924 1.25642 1.72169 1.82791C1.16414 2.3994 0.725012 3.07544 0.429548 3.81717C0.134084 4.55891 -0.0118946 5.35172 1.33726e-06 6.15005C1.33726e-06 7.74134 0.632142 9.26747 1.75736 10.3927C2.88258 11.5179 4.4087 12.15 6 12.15C7.46887 12.1909 8.89849 11.6726 10 10.7L15.3 16L16.04 15.26H16ZM6 11.13C5.34339 11.13 4.69321 11.0007 4.08658 10.7494C3.47996 10.4982 2.92876 10.1299 2.46447 9.66558C1.52679 8.7279 1 7.45613 1 6.13005C0.997272 4.79665 1.52097 3.51607 2.45725 2.56669C3.39352 1.6173 4.6667 1.07585 6 1.06005C6.65661 1.06005 7.30679 1.18937 7.91342 1.44065C8.52005 1.69192 9.07124 2.06022 9.53553 2.52451C9.99983 2.9888 10.3681 3.54 10.6194 4.14663C10.8707 4.75326 11 5.40344 11 6.06005C10.9975 7.39187 10.4722 8.66946 9.53699 9.61772C8.60182 10.566 7.33166 11.1091 6 11.13Z" fill="#0E0E0E"/>
</g>
<defs>
<clipPath id="clip0_7172_1150">
<rect width="16" height="16" fill="white"/>
</clipPath>
</defs>
</svg>
