<svg width="16" height="16" viewBox="0 0 16 16" fill="none" xmlns="http://www.w3.org/2000/svg">
<g id="dds2_redo" clip-path="url(#clip0_7172_1424)">
<path id="Vector" d="M1.1 10.59C1.11843 9.42211 1.59943 8.30923 2.43746 7.49557C3.27548 6.68192 4.40207 6.23396 5.57 6.25H13.93L9.31 10.74L10.08 11.5L16 5.75L10.08 0L9.31 0.75L13.87 5.18H5.57C4.11469 5.16128 2.71129 5.72016 1.66726 6.73421C0.623232 7.74825 0.0236958 9.13476 0 10.59C0.0236958 12.0452 0.623232 13.4318 1.66726 14.4458C2.71129 15.4598 4.11469 16.0187 5.57 16H13V14.94H5.57C4.99086 14.9479 4.41582 14.8417 3.87774 14.6274C3.33965 14.4131 2.84906 14.0948 2.43397 13.6909C2.01888 13.2869 1.68743 12.8052 1.45854 12.2731C1.22966 11.7411 1.10783 11.1691 1.1 10.59Z" fill="#0E0E0E"/>
</g>
<defs>
<clipPath id="clip0_7172_1424">
<rect width="16" height="16" fill="white"/>
</clipPath>
</defs>
</svg>
