<svg width="16" height="16" viewBox="0 0 16 16" fill="none" xmlns="http://www.w3.org/2000/svg">
<g clip-path="url(#clip0_7172_1374)">
<path d="M5.93 10.07H10.07V5.93H5.93V10.07ZM7 7H9V9H7V7Z" fill="#0E0E0E"/>
<path d="M2.62 9H4V10.4H2.62V9Z" fill="#0E0E0E"/>
<path d="M2.59 12.27H4V13.67H2.59V12.27Z" fill="#0E0E0E"/>
<path d="M5.73 12.27H7.13V13.67H5.73V12.27Z" fill="#0E0E0E"/>
<path d="M8.87 12.27H10.27V13.67H8.87V12.27Z" fill="#0E0E0E"/>
<path d="M12 12.27H13.4V13.67H12V12.27Z" fill="#0E0E0E"/>
<path d="M12 9H13.4V10.4H12V9Z" fill="#0E0E0E"/>
<path d="M2.59 5.67H4V7.07H2.59V5.67Z" fill="#0E0E0E"/>
<path d="M2.59 2.37H4V3.77H2.59V2.37Z" fill="#0E0E0E"/>
<path d="M5.73 2.37H7.13V3.77H5.73V2.37Z" fill="#0E0E0E"/>
<path d="M0 0V16H16V8.5L7.5 0H0ZM14.93 14.93H1.07V1.07H7.07L14.93 9V15V14.93Z" fill="#0E0E0E"/>
<path d="M8.81 0L16 7.19V0H8.81ZM14.93 4.61L11.39 1.07H14.93V4.61Z" fill="#0E0E0E"/>
</g>
<defs>
<clipPath id="clip0_7172_1374">
<rect width="16" height="16" fill="white"/>
</clipPath>
</defs>
</svg>
