<svg width="16" height="16" viewBox="0 0 16 16" fill="none" xmlns="http://www.w3.org/2000/svg">
<g id="dds2_hard-drive">
<g id="Vector">
<path d="M1.75 0V16H14.25V0H1.75ZM13.18 14.93H2.83V1.07H13.18V14.93Z" fill="#0E0E0E"/>
<path d="M9.46 7.58C9.46796 7.28967 9.38914 7.00356 9.23363 6.75826C9.07811 6.51296 8.85297 6.31962 8.58699 6.20296C8.32101 6.08629 8.02628 6.05161 7.74048 6.10335C7.45469 6.15508 7.19081 6.29089 6.98261 6.49339C6.7744 6.69589 6.63133 6.95588 6.57167 7.24013C6.51202 7.52438 6.5385 7.81997 6.64773 8.08908C6.75696 8.3582 6.94398 8.58863 7.18486 8.75089C7.42575 8.91316 7.70956 8.99989 8 9C8.38038 9.00014 8.74581 8.85182 9.01849 8.58661C9.29117 8.3214 9.44958 7.96024 9.46 7.58ZM7.61 7.58C7.60997 7.47562 7.65073 7.37537 7.7236 7.30063C7.79646 7.2259 7.89566 7.18261 8 7.18C8.10874 7.18 8.21302 7.2232 8.28991 7.30009C8.3668 7.37698 8.41 7.48126 8.41 7.59C8.41 7.69874 8.3668 7.80302 8.28991 7.87991C8.21302 7.9568 8.10874 8 8 8C7.94659 7.99873 7.89398 7.98678 7.84527 7.96484C7.79655 7.94291 7.75273 7.91144 7.71638 7.87229C7.68003 7.83314 7.65188 7.78711 7.63361 7.73691C7.61534 7.68671 7.60731 7.63336 7.61 7.58Z" fill="#0E0E0E"/>
<path d="M4.28 12.9C4.28494 13.184 4.39128 13.4568 4.57979 13.6692C4.7683 13.8816 5.02655 14.0196 5.30791 14.0582C5.58926 14.0969 5.87516 14.0336 6.11395 13.8799C6.35274 13.7262 6.52869 13.4921 6.61 13.22C6.6151 13.1601 6.6151 13.0999 6.61 13.04L7.13 9.52L4.61 12.08C4.3988 12.3008 4.28064 12.5944 4.28 12.9ZM5.18 12.64L6 11.81L5.84 12.93V13.01C5.81657 13.0875 5.76902 13.1555 5.70426 13.204C5.63951 13.2526 5.56094 13.2792 5.48 13.28C5.37828 13.28 5.28056 13.2403 5.2077 13.1693C5.13485 13.0983 5.09261 13.0017 5.09 12.9C5.0911 12.8042 5.12659 12.7119 5.19 12.64H5.18Z" fill="#0E0E0E"/>
<path d="M5.54 9.72C5.01872 9.12892 4.73074 8.36811 4.73 7.58C4.72802 6.93283 4.91812 6.29963 5.27623 5.76057C5.63433 5.22151 6.14434 4.80083 6.74168 4.55179C7.33902 4.30276 7.99682 4.23658 8.63179 4.36162C9.26677 4.48666 9.85036 4.79731 10.3087 5.25422C10.767 5.71114 11.0794 6.29378 11.2064 6.92837C11.3334 7.56296 11.2692 8.22096 11.022 8.81905C10.7748 9.41715 10.3557 9.92845 9.81775 10.2882C9.27979 10.648 8.64717 10.84 8 10.84V11.91C8.98889 11.9077 9.94718 11.5669 10.7156 10.9444C11.4839 10.3219 12.0161 9.45517 12.2235 8.48828C12.4309 7.52139 12.3011 6.51263 11.8557 5.62973C11.4103 4.74683 10.6761 4.04299 9.77523 3.63524C8.87432 3.22749 7.86098 3.14039 6.90371 3.38844C5.94643 3.63649 5.1029 4.20474 4.51338 4.99869C3.92386 5.79264 3.62386 6.76447 3.66327 7.75257C3.70268 8.74067 4.07912 9.68552 4.73 10.43L5.54 9.72Z" fill="#0E0E0E"/>
</g>
</g>
</svg>
