<svg width="16" height="16" viewBox="0 0 16 16" fill="none" xmlns="http://www.w3.org/2000/svg">
<g clip-path="url(#clip0_7172_564)">
<path d="M8 0C6.69545 0.00566506 5.41208 0.330275 4.26172 0.945544C3.11135 1.56081 2.12891 2.44807 1.4 3.53L1 1.65L0 1.85L0.73 5.51L4.38 4.78L4.17 3.78L2.3 4.11C3.23343 2.73776 4.62833 1.74607 6.23106 1.31526C7.83379 0.884444 9.53791 1.04311 11.0335 1.76241C12.5292 2.48171 13.717 3.71388 14.3811 5.23486C15.0451 6.75584 15.1413 8.46462 14.6521 10.0505C14.1629 11.6364 13.1208 12.994 11.7153 13.8766C10.3098 14.7591 8.63419 15.108 6.99325 14.8597C5.35231 14.6114 3.85496 13.7825 2.77346 12.5236C1.69197 11.2648 1.09816 9.65962 1.1 8H0C0 9.58225 0.469192 11.129 1.34824 12.4446C2.22729 13.7602 3.47672 14.7855 4.93853 15.391C6.40034 15.9965 8.00887 16.155 9.56072 15.8463C11.1126 15.5376 12.538 14.7757 13.6569 13.6569C14.7757 12.538 15.5376 11.1126 15.8463 9.56072C16.155 8.00887 15.9965 6.40034 15.391 4.93853C14.7855 3.47672 13.7602 2.22729 12.4446 1.34824C11.129 0.469192 9.58225 0 8 0Z" fill="#0E0E0E"/>
<path d="M10.84 8C10.84 7.44071 10.6743 6.89395 10.3637 6.42878C10.0532 5.96361 9.61182 5.60088 9.09529 5.38639C8.57876 5.1719 8.01025 5.11528 7.46156 5.22367C6.91287 5.33206 6.4086 5.6006 6.01242 5.99538C5.61624 6.39016 5.34593 6.89348 5.2356 7.44179C5.12528 7.9901 5.1799 8.5588 5.39256 9.07608C5.60522 9.59337 5.9664 10.036 6.43047 10.3482C6.89454 10.6604 7.44071 10.828 8 10.83C8.37248 10.8313 8.74156 10.7591 9.08607 10.6175C9.43057 10.4758 9.74373 10.2676 10.0076 10.0047C10.2714 9.74173 10.4808 9.42931 10.6236 9.08531C10.7665 8.7413 10.84 8.37248 10.84 8ZM6.26 8C6.26002 7.65106 6.36377 7.31 6.55806 7.02015C6.75235 6.7303 7.02841 6.50475 7.35118 6.37215C7.67394 6.23954 8.02884 6.20588 8.37078 6.27542C8.71272 6.34497 9.02627 6.51459 9.2716 6.76274C9.51692 7.01088 9.68295 7.32635 9.74859 7.66906C9.81422 8.01178 9.7765 8.36627 9.64022 8.6875C9.50394 9.00872 9.27524 9.28219 8.98319 9.47316C8.69114 9.66412 8.34892 9.76397 8 9.76C7.53751 9.75217 7.09646 9.5636 6.77126 9.23466C6.44606 8.90572 6.26255 8.46255 6.26 8Z" fill="#0E0E0E"/>
</g>
<defs>
<clipPath id="clip0_7172_564">
<rect width="16" height="16" fill="white"/>
</clipPath>
</defs>
</svg>
