<svg width="16" height="16" viewBox="0 0 16 16" fill="none" xmlns="http://www.w3.org/2000/svg">
<g id="dds2_alert-error" clip-path="url(#clip0_7172_264)">
<g id="Vector">
<path d="M7.5 10.5L7.5 3.5H8.5V10.5H7.5Z" fill="#0E0E0E"/>
<path d="M7.5 11.5V12.5H8.5V11.5H7.5Z" fill="#0E0E0E"/>
<path d="M0 8C0 3.58172 3.58172 0 8 0C12.4183 0 16 3.58172 16 8C16 12.4183 12.4183 16 8 16C3.58172 16 0 12.4183 0 8ZM8 1C4.13401 1 1 4.13401 1 8C1 11.866 4.13401 15 8 15C11.866 15 15 11.866 15 8C15 4.13401 11.866 1 8 1Z" fill="#0E0E0E"/>
</g>
</g>
<defs>
<clipPath id="clip0_7172_264">
<rect width="16" height="16" fill="white"/>
</clipPath>
</defs>
</svg>
